ply
format ascii 1.0
comment VCGLIB generated
element vertex 12
property float x
property float y
property float z
element face 20
property list uchar int vertex_indices
end_header
0.5 0 0 
0.25 -0.4330127 0 
-0.25 -0.4330127 0 
-0.5 0 0 
-0.25 0.4330127 0 
0.25 0.4330127 0 
0.5 0 1 
0.25 -0.4330127 1 
-0.25 -0.4330127 1 
-0.5 0 1 
-0.25 0.4330127 1 
0.25 0.4330127 1 
3 1 0 7
3 7 0 6
3 2 1 8
3 8 1 7
3 3 2 9
3 9 2 8
3 4 3 10
3 10 3 9
3 5 4 11
3 11 4 10
3 0 5 6
3 6 5 11
3 5 3 4
3 5 2 3
3 0 2 5
3 1 2 0
3 10 9 11
3 11 9 8
3 11 8 6
3 6 8 7
