ply
format ascii 1.0
comment VCGLIB generated
element vertex 10
property float x
property float y
property float z
element face 16
property list uchar int vertex_indices
end_header
-0.47552825 0.1545085 0 
-0.2938926 -0.4045085 0 
0.2938926 -0.4045085 0 
0.47552825 0.1545085 0 
0 0.5 0 
-0.47552825 0.1545085 1 
-0.2938926 -0.4045085 1 
0.2938926 -0.4045085 1 
0.47552825 0.1545085 1 
0 0.5 1
3 1 2 7
3 1 7 6
3 2 3 8
3 2 8 7
3 3 4 9
3 3 9 8
3 4 0 5
3 4 5 9
3 0 1 6
3 0 6 5
3 4 3 0
3 0 3 1
3 1 3 2
3 5 8 9
3 6 8 5
3 7 8 6
