ply
format ascii 1.0
comment VCGLIB generated
element vertex 8
property float x
property float y
property float z
element face 12
property list uchar int vertex_indices
end_header
-6.02989082 -5.78206508 -1.45873243
8.54141587 -4.60604787 -0.23372117
6.04442952 9.49748291 -2.70099534
-4.62625878 7.49368515 -4.23147362
-6.01344061 -6.91164309 13.91546614
6.59813958 -4.32602132 18.66062150
4.41450597 6.24237663 18.51683890
-6.80187307 3.56181530 18.93492108
3 0 1 5
3 0 5 4
3 1 2 6
3 1 6 5
3 2 3 7
3 2 7 6
3 3 0 4
3 3 4 7
3 2 1 0
3 2 0 3
3 6 4 5
3 6 7 4
