ply
format ascii 1.0
comment VCGLIB generated
element vertex 10
property float x
property float y
property float z
element face 16
property list uchar int vertex_indices
end_header
-27.28863961 4.51006968 2.36437535
-11.56790698 -9.19167596 -4.26564207
16.47236960 -18.64242312 -1.59425827
21.41208873 11.66416065 -1.11353507
-6.59362260 22.47063213 -1.46639014
-23.76367580 16.34658174 50.99515589
-11.96166369 -20.48095279 50.10387176
22.95050396 -15.31445430 41.41256499
24.76623561 1.78548485 45.05142935
-3.74052961 27.14405692 44.14853473
3 1 2 7
3 1 7 6
3 2 3 8
3 2 8 7
3 3 4 9
3 3 9 8
3 4 0 5
3 4 5 9
3 0 1 6
3 0 6 5
3 4 3 0
3 0 3 1
3 1 3 2
3 5 8 9
3 6 8 5
3 7 8 6
