ply
format ascii 1.0
comment VCGLIB generated
element vertex 8
property float x
property float y
property float z
element face 12
property list uchar int vertex_indices
end_header
-11.30904830 -19.40429780 0.91669621
22.39120873 -20.03010690 -0.47142132
16.85647319 23.39040689 -5.32846384
-26.06740975 20.82915482 -4.50441210
-21.93352953 -12.18900633 44.25571611
14.65173855 -18.92659464 55.76548769
10.73559929 11.81755777 59.74190805
-18.21154575 13.12385112 53.14581569
3 0 1 5
3 0 5 4
3 1 2 6
3 1 6 5
3 2 3 7
3 2 7 6
3 3 0 4
3 3 4 7
3 2 1 0
3 2 0 3
3 6 4 5
3 6 7 4
