ply
format ascii 1.0
comment VCGLIB generated
element vertex 10
property float x
property float y
property float z
element face 16
property list uchar int vertex_indices
end_header
-17.68636907 1.93405177 3.22879154
-10.30184986 -19.17876294 -1.13102434
9.20179614 -10.86565498 3.25594411
15.04170015 3.02820371 -1.61966071
5.12735011 18.74167700 -3.21900868
-12.45760052 4.66161429 36.74082020
-12.43122208 -13.72644046 35.03164705
10.04805360 -7.97596420 34.39845363
15.67414977 1.19495628 34.31171582
-1.29376690 20.07061163 28.74124931
3 1 2 7
3 1 7 6
3 2 3 8
3 2 8 7
3 3 4 9
3 3 9 8
3 4 0 5
3 4 5 9
3 0 1 6
3 0 6 5
3 4 3 0
3 0 3 1
3 1 3 2
3 5 8 9
3 6 8 5
3 7 8 6
