ply
format ascii 1.0
comment VCGLIB generated
element vertex 8
property float x
property float y
property float z
element face 12
property list uchar int vertex_indices
end_header
-3.87470690 -6.05379552 0.83863953
3.55948565 -6.18096784 0.72427042
3.23960962 1.35242315 -0.23008142
-3.50554486 3.85260514 2.31054646
-3.01035870 -3.27936698 9.30098429
3.11119486 -4.31537513 10.22057225
3.21919893 4.93392761 7.50766715
-2.85551938 3.58032481 10.03680277
3 0 1 5
3 0 5 4
3 1 2 6
3 1 6 5
3 2 3 7
3 2 7 6
3 3 0 4
3 3 4 7
3 2 1 0
3 2 0 3
3 6 4 5
3 6 7 4
