ply
format ascii 1.0
comment VCGLIB generated
element vertex 10
property float x
property float y
property float z
element face 16
property list uchar int vertex_indices
end_header
-6.54760325 0.62039212 -2.61320662
-3.84191046 -4.27722438 -5.46426395
3.57397756 -5.73253141 0.96620921
6.76158932 1.91800551 -0.49371014
0.44968922 8.07067286 -1.05758141
-5.24080701 3.47948150 15.07771151
-3.45559636 -7.05778576 10.46391178
3.06530642 -5.41696564 13.69843090
5.01451466 3.65521737 13.43332656
1.49609917 6.44487902 14.30369486
3 1 2 7
3 1 7 6
3 2 3 8
3 2 8 7
3 3 4 9
3 3 9 8
3 4 0 5
3 4 5 9
3 0 1 6
3 0 6 5
3 4 3 0
3 0 3 1
3 1 3 2
3 5 8 9
3 6 8 5
3 7 8 6
