ply
format ascii 1.0
comment VCGLIB generated
element vertex 10
property float x
property float y
property float z
element face 16
property list uchar int vertex_indices
end_header
-15.99511979 7.96094283 6.88895365
-17.64664009 -24.57219064 -9.55364439
12.47740145 -26.89445358 -3.63927023
26.23956357 21.03672948 0.32895211
-7.84614205 33.43007538 2.32024745
-26.64687171 13.84498866 60.60520882
-15.22384683 -6.29080411 68.40505018
15.82276924 -27.99233095 53.10560493
29.75216049 2.08011372 59.08311835
-3.01938738 32.58593242 62.72918954
3 1 2 7
3 1 7 6
3 2 3 8
3 2 8 7
3 3 4 9
3 3 9 8
3 4 0 5
3 4 5 9
3 0 1 6
3 0 6 5
3 4 3 0
3 0 3 1
3 1 3 2
3 5 8 9
3 6 8 5
3 7 8 6
