ply
format ascii 1.0
comment VCGLIB generated
element vertex 8
property float x
property float y
property float z
element face 12
property list uchar int vertex_indices
end_header
-12.11106033 -13.51006133 -0.02903912
6.79953623 -21.97403222 -0.86551547
10.91796539 21.90529651 2.85440901
-23.17994991 22.06541918 -2.26617788
-19.64147863 -19.70031617 51.23210024
18.51331995 -13.74333076 53.06802778
24.51754563 16.29082891 50.19426571
-17.61531320 9.42514616 45.93531262
3 0 1 5
3 0 5 4
3 1 2 6
3 1 6 5
3 2 3 7
3 2 7 6
3 3 0 4
3 3 4 7
3 2 1 0
3 2 0 3
3 6 4 5
3 6 7 4
