ply
format ascii 1.0
comment VCGLIB generated
element vertex 12
property float x
property float y
property float z
element face 20
property list uchar int vertex_indices
end_header
20.45714848 -0.11168366 1.53446947
6.30072585 -13.29796106 -0.61338854
-7.10501689 -22.35525618 -2.45203116
-13.81000360 -2.95806609 0.40080620
-12.99906751 11.71400587 1.45056044
2.92851270 15.79582489 -7.46198148
18.60211632 -2.52586859 32.08270455
10.14264438 -12.24020899 29.36272330
-10.14041032 -15.71758623 29.13820070
-10.04083260 -0.62205705 31.33893911
-7.06356027 13.10885143 34.87386419
10.52149292 13.31601199 29.81742331
3 1 0 7
3 7 0 6
3 2 1 8
3 8 1 7
3 3 2 9
3 9 2 8
3 4 3 10
3 10 3 9
3 5 4 11
3 11 4 10
3 0 5 6
3 6 5 11
3 5 3 4
3 5 2 3
3 0 2 5
3 1 2 0
3 10 9 11
3 11 9 8
3 11 8 6
3 6 8 7
