ply
format ascii 1.0
comment VCGLIB generated
element vertex 8
property float x
property float y
property float z
element face 12
property list uchar int vertex_indices
end_header
-10.84099628 -17.12259759 6.97764334
17.82582076 -11.79640568 -1.76707404
21.38392070 18.99563758 2.40151884
-14.94403389 18.19719651 7.29543009
-23.74523137 -17.81056874 63.32568289
27.95877832 -12.38230864 53.54721347
21.27586732 13.36060335 55.32528101
-14.46215097 15.65344124 52.02218736
3 0 1 5
3 0 5 4
3 1 2 6
3 1 6 5
3 2 3 7
3 2 7 6
3 3 0 4
3 3 4 7
3 2 1 0
3 2 0 3
3 6 4 5
3 6 7 4
