ply
format ascii 1.0
comment VCGLIB generated
element vertex 10
property float x
property float y
property float z
element face 16
property list uchar int vertex_indices
end_header
-13.30234485 2.75771331 -4.15233670
-10.16807405 -12.63864899 0.15051137
9.02682064 -14.23093446 -1.76255416
11.09210332 4.58683730 -2.17444179
-1.83697303 9.36997329 2.56744179
-13.33273696 8.17900526 25.10151901
-9.57982455 -15.61132032 26.05482323
7.58665310 -7.54475322 28.56029476
14.81277741 11.27494035 28.77211444
0.47354177 11.50516265 29.87832708
3 1 2 7
3 1 7 6
3 2 3 8
3 2 8 7
3 3 4 9
3 3 9 8
3 4 0 5
3 4 5 9
3 0 1 6
3 0 6 5
3 4 3 0
3 0 3 1
3 1 3 2
3 5 8 9
3 6 8 5
3 7 8 6
