ply
format ascii 1.0
comment VCGLIB generated
element vertex 10
property float x
property float y
property float z
element face 16
property list uchar int vertex_indices
end_header
-7.86311188 5.55775965 -4.06886632
-5.38181865 -10.52811109 -1.10581755
9.10300517 -9.43344038 0.97569226
5.42196148 1.30452871 0.40936011
0.02183804 7.53939433 0.79106125
-12.41711019 5.04301777 20.82490523
-10.19071507 -8.04863947 24.29710940
12.44271266 -6.59398532 20.69300556
10.26298160 3.68952882 20.51356533
3.62048968 13.21147483 23.34855647
3 1 2 7
3 1 7 6
3 2 3 8
3 2 8 7
3 3 4 9
3 3 9 8
3 4 0 5
3 4 5 9
3 0 1 6
3 0 6 5
3 4 3 0
3 0 3 1
3 1 3 2
3 5 8 9
3 6 8 5
3 7 8 6
