ply
format ascii 1.0
comment VCGLIB generated
element vertex 8
property float x
property float y
property float z
element face 12
property list uchar int vertex_indices
end_header
-2.15121259 -4.18107229 -1.14656133
1.53568335 -4.57235066 -0.50297158
6.29963739 2.58316078 0.40645354
-2.92033372 3.77963886 -0.00790446
-4.46311150 -2.31616944 12.16109795
4.87275636 -4.62257837 12.54955364
3.00277166 4.42484174 13.65934205
-2.53453151 5.79092465 16.01377927
3 0 1 5
3 0 5 4
3 1 2 6
3 1 6 5
3 2 3 7
3 2 7 6
3 3 0 4
3 3 4 7
3 2 1 0
3 2 0 3
3 6 4 5
3 6 7 4
