ply
format ascii 1.0
comment VCGLIB generated
element vertex 12
property float x
property float y
property float z
element face 20
property list uchar int vertex_indices
end_header
31.23190984 -5.75082042 1.37438629
16.26585294 -11.66878191 -0.25587405
-7.07022935 -20.76208005 1.73598306
-26.09683128 -4.30457167 -0.13586099
-10.95389425 17.17882025 6.99149287
7.02910757 21.21556622 3.94597673
20.09928182 2.24286985 49.66956070
5.85160103 -14.66393884 43.42413967
-12.84032872 -28.13306029 44.48927241
-25.66676881 -3.83590273 45.55021094
-3.01565810 26.29390470 35.05578129
18.22627466 19.95535294 47.68162190
3 1 0 7
3 7 0 6
3 2 1 8
3 8 1 7
3 3 2 9
3 9 2 8
3 4 3 10
3 10 3 9
3 5 4 11
3 11 4 10
3 0 5 6
3 6 5 11
3 5 3 4
3 5 2 3
3 0 2 5
3 1 2 0
3 10 9 11
3 11 9 8
3 11 8 6
3 6 8 7
