ply
format ascii 1.0
comment VCGLIB generated
element vertex 8
property float x
property float y
property float z
element face 12
property list uchar int vertex_indices
end_header
-20.18157266 -21.55595935 1.19645920
18.92251880 -33.12105507 3.31356967
7.91980725 16.13321971 -3.75171084
-23.11304829 26.46750644 6.70516793
-26.08106982 -16.17831539 56.15404649
24.45602946 -21.46513762 47.95813848
27.50131541 23.06796052 62.45638310
-26.68708752 11.07253539 60.69541470
3 0 1 5
3 0 5 4
3 1 2 6
3 1 6 5
3 2 3 7
3 2 7 6
3 3 0 4
3 3 4 7
3 2 1 0
3 2 0 3
3 6 4 5
3 6 7 4
