ply
format ascii 1.0
comment VCGLIB generated
element vertex 10
property float x
property float y
property float z
element face 16
property list uchar int vertex_indices
end_header
-3.30039077 0.60371379 -0.30065441
-2.20422001 -3.00262517 0.39679581
3.35729432 -3.16997754 0.25107407
2.91157731 0.68967394 0.42509976
0.19781791 3.55027181 0.61700243
-1.98703736 2.26042942 6.99682131
-1.67602002 -2.84194604 7.07855924
2.37129431 -1.60424952 6.32683895
2.43505864 0.35491508 6.00071642
-1.03417123 3.88116055 5.57217714
3 1 2 7
3 1 7 6
3 2 3 8
3 2 8 7
3 3 4 9
3 3 9 8
3 4 0 5
3 4 5 9
3 0 1 6
3 0 6 5
3 4 3 0
3 0 3 1
3 1 3 2
3 5 8 9
3 6 8 5
3 7 8 6
