ply
format ascii 1.0
comment VCGLIB generated
element vertex 12
property float x
property float y
property float z
element face 20
property list uchar int vertex_indices
end_header
3.84591165 1.05241382 0.33071300
1.22590747 -2.19899121 0.70011730
-1.20280678 -2.83116586 -0.00572075
-3.37579835 0.71088902 -0.05211274
-0.79047453 2.33094268 0.67729356
1.33145681 2.45915203 0.81140052
3.94392674 -0.63806031 7.28033857
1.63935341 -3.23789058 6.71470045
-1.45097928 -3.31411029 6.50595871
-3.34957082 -0.60022685 6.64698415
-0.78029613 2.99895442 6.90928668
2.59208643 2.95553271 7.34901904
3 1 0 7
3 7 0 6
3 2 1 8
3 8 1 7
3 3 2 9
3 9 2 8
3 4 3 10
3 10 3 9
3 5 4 11
3 11 4 10
3 0 5 6
3 6 5 11
3 5 3 4
3 5 2 3
3 0 2 5
3 1 2 0
3 10 9 11
3 11 9 8
3 11 8 6
3 6 8 7
