ply
format ascii 1.0
comment VCGLIB generated
element vertex 8
property float x
property float y
property float z
element face 12
property list uchar int vertex_indices
end_header
-2.41723678 -1.73224806 -0.18676417
3.28074850 -3.34456543 -1.48073870
2.70641751 3.61610911 0.17905569
-2.63920447 2.58495891 -0.36877489
-3.02614767 -3.52299655 8.42518941
2.72643788 -3.01793273 8.89164997
2.65681935 3.91399741 8.33538838
-2.13619673 2.92427899 7.80669020
3 0 1 5
3 0 5 4
3 1 2 6
3 1 6 5
3 2 3 7
3 2 7 6
3 3 0 4
3 3 4 7
3 2 1 0
3 2 0 3
3 6 4 5
3 6 7 4
