ply
format ascii 1.0
comment VCGLIB generated
element vertex 12
property float x
property float y
property float z
element face 20
property list uchar int vertex_indices
end_header
18.04781726 7.02436576 2.99876864
18.11764435 -15.91703188 -1.35681250
-12.24991980 -26.81054653 -8.73808834
-27.61306321 -1.38099922 6.15066974
-7.52465075 14.30926429 -4.09137589
8.36083558 25.57376470 -8.01212638
29.65556661 1.09112566 46.12112439
12.09544323 -19.79109305 58.15440062
-20.86621006 -27.69439718 53.77754879
-31.54997896 -4.78725167 52.87708618
-17.22483915 35.57396150 58.48573104
18.86884979 19.50334053 59.61428532
3 1 0 7
3 7 0 6
3 2 1 8
3 8 1 7
3 3 2 9
3 9 2 8
3 4 3 10
3 10 3 9
3 5 4 11
3 11 4 10
3 0 5 6
3 6 5 11
3 5 3 4
3 5 2 3
3 0 2 5
3 1 2 0
3 10 9 11
3 11 9 8
3 11 8 6
3 6 8 7
