ply
format ascii 1.0
comment VCGLIB generated
element vertex 12
property float x
property float y
property float z
element face 20
property list uchar int vertex_indices
end_header
8.31317872 -1.85828689 0.60806076
4.13283575 -5.66213975 1.97978746
0.09663878 -6.81772985 -2.19116684
-4.37455037 -1.06562518 -0.92386571
-3.18567222 8.64672854 1.84225751
2.66209795 6.19062675 -0.57618021
4.85978523 1.53077675 15.13390007
3.71906895 -5.41392307 13.95386687
-5.32087695 -6.05576167 12.22899043
-5.82114078 -0.75377760 12.23633288
-2.34100310 4.83843079 14.44024607
2.96011123 4.41827186 14.69687916
3 1 0 7
3 7 0 6
3 2 1 8
3 8 1 7
3 3 2 9
3 9 2 8
3 4 3 10
3 10 3 9
3 5 4 11
3 11 4 10
3 0 5 6
3 6 5 11
3 5 3 4
3 5 2 3
3 0 2 5
3 1 2 0
3 10 9 11
3 11 9 8
3 11 8 6
3 6 8 7
