ply
format ascii 1.0
comment VCGLIB generated
element vertex 8
property float x
property float y
property float z
element face 12
property list uchar int vertex_indices
end_header
-14.58956798 -10.68671417 1.71942437
25.24171962 -10.49293837 1.71382399
13.08676652 13.27972925 -4.22776490
-13.73522632 11.61749685 0.30709105
-9.62490596 -10.64528650 39.79196818
15.84110624 -15.44842973 38.67533631
17.07838686 10.36319679 36.38240329
-19.21596290 6.73221484 38.17993284
3 0 1 5
3 0 5 4
3 1 2 6
3 1 6 5
3 2 3 7
3 2 7 6
3 3 0 4
3 3 4 7
3 2 1 0
3 2 0 3
3 6 4 5
3 6 7 4
