ply
format ascii 1.0
comment VCGLIB generated
element vertex 8
property float x
property float y
property float z
element face 12
property list uchar int vertex_indices
end_header
-5.51578348 -9.99044375 -0.74187640
9.90379841 -7.34650433 -1.45865927
7.39665422 10.94460187 -0.36472807
-10.35593366 12.79672270 0.32227873
-12.19401616 -7.06701991 24.48832304
10.35096604 -2.52338619 31.37315582
9.60178435 8.30713431 25.43033607
-9.44563841 10.18457262 28.60012514
3 0 1 5
3 0 5 4
3 1 2 6
3 1 6 5
3 2 3 7
3 2 7 6
3 3 0 4
3 3 4 7
3 2 1 0
3 2 0 3
3 6 4 5
3 6 7 4
