ply
format ascii 1.0
comment VCGLIB generated
element vertex 12
property float x
property float y
property float z
element face 20
property list uchar int vertex_indices
end_header
25.74629879 3.47053209 -2.48833600
6.99746985 -14.84048226 2.43701295
-12.79848716 -17.02481574 -6.79202676
-32.52826484 -4.34248369 0.54901405
-7.81190437 21.27454716 -3.11782353
16.21066217 19.05858610 -5.67774883
21.86852930 -8.45096505 51.98928350
12.96090358 -29.25964627 60.21652452
-9.41076401 -23.82334861 53.30596097
-28.92120572 1.00585971 52.25499891
-11.22977645 34.06503555 58.92791212
9.77663367 21.74653359 41.87877052
3 1 0 7
3 7 0 6
3 2 1 8
3 8 1 7
3 3 2 9
3 9 2 8
3 4 3 10
3 10 3 9
3 5 4 11
3 11 4 10
3 0 5 6
3 6 5 11
3 5 3 4
3 5 2 3
3 0 2 5
3 1 2 0
3 10 9 11
3 11 9 8
3 11 8 6
3 6 8 7
