ply
format ascii 1.0
comment VCGLIB generated
element vertex 8
property float x
property float y
property float z
element face 12
property list uchar int vertex_indices
end_header
-11.17614610 -14.99779733 -3.23091412
13.84246067 -9.79164378 -0.51788112
12.83044839 17.97867554 0.22328325
-5.00567262 11.85662518 -1.48763215
-15.59541893 -14.44997048 35.82581393
8.89302558 -14.01499608 34.15038874
14.14264771 14.96493047 36.10593473
-14.35691080 9.24027925 33.12088945
3 0 1 5
3 0 5 4
3 1 2 6
3 1 6 5
3 2 3 7
3 2 7 6
3 3 0 4
3 3 4 7
3 2 1 0
3 2 0 3
3 6 4 5
3 6 7 4
