ply
format ascii 1.0
comment VCGLIB generated
element vertex 12
property float x
property float y
property float z
element face 20
property list uchar int vertex_indices
end_header
16.61139693 1.34716506 -2.59037767
14.28994141 -13.06143100 0.14182973
-7.01711183 -12.48820478 3.09434705
-24.48523543 7.76193328 -8.99898876
-5.57018627 12.29550841 -2.60564565
5.28611848 7.05265426 1.62732866
17.43015307 -3.82816051 34.31679892
2.04276609 -12.47324812 31.06066992
-7.23250672 -15.01832550 29.88022923
-14.66067129 -1.44716815 30.20160466
-1.32645190 15.20345664 26.96591771
13.10914758 17.62795631 32.89243537
3 1 0 7
3 7 0 6
3 2 1 8
3 8 1 7
3 3 2 9
3 9 2 8
3 4 3 10
3 10 3 9
3 5 4 11
3 11 4 10
3 0 5 6
3 6 5 11
3 5 3 4
3 5 2 3
3 0 2 5
3 1 2 0
3 10 9 11
3 11 9 8
3 11 8 6
3 6 8 7
