ply
format ascii 1.0
comment VCGLIB generated
element vertex 8
property float x
property float y
property float z
element face 12
property list uchar int vertex_indices
end_header
-10.81764403 -8.01832159 2.01816547
9.63513315 -15.14797818 -4.34944105
8.66856823 7.99457369 0.83619590
-10.17498832 6.19452278 -2.19130591
-10.05106839 -8.93873079 26.76182116
10.70102215 -7.51086547 30.68424482
9.90999695 7.66386078 28.78755363
-11.93503172 8.62033241 25.19243403
3 0 1 5
3 0 5 4
3 1 2 6
3 1 6 5
3 2 3 7
3 2 7 6
3 3 0 4
3 3 4 7
3 2 1 0
3 2 0 3
3 6 4 5
3 6 7 4
