ply
format ascii 1.0
comment VCGLIB generated
element vertex 10
property float x
property float y
property float z
element face 16
property list uchar int vertex_indices
end_header
-9.89238556 1.89502471 4.44535675
-11.11773250 -12.59391468 -0.97692150
4.95467709 -14.71982454 -4.29650514
16.76680222 -0.74744239 -3.59900035
1.42217426 7.58417177 -2.06235011
-14.87909442 3.50908622 25.60193584
-10.38241473 -10.26532886 27.66158472
12.48456420 -8.09570362 27.50732088
9.29068307 5.42599531 26.11093958
-4.62395989 15.71425805 31.23838880
3 1 2 7
3 1 7 6
3 2 3 8
3 2 8 7
3 3 4 9
3 3 9 8
3 4 0 5
3 4 5 9
3 0 1 6
3 0 6 5
3 4 3 0
3 0 3 1
3 1 3 2
3 5 8 9
3 6 8 5
3 7 8 6
