ply
format ascii 1.0
comment VCGLIB generated
element vertex 12
property float x
property float y
property float z
element face 20
property list uchar int vertex_indices
end_header
7.90570028 0.58688417 -1.31702675
1.95413851 -5.48974879 1.89557284
-4.50266331 -5.56766230 1.65475282
-6.05081337 0.72281214 -1.20649771
-3.94367801 4.50348675 -0.67122389
5.38919738 6.00891002 -0.99216481
7.13957071 -2.57756713 13.55882854
6.31063066 -7.92849523 14.60964567
-6.10656985 -5.98630505 16.58238478
-8.22997982 -0.90102696 19.22190562
-5.74403674 10.73274818 15.43297634
4.21345869 9.43176448 17.23059613
3 1 0 7
3 7 0 6
3 2 1 8
3 8 1 7
3 3 2 9
3 9 2 8
3 4 3 10
3 10 3 9
3 5 4 11
3 11 4 10
3 0 5 6
3 6 5 11
3 5 3 4
3 5 2 3
3 0 2 5
3 1 2 0
3 10 9 11
3 11 9 8
3 11 8 6
3 6 8 7
