ply
format ascii 1.0
comment VCGLIB generated
element vertex 10
property float x
property float y
property float z
element face 16
property list uchar int vertex_indices
end_header
-3.62558045 2.09752622 -1.25510353
-2.33835136 -2.86809732 0.06012847
2.41485007 -3.26025783 -1.33246552
4.67057124 1.56574605 1.92290488
-0.59406982 3.66762348 -0.10348429
-3.23361675 2.07632510 8.69533968
-1.38954084 -3.46419501 7.12460720
1.62789618 -2.13365744 8.59238884
2.36218449 1.67768994 8.29923796
0.11590542 3.40267218 9.37603837
3 1 2 7
3 1 7 6
3 2 3 8
3 2 8 7
3 3 4 9
3 3 9 8
3 4 0 5
3 4 5 9
3 0 1 6
3 0 6 5
3 4 3 0
3 0 3 1
3 1 3 2
3 5 8 9
3 6 8 5
3 7 8 6
