ply
format ascii 1.0
comment VCGLIB generated
element vertex 10
property float x
property float y
property float z
element face 16
property list uchar int vertex_indices
end_header
-14.29039316 4.49266319 2.36979487
-10.04182685 -9.84113937 0.69398426
6.97085373 -9.61295195 -2.09227879
17.22236132 -0.60633544 0.77926398
-3.35913949 9.46699108 2.17663599
-13.29172550 2.14184629 26.80820644
-8.18588853 -9.75440469 22.81830619
6.64908646 -10.76919672 27.07225232
17.70569019 5.45908950 28.21069029
0.65633066 10.75503915 27.10371422
3 1 2 7
3 1 7 6
3 2 3 8
3 2 8 7
3 3 4 9
3 3 9 8
3 4 0 5
3 4 5 9
3 0 1 6
3 0 6 5
3 4 3 0
3 0 3 1
3 1 3 2
3 5 8 9
3 6 8 5
3 7 8 6
