ply
format ascii 1.0
comment VCGLIB generated
element vertex 8
property float x
property float y
property float z
element face 12
property list uchar int vertex_indices
end_header
-6.59048025 -4.91323568 0.47259683
7.48326556 -7.63427573 -2.00311264
5.78866014 6.87735996 0.62462293
-5.68564584 8.00962758 -0.27503602
-7.41801432 -6.11696774 20.99628388
9.10315544 -7.64836805 19.74727060
6.58544506 3.79157657 17.02141689
-4.52813668 7.45903971 19.73803102
3 0 1 5
3 0 5 4
3 1 2 6
3 1 6 5
3 2 3 7
3 2 7 6
3 3 0 4
3 3 4 7
3 2 1 0
3 2 0 3
3 6 4 5
3 6 7 4
