ply
format ascii 1.0
comment VCGLIB generated
element vertex 12
property float x
property float y
property float z
element face 20
property list uchar int vertex_indices
end_header
27.80764812 1.50885411 4.09977981
14.59958605 -18.93703249 -6.83339019
-21.02519125 -21.53753123 0.46413654
-30.11424113 6.35820136 -2.83014043
-11.72987996 15.50456432 5.21599530
16.86020138 18.10050199 -7.28674420
31.07065838 -5.76625645 46.67251257
19.25039446 -21.80987782 52.42981449
-13.50736853 -26.79828754 54.19370146
-26.22424908 0.93197722 45.28445470
-16.03244998 27.05104724 62.46638407
20.50239515 25.91659486 51.82210134
3 1 0 7
3 7 0 6
3 2 1 8
3 8 1 7
3 3 2 9
3 9 2 8
3 4 3 10
3 10 3 9
3 5 4 11
3 11 4 10
3 0 5 6
3 6 5 11
3 5 3 4
3 5 2 3
3 0 2 5
3 1 2 0
3 10 9 11
3 11 9 8
3 11 8 6
3 6 8 7
