ply
format ascii 1.0
comment VCGLIB generated
element vertex 10
property float x
property float y
property float z
element face 16
property list uchar int vertex_indices
end_header
-14.27993337 3.28651460 -0.68393269
-6.45646326 -10.81202128 -2.02999070
3.72126990 -11.73546573 0.32627169
19.84808011 5.34389703 -0.34947713
-0.90265748 12.85177247 1.00449803
-11.11011131 2.42327992 34.46824040
-14.88298362 -14.17975110 28.72094971
6.63823186 -9.23069051 27.26479817
19.43707103 2.40810447 34.50012089
-2.89003697 15.11496723 30.13453564
3 1 2 7
3 1 7 6
3 2 3 8
3 2 8 7
3 3 4 9
3 3 9 8
3 4 0 5
3 4 5 9
3 0 1 6
3 0 6 5
3 4 3 0
3 0 3 1
3 1 3 2
3 5 8 9
3 6 8 5
3 7 8 6
