ply
format ascii 1.0
comment VCGLIB generated
element vertex 12
property float x
property float y
property float z
element face 20
property list uchar int vertex_indices
end_header
5.82763241 -0.15333723 -1.03121597
5.39138710 -7.43947077 1.05584275
-2.54458392 -6.14812588 -2.14474426
-11.50436503 -1.90651183 -0.09730589
-5.55383152 4.84989502 -0.67228009
4.65457794 5.51713280 -4.32065872
12.18551244 1.22584202 17.93013817
7.18070977 -10.35594134 16.24487379
-6.08336047 -9.65669796 17.03469277
-7.77785763 1.18850644 20.72676777
-5.18217930 8.73808926 18.50406313
5.06529075 9.98758711 18.72698375
3 1 0 7
3 7 0 6
3 2 1 8
3 8 1 7
3 3 2 9
3 9 2 8
3 4 3 10
3 10 3 9
3 5 4 11
3 11 4 10
3 0 5 6
3 6 5 11
3 5 3 4
3 5 2 3
3 0 2 5
3 1 2 0
3 10 9 11
3 11 9 8
3 11 8 6
3 6 8 7
