ply
format ascii 1.0
comment VCGLIB generated
element vertex 12
property float x
property float y
property float z
element face 20
property list uchar int vertex_indices
end_header
4.17510798 -0.32937598 0.27703829
1.25989868 -3.33071275 -0.33908564
-1.42608050 -1.68298566 0.16888148
-4.04173086 -0.33037698 0.60948930
-1.66969175 2.48881179 0.10924343
1.34689194 2.53431242 0.31514681
3.27170984 0.02200051 5.71988080
2.73522108 -2.84692909 5.74508168
-1.01769167 -3.98841769 6.22908230
-4.20237552 0.57927457 7.48653791
-2.44878185 2.78833787 6.77992279
1.41273532 4.25562344 6.18381502
3 1 0 7
3 7 0 6
3 2 1 8
3 8 1 7
3 3 2 9
3 9 2 8
3 4 3 10
3 10 3 9
3 5 4 11
3 11 4 10
3 0 5 6
3 6 5 11
3 5 3 4
3 5 2 3
3 0 2 5
3 1 2 0
3 10 9 11
3 11 9 8
3 11 8 6
3 6 8 7
