ply
format ascii 1.0
comment VCGLIB generated
element vertex 10
property float x
property float y
property float z
element face 16
property list uchar int vertex_indices
end_header
-8.53806578 3.95195617 1.48769744
-5.74735701 -6.75457688 2.96542301
6.53973994 -3.99988513 -2.34286274
6.78148798 3.97260733 2.87382754
-2.63288705 9.54259739 2.56143019
-6.63685973 0.55662322 15.65470935
-3.18966148 -7.66136842 17.66315826
5.05001827 -8.25208504 17.22768940
7.79584296 1.31089019 14.75405046
-2.28438433 10.14243391 17.57288892
3 1 2 7
3 1 7 6
3 2 3 8
3 2 8 7
3 3 4 9
3 3 9 8
3 4 0 5
3 4 5 9
3 0 1 6
3 0 6 5
3 4 3 0
3 0 3 1
3 1 3 2
3 5 8 9
3 6 8 5
3 7 8 6
