ply
format ascii 1.0
comment VCGLIB generated
element vertex 10
property float x
property float y
property float z
element face 16
property list uchar int vertex_indices
end_header
-18.46481006 6.90603879 9.35625040
-15.21914650 -15.88502986 -4.88436823
9.02444225 -27.42148026 0.00271248
23.86197420 11.52963873 -0.26487227
-2.16991064 24.79488714 7.20020678
-20.91054177 6.32463921 46.38940445
-17.05125801 -29.44349838 46.93642228
14.45375551 -16.28160826 47.56936307
20.59067983 0.93029066 50.21611487
7.95040002 29.90022290 54.54456905
3 1 2 7
3 1 7 6
3 2 3 8
3 2 8 7
3 3 4 9
3 3 9 8
3 4 0 5
3 4 5 9
3 0 1 6
3 0 6 5
3 4 3 0
3 0 3 1
3 1 3 2
3 5 8 9
3 6 8 5
3 7 8 6
