ply
format ascii 1.0
comment VCGLIB generated
element vertex 10
property float x
property float y
property float z
element face 16
property list uchar int vertex_indices
end_header
-16.96231350 2.38076703 -8.48194379
-2.09705083 -16.83251263 3.47847820
11.95038132 -16.11201194 6.89386527
21.11810036 6.02954742 -5.43405887
3.85772600 22.85401117 -5.99400686
-15.25989764 7.29456896 34.73921561
-15.41799319 -15.35638960 44.10650389
7.23857032 -16.84876015 34.46902862
16.47257496 7.49547787 31.18717669
2.82918270 17.33815717 41.48816015
3 1 2 7
3 1 7 6
3 2 3 8
3 2 8 7
3 3 4 9
3 3 9 8
3 4 0 5
3 4 5 9
3 0 1 6
3 0 6 5
3 4 3 0
3 0 3 1
3 1 3 2
3 5 8 9
3 6 8 5
3 7 8 6
