ply
format ascii 1.0
comment VCGLIB generated
element vertex 10
property float x
property float y
property float z
element face 16
property list uchar int vertex_indices
end_header
-15.06064605 5.87306264 0.64930512
-15.65449872 -21.46867409 3.89793214
14.26184987 -8.81290461 3.51913132
21.73104889 7.34427538 4.76069393
-0.62782885 18.10156006 7.24655649
-19.44682998 9.39774886 35.08654951
-7.58388334 -8.51672876 34.93125432
13.15705035 -12.06925337 32.34483169
15.82700512 0.53413577 34.16681554
3.41855140 17.42532823 36.49705742
3 1 2 7
3 1 7 6
3 2 3 8
3 2 8 7
3 3 4 9
3 3 9 8
3 4 0 5
3 4 5 9
3 0 1 6
3 0 6 5
3 4 3 0
3 0 3 1
3 1 3 2
3 5 8 9
3 6 8 5
3 7 8 6
