ply
format ascii 1.0
comment VCGLIB generated
element vertex 12
property float x
property float y
property float z
element face 20
property list uchar int vertex_indices
end_header
4.39732623 1.63786125 0.15183782
2.04241865 -3.60793993 -0.46767988
-0.97112867 -3.21320808 -1.81208375
-5.67699161 -0.23868138 -0.11053946
-2.38779947 2.87215325 -2.51839651
1.55864835 4.44675593 0.26923931
4.24006601 0.03668637 7.48967699
1.92199532 -4.17594774 7.72652304
-2.95305073 -1.95996854 8.14318067
-3.65425070 0.58511655 8.11169851
-0.38917711 3.84950497 7.95082033
1.68994664 4.05695668 8.59778174
3 1 0 7
3 7 0 6
3 2 1 8
3 8 1 7
3 3 2 9
3 9 2 8
3 4 3 10
3 10 3 9
3 5 4 11
3 11 4 10
3 0 5 6
3 6 5 11
3 5 3 4
3 5 2 3
3 0 2 5
3 1 2 0
3 10 9 11
3 11 9 8
3 11 8 6
3 6 8 7
