ply
format ascii 1.0
comment VCGLIB generated
element vertex 12
property float x
property float y
property float z
element face 20
property list uchar int vertex_indices
end_header
5.04851040 0.49491257 1.17097275
2.91467994 -6.49976602 0.30982843
-3.27037398 -4.58827855 1.35595534
-5.17835755 0.57121222 0.08298938
-4.74084502 7.24240260 -3.23414565
2.00559517 3.96479278 0.45820757
6.40122001 -2.62931668 10.89054094
1.52866324 -4.06572752 13.91689545
-2.26212517 -6.39713312 12.10389026
-6.19223112 -1.01444446 12.29152622
-1.15301861 5.72289174 14.70468352
0.80288724 5.87009586 11.73072768
3 1 0 7
3 7 0 6
3 2 1 8
3 8 1 7
3 3 2 9
3 9 2 8
3 4 3 10
3 10 3 9
3 5 4 11
3 11 4 10
3 0 5 6
3 6 5 11
3 5 3 4
3 5 2 3
3 0 2 5
3 1 2 0
3 10 9 11
3 11 9 8
3 11 8 6
3 6 8 7
