ply
format ascii 1.0
comment VCGLIB generated
element vertex 8
property float x
property float y
property float z
element face 12
property list uchar int vertex_indices
end_header
-12.54456091 -18.46467415 2.32473938
8.32094998 -7.60372252 -0.51069314
10.41062992 16.50178755 -1.56385362
-7.32988016 14.96196925 -0.73558687
-18.10509783 -12.44634332 48.83352136
15.26309048 -14.15023453 40.06233263
13.36266918 13.98383352 43.74741254
-17.45000759 16.49945186 38.60403783
3 0 1 5
3 0 5 4
3 1 2 6
3 1 6 5
3 2 3 7
3 2 7 6
3 3 0 4
3 3 4 7
3 2 1 0
3 2 0 3
3 6 4 5
3 6 7 4
