ply
format ascii 1.0
comment VCGLIB generated
element vertex 12
property float x
property float y
property float z
element face 20
property list uchar int vertex_indices
end_header
16.90105307 -0.20726662 -0.38834612
7.79986904 -9.35626944 0.19334844
-5.98536422 -10.71564640 -3.88377299
-10.78317392 -1.93652139 -0.11215995
-6.21148070 10.73305244 0.55227340
5.63821615 10.01879984 -2.27705891
8.95945715 -0.36069993 28.13342927
4.04356699 -12.21986611 24.54499376
-7.12408684 -9.26354048 25.78229406
-9.04943776 3.20831107 22.08139504
-2.92135496 15.09870615 23.98312864
4.65843600 7.89115469 26.88460940
3 1 0 7
3 7 0 6
3 2 1 8
3 8 1 7
3 3 2 9
3 9 2 8
3 4 3 10
3 10 3 9
3 5 4 11
3 11 4 10
3 0 5 6
3 6 5 11
3 5 3 4
3 5 2 3
3 0 2 5
3 1 2 0
3 10 9 11
3 11 9 8
3 11 8 6
3 6 8 7
