ply
format ascii 1.0
comment VCGLIB generated
element vertex 8
property float x
property float y
property float z
element face 12
property list uchar int vertex_indices
end_header
-8.91991311 -8.68691704 1.72033293
6.72700984 -9.06602523 -2.19542290
9.25523279 5.31262034 -1.64534151
-8.36680971 6.31075615 0.88787624
-1.21735591 -4.89213036 22.47725495
6.15338077 -5.67373630 23.96873330
8.95674784 4.30938003 17.69231578
-9.07384556 7.28078037 18.06200020
3 0 1 5
3 0 5 4
3 1 2 6
3 1 6 5
3 2 3 7
3 2 7 6
3 3 0 4
3 3 4 7
3 2 1 0
3 2 0 3
3 6 4 5
3 6 7 4
