ply
format ascii 1.0
comment VCGLIB generated
element vertex 8
property float x
property float y
property float z
element face 12
property list uchar int vertex_indices
end_header
-6.26109678 -5.51269031 -0.23195248
4.92643215 -5.17325997 0.07971067
6.10964975 6.37025045 -1.84515224
-3.58723491 5.87967158 1.47887346
-4.36370195 -1.93870037 13.12762166
3.27211275 -5.34964246 14.97943455
4.60811808 7.06299401 17.81476371
-3.10980843 5.52689405 16.57084623
3 0 1 5
3 0 5 4
3 1 2 6
3 1 6 5
3 2 3 7
3 2 7 6
3 3 0 4
3 3 4 7
3 2 1 0
3 2 0 3
3 6 4 5
3 6 7 4
