ply
format ascii 1.0
comment VCGLIB generated
element vertex 12
property float x
property float y
property float z
element face 20
property list uchar int vertex_indices
end_header
5.19569582 2.28747680 -0.02349502
2.10004081 -3.72849498 0.27361930
-3.12455033 -5.14709193 0.73215819
-5.09896898 -0.46510887 0.15835285
-3.17743391 4.98047017 1.13288252
2.60776417 5.45332772 -2.26941679
5.10613648 1.06889437 9.46507933
3.94855108 -5.19906754 9.55523100
-2.40432229 -4.95980335 9.05026246
-3.38471823 1.81169288 9.42232090
-0.89306842 5.77251377 9.84023794
1.94159820 4.82228873 9.47144787
3 1 0 7
3 7 0 6
3 2 1 8
3 8 1 7
3 3 2 9
3 9 2 8
3 4 3 10
3 10 3 9
3 5 4 11
3 11 4 10
3 0 5 6
3 6 5 11
3 5 3 4
3 5 2 3
3 0 2 5
3 1 2 0
3 10 9 11
3 11 9 8
3 11 8 6
3 6 8 7
