ply
format ascii 1.0
comment VCGLIB generated
element vertex 10
property float x
property float y
property float z
element face 16
property list uchar int vertex_indices
end_header
-7.27823548 0.87299703 1.71869396
-6.67001632 -8.08561438 -2.29338068
5.27888947 -7.12412923 -2.19149259
7.45519458 4.16250730 -2.17563675
-0.16228827 9.56588716 3.21661845
-6.28977105 2.21158992 19.77314562
-4.24569848 -8.32552540 15.24609616
5.07459879 -6.84465677 19.19914524
8.91672911 4.30279485 15.31676157
2.14096850 7.98995452 15.40331131
3 1 2 7
3 1 7 6
3 2 3 8
3 2 8 7
3 3 4 9
3 3 9 8
3 4 0 5
3 4 5 9
3 0 1 6
3 0 6 5
3 4 3 0
3 0 3 1
3 1 3 2
3 5 8 9
3 6 8 5
3 7 8 6
