ply
format ascii 1.0
comment VCGLIB generated
element vertex 10
property float x
property float y
property float z
element face 16
property list uchar int vertex_indices
end_header
-10.65715130 2.76651348 -2.79897590
-1.84181957 -9.49593526 -1.18116708
4.14144254 -8.27898670 3.39819884
7.33935816 3.98783437 -0.50484856
2.36227162 9.24883441 2.00270972
-12.31616925 3.70334044 17.06650506
-5.85766968 -8.51014338 18.84033321
7.87940903 -5.41404865 17.74356298
7.90906024 4.06683992 19.25561818
0.83111612 9.19418958 18.95729790
3 1 2 7
3 1 7 6
3 2 3 8
3 2 8 7
3 3 4 9
3 3 9 8
3 4 0 5
3 4 5 9
3 0 1 6
3 0 6 5
3 4 3 0
3 0 3 1
3 1 3 2
3 5 8 9
3 6 8 5
3 7 8 6
