ply
format ascii 1.0
comment VCGLIB generated
element vertex 8
property float x
property float y
property float z
element face 12
property list uchar int vertex_indices
end_header
-8.84533808 -11.47478802 0.17391114
13.05921349 -5.73256120 -0.72942015
17.37340944 13.34260302 -0.02836795
-16.00508334 15.67646695 -3.48867447
-15.34646642 -15.29765244 36.50052019
11.53108404 -15.77340725 30.05933674
4.12668341 13.05712872 38.13397676
-10.01970554 14.01336326 38.93383226
3 0 1 5
3 0 5 4
3 1 2 6
3 1 6 5
3 2 3 7
3 2 7 6
3 3 0 4
3 3 4 7
3 2 1 0
3 2 0 3
3 6 4 5
3 6 7 4
