ply
format ascii 1.0
comment VCGLIB generated
element vertex 8
property float x
property float y
property float z
element face 12
property list uchar int vertex_indices
end_header
-5.26245106 -4.96803294 -0.24662544
3.56725483 -3.95358176 -0.21445098
5.51212352 3.84239643 1.24675332
-6.21485878 6.52943711 0.71335511
-4.78463594 -6.23144666 14.61000483
6.29908567 -2.70081122 14.99497760
5.17300446 3.50957634 15.11685422
-5.92098742 2.52163025 13.72551409
3 0 1 5
3 0 5 4
3 1 2 6
3 1 6 5
3 2 3 7
3 2 7 6
3 3 0 4
3 3 4 7
3 2 1 0
3 2 0 3
3 6 4 5
3 6 7 4
