ply
format ascii 1.0
comment VCGLIB generated
element vertex 12
property float x
property float y
property float z
element face 20
property list uchar int vertex_indices
end_header
18.00581257 3.01911361 4.03665585
9.04584851 -28.47970573 2.00249209
-12.15130277 -20.25870292 -3.01152909
-21.83622287 0.90362692 2.36426579
-13.32995704 24.34007855 0.71586976
19.49605142 25.61197834 -8.21337142
23.32483425 4.08300909 54.84576178
11.93157815 -10.76453714 48.93432305
-12.85998306 -20.24012961 55.13801323
-31.44751758 7.94517016 47.83923299
-12.41492438 18.39211192 56.71327858
8.00296399 19.92097874 54.80930672
3 1 0 7
3 7 0 6
3 2 1 8
3 8 1 7
3 3 2 9
3 9 2 8
3 4 3 10
3 10 3 9
3 5 4 11
3 11 4 10
3 0 5 6
3 6 5 11
3 5 3 4
3 5 2 3
3 0 2 5
3 1 2 0
3 10 9 11
3 11 9 8
3 11 8 6
3 6 8 7
