ply
format ascii 1.0
comment VCGLIB generated
element vertex 12
property float x
property float y
property float z
element face 20
property list uchar int vertex_indices
end_header
3.44293809 0.15413378 0.69854150
2.27492220 -3.21112487 1.25798226
-3.39102791 -3.46956736 -0.97348986
-4.40822879 0.95446296 0.31194485
-1.92376050 4.66087260 0.05025103
2.91603156 2.60701858 1.53305566
3.44881072 0.76896232 7.61716691
2.26669911 -4.49367169 7.69347564
-2.44466226 -1.21080590 8.87309474
-3.01061376 0.65252953 7.72694640
-1.18455831 3.11272225 6.84564723
2.18387433 4.46232882 7.87822594
3 1 0 7
3 7 0 6
3 2 1 8
3 8 1 7
3 3 2 9
3 9 2 8
3 4 3 10
3 10 3 9
3 5 4 11
3 11 4 10
3 0 5 6
3 6 5 11
3 5 3 4
3 5 2 3
3 0 2 5
3 1 2 0
3 10 9 11
3 11 9 8
3 11 8 6
3 6 8 7
