ply
format ascii 1.0
comment VCGLIB generated
element vertex 8
property float x
property float y
property float z
element face 12
property list uchar int vertex_indices
end_header
-3.80553035 -4.37814163 1.46148641
4.19742033 -3.24513913 0.14720811
3.69001524 2.99907007 0.66634383
-3.24608659 4.41586975 -0.42023812
-3.57264574 -2.99164444 7.80706288
3.83902701 -2.65338644 8.41767401
3.56427929 2.99892031 7.48439485
-3.74878044 3.16179101 8.54571086
3 0 1 5
3 0 5 4
3 1 2 6
3 1 6 5
3 2 3 7
3 2 7 6
3 3 0 4
3 3 4 7
3 2 1 0
3 2 0 3
3 6 4 5
3 6 7 4
