ply
format ascii 1.0
comment VCGLIB generated
element vertex 12
property float x
property float y
property float z
element face 20
property list uchar int vertex_indices
end_header
31.72247988 7.99449733 -2.78474351
6.22169444 -13.11098753 -4.28569105
-11.22827380 -26.67813719 7.50676912
-21.75171745 2.93776971 1.60440176
-6.28683511 23.09995408 -3.28281022
3.31384314 23.35757558 10.04236121
32.62647394 -3.51443785 52.38654787
7.57121810 -29.40697452 59.02370643
-12.62906312 -17.20328052 46.66979141
-22.18039392 0.73779417 50.25657887
-14.71402502 20.30411998 46.30942399
5.62583985 25.60117503 40.64581283
3 1 0 7
3 7 0 6
3 2 1 8
3 8 1 7
3 3 2 9
3 9 2 8
3 4 3 10
3 10 3 9
3 5 4 11
3 11 4 10
3 0 5 6
3 6 5 11
3 5 3 4
3 5 2 3
3 0 2 5
3 1 2 0
3 10 9 11
3 11 9 8
3 11 8 6
3 6 8 7
