ply
format ascii 1.0
comment VCGLIB generated
element vertex 8
property float x
property float y
property float z
element face 12
property list uchar int vertex_indices
end_header
-13.60043779 -4.23767998 -2.03114909
11.13268966 -17.28131997 4.13033946
21.11479412 16.66844091 3.47605278
-15.06230848 4.26127076 -2.36105805
-10.14727928 -5.04348078 35.05373012
13.84787815 -16.37390919 33.21465043
11.35563747 7.25339968 37.18119966
-9.55141215 11.56275965 34.30554578
3 0 1 5
3 0 5 4
3 1 2 6
3 1 6 5
3 2 3 7
3 2 7 6
3 3 0 4
3 3 4 7
3 2 1 0
3 2 0 3
3 6 4 5
3 6 7 4
