ply
format ascii 1.0
comment VCGLIB generated
element vertex 8
property float x
property float y
property float z
element face 12
property list uchar int vertex_indices
end_header
-10.80586576 -13.94390469 2.95180259
8.61998445 -10.37701688 2.02173383
5.82072008 9.60800435 -0.03371360
-5.50316329 15.30352779 -2.03626173
-9.85046347 -8.72849061 29.12974649
10.15643748 -9.88578760 27.24831771
9.10423552 8.10841870 29.04490232
-15.28409797 11.21561572 32.03709940
3 0 1 5
3 0 5 4
3 1 2 6
3 1 6 5
3 2 3 7
3 2 7 6
3 3 0 4
3 3 4 7
3 2 1 0
3 2 0 3
3 6 4 5
3 6 7 4
