ply
format ascii 1.0
comment VCGLIB generated
element vertex 12
property float x
property float y
property float z
element face 20
property list uchar int vertex_indices
end_header
20.34095545 1.63802489 -2.54396582
10.11565593 -21.22985862 0.75639015
-8.06321265 -11.93738096 3.25868922
-18.06121543 -1.75015356 6.78646221
-10.13142737 17.05982174 0.59105277
2.45793506 16.22513124 -3.56360238
19.76688319 -5.55170824 39.52506070
11.20219267 -17.32216984 30.70320688
-6.30407856 -14.53969469 42.82630582
-17.03130300 0.28772039 40.58901176
-11.27148083 21.08300943 39.08312879
5.15430613 12.99363441 36.49618830
3 1 0 7
3 7 0 6
3 2 1 8
3 8 1 7
3 3 2 9
3 9 2 8
3 4 3 10
3 10 3 9
3 5 4 11
3 11 4 10
3 0 5 6
3 6 5 11
3 5 3 4
3 5 2 3
3 0 2 5
3 1 2 0
3 10 9 11
3 11 9 8
3 11 8 6
3 6 8 7
