ply
format ascii 1.0
comment VCGLIB generated
element vertex 12
property float x
property float y
property float z
element face 20
property list uchar int vertex_indices
end_header
7.09945697 1.95219468 0.33814277
2.25017180 -6.12836561 -0.48340075
-0.71701522 -6.58070708 2.40444767
-7.58707307 -0.28755572 1.24387168
-3.00916959 3.32751602 0.04418660
3.44079657 7.42992253 -0.55056841
5.82710610 -1.57625133 13.80274535
3.96325046 -7.34582186 16.16477249
-3.27631138 -7.50874754 13.33653988
-7.96181389 1.36215288 13.20790135
-3.81296166 3.72928173 13.27975647
2.18373136 6.18187264 13.41209325
3 1 0 7
3 7 0 6
3 2 1 8
3 8 1 7
3 3 2 9
3 9 2 8
3 4 3 10
3 10 3 9
3 5 4 11
3 11 4 10
3 0 5 6
3 6 5 11
3 5 3 4
3 5 2 3
3 0 2 5
3 1 2 0
3 10 9 11
3 11 9 8
3 11 8 6
3 6 8 7
