ply
format ascii 1.0
comment VCGLIB generated
element vertex 12
property float x
property float y
property float z
element face 20
property list uchar int vertex_indices
end_header
7.29352855 0.52654099 -0.17197679
6.38818489 -9.73153479 2.05995210
-5.61049449 -9.88646054 1.30209976
-14.13282424 -2.58896669 1.10849683
-10.45236437 8.24796664 -4.00481577
6.44701376 9.51194793 -1.21478462
8.87343151 4.64150594 19.78387822
5.47649312 -9.43324355 20.11445264
-4.70688521 -7.85933700 23.49387493
-9.67967865 -1.69012125 20.25772648
-5.16992661 8.95779537 20.42458686
3.08942687 5.68152230 21.16705616
3 1 0 7
3 7 0 6
3 2 1 8
3 8 1 7
3 3 2 9
3 9 2 8
3 4 3 10
3 10 3 9
3 5 4 11
3 11 4 10
3 0 5 6
3 6 5 11
3 5 3 4
3 5 2 3
3 0 2 5
3 1 2 0
3 10 9 11
3 11 9 8
3 11 8 6
3 6 8 7
