ply
format ascii 1.0
comment VCGLIB generated
element vertex 10
property float x
property float y
property float z
element face 16
property list uchar int vertex_indices
end_header
-34.85486810 -0.69199262 2.43288211
-15.41780068 -28.69668351 -5.96521945
4.98114318 -17.15847738 1.59712185
18.45179515 15.22228987 -1.52635238
1.40234508 18.80987692 2.48670996
-18.98702177 9.25555609 49.06655908
-17.92618480 -18.02567336 51.38264844
24.33024738 -14.22160077 54.08630028
27.81827884 7.67273824 56.63189715
-5.12160624 20.62797031 49.50950120
3 1 2 7
3 1 7 6
3 2 3 8
3 2 8 7
3 3 4 9
3 3 9 8
3 4 0 5
3 4 5 9
3 0 1 6
3 0 6 5
3 4 3 0
3 0 3 1
3 1 3 2
3 5 8 9
3 6 8 5
3 7 8 6
