ply
format ascii 1.0
comment VCGLIB generated
element vertex 12
property float x
property float y
property float z
element face 20
property list uchar int vertex_indices
end_header
38.04849693 6.19270054 3.28407679
22.31676164 -22.28220659 -6.13966976
-18.56516392 -22.17872365 10.31945542
-23.67315848 -9.22145988 -4.41409598
-21.84063505 28.46371519 -6.78339543
7.19690568 23.33020562 11.58354279
38.15952328 -4.99048009 52.05164689
10.49948935 -25.09871413 75.84681555
-11.67496322 -21.59857648 60.68950989
-44.44924906 3.64850340 62.37271875
-11.07231169 27.06876583 48.30078105
19.16482477 32.11379685 56.85746279
3 1 0 7
3 7 0 6
3 2 1 8
3 8 1 7
3 3 2 9
3 9 2 8
3 4 3 10
3 10 3 9
3 5 4 11
3 11 4 10
3 0 5 6
3 6 5 11
3 5 3 4
3 5 2 3
3 0 2 5
3 1 2 0
3 10 9 11
3 11 9 8
3 11 8 6
3 6 8 7
