ply
format ascii 1.0
comment VCGLIB generated
element vertex 10
property float x
property float y
property float z
element face 16
property list uchar int vertex_indices
end_header
-21.94458399 6.64504789 -1.52617077
-9.00033161 -16.93507018 4.08739029
9.61101782 -17.70557123 -0.84410579
16.30851104 8.00363874 2.50804813
1.36163340 13.56580879 -3.36801507
-18.01084999 11.84229563 34.80481236
-12.63131742 -16.13276320 41.23268480
14.61368818 -12.08981327 32.16129100
18.06645808 9.33460686 39.00894963
-2.06031113 17.28345755 34.54323681
3 1 2 7
3 1 7 6
3 2 3 8
3 2 8 7
3 3 4 9
3 3 9 8
3 4 0 5
3 4 5 9
3 0 1 6
3 0 6 5
3 4 3 0
3 0 3 1
3 1 3 2
3 5 8 9
3 6 8 5
3 7 8 6
