ply
format ascii 1.0
comment VCGLIB generated
element vertex 12
property float x
property float y
property float z
element face 20
property list uchar int vertex_indices
end_header
27.42764340 -9.23787815 -1.50728235
17.25302543 -22.86492318 0.86469836
-14.42011637 -18.10984443 4.30435573
-27.79130197 -2.04711930 3.46449188
-21.63608945 26.87070148 -6.91098413
17.57144155 26.07398985 -4.86441855
25.54700072 8.19694356 64.60815957
12.72384300 -24.69564197 54.27896563
-18.27596675 -19.61648111 57.73969232
-34.19077655 11.64986284 54.30649334
-19.21445113 25.72640828 46.64190252
8.43986662 18.11350525 61.19047516
3 1 0 7
3 7 0 6
3 2 1 8
3 8 1 7
3 3 2 9
3 9 2 8
3 4 3 10
3 10 3 9
3 5 4 11
3 11 4 10
3 0 5 6
3 6 5 11
3 5 3 4
3 5 2 3
3 0 2 5
3 1 2 0
3 10 9 11
3 11 9 8
3 11 8 6
3 6 8 7
