ply
format ascii 1.0
comment VCGLIB generated
element vertex 12
property float x
property float y
property float z
element face 20
property list uchar int vertex_indices
end_header
20.27835554 -5.75530716 2.00866898
15.54284807 -21.29033096 1.55787446
-3.97425444 -15.77563996 14.72199207
-28.83117899 -0.89487863 -3.24786809
-11.71357866 24.19257537 3.63234032
13.14852634 22.28735397 -1.95174005
28.31619632 2.72310906 43.13491303
9.76112256 -31.40510441 54.99929385
-9.07248160 -27.13478123 46.76531065
-19.92425778 3.53094718 52.98778327
-6.96215601 20.03399015 51.78343964
12.88551118 29.65344125 49.88009728
3 1 0 7
3 7 0 6
3 2 1 8
3 8 1 7
3 3 2 9
3 9 2 8
3 4 3 10
3 10 3 9
3 5 4 11
3 11 4 10
3 0 5 6
3 6 5 11
3 5 3 4
3 5 2 3
3 0 2 5
3 1 2 0
3 10 9 11
3 11 9 8
3 11 8 6
3 6 8 7
