ply
format ascii 1.0
comment VCGLIB generated
element vertex 10
property float x
property float y
property float z
element face 16
property list uchar int vertex_indices
end_header
-14.23171400 7.22261998 1.93856621
-8.44017302 -11.23567636 -1.23782547
16.18223133 -8.84447777 0.14725810
13.15163990 -0.31278895 -0.44931407
-5.85994694 22.98798804 3.32456752
-10.64355431 2.08400950 27.61565579
-8.56941635 -14.40686510 29.96664566
6.17460037 -15.04330039 35.93432993
13.30138230 -1.22099788 30.97414760
3.38178751 21.20440892 32.97257572
3 1 2 7
3 1 7 6
3 2 3 8
3 2 8 7
3 3 4 9
3 3 9 8
3 4 0 5
3 4 5 9
3 0 1 6
3 0 6 5
3 4 3 0
3 0 3 1
3 1 3 2
3 5 8 9
3 6 8 5
3 7 8 6
