ply
format ascii 1.0
comment VCGLIB generated
element vertex 10
property float x
property float y
property float z
element face 16
property list uchar int vertex_indices
end_header
-5.79049795 2.07214862 2.27383633
-2.70120258 -3.80579767 1.08408109
3.80411539 -5.07548205 1.03671222
6.43857473 0.97071185 0.09198393
-1.13896083 8.18449711 2.39360011
-7.46220371 3.37400433 11.96852656
-3.32805299 -4.19895206 12.85449615
5.54282682 -5.57086872 13.58231777
6.62204332 2.90037548 14.02875799
1.28808852 6.36677635 13.44091800
3 1 2 7
3 1 7 6
3 2 3 8
3 2 8 7
3 3 4 9
3 3 9 8
3 4 0 5
3 4 5 9
3 0 1 6
3 0 6 5
3 4 3 0
3 0 3 1
3 1 3 2
3 5 8 9
3 6 8 5
3 7 8 6
