ply
format ascii 1.0
comment VCGLIB generated
element vertex 8
property float x
property float y
property float z
element face 12
property list uchar int vertex_indices
end_header
-11.65453949 -12.71772613 2.00993911
7.97335108 -9.23754150 -0.73528816
11.96399297 10.94535435 6.30472123
-14.02404790 9.52415691 0.75714603
-9.91885465 -10.92413098 25.02190275
8.98115986 -10.88751369 25.36965182
6.89444679 11.57828591 33.54789322
-12.82445299 12.98736212 28.93514960
3 0 1 5
3 0 5 4
3 1 2 6
3 1 6 5
3 2 3 7
3 2 7 6
3 3 0 4
3 3 4 7
3 2 1 0
3 2 0 3
3 6 4 5
3 6 7 4
