ply
format ascii 1.0
comment VCGLIB generated
element vertex 8
property float x
property float y
property float z
element face 12
property list uchar int vertex_indices
end_header
-13.28533773 -8.03943370 0.84394032
9.84530630 -10.71555498 -1.16351407
6.72753091 8.19531377 -6.63869696
-5.50850283 11.19353106 -1.00649615
-11.42696770 -10.67919561 27.06455577
12.51667674 -16.25077838 24.01118649
11.03123585 7.69942727 35.12214989
-8.70528447 9.84200096 28.12475363
3 0 1 5
3 0 5 4
3 1 2 6
3 1 6 5
3 2 3 7
3 2 7 6
3 3 0 4
3 3 4 7
3 2 1 0
3 2 0 3
3 6 4 5
3 6 7 4
