ply
format ascii 1.0
comment VCGLIB generated
element vertex 12
property float x
property float y
property float z
element face 20
property list uchar int vertex_indices
end_header
30.15186235 2.76485566 3.51213834
15.61695524 -14.27539048 -5.19275225
-5.02106906 -21.18605960 -8.06027599
-31.56115618 7.31680423 1.47989397
-9.82763579 18.39256458 -0.61619722
18.52417942 23.39641839 -4.97000044
26.58361627 0.44034003 56.92453085
7.78927977 -19.11982231 53.72758869
-20.11658077 -21.11644749 48.61490568
-24.02533286 1.50425476 55.20919176
-9.87169634 24.49076481 46.23485067
16.02132839 19.31013404 58.35188834
3 1 0 7
3 7 0 6
3 2 1 8
3 8 1 7
3 3 2 9
3 9 2 8
3 4 3 10
3 10 3 9
3 5 4 11
3 11 4 10
3 0 5 6
3 6 5 11
3 5 3 4
3 5 2 3
3 0 2 5
3 1 2 0
3 10 9 11
3 11 9 8
3 11 8 6
3 6 8 7
