ply
format ascii 1.0
comment VCGLIB generated
element vertex 8
property float x
property float y
property float z
element face 12
property list uchar int vertex_indices
end_header
-18.83563140 -9.62985128 2.85816997
12.08787392 -11.27852270 -2.38652295
11.69639746 8.30543102 1.78122574
-11.51362533 14.11438702 2.07443453
-23.44904671 -15.33258615 41.15789470
9.41114584 -9.05570625 46.16636082
10.96634574 13.60090452 44.72506037
-13.84237521 9.25474382 37.28889759
3 0 1 5
3 0 5 4
3 1 2 6
3 1 6 5
3 2 3 7
3 2 7 6
3 3 0 4
3 3 4 7
3 2 1 0
3 2 0 3
3 6 4 5
3 6 7 4
