ply
format ascii 1.0
comment VCGLIB generated
element vertex 8
property float x
property float y
property float z
element face 12
property list uchar int vertex_indices
end_header
-1.52888620 -4.45581817 1.40782453
4.06045029 -3.36736179 -0.01663365
4.30141885 5.82678315 -0.71446227
-5.28152018 2.34618536 0.04065997
-3.89010246 -3.39796575 13.10367333
2.95738304 -4.24999946 13.66892962
4.46259562 4.95150469 12.92141834
-4.59492953 3.53324495 14.31032927
3 0 1 5
3 0 5 4
3 1 2 6
3 1 6 5
3 2 3 7
3 2 7 6
3 3 0 4
3 3 4 7
3 2 1 0
3 2 0 3
3 6 4 5
3 6 7 4
