ply
format ascii 1.0
comment VCGLIB generated
element vertex 8
property float x
property float y
property float z
element face 12
property list uchar int vertex_indices
end_header
-9.72056546 -11.20717225 0.96489057
6.30698622 -11.89039055 -1.61166569
7.57804553 12.16286874 -2.57803320
-9.09761267 11.03557985 6.25905300
-16.21821914 -15.30590400 29.65291320
6.64202821 -9.70931677 32.60536716
7.64133087 9.58196859 31.12940627
-9.66469824 9.16819447 25.92440339
3 0 1 5
3 0 5 4
3 1 2 6
3 1 6 5
3 2 3 7
3 2 7 6
3 3 0 4
3 3 4 7
3 2 1 0
3 2 0 3
3 6 4 5
3 6 7 4
