ply
format ascii 1.0
comment VCGLIB generated
element vertex 12
property float x
property float y
property float z
element face 20
property list uchar int vertex_indices
end_header
34.05323756 -0.70930817 1.73657689
5.03207113 -16.92838332 9.88995520
-12.87803468 -27.31502048 2.07880304
-37.25200061 -10.68033804 -0.54898471
-2.21233372 28.72399453 7.05098537
18.38917023 18.11739204 0.39773186
44.18476289 -3.02602843 68.61055016
12.27343750 -32.28260103 51.40945452
-0.04531952 -22.60655644 49.93265919
-26.40121424 -15.25563315 61.87260476
-10.60344609 24.91330522 58.10143121
13.33653923 24.59711610 61.20245231
3 1 0 7
3 7 0 6
3 2 1 8
3 8 1 7
3 3 2 9
3 9 2 8
3 4 3 10
3 10 3 9
3 5 4 11
3 11 4 10
3 0 5 6
3 6 5 11
3 5 3 4
3 5 2 3
3 0 2 5
3 1 2 0
3 10 9 11
3 11 9 8
3 11 8 6
3 6 8 7
