ply
format ascii 1.0
comment VCGLIB generated
element vertex 8
property float x
property float y
property float z
element face 12
property list uchar int vertex_indices
end_header
-25.22839998 -13.71620858 3.68662554
19.13157468 -6.68214174 1.39898271
26.32806638 10.40395297 10.11199688
-19.44377425 11.00017370 -2.54868233
-8.46894421 -19.53753413 55.03536986
15.54886259 -18.92187277 48.61525948
17.90958845 18.90935848 53.27858837
-9.97221150 15.92081207 56.90722089
3 0 1 5
3 0 5 4
3 1 2 6
3 1 6 5
3 2 3 7
3 2 7 6
3 3 0 4
3 3 4 7
3 2 1 0
3 2 0 3
3 6 4 5
3 6 7 4
