ply
format ascii 1.0
comment VCGLIB generated
element vertex 10
property float x
property float y
property float z
element face 16
property list uchar int vertex_indices
end_header
-3.41535675 0.89692218 -0.30359210
-2.57201055 -6.19179083 -0.40438230
3.62740843 -3.60736945 -0.03407519
6.54500389 1.02221632 -0.80180806
2.00643492 6.83941061 0.55371705
-4.22002877 1.53482920 13.74191492
-2.35365346 -5.75964764 11.38144497
3.91363678 -3.76566920 10.89321350
2.90859562 1.39087821 10.96211497
0.14111644 6.21688189 9.53882367
3 1 2 7
3 1 7 6
3 2 3 8
3 2 8 7
3 3 4 9
3 3 9 8
3 4 0 5
3 4 5 9
3 0 1 6
3 0 6 5
3 4 3 0
3 0 3 1
3 1 3 2
3 5 8 9
3 6 8 5
3 7 8 6
