ply
format ascii 1.0
comment VCGLIB generated
element vertex 12
property float x
property float y
property float z
element face 20
property list uchar int vertex_indices
end_header
16.53978794 -8.22855910 6.54658138
7.79882443 -16.70699876 3.42358598
-8.14833869 -18.41838953 -2.46952562
-11.63990009 -5.89698322 -3.78109090
-8.48829783 19.19832215 -2.30339237
10.50960729 16.59837945 -0.36788599
15.33253755 -0.30924769 34.47105764
7.93783632 -13.62955586 32.36375400
-9.32058131 -17.30257430 26.43507210
-19.57301403 -1.63991200 30.91280873
-9.91205831 16.39534752 28.13767915
9.94921752 17.31424183 28.32290120
3 1 0 7
3 7 0 6
3 2 1 8
3 8 1 7
3 3 2 9
3 9 2 8
3 4 3 10
3 10 3 9
3 5 4 11
3 11 4 10
3 0 5 6
3 6 5 11
3 5 3 4
3 5 2 3
3 0 2 5
3 1 2 0
3 10 9 11
3 11 9 8
3 11 8 6
3 6 8 7
