ply
format ascii 1.0
comment VCGLIB generated
element vertex 8
property float x
property float y
property float z
element face 12
property list uchar int vertex_indices
end_header
-4.04053092 -5.71600932 0.25231010
4.70507484 -0.14538247 -0.88542732
8.05155058 4.81185106 -2.42097241
-4.75610844 6.09930848 -0.20334915
-5.68022743 -5.40904590 16.74117570
7.95724396 -5.17908447 15.16401008
6.24611310 4.15502202 16.71235647
-4.23098223 7.92341326 12.88519111
3 0 1 5
3 0 5 4
3 1 2 6
3 1 6 5
3 2 3 7
3 2 7 6
3 3 0 4
3 3 4 7
3 2 1 0
3 2 0 3
3 6 4 5
3 6 7 4
