ply
format ascii 1.0
comment VCGLIB generated
element vertex 10
property float x
property float y
property float z
element face 16
property list uchar int vertex_indices
end_header
-30.16026009 16.87765930 8.14438622
-5.05044800 -16.48253439 2.94976677
14.28638120 -10.25367837 0.43629697
33.23886689 8.99762603 -9.53003640
-1.75408816 38.96651617 -6.00447046
-29.31686253 13.85670505 57.84100915
-21.04068597 -31.43835956 55.70381756
24.23036551 -23.04881160 49.06470271
25.75740165 15.11417118 56.32927128
1.18672586 29.43688496 70.53993147
3 1 2 7
3 1 7 6
3 2 3 8
3 2 8 7
3 3 4 9
3 3 9 8
3 4 0 5
3 4 5 9
3 0 1 6
3 0 6 5
3 4 3 0
3 0 3 1
3 1 3 2
3 5 8 9
3 6 8 5
3 7 8 6
