ply
format ascii 1.0
comment VCGLIB generated
element vertex 8
property float x
property float y
property float z
element face 12
property list uchar int vertex_indices
end_header
-3.56422899 -7.85297154 -2.72629155
12.39446422 -9.77475200 2.11718593
5.95997475 12.22278904 0.65389217
-10.70946908 12.27426668 4.75598067
-13.13727451 -13.33958865 31.53521168
9.25823934 -6.98173870 30.25148615
9.24417665 5.90337397 31.98167370
-10.07135009 4.36733950 30.28027912
3 0 1 5
3 0 5 4
3 1 2 6
3 1 6 5
3 2 3 7
3 2 7 6
3 3 0 4
3 3 4 7
3 2 1 0
3 2 0 3
3 6 4 5
3 6 7 4
