ply
format ascii 1.0
comment VCGLIB generated
element vertex 12
property float x
property float y
property float z
element face 20
property list uchar int vertex_indices
end_header
10.07185632 1.81270786 2.13847435
9.69870140 -8.44081590 -2.53170581
-7.13579593 -10.01368907 0.11070296
-3.28207306 0.32186062 -1.82870141
-6.71813153 8.68217150 -2.79300250
3.50889683 4.41047444 1.23578019
9.75497340 2.73938582 18.09353477
6.38823876 -4.39864980 14.64632130
-2.59930663 -4.87192588 16.66966679
-9.03014639 1.76023927 15.67604569
-2.11793670 9.61019641 18.12292332
6.97417761 4.00572564 19.76210297
3 1 0 7
3 7 0 6
3 2 1 8
3 8 1 7
3 3 2 9
3 9 2 8
3 4 3 10
3 10 3 9
3 5 4 11
3 11 4 10
3 0 5 6
3 6 5 11
3 5 3 4
3 5 2 3
3 0 2 5
3 1 2 0
3 10 9 11
3 11 9 8
3 11 8 6
3 6 8 7
