ply
format ascii 1.0
comment VCGLIB generated
element vertex 10
property float x
property float y
property float z
element face 16
property list uchar int vertex_indices
end_header
-25.08180698 17.81576474 2.53363130
-23.96597002 -17.19870286 10.95832138
10.79267551 -24.25589765 -7.57433233
38.30679805 9.16954686 2.80052242
1.15792504 26.75666802 -3.93683499
-32.26340156 15.65012123 55.94230688
-24.49615083 -24.71882187 53.23677182
21.25329901 -25.96172065 73.99140596
33.17362520 16.49832698 66.77111537
-1.22727862 33.23018013 59.92228715
3 1 2 7
3 1 7 6
3 2 3 8
3 2 8 7
3 3 4 9
3 3 9 8
3 4 0 5
3 4 5 9
3 0 1 6
3 0 6 5
3 4 3 0
3 0 3 1
3 1 3 2
3 5 8 9
3 6 8 5
3 7 8 6
