ply
format ascii 1.0
comment VCGLIB generated
element vertex 10
property float x
property float y
property float z
element face 16
property list uchar int vertex_indices
end_header
-9.63085864 8.18427695 1.01213605
-6.19632095 -8.80460549 0.50315107
9.69602783 -7.45708307 0.99889962
6.87459773 5.02843079 -0.36297863
1.94427712 13.60027624 -0.00560625
-14.55747389 6.18872596 26.08503260
-7.29924296 -11.90445286 18.92765831
6.63197542 -7.17764816 24.30757482
9.38286348 -0.36163608 26.64908206
-2.58170918 11.20980453 24.86348530
3 1 2 7
3 1 7 6
3 2 3 8
3 2 8 7
3 3 4 9
3 3 9 8
3 4 0 5
3 4 5 9
3 0 1 6
3 0 6 5
3 4 3 0
3 0 3 1
3 1 3 2
3 5 8 9
3 6 8 5
3 7 8 6
