ply
format ascii 1.0
comment VCGLIB generated
element vertex 12
property float x
property float y
property float z
element face 20
property list uchar int vertex_indices
end_header
7.48227352 0.54617484 0.20742608
1.96764525 -6.93769339 -0.52634040
-3.92455294 -3.47362751 0.94940822
-3.95026174 1.53366660 0.83282514
-2.97974641 4.58473335 -0.88532669
3.36238587 3.88776982 0.63784017
5.44705660 2.66155202 12.60324494
3.82626024 -5.97295423 12.52361488
-3.11922725 -4.83430811 9.04628983
-6.90145036 2.78476557 12.01991520
-1.49673648 5.98203332 14.23045974
2.62035436 5.25359847 14.87123299
3 1 0 7
3 7 0 6
3 2 1 8
3 8 1 7
3 3 2 9
3 9 2 8
3 4 3 10
3 10 3 9
3 5 4 11
3 11 4 10
3 0 5 6
3 6 5 11
3 5 3 4
3 5 2 3
3 0 2 5
3 1 2 0
3 10 9 11
3 11 9 8
3 11 8 6
3 6 8 7
