ply
format ascii 1.0
comment VCGLIB generated
element vertex 12
property float x
property float y
property float z
element face 20
property list uchar int vertex_indices
end_header
2.96929394 0.29094934 0.09421129
1.13990213 -1.80739705 -0.78044892
-0.61930619 -1.75185016 -0.02229174
-1.95062980 -0.26045153 0.46708451
-1.42370828 3.17689450 -0.19562760
1.04707727 1.92078882 -0.40306535
1.87998835 -0.84397056 5.35005053
1.63660112 -2.50289203 4.74282215
-1.97594617 -1.92265566 5.32155727
-2.85643782 0.16659225 5.33035651
-1.50225641 2.16870365 5.24581792
1.48386403 1.95779212 5.03647168
3 1 0 7
3 7 0 6
3 2 1 8
3 8 1 7
3 3 2 9
3 9 2 8
3 4 3 10
3 10 3 9
3 5 4 11
3 11 4 10
3 0 5 6
3 6 5 11
3 5 3 4
3 5 2 3
3 0 2 5
3 1 2 0
3 10 9 11
3 11 9 8
3 11 8 6
3 6 8 7
