ply
format ascii 1.0
comment VCGLIB generated
element vertex 12
property float x
property float y
property float z
element face 20
property list uchar int vertex_indices
end_header
8.83680030 1.11397396 -0.18508909
5.49633325 -8.81991832 2.12554337
-5.51236892 -8.72540635 -1.08614459
-6.49469275 -1.14773087 0.56742362
-3.95643583 6.93614009 -3.74553086
6.10770419 9.84350036 -0.03255034
10.30887662 0.28942856 18.53890771
4.84914844 -7.02761832 16.80119264
-2.39860621 -9.25014566 14.86177180
-7.24049536 1.25930119 19.06807145
-8.55847890 5.61370401 13.62233717
2.24636986 7.20265110 16.28793359
3 1 0 7
3 7 0 6
3 2 1 8
3 8 1 7
3 3 2 9
3 9 2 8
3 4 3 10
3 10 3 9
3 5 4 11
3 11 4 10
3 0 5 6
3 6 5 11
3 5 3 4
3 5 2 3
3 0 2 5
3 1 2 0
3 10 9 11
3 11 9 8
3 11 8 6
3 6 8 7
