ply
format ascii 1.0
comment VCGLIB generated
element vertex 10
property float x
property float y
property float z
element face 16
property list uchar int vertex_indices
end_header
-33.22215326 0.25869656 -0.85325637
-16.91606315 -28.37217115 4.94729450
15.59917808 -27.17097131 10.49502098
17.76591922 8.94714545 1.19902941
5.93846448 29.46307275 4.01092985
-24.12219886 2.66242970 54.31322991
-15.65600225 -10.32066078 47.87206460
20.20052705 -14.05607007 60.42411507
25.88348001 -3.70531881 44.18882260
-11.76116984 14.02257479 53.61654603
3 1 2 7
3 1 7 6
3 2 3 8
3 2 8 7
3 3 4 9
3 3 9 8
3 4 0 5
3 4 5 9
3 0 1 6
3 0 6 5
3 4 3 0
3 0 3 1
3 1 3 2
3 5 8 9
3 6 8 5
3 7 8 6
