ply
format ascii 1.0
comment VCGLIB generated
element vertex 12
property float x
property float y
property float z
element face 20
property list uchar int vertex_indices
end_header
23.28159671 -9.04722155 -8.84505248
14.13370669 -15.92251781 1.16916544
-10.81959408 -29.94625375 3.42619145
-30.22749768 0.30936160 0.35219485
-10.05507463 27.63560046 8.60124544
16.26730749 19.08606782 2.79260449
30.35250973 1.44621241 55.40678930
8.76148750 -21.40394341 62.96655580
-6.08014970 -36.33229080 53.32551315
-33.37555941 6.50733858 57.99839787
-12.62000904 30.06205702 62.78819200
21.03226923 30.36016363 62.82293988
3 1 0 7
3 7 0 6
3 2 1 8
3 8 1 7
3 3 2 9
3 9 2 8
3 4 3 10
3 10 3 9
3 5 4 11
3 11 4 10
3 0 5 6
3 6 5 11
3 5 3 4
3 5 2 3
3 0 2 5
3 1 2 0
3 10 9 11
3 11 9 8
3 11 8 6
3 6 8 7
