ply
format ascii 1.0
comment VCGLIB generated
element vertex 12
property float x
property float y
property float z
element face 20
property list uchar int vertex_indices
end_header
29.63608284 2.57527789 -0.84644190
11.70318597 -19.17673178 0.84954885
-3.80371395 -9.94604904 3.43323775
-24.24844419 -1.63360950 3.60427658
-9.34378186 13.93397615 0.26167333
12.86828144 20.63663328 1.77348589
21.00305226 0.71476794 35.48625206
9.05661245 -15.55569471 44.10149133
-12.64561767 -15.39523615 45.93590522
-15.21125840 -6.32616956 49.77504478
-18.52061700 21.93251010 40.94415695
14.86628038 12.11174080 42.19568660
3 1 0 7
3 7 0 6
3 2 1 8
3 8 1 7
3 3 2 9
3 9 2 8
3 4 3 10
3 10 3 9
3 5 4 11
3 11 4 10
3 0 5 6
3 6 5 11
3 5 3 4
3 5 2 3
3 0 2 5
3 1 2 0
3 10 9 11
3 11 9 8
3 11 8 6
3 6 8 7
