ply
format ascii 1.0
comment VCGLIB generated
element vertex 12
property float x
property float y
property float z
element face 20
property list uchar int vertex_indices
end_header
18.83210028 1.97350239 -5.95387914
7.66235326 -20.35088520 1.61362724
-9.34328558 -12.88270511 -0.56821658
-22.50146196 -2.46685702 -4.72948360
-7.81759583 9.63936491 3.52768837
4.08006449 19.79778739 5.53292297
22.25602878 0.91270206 50.14806389
10.12216670 -12.25593677 40.53478990
-11.54570958 -18.89330412 42.68278889
-20.78493646 -1.70124263 48.95213703
-15.46233353 12.11503254 39.28421458
11.93185999 19.13710161 46.13106453
3 1 0 7
3 7 0 6
3 2 1 8
3 8 1 7
3 3 2 9
3 9 2 8
3 4 3 10
3 10 3 9
3 5 4 11
3 11 4 10
3 0 5 6
3 6 5 11
3 5 3 4
3 5 2 3
3 0 2 5
3 1 2 0
3 10 9 11
3 11 9 8
3 11 8 6
3 6 8 7
