ply
format ascii 1.0
comment VCGLIB generated
element vertex 12
property float x
property float y
property float z
element face 20
property list uchar int vertex_indices
end_header
8.30219791 -3.43537869 1.76683287
6.69522824 -8.54076461 -1.81819012
-7.58880458 -8.82503516 1.03478007
-9.34921405 1.13453007 1.83045452
-7.94810138 8.21448016 -2.34156776
4.64320978 8.18311961 2.26913549
11.45833746 3.31311309 20.76451891
4.37984572 -5.69290498 22.27667876
-2.76253845 -12.13179294 20.08277586
-12.07610685 -0.19115722 19.10677579
-6.84215026 5.39301680 19.96166924
6.59706188 10.72830269 19.87255033
3 1 0 7
3 7 0 6
3 2 1 8
3 8 1 7
3 3 2 9
3 9 2 8
3 4 3 10
3 10 3 9
3 5 4 11
3 11 4 10
3 0 5 6
3 6 5 11
3 5 3 4
3 5 2 3
3 0 2 5
3 1 2 0
3 10 9 11
3 11 9 8
3 11 8 6
3 6 8 7
