ply
format ascii 1.0
comment VCGLIB generated
element vertex 12
property float x
property float y
property float z
element face 20
property list uchar int vertex_indices
end_header
5.92227175 -0.02230379 0.53642737
4.29498326 -7.78694074 0.44565233
-4.32567539 -4.77595654 -0.61293626
-4.48059974 -0.04068634 0.88080135
-2.08741325 6.45158813 -2.56672785
2.74777967 4.74431221 0.67874209
6.99709692 -0.01330239 14.83129011
5.49428552 -5.48216970 13.13211261
-4.28562761 -7.06955588 12.28808330
-7.62278979 0.45523864 14.54700319
-3.87845798 7.38347555 14.04793205
3.91178230 6.48246290 14.96662248
3 1 0 7
3 7 0 6
3 2 1 8
3 8 1 7
3 3 2 9
3 9 2 8
3 4 3 10
3 10 3 9
3 5 4 11
3 11 4 10
3 0 5 6
3 6 5 11
3 5 3 4
3 5 2 3
3 0 2 5
3 1 2 0
3 10 9 11
3 11 9 8
3 11 8 6
3 6 8 7
