ply
format ascii 1.0
comment VCGLIB generated
element vertex 12
property float x
property float y
property float z
element face 20
property list uchar int vertex_indices
end_header
2.92598187 0.39466627 -0.34648300
1.26990247 -1.77726008 0.85166275
-0.66104010 -2.40531215 0.35359338
-2.36454103 -0.41153516 -0.01658259
-1.49754268 1.74100737 -0.08342145
0.94445057 2.16991987 -0.57565197
3.00238008 0.46656851 5.19600566
1.45918978 -1.37299459 4.24907654
-2.00688100 -2.61650749 5.88564870
-2.50218164 -0.13657088 4.94195706
-1.74535056 1.27964943 4.65328061
0.98438121 2.77233536 5.10592265
3 1 0 7
3 7 0 6
3 2 1 8
3 8 1 7
3 3 2 9
3 9 2 8
3 4 3 10
3 10 3 9
3 5 4 11
3 11 4 10
3 0 5 6
3 6 5 11
3 5 3 4
3 5 2 3
3 0 2 5
3 1 2 0
3 10 9 11
3 11 9 8
3 11 8 6
3 6 8 7
