ply
format ascii 1.0
comment VCGLIB generated
element vertex 10
property float x
property float y
property float z
element face 16
property list uchar int vertex_indices
end_header
-6.59196518 4.33239224 2.89981461
-8.02886105 -8.28731689 1.90375185
5.87415007 -8.58397181 -0.64609833
9.83607976 4.30514497 -1.95021396
3.59667400 10.37246254 1.96306155
-9.64892299 4.74052808 22.41878950
-5.19066567 -9.21177689 20.41591521
7.80111846 -4.88428127 22.25780548
7.70758891 2.14218809 15.73118310
2.66406534 12.19913011 20.80633648
3 1 2 7
3 1 7 6
3 2 3 8
3 2 8 7
3 3 4 9
3 3 9 8
3 4 0 5
3 4 5 9
3 0 1 6
3 0 6 5
3 4 3 0
3 0 3 1
3 1 3 2
3 5 8 9
3 6 8 5
3 7 8 6
