ply
format ascii 1.0
comment VCGLIB generated
element vertex 8
property float x
property float y
property float z
element face 12
property list uchar int vertex_indices
end_header
-15.97674723 -15.37810076 -2.85303943
15.15588039 -7.21449555 -0.60443831
17.14608755 16.84479458 -7.09520196
-14.73570758 15.06399893 -3.74039197
-10.65500916 -11.51269940 40.13188860
10.83896979 -14.70151175 31.52825040
13.39287100 11.34634311 38.82984457
-12.23229289 14.13236061 37.42513580
3 0 1 5
3 0 5 4
3 1 2 6
3 1 6 5
3 2 3 7
3 2 7 6
3 3 0 4
3 3 4 7
3 2 1 0
3 2 0 3
3 6 4 5
3 6 7 4
