ply
format ascii 1.0
comment VCGLIB generated
element vertex 12
property float x
property float y
property float z
element face 20
property list uchar int vertex_indices
end_header
12.22395451 2.03892812 -0.17569692
3.73240671 -8.32910841 -2.36705626
-1.68931411 -9.27881201 0.95359053
-12.96551946 -3.85192714 -0.06092099
-5.84781405 8.92336503 -2.07358966
5.26821517 12.62662680 -0.16299965
10.60872710 -0.33744322 19.60786711
0.25501925 -7.41183535 18.32313886
-2.44571288 -10.94366858 18.88071646
-8.87843236 -0.18395059 25.35674755
-8.32658695 12.32061704 22.01705936
8.11072723 11.50770307 20.03499389
3 1 0 7
3 7 0 6
3 2 1 8
3 8 1 7
3 3 2 9
3 9 2 8
3 4 3 10
3 10 3 9
3 5 4 11
3 11 4 10
3 0 5 6
3 6 5 11
3 5 3 4
3 5 2 3
3 0 2 5
3 1 2 0
3 10 9 11
3 11 9 8
3 11 8 6
3 6 8 7
