ply
format ascii 1.0
comment VCGLIB generated
element vertex 10
property float x
property float y
property float z
element face 16
property list uchar int vertex_indices
end_header
-10.57713118 3.14636603 0.29251881
-13.74448101 -8.14098094 0.33839359
4.24105084 -10.99958715 1.66118324
9.66054469 8.60176322 -1.95121321
3.12392291 14.85066722 -0.70075249
-10.85471289 2.05517464 21.05041053
-6.88860225 -9.47697971 23.54880891
8.42983827 -8.33002977 27.04216754
12.95681557 3.11626455 21.20286336
1.71540995 10.39489832 26.07848469
3 1 2 7
3 1 7 6
3 2 3 8
3 2 8 7
3 3 4 9
3 3 9 8
3 4 0 5
3 4 5 9
3 0 1 6
3 0 6 5
3 4 3 0
3 0 3 1
3 1 3 2
3 5 8 9
3 6 8 5
3 7 8 6
