ply
format ascii 1.0
comment VCGLIB generated
element vertex 12
property float x
property float y
property float z
element face 20
property list uchar int vertex_indices
end_header
19.36508123 -1.14617022 -0.70070502
8.52064648 -16.85344938 -3.13230483
-10.59882644 -18.72699054 -1.18763186
-14.75024605 -8.91364706 -2.04908896
-7.92809938 14.07672399 2.05767124
9.40325319 10.21368582 -1.80274955
20.60649771 -0.51835898 40.87476845
5.23099935 -15.49806901 42.86173831
-2.16479779 -11.54277300 43.31470691
-25.00116141 -4.20788637 42.19345051
-9.29484087 12.71026561 45.90255987
7.72779372 19.96789387 39.51059852
3 1 0 7
3 7 0 6
3 2 1 8
3 8 1 7
3 3 2 9
3 9 2 8
3 4 3 10
3 10 3 9
3 5 4 11
3 11 4 10
3 0 5 6
3 6 5 11
3 5 3 4
3 5 2 3
3 0 2 5
3 1 2 0
3 10 9 11
3 11 9 8
3 11 8 6
3 6 8 7
