ply
format ascii 1.0
comment VCGLIB generated
element vertex 8
property float x
property float y
property float z
element face 12
property list uchar int vertex_indices
end_header
-3.59130080 -5.90090335 -1.23558203
5.86714143 -5.01500841 -2.25225023
4.88187576 2.78305387 -0.36728389
-5.59968683 7.04913604 0.46121072
-3.11221468 -5.58227902 11.96230840
3.56772856 -4.61942548 15.18327982
5.09164376 4.45656061 13.78786099
-4.46396296 6.09995062 12.21225725
3 0 1 5
3 0 5 4
3 1 2 6
3 1 6 5
3 2 3 7
3 2 7 6
3 3 0 4
3 3 4 7
3 2 1 0
3 2 0 3
3 6 4 5
3 6 7 4
