ply
format ascii 1.0
comment VCGLIB generated
element vertex 12
property float x
property float y
property float z
element face 20
property list uchar int vertex_indices
end_header
3.02472287 0.89268180 0.13655360
0.93844216 -1.38112535 -0.04139919
-0.27920064 -1.40540016 -0.32968060
-3.58913861 -0.48939391 0.84986992
-1.15590951 2.19638495 0.00533665
2.36070915 2.20624938 -0.25718779
2.79210035 -0.01627300 4.74206554
1.03322404 -2.69335799 5.21817653
-0.79743539 -1.63251338 6.09423393
-2.33343046 -0.54771162 4.86848184
-1.80997198 2.59203890 5.15218965
1.13838354 1.55639672 4.44866614
3 1 0 7
3 7 0 6
3 2 1 8
3 8 1 7
3 3 2 9
3 9 2 8
3 4 3 10
3 10 3 9
3 5 4 11
3 11 4 10
3 0 5 6
3 6 5 11
3 5 3 4
3 5 2 3
3 0 2 5
3 1 2 0
3 10 9 11
3 11 9 8
3 11 8 6
3 6 8 7
