ply
format ascii 1.0
comment VCGLIB generated
element vertex 8
property float x
property float y
property float z
element face 12
property list uchar int vertex_indices
end_header
-12.88942218 -10.78759930 -4.92243540
7.55433187 -12.01244151 0.80521971
7.83128978 10.86318057 1.33839554
-10.98570481 4.35701366 0.50116064
-11.85629336 -8.38079430 28.00095188
10.11273150 -8.96715239 30.73826546
12.24986604 7.67921678 30.51489165
-8.88283612 11.77246776 28.88416813
3 0 1 5
3 0 5 4
3 1 2 6
3 1 6 5
3 2 3 7
3 2 7 6
3 3 0 4
3 3 4 7
3 2 1 0
3 2 0 3
3 6 4 5
3 6 7 4
