ply
format ascii 1.0
comment VCGLIB generated
element vertex 10
property float x
property float y
property float z
element face 16
property list uchar int vertex_indices
end_header
-10.15925771 2.11387967 -2.25461684
-5.52529438 -7.55777068 2.21127505
5.07279741 -7.34359983 1.36706886
9.73834914 1.35380015 0.07228999
1.18018606 7.24851793 1.00367960
-9.51981342 3.75924301 19.69558235
-6.52619803 -5.69285510 16.94370022
5.52047347 -7.64818990 22.40964875
9.04132498 2.81131541 17.57068259
-1.24435642 5.20671331 15.04967145
3 1 2 7
3 1 7 6
3 2 3 8
3 2 8 7
3 3 4 9
3 3 9 8
3 4 0 5
3 4 5 9
3 0 1 6
3 0 6 5
3 4 3 0
3 0 3 1
3 1 3 2
3 5 8 9
3 6 8 5
3 7 8 6
