ply
format ascii 1.0
comment VCGLIB generated
element vertex 10
property float x
property float y
property float z
element face 16
property list uchar int vertex_indices
end_header
-8.94255847 10.42761461 3.52946819
-8.59794746 -10.45492681 -0.39614433
3.87473369 -16.60695244 -1.22093227
8.54838896 4.16809738 1.63109844
-2.65994661 14.65309027 -0.08987126
-19.41921478 6.54346342 32.51958563
-12.14018342 -10.35145484 30.76219870
3.94409855 -11.34129454 35.13344556
12.27454714 8.43956841 28.87896187
2.45118999 14.89157646 33.00230679
3 1 2 7
3 1 7 6
3 2 3 8
3 2 8 7
3 3 4 9
3 3 9 8
3 4 0 5
3 4 5 9
3 0 1 6
3 0 6 5
3 4 3 0
3 0 3 1
3 1 3 2
3 5 8 9
3 6 8 5
3 7 8 6
