ply
format ascii 1.0
comment VCGLIB generated
element vertex 12
property float x
property float y
property float z
element face 20
property list uchar int vertex_indices
end_header
25.23481602 -4.73119997 -1.07666294
11.69226803 -16.49690801 -0.17483082
-19.44188940 -27.67528588 1.81009908
-26.28230998 1.87278052 7.55569593
-12.44421077 13.48666357 0.25703753
7.26628740 20.36792617 1.30258923
22.02047248 8.61125964 38.08900684
13.08042450 -10.36665101 44.32004461
-15.24600710 -16.97919551 41.96595877
-19.01174962 -3.04332498 44.26989044
-12.78603160 15.96826827 45.48443418
3.72054440 23.30592758 43.15407596
3 1 0 7
3 7 0 6
3 2 1 8
3 8 1 7
3 3 2 9
3 9 2 8
3 4 3 10
3 10 3 9
3 5 4 11
3 11 4 10
3 0 5 6
3 6 5 11
3 5 3 4
3 5 2 3
3 0 2 5
3 1 2 0
3 10 9 11
3 11 9 8
3 11 8 6
3 6 8 7
