ply
format ascii 1.0
comment VCGLIB generated
element vertex 8
property float x
property float y
property float z
element face 12
property list uchar int vertex_indices
end_header
-17.97025520 -11.86252379 -5.37878701
16.34103450 -18.09749049 7.21600452
24.44598129 15.96780726 -5.93369835
-22.64298687 18.89856233 9.27056683
-16.76230532 -15.71319404 54.02973425
16.59001926 -8.46382573 56.37941286
19.06439014 13.01266749 53.20390261
-22.89527729 20.47298155 51.08287898
3 0 1 5
3 0 5 4
3 1 2 6
3 1 6 5
3 2 3 7
3 2 7 6
3 3 0 4
3 3 4 7
3 2 1 0
3 2 0 3
3 6 4 5
3 6 7 4
