ply
format ascii 1.0
comment VCGLIB generated
element vertex 8
property float x
property float y
property float z
element face 12
property list uchar int vertex_indices
end_header
-5.37483320 -2.58866269 1.66386615
3.62782106 -5.10604461 -1.44066400
4.17967382 5.21263766 -1.12392187
-2.67648678 2.72017386 -1.58665114
-3.21622041 -6.32418203 10.37405192
3.44450391 -5.03521125 10.46196466
6.35723774 7.32156583 12.77718006
-5.22778646 2.83619261 9.25386220
3 0 1 5
3 0 5 4
3 1 2 6
3 1 6 5
3 2 3 7
3 2 7 6
3 3 0 4
3 3 4 7
3 2 1 0
3 2 0 3
3 6 4 5
3 6 7 4
