ply
format ascii 1.0
comment VCGLIB generated
element vertex 10
property float x
property float y
property float z
element face 16
property list uchar int vertex_indices
end_header
-5.58804161 3.00541039 1.09307399
-2.44999013 -5.21375700 -0.34663272
1.11005713 -4.91608081 -0.43592772
4.08510920 -0.84281933 -0.72969942
-1.56370641 4.44782784 -1.27402586
-4.68160151 1.97324733 11.56898542
-3.41722067 -3.89966939 9.98737848
1.91363007 -4.48020406 9.52610564
3.13358820 3.97514082 9.61569144
1.17955114 3.80299417 8.35483586
3 1 2 7
3 1 7 6
3 2 3 8
3 2 8 7
3 3 4 9
3 3 9 8
3 4 0 5
3 4 5 9
3 0 1 6
3 0 6 5
3 4 3 0
3 0 3 1
3 1 3 2
3 5 8 9
3 6 8 5
3 7 8 6
