ply
format ascii 1.0
comment VCGLIB generated
element vertex 8
property float x
property float y
property float z
element face 12
property list uchar int vertex_indices
end_header
-3.81922421 -2.25731678 -1.02138336
2.53340684 -3.67927231 -1.27628442
4.41730901 3.53102207 1.09151492
-3.30512778 4.89111760 -1.32456298
-2.84111701 -3.61278768 9.51573936
3.54489153 -2.77991641 9.86963769
2.09531750 4.47981294 9.26421720
-2.83694602 3.94589188 9.08814987
3 0 1 5
3 0 5 4
3 1 2 6
3 1 6 5
3 2 3 7
3 2 7 6
3 3 0 4
3 3 4 7
3 2 1 0
3 2 0 3
3 6 4 5
3 6 7 4
