ply
format ascii 1.0
comment VCGLIB generated
element vertex 8
property float x
property float y
property float z
element face 12
property list uchar int vertex_indices
end_header
-15.81987527 -17.11025300 -3.71649651
14.64406032 -8.39274932 -3.10765826
12.80551444 15.48526170 -3.43261423
-13.83964931 7.72343711 -0.95531310
-15.58673405 -11.35730547 35.48679644
13.56179196 -4.87530819 35.44166625
11.62785272 12.56795775 35.91085963
-5.49768923 15.43080989 35.70428302
3 0 1 5
3 0 5 4
3 1 2 6
3 1 6 5
3 2 3 7
3 2 7 6
3 3 0 4
3 3 4 7
3 2 1 0
3 2 0 3
3 6 4 5
3 6 7 4
