ply
format ascii 1.0
comment VCGLIB generated
element vertex 10
property float x
property float y
property float z
element face 16
property list uchar int vertex_indices
end_header
-2.51997276 3.11034200 1.55051050
-3.22389494 -3.87854549 -1.16262029
4.16589341 -4.44601767 1.70618564
6.52612479 0.60888088 0.12227060
-0.21873782 3.52320001 1.16150938
-3.28854424 1.34611044 10.04109376
-3.32606529 -3.45499995 9.11696324
3.12035818 -2.91275940 9.55609091
6.01428898 0.53357470 9.68833232
-2.25119227 4.01948963 10.98129049
3 1 2 7
3 1 7 6
3 2 3 8
3 2 8 7
3 3 4 9
3 3 9 8
3 4 0 5
3 4 5 9
3 0 1 6
3 0 6 5
3 4 3 0
3 0 3 1
3 1 3 2
3 5 8 9
3 6 8 5
3 7 8 6
