ply
format ascii 1.0
comment VCGLIB generated
element vertex 8
property float x
property float y
property float z
element face 12
property list uchar int vertex_indices
end_header
-5.18205903 -9.55828735 -4.90134703
14.40914766 -10.91844653 1.44647059
13.20293866 12.16357310 -3.20928402
-10.88882572 8.22456560 -0.17193975
-9.55984829 -6.05222589 32.17725219
6.48450132 -14.01640538 27.67718061
6.98619830 13.36664991 28.84258741
-11.52261666 9.16680817 30.32778479
3 0 1 5
3 0 5 4
3 1 2 6
3 1 6 5
3 2 3 7
3 2 7 6
3 3 0 4
3 3 4 7
3 2 1 0
3 2 0 3
3 6 4 5
3 6 7 4
