ply
format ascii 1.0
comment VCGLIB generated
element vertex 10
property float x
property float y
property float z
element face 16
property list uchar int vertex_indices
end_header
-3.65393891 1.74051849 0.15926767
-3.28131073 -4.05619886 -1.16183683
2.64597334 -3.32167416 0.14889901
3.20558369 1.64350519 0.59393641
0.84444505 4.67789942 -0.94032814
-4.54129751 1.39455631 7.57622263
-1.33031795 -4.37016975 6.63233522
2.01641714 -3.35799353 9.26312207
4.74365931 2.56421812 6.55500735
-0.20460608 2.49651639 7.64371536
3 1 2 7
3 1 7 6
3 2 3 8
3 2 8 7
3 3 4 9
3 3 9 8
3 4 0 5
3 4 5 9
3 0 1 6
3 0 6 5
3 4 3 0
3 0 3 1
3 1 3 2
3 5 8 9
3 6 8 5
3 7 8 6
