ply
format ascii 1.0
comment VCGLIB generated
element vertex 10
property float x
property float y
property float z
element face 16
property list uchar int vertex_indices
end_header
-19.93684042 10.43452178 -4.78628582
-18.05842398 -19.65709181 -1.19014274
10.20375667 -13.68799343 0.53016809
19.34112009 4.02062849 9.03380811
4.34863970 21.77402833 -3.38422726
-25.50718629 7.92059016 44.25746713
-12.44630124 -21.47074477 44.98878030
17.94571050 -16.35977280 47.25687092
18.07593756 6.59160921 43.24178375
-1.87531472 16.36979481 45.96077488
3 1 2 7
3 1 7 6
3 2 3 8
3 2 8 7
3 3 4 9
3 3 9 8
3 4 0 5
3 4 5 9
3 0 1 6
3 0 6 5
3 4 3 0
3 0 3 1
3 1 3 2
3 5 8 9
3 6 8 5
3 7 8 6
