ply
format ascii 1.0
comment VCGLIB generated
element vertex 12
property float x
property float y
property float z
element face 20
property list uchar int vertex_indices
end_header
18.69713052 -1.45622480 -3.79179945
9.58874501 -15.81912956 -2.68188969
-8.50155093 -18.63760608 -5.00249126
-20.13329303 -0.88719801 -8.37579115
-10.36835226 11.79470036 1.93621268
10.57197453 15.50500262 2.49314479
19.65801210 1.22570825 41.16988401
8.96662340 -17.21996122 39.80718405
-9.08920669 -25.61664570 46.79392173
-22.44990707 0.20268458 46.11236929
-7.06886551 12.06000353 41.83259594
2.64086541 24.65308468 40.37189784
3 1 0 7
3 7 0 6
3 2 1 8
3 8 1 7
3 3 2 9
3 9 2 8
3 4 3 10
3 10 3 9
3 5 4 11
3 11 4 10
3 0 5 6
3 6 5 11
3 5 3 4
3 5 2 3
3 0 2 5
3 1 2 0
3 10 9 11
3 11 9 8
3 11 8 6
3 6 8 7
