ply
format ascii 1.0
comment VCGLIB generated
element vertex 10
property float x
property float y
property float z
element face 16
property list uchar int vertex_indices
end_header
-14.27640275 6.34664789 4.26867231
-8.85444241 -14.40228430 2.61693240
7.86854343 -11.73357669 -1.03338568
11.29663759 1.99901068 -2.94416316
-1.25317734 11.54267376 0.31781510
-12.41662645 8.95794060 24.41791498
-8.24781419 -9.06176303 24.59199508
6.31741954 -10.27330960 31.18617296
9.80268588 7.78729614 24.14886351
0.60298864 14.96597345 27.46800085
3 1 2 7
3 1 7 6
3 2 3 8
3 2 8 7
3 3 4 9
3 3 9 8
3 4 0 5
3 4 5 9
3 0 1 6
3 0 6 5
3 4 3 0
3 0 3 1
3 1 3 2
3 5 8 9
3 6 8 5
3 7 8 6
