ply
format ascii 1.0
comment VCGLIB generated
element vertex 12
property float x
property float y
property float z
element face 20
property list uchar int vertex_indices
end_header
15.19362379 -0.00968718 0.53927692
5.49611985 -10.86697330 1.44467905
-8.08298005 -8.63459685 -4.80028828
-13.48577013 -0.66198103 1.67483366
-3.74164845 12.89146763 3.02916429
4.79183877 8.83175231 -1.47610299
13.61350266 0.67681506 26.28294627
11.22563239 -6.34653408 27.58306494
-7.31663128 -12.72574041 27.96986230
-19.11747491 -0.39376738 23.05413455
-8.32939338 12.77226741 23.09944213
5.28507939 11.41017150 27.74746097
3 1 0 7
3 7 0 6
3 2 1 8
3 8 1 7
3 3 2 9
3 9 2 8
3 4 3 10
3 10 3 9
3 5 4 11
3 11 4 10
3 0 5 6
3 6 5 11
3 5 3 4
3 5 2 3
3 0 2 5
3 1 2 0
3 10 9 11
3 11 9 8
3 11 8 6
3 6 8 7
