ply
format ascii 1.0
comment VCGLIB generated
element vertex 12
property float x
property float y
property float z
element face 20
property list uchar int vertex_indices
end_header
8.11538199 -3.00247368 -0.67366013
7.16504671 -4.19884946 0.40228939
-2.95881753 -9.20429741 -0.27527682
-7.60506261 1.07226489 0.57500477
-6.51221773 8.69477680 -0.57418521
3.28872790 9.54652964 1.87055008
8.92609818 -0.65373753 16.55646623
6.17430435 -9.13732545 17.10046369
-5.90940466 -5.73282733 16.35892944
-9.43620339 -2.38340723 19.04520618
-4.24791586 5.05100382 14.02553043
4.55091900 5.94820980 16.79600514
3 1 0 7
3 7 0 6
3 2 1 8
3 8 1 7
3 3 2 9
3 9 2 8
3 4 3 10
3 10 3 9
3 5 4 11
3 11 4 10
3 0 5 6
3 6 5 11
3 5 3 4
3 5 2 3
3 0 2 5
3 1 2 0
3 10 9 11
3 11 9 8
3 11 8 6
3 6 8 7
