ply
format ascii 1.0
comment VCGLIB generated
element vertex 8
property float x
property float y
property float z
element face 12
property list uchar int vertex_indices
end_header
-2.44524589 -9.97504160 0.07590703
9.60820399 -8.11311796 -3.33798589
11.08822760 11.65324038 -0.74341173
-7.60996107 10.68159138 -3.69063513
-8.82341914 -7.68497229 22.57620688
7.86694817 -8.86588797 24.69726302
7.81245712 8.87333360 20.47976059
-11.46246341 5.89738574 24.31326744
3 0 1 5
3 0 5 4
3 1 2 6
3 1 6 5
3 2 3 7
3 2 7 6
3 3 0 4
3 3 4 7
3 2 1 0
3 2 0 3
3 6 4 5
3 6 7 4
