ply
format ascii 1.0
comment VCGLIB generated
element vertex 10
property float x
property float y
property float z
element face 16
property list uchar int vertex_indices
end_header
-22.15731509 6.51317063 2.88828908
-11.39353272 -15.52510153 1.05296312
8.91877527 -9.62655070 -4.78590022
18.62208978 4.11637910 -0.57025861
-4.77083447 16.91651584 1.42608271
-23.23741590 9.14554754 35.22558276
-9.91777799 -9.15287624 39.52931684
8.58574635 -16.14751179 37.77511690
23.48494913 7.36197104 36.14364630
-4.97822998 18.40789483 32.64341980
3 1 2 7
3 1 7 6
3 2 3 8
3 2 8 7
3 3 4 9
3 3 9 8
3 4 0 5
3 4 5 9
3 0 1 6
3 0 6 5
3 4 3 0
3 0 3 1
3 1 3 2
3 5 8 9
3 6 8 5
3 7 8 6
