ply
format ascii 1.0
comment VCGLIB generated
element vertex 12
property float x
property float y
property float z
element face 20
property list uchar int vertex_indices
end_header
2.75421207 -0.24290710 0.20788322
1.06069252 -2.67381670 0.06276745
-1.40905566 -2.46215533 -0.22220115
-2.73442864 0.14813435 -0.21413408
-1.83771246 2.15360634 -0.47370253
0.52711793 1.60087524 0.50218303
2.23146801 0.26440437 4.23831711
1.63260545 -1.87678381 5.41611050
-1.44250607 -2.55141309 4.92279697
-2.82185854 0.12617638 4.14784897
-1.08576807 2.65602119 4.83019855
0.89905621 2.16796131 5.25737393
3 1 0 7
3 7 0 6
3 2 1 8
3 8 1 7
3 3 2 9
3 9 2 8
3 4 3 10
3 10 3 9
3 5 4 11
3 11 4 10
3 0 5 6
3 6 5 11
3 5 3 4
3 5 2 3
3 0 2 5
3 1 2 0
3 10 9 11
3 11 9 8
3 11 8 6
3 6 8 7
