ply
format ascii 1.0
comment VCGLIB generated
element vertex 10
property float x
property float y
property float z
element face 16
property list uchar int vertex_indices
end_header
-28.13672599 8.19184156 4.70231412
-14.39925882 -14.57600224 -8.56799030
19.43675010 -18.57281893 -1.72193251
31.33705415 9.14082573 2.34733074
6.17968135 31.48476315 6.48643722
-22.64716247 8.86183429 59.44354826
-16.91696654 -24.87695580 56.82989183
16.89603555 -25.46551148 48.95525470
29.23274052 7.66759006 71.00959163
5.12493557 28.69499576 49.85858119
3 1 2 7
3 1 7 6
3 2 3 8
3 2 8 7
3 3 4 9
3 3 9 8
3 4 0 5
3 4 5 9
3 0 1 6
3 0 6 5
3 4 3 0
3 0 3 1
3 1 3 2
3 5 8 9
3 6 8 5
3 7 8 6
