ply
format ascii 1.0
comment VCGLIB generated
element vertex 12
property float x
property float y
property float z
element face 20
property list uchar int vertex_indices
end_header
18.50869991 -3.47801289 1.23738347
7.70217117 -16.30817261 -0.64153353
-9.91952745 -17.06573496 -6.70677098
-17.12160176 4.84772704 -4.70455622
-8.85748633 16.26967507 -1.67438931
8.77443936 8.17081721 -3.03080159
19.08081157 -0.93894256 29.54418079
6.51780382 -13.19986362 38.05057118
-9.90842267 -11.87236454 35.00657613
-16.32373642 -1.24158929 31.79603399
-4.11771523 15.05004434 31.07278735
7.35605065 15.47822897 32.58606295
3 1 0 7
3 7 0 6
3 2 1 8
3 8 1 7
3 3 2 9
3 9 2 8
3 4 3 10
3 10 3 9
3 5 4 11
3 11 4 10
3 0 5 6
3 6 5 11
3 5 3 4
3 5 2 3
3 0 2 5
3 1 2 0
3 10 9 11
3 11 9 8
3 11 8 6
3 6 8 7
