ply
format ascii 1.0
comment VCGLIB generated
element vertex 10
property float x
property float y
property float z
element face 16
property list uchar int vertex_indices
end_header
-15.82798753 8.08116191 -4.10550450
-10.66938684 -22.11359725 5.27497679
19.38279946 -21.38259057 -0.74169525
20.17340024 10.24621705 -1.22156663
4.46560696 21.26030234 7.80517478
-32.47283228 -2.69431111 40.26210107
-13.75517314 -17.94526618 45.85516936
12.89016385 -12.18453813 41.26287245
20.55034241 3.52861504 51.12844821
-2.27065865 24.41151673 35.65844282
3 1 2 7
3 1 7 6
3 2 3 8
3 2 8 7
3 3 4 9
3 3 9 8
3 4 0 5
3 4 5 9
3 0 1 6
3 0 6 5
3 4 3 0
3 0 3 1
3 1 3 2
3 5 8 9
3 6 8 5
3 7 8 6
