ply
format ascii 1.0
comment VCGLIB generated
element vertex 8
property float x
property float y
property float z
element face 12
property list uchar int vertex_indices
end_header
-30.63621978 -17.37147637 2.23000011
22.60004525 -26.87409171 -4.84016520
12.64411137 19.47811587 -3.12054354
-19.54311038 8.85976400 -6.98063797
-22.45288145 -14.86619840 48.11566883
15.60125383 -16.92977607 52.41774139
26.91447933 19.05067520 51.23358761
-15.73316010 17.70086628 53.81005185
3 0 1 5
3 0 5 4
3 1 2 6
3 1 6 5
3 2 3 7
3 2 7 6
3 3 0 4
3 3 4 7
3 2 1 0
3 2 0 3
3 6 4 5
3 6 7 4
