ply
format ascii 1.0
comment VCGLIB generated
element vertex 10
property float x
property float y
property float z
element face 16
property list uchar int vertex_indices
end_header
-8.54352688 2.80710882 2.25192278
-3.75079208 -8.27709659 1.38653337
4.55783134 -9.78034678 -2.56361089
8.36365640 4.89970551 1.06061933
-2.73684922 12.86409648 5.86357220
-9.26824746 -0.10882083 20.01823391
-2.51669041 -9.50292689 18.59681452
4.39992875 -12.21811262 24.23171758
9.60763574 2.19121993 23.78686147
-0.15905966 9.77537871 21.92213637
3 1 2 7
3 1 7 6
3 2 3 8
3 2 8 7
3 3 4 9
3 3 9 8
3 4 0 5
3 4 5 9
3 0 1 6
3 0 6 5
3 4 3 0
3 0 3 1
3 1 3 2
3 5 8 9
3 6 8 5
3 7 8 6
