ply
format ascii 1.0
comment VCGLIB generated
element vertex 8
property float x
property float y
property float z
element face 12
property list uchar int vertex_indices
end_header
-7.10224419 -5.69985104 -0.18197015
6.67613378 -7.25100755 1.57182527
7.16920562 8.40707988 3.04620314
-6.22291603 10.76684769 3.34438108
-10.48796985 -2.91980480 19.04399460
6.56562197 -8.78833839 20.87317450
9.35260248 7.44647467 24.25662221
-7.19906450 8.26641411 24.42254745
3 0 1 5
3 0 5 4
3 1 2 6
3 1 6 5
3 2 3 7
3 2 7 6
3 3 0 4
3 3 4 7
3 2 1 0
3 2 0 3
3 6 4 5
3 6 7 4
