ply
format ascii 1.0
comment VCGLIB generated
element vertex 8
property float x
property float y
property float z
element face 12
property list uchar int vertex_indices
end_header
-12.55824471 -15.70804089 3.51837300
11.88628745 -21.13112140 -10.15218565
17.87747935 14.02088190 4.36649739
-22.74916754 13.72735747 7.78711945
-13.37205351 -8.97394384 38.46489448
17.15173768 -14.45228909 43.65870779
2.95910244 17.31554638 38.15917171
-16.92171624 9.41348669 49.18534276
3 0 1 5
3 0 5 4
3 1 2 6
3 1 6 5
3 2 3 7
3 2 7 6
3 3 0 4
3 3 4 7
3 2 1 0
3 2 0 3
3 6 4 5
3 6 7 4
