ply
format ascii 1.0
comment VCGLIB generated
element vertex 12
property float x
property float y
property float z
element face 20
property list uchar int vertex_indices
end_header
30.25089899 -0.87136890 -0.48751361
18.13156645 -32.01067544 0.73335288
-13.74084047 -30.94321191 -5.83076427
-29.15706034 3.14311151 5.03580445
-15.74790119 31.46993559 9.38248696
7.04286171 21.84118136 -2.10430820
38.85028684 8.21090117 58.76611163
14.58040427 -26.62480027 51.73129032
-10.65015543 -22.14920207 62.47814051
-31.65435730 10.73267533 54.45753249
-15.44582053 19.27664290 55.91362184
14.51591734 20.92341813 59.89301795
3 1 0 7
3 7 0 6
3 2 1 8
3 8 1 7
3 3 2 9
3 9 2 8
3 4 3 10
3 10 3 9
3 5 4 11
3 11 4 10
3 0 5 6
3 6 5 11
3 5 3 4
3 5 2 3
3 0 2 5
3 1 2 0
3 10 9 11
3 11 9 8
3 11 8 6
3 6 8 7
