ply
format ascii 1.0
comment VCGLIB generated
element vertex 10
property float x
property float y
property float z
element face 16
property list uchar int vertex_indices
end_header
-21.87185383 2.19002024 2.18479401
-19.03222075 -15.38226174 7.06708511
11.05781455 -18.44146995 0.93587980
15.10094085 8.23272304 -3.47185671
2.74646248 23.04907580 4.07546370
-25.18538758 5.19768172 37.69095080
-16.73062972 -10.43523639 46.66807255
14.88502862 -15.69357649 52.51394194
26.30740611 -2.95277641 46.32202840
-1.60286786 19.88701128 50.69103675
3 1 2 7
3 1 7 6
3 2 3 8
3 2 8 7
3 3 4 9
3 3 9 8
3 4 0 5
3 4 5 9
3 0 1 6
3 0 6 5
3 4 3 0
3 0 3 1
3 1 3 2
3 5 8 9
3 6 8 5
3 7 8 6
