ply
format ascii 1.0
comment VCGLIB generated
element vertex 8
property float x
property float y
property float z
element face 12
property list uchar int vertex_indices
end_header
-19.47818563 -27.17577328 -5.24801607
21.15544257 -18.77482848 4.33071348
22.01196613 24.19222850 8.45527593
-26.47975447 30.88997695 2.05682883
-16.03929575 -18.06471383 54.24620802
13.24192456 -19.60433454 57.92568278
27.57611858 26.96959098 61.43578925
-16.91581295 15.85036533 51.65288246
3 0 1 5
3 0 5 4
3 1 2 6
3 1 6 5
3 2 3 7
3 2 7 6
3 3 0 4
3 3 4 7
3 2 1 0
3 2 0 3
3 6 4 5
3 6 7 4
