ply
format ascii 1.0
comment VCGLIB generated
element vertex 8
property float x
property float y
property float z
element face 12
property list uchar int vertex_indices
end_header
-7.42007257 -7.49827605 -0.68745740
9.44537240 -9.76994084 -2.08638915
8.42061942 11.82741230 -2.05236287
-8.12230154 10.32546640 -1.19107536
-12.13442718 -10.85005347 26.94077174
4.23736190 -6.01140686 26.55732013
10.71988194 10.33061546 27.60687008
-11.14014625 8.19509870 24.10154679
3 0 1 5
3 0 5 4
3 1 2 6
3 1 6 5
3 2 3 7
3 2 7 6
3 3 0 4
3 3 4 7
3 2 1 0
3 2 0 3
3 6 4 5
3 6 7 4
