ply
format ascii 1.0
comment VCGLIB generated
element vertex 10
property float x
property float y
property float z
element face 16
property list uchar int vertex_indices
end_header
-17.47240635 9.35341250 -0.56134873
-15.67537566 -18.34806622 -5.02671719
19.90042840 -15.17941827 -6.92987364
20.06494689 8.44071514 -4.51498470
-5.09435818 18.39488362 -1.26389432
-22.50958147 5.69815178 40.58993320
-22.57393918 -15.25097637 42.07618099
17.98944192 -16.91454490 37.32500943
13.88706411 4.55519884 48.69549819
-3.39420126 24.10752842 45.78105650
3 1 2 7
3 1 7 6
3 2 3 8
3 2 8 7
3 3 4 9
3 3 9 8
3 4 0 5
3 4 5 9
3 0 1 6
3 0 6 5
3 4 3 0
3 0 3 1
3 1 3 2
3 5 8 9
3 6 8 5
3 7 8 6
