ply
format ascii 1.0
comment VCGLIB generated
element vertex 12
property float x
property float y
property float z
element face 20
property list uchar int vertex_indices
end_header
10.01099307 0.20384681 2.79236106
6.50571284 -9.11638713 2.42273617
-6.35494909 -10.87841201 4.41584306
-17.63274991 -2.25161686 -2.01745200
-8.76465542 9.30525198 -0.82809548
4.09266800 7.44895548 2.33640101
12.60488399 1.44242613 25.51382559
5.60640415 -10.68261281 21.86680359
-2.61095503 -9.90204121 21.05271353
-9.50303652 1.21898461 27.56078122
-5.79227731 9.48414701 21.81371700
4.97764699 13.18067525 22.65674768
3 1 0 7
3 7 0 6
3 2 1 8
3 8 1 7
3 3 2 9
3 9 2 8
3 4 3 10
3 10 3 9
3 5 4 11
3 11 4 10
3 0 5 6
3 6 5 11
3 5 3 4
3 5 2 3
3 0 2 5
3 1 2 0
3 10 9 11
3 11 9 8
3 11 8 6
3 6 8 7
