ply
format ascii 1.0
comment VCGLIB generated
element vertex 8
property float x
property float y
property float z
element face 12
property list uchar int vertex_indices
end_header
-29.20361056 -24.06324906 -0.92367728
12.75124077 -20.80453482 2.13876014
18.92816444 15.29174535 -0.27252056
-18.84820338 16.49089063 -7.89798365
-16.19963170 -21.09916513 51.29145563
15.84595972 -12.83450548 49.55640846
22.40672303 25.94130033 45.86212658
-12.95170619 20.16203288 60.16753782
3 0 1 5
3 0 5 4
3 1 2 6
3 1 6 5
3 2 3 7
3 2 7 6
3 3 0 4
3 3 4 7
3 2 1 0
3 2 0 3
3 6 4 5
3 6 7 4
