ply
format ascii 1.0
comment VCGLIB generated
element vertex 8
property float x
property float y
property float z
element face 12
property list uchar int vertex_indices
end_header
-9.66985059 -9.76727491 3.11824109
4.96312054 -7.81449643 2.48509670
10.84802446 6.57099576 -1.54481515
-9.98205906 4.48375832 0.13651521
-8.37769698 -8.70873316 19.94932296
7.52041853 -5.99591742 20.12203439
11.49966638 8.48781025 24.62074904
-9.43198817 7.40783143 19.44594505
3 0 1 5
3 0 5 4
3 1 2 6
3 1 6 5
3 2 3 7
3 2 7 6
3 3 0 4
3 3 4 7
3 2 1 0
3 2 0 3
3 6 4 5
3 6 7 4
