ply
format ascii 1.0
comment VCGLIB generated
element vertex 12
property float x
property float y
property float z
element face 20
property list uchar int vertex_indices
end_header
19.11238982 -6.26009536 0.20057223
11.53070146 -5.72750273 0.15326900
-10.16123539 -15.72407284 6.99902355
-20.32582567 -1.04356357 9.15868575
-2.95135268 24.71067131 -1.70012095
16.40571341 19.74180643 0.53836696
21.05702847 -2.86257175 39.30254589
15.66607607 -16.25093793 40.82528764
-19.95541856 -19.51505369 42.79968998
-21.78038656 2.29460882 40.00206529
-11.29412742 15.04730424 32.46364349
8.44146351 17.99512836 43.51793372
3 1 0 7
3 7 0 6
3 2 1 8
3 8 1 7
3 3 2 9
3 9 2 8
3 4 3 10
3 10 3 9
3 5 4 11
3 11 4 10
3 0 5 6
3 6 5 11
3 5 3 4
3 5 2 3
3 0 2 5
3 1 2 0
3 10 9 11
3 11 9 8
3 11 8 6
3 6 8 7
