ply
format ascii 1.0
comment VCGLIB generated
element vertex 8
property float x
property float y
property float z
element face 12
property list uchar int vertex_indices
end_header
-8.87234997 -9.06997579 -0.96461485
3.35021000 -8.46501525 0.49303473
11.24267891 8.96733694 -0.57884505
-12.27834393 12.15082958 1.08188231
-10.74549512 -7.66379138 23.61008373
9.16028461 -6.64331182 25.57785991
7.47943363 8.51141299 24.94433119
-4.52501402 10.55905392 22.32456729
3 0 1 5
3 0 5 4
3 1 2 6
3 1 6 5
3 2 3 7
3 2 7 6
3 3 0 4
3 3 4 7
3 2 1 0
3 2 0 3
3 6 4 5
3 6 7 4
