ply
format ascii 1.0
comment VCGLIB generated
element vertex 8
property float x
property float y
property float z
element face 12
property list uchar int vertex_indices
end_header
-16.91245038 -25.01859125 2.29609592
19.82874791 -15.71169053 -6.01522283
13.49758721 17.52494436 3.39081100
-11.51781784 22.51281978 -6.29081905
-14.90944017 -16.37684968 47.47137856
25.75775281 -11.29043007 53.73530692
21.23354183 24.35696587 52.29121670
-12.06977377 19.54054366 51.88773084
3 0 1 5
3 0 5 4
3 1 2 6
3 1 6 5
3 2 3 7
3 2 7 6
3 3 0 4
3 3 4 7
3 2 1 0
3 2 0 3
3 6 4 5
3 6 7 4
