ply
format ascii 1.0
comment VCGLIB generated
element vertex 8
property float x
property float y
property float z
element face 12
property list uchar int vertex_indices
end_header
-14.90282065 -14.30063163 6.10289246
20.41742051 -11.22222940 -0.10872853
18.24927821 29.06156354 2.16849231
-22.60004809 20.10908060 -4.76512840
-23.92000544 -18.52902120 65.75821981
20.52470843 -16.73712536 53.26515776
19.67491176 10.33104086 60.88620147
-21.78039620 24.38601804 48.42373886
3 0 1 5
3 0 5 4
3 1 2 6
3 1 6 5
3 2 3 7
3 2 7 6
3 3 0 4
3 3 4 7
3 2 1 0
3 2 0 3
3 6 4 5
3 6 7 4
