ply
format ascii 1.0
comment VCGLIB generated
element vertex 12
property float x
property float y
property float z
element face 20
property list uchar int vertex_indices
end_header
5.90561856 0.03676465 1.52115881
3.39281851 -4.13632264 -0.27113524
-4.44354016 -4.14432816 0.91372885
-5.60585006 -0.67746862 -0.82201385
-2.49789009 4.74485142 1.05412444
3.26981362 5.91975023 0.12854601
5.98525769 0.22513576 11.43919724
1.12449758 -7.13129672 10.84296514
-4.29914209 -4.38457743 10.52579144
-7.07726709 0.90132780 10.46502199
-2.95347342 4.25935645 7.78865335
4.30239115 4.06292337 13.29191375
3 1 0 7
3 7 0 6
3 2 1 8
3 8 1 7
3 3 2 9
3 9 2 8
3 4 3 10
3 10 3 9
3 5 4 11
3 11 4 10
3 0 5 6
3 6 5 11
3 5 3 4
3 5 2 3
3 0 2 5
3 1 2 0
3 10 9 11
3 11 9 8
3 11 8 6
3 6 8 7
