ply
format ascii 1.0
comment VCGLIB generated
element vertex 12
property float x
property float y
property float z
element face 20
property list uchar int vertex_indices
end_header
23.24729981 3.04430957 1.17797350
5.65399838 -21.76182986 5.04250550
-12.64285516 -18.98056464 5.23568462
-16.35971047 2.72866938 10.47903062
-6.58248628 20.23567796 -0.49047069
7.44723268 25.82864025 -0.42872006
28.72767330 4.28452329 44.66678782
6.47813948 -25.60031924 44.57028742
-9.69186402 -23.04969432 45.75231090
-13.71086578 -0.76424744 45.34789347
-16.17839803 16.48430262 47.90976197
10.07711001 10.88099221 47.10807329
3 1 0 7
3 7 0 6
3 2 1 8
3 8 1 7
3 3 2 9
3 9 2 8
3 4 3 10
3 10 3 9
3 5 4 11
3 11 4 10
3 0 5 6
3 6 5 11
3 5 3 4
3 5 2 3
3 0 2 5
3 1 2 0
3 10 9 11
3 11 9 8
3 11 8 6
3 6 8 7
