ply
format ascii 1.0
comment VCGLIB generated
element vertex 10
property float x
property float y
property float z
element face 16
property list uchar int vertex_indices
end_header
-12.15530426 4.07395747 -1.34114234
-8.24952131 -7.12817006 -1.00440050
6.84372065 -9.37270824 0.33305834
11.24135617 0.81962594 -1.39452866
-1.77935727 11.17034513 0.29158909
-9.07180559 7.55846209 21.79342110
-6.45880384 -10.31742726 18.51951206
8.33083735 -8.25474335 17.31845140
9.65084982 4.09036090 21.37790593
4.28270451 12.44125114 21.21867350
3 1 2 7
3 1 7 6
3 2 3 8
3 2 8 7
3 3 4 9
3 3 9 8
3 4 0 5
3 4 5 9
3 0 1 6
3 0 6 5
3 4 3 0
3 0 3 1
3 1 3 2
3 5 8 9
3 6 8 5
3 7 8 6
