ply
format ascii 1.0
comment VCGLIB generated
element vertex 12
property float x
property float y
property float z
element face 20
property list uchar int vertex_indices
end_header
27.12327620 -4.58402008 -0.70611652
14.84253802 -20.53453220 -1.44879876
-16.68152442 -13.75960580 -10.56579353
-25.50775148 -0.73902397 -8.85540097
-18.08738098 32.46080527 8.45358969
13.71184494 22.56483409 4.36614349
24.21323703 -3.53661161 46.95446567
4.70018331 -20.23614508 45.61857243
-20.12926237 -23.47697633 52.37402327
-34.36253726 0.26502891 56.41434193
-18.37878823 24.59618854 47.31005733
12.05552582 22.41834014 46.07684846
3 1 0 7
3 7 0 6
3 2 1 8
3 8 1 7
3 3 2 9
3 9 2 8
3 4 3 10
3 10 3 9
3 5 4 11
3 11 4 10
3 0 5 6
3 6 5 11
3 5 3 4
3 5 2 3
3 0 2 5
3 1 2 0
3 10 9 11
3 11 9 8
3 11 8 6
3 6 8 7
