ply
format ascii 1.0
comment VCGLIB generated
element vertex 8
property float x
property float y
property float z
element face 12
property list uchar int vertex_indices
end_header
-11.89722916 -26.21579823 3.42719752
23.46923454 -13.79505291 5.48723941
20.39119253 18.94553986 -4.27832983
-14.26124227 8.31932865 3.48949060
-17.95714153 -15.96483915 48.65496774
14.59851708 -17.54209295 49.23031075
20.64731704 13.00074993 53.67076496
-11.03146122 14.26573057 40.63827673
3 0 1 5
3 0 5 4
3 1 2 6
3 1 6 5
3 2 3 7
3 2 7 6
3 3 0 4
3 3 4 7
3 2 1 0
3 2 0 3
3 6 4 5
3 6 7 4
