ply
format ascii 1.0
comment VCGLIB generated
element vertex 8
property float x
property float y
property float z
element face 12
property list uchar int vertex_indices
end_header
-4.21888850 -4.06133952 -1.76402327
3.68517256 -2.60381315 0.64741286
3.15854097 2.32893880 -0.54625978
-3.31163082 3.23212442 -0.10765212
-2.15609898 -4.45267655 9.37194899
4.25641069 -3.67445394 9.88968105
1.28714877 2.31814212 9.18208062
-2.92422836 3.90864070 9.25308016
3 0 1 5
3 0 5 4
3 1 2 6
3 1 6 5
3 2 3 7
3 2 7 6
3 3 0 4
3 3 4 7
3 2 1 0
3 2 0 3
3 6 4 5
3 6 7 4
