ply
format ascii 1.0
comment VCGLIB generated
element vertex 10
property float x
property float y
property float z
element face 16
property list uchar int vertex_indices
end_header
-20.01771191 5.18987106 -1.80839382
-9.31546005 -18.37619486 2.21216768
18.52066242 -21.93512470 5.04334060
25.80249982 18.96312834 -4.07851509
-3.97306521 33.99225260 -2.51946466
-24.23876261 0.90557088 48.57573312
-21.35877739 -17.20054579 52.45665068
15.59839668 -15.58127684 55.32365339
23.53859993 13.55649838 55.35154098
-0.23338659 20.06869988 53.04126516
3 1 2 7
3 1 7 6
3 2 3 8
3 2 8 7
3 3 4 9
3 3 9 8
3 4 0 5
3 4 5 9
3 0 1 6
3 0 6 5
3 4 3 0
3 0 3 1
3 1 3 2
3 5 8 9
3 6 8 5
3 7 8 6
