ply
format ascii 1.0
comment VCGLIB generated
element vertex 8
property float x
property float y
property float z
element face 12
property list uchar int vertex_indices
end_header
-2.94343939 -4.15353239 1.27785800
6.59684181 -4.37683901 -0.63405397
4.46805595 4.54494067 3.11804031
-8.80343298 7.39616011 -0.46441608
-4.29671947 -4.20318469 12.05413853
5.68872204 -6.05458464 13.78716297
3.43262650 6.69073323 10.03306917
-5.69743599 4.84969792 10.07643648
3 0 1 5
3 0 5 4
3 1 2 6
3 1 6 5
3 2 3 7
3 2 7 6
3 3 0 4
3 3 4 7
3 2 1 0
3 2 0 3
3 6 4 5
3 6 7 4
