ply
format ascii 1.0
comment VCGLIB generated
element vertex 12
property float x
property float y
property float z
element face 20
property list uchar int vertex_indices
end_header
14.93462709 0.42405281 -0.06632732
5.24413814 -11.06885871 -0.53533134
-11.32935270 -15.96773654 -1.12016357
-17.84582957 2.37723093 0.47365516
-4.02985333 13.75272402 -0.19048994
7.86735870 11.17887917 -1.90613916
19.83790088 -1.97403270 30.12743281
4.32647488 -11.08676464 29.43070258
-5.79074976 -15.49264634 32.85922314
-7.62876925 0.73758664 32.83335776
-8.49199266 8.35267659 29.95805659
8.27155179 9.35364507 27.30751533
3 1 0 7
3 7 0 6
3 2 1 8
3 8 1 7
3 3 2 9
3 9 2 8
3 4 3 10
3 10 3 9
3 5 4 11
3 11 4 10
3 0 5 6
3 6 5 11
3 5 3 4
3 5 2 3
3 0 2 5
3 1 2 0
3 10 9 11
3 11 9 8
3 11 8 6
3 6 8 7
