ply
format ascii 1.0
comment VCGLIB generated
element vertex 8
property float x
property float y
property float z
element face 12
property list uchar int vertex_indices
end_header
-14.58708706 -13.29318509 3.61124300
14.55736434 -13.76429874 2.69446838
23.14136983 13.83643223 -1.60355262
-9.96181420 9.74330301 4.91735600
-15.01689060 -11.79370685 37.19568726
15.98384790 -11.61356324 39.99593255
8.14831373 8.24804836 39.05199092
-17.81484775 11.93923753 37.14316549
3 0 1 5
3 0 5 4
3 1 2 6
3 1 6 5
3 2 3 7
3 2 7 6
3 3 0 4
3 3 4 7
3 2 1 0
3 2 0 3
3 6 4 5
3 6 7 4
