ply
format ascii 1.0
comment VCGLIB generated
element vertex 10
property float x
property float y
property float z
element face 16
property list uchar int vertex_indices
end_header
-27.26878398 14.68077074 -6.05926631
-18.97611862 -21.51321472 -8.05358906
22.61620702 -24.06160447 -10.22214655
20.78151313 3.07890999 -1.17648936
1.36822351 29.00845644 5.27336568
-24.75057938 7.45385571 43.44190365
-18.44948593 -18.21017095 56.68187077
24.37469112 -30.78895064 47.52428744
20.54746673 0.95138944 39.75329103
-4.30736519 20.89402032 48.44294818
3 1 2 7
3 1 7 6
3 2 3 8
3 2 8 7
3 3 4 9
3 3 9 8
3 4 0 5
3 4 5 9
3 0 1 6
3 0 6 5
3 4 3 0
3 0 3 1
3 1 3 2
3 5 8 9
3 6 8 5
3 7 8 6
