ply
format ascii 1.0
comment VCGLIB generated
element vertex 10
property float x
property float y
property float z
element face 16
property list uchar int vertex_indices
end_header
-7.29236922 2.24236563 -2.10250850
-5.39971664 -5.27593669 -0.28274182
6.86502184 -9.07302153 -0.66706567
8.85145966 3.92669608 -2.09328878
3.63971159 10.22135753 -3.45649219
-12.66853105 3.07651619 19.43731922
-3.41801471 -10.18826054 19.05033733
7.24409283 -3.69117154 18.69635361
10.35053735 3.61443510 21.95016273
-1.94070221 4.74207024 20.30813971
3 1 2 7
3 1 7 6
3 2 3 8
3 2 8 7
3 3 4 9
3 3 9 8
3 4 0 5
3 4 5 9
3 0 1 6
3 0 6 5
3 4 3 0
3 0 3 1
3 1 3 2
3 5 8 9
3 6 8 5
3 7 8 6
