ply
format ascii 1.0
comment VCGLIB generated
element vertex 8
property float x
property float y
property float z
element face 12
property list uchar int vertex_indices
end_header
-13.38156240 -15.67747355 2.50335391
19.12876814 -19.35589548 1.85296132
23.40839466 17.52075684 -1.43929850
-14.65821573 9.14575123 -8.02754100
-15.71099274 -22.52861293 36.75158880
17.22159435 -8.21209413 39.47364053
11.63017243 13.93659706 42.60564949
-13.58173537 16.95653825 34.18657922
3 0 1 5
3 0 5 4
3 1 2 6
3 1 6 5
3 2 3 7
3 2 7 6
3 3 0 4
3 3 4 7
3 2 1 0
3 2 0 3
3 6 4 5
3 6 7 4
