ply
format ascii 1.0
comment VCGLIB generated
element vertex 8
property float x
property float y
property float z
element face 12
property list uchar int vertex_indices
end_header
-18.06111564 -21.78581201 -3.27054569
19.62015544 -22.15704318 4.05746356
16.27744339 15.21853278 4.22461495
-20.04369998 23.19843524 -6.80224188
-14.93484596 -25.14587008 62.04342092
17.35262884 -16.27223478 50.16413374
20.65254870 23.89146023 53.46751432
-15.96023816 24.08502559 52.79005753
3 0 1 5
3 0 5 4
3 1 2 6
3 1 6 5
3 2 3 7
3 2 7 6
3 3 0 4
3 3 4 7
3 2 1 0
3 2 0 3
3 6 4 5
3 6 7 4
