ply
format ascii 1.0
comment VCGLIB generated
element vertex 10
property float x
property float y
property float z
element face 16
property list uchar int vertex_indices
end_header
-14.50019184 4.83666341 0.64105323
-2.40791493 -6.64634350 -0.15309365
6.97891067 -10.40372264 0.06639880
14.69505727 2.51308930 -0.49102331
1.84138673 15.00183447 -1.94803104
-7.34793173 6.49994079 25.01774466
-6.55794010 -9.60772971 24.73053034
8.80797080 -6.52826830 20.90222834
12.17411953 3.27208153 22.51308275
-4.29643865 11.37371164 24.44512931
3 1 2 7
3 1 7 6
3 2 3 8
3 2 8 7
3 3 4 9
3 3 9 8
3 4 0 5
3 4 5 9
3 0 1 6
3 0 6 5
3 4 3 0
3 0 3 1
3 1 3 2
3 5 8 9
3 6 8 5
3 7 8 6
