ply
format ascii 1.0
comment VCGLIB generated
element vertex 8
property float x
property float y
property float z
element face 12
property list uchar int vertex_indices
end_header
-10.02572652 -10.38147496 -0.83659132
17.87863061 -12.35050222 -2.87253019
19.01245141 11.90388963 -5.80834595
-11.80720250 10.03995386 -2.06903687
-11.59210385 -15.89372102 40.12467408
11.01114742 -10.80806403 41.25037374
14.81911735 11.57756668 40.16296822
-9.18430224 12.62662509 34.05484413
3 0 1 5
3 0 5 4
3 1 2 6
3 1 6 5
3 2 3 7
3 2 7 6
3 3 0 4
3 3 4 7
3 2 1 0
3 2 0 3
3 6 4 5
3 6 7 4
