ply
format ascii 1.0
comment VCGLIB generated
element vertex 10
property float x
property float y
property float z
element face 16
property list uchar int vertex_indices
end_header
-7.83021775 3.19628616 2.55814410
-5.69904019 -10.31858080 1.90647250
1.92473287 -8.18622243 -0.40598656
11.51190151 2.63144511 -5.17025314
-1.16483865 10.27007616 2.34116616
-7.79967546 -0.64374768 18.14956735
-3.83014299 -7.01263858 18.59559193
5.68408298 -6.05512743 19.14622009
10.65753314 3.55095784 19.53478585
-2.87757262 13.14909727 18.11868179
3 1 2 7
3 1 7 6
3 2 3 8
3 2 8 7
3 3 4 9
3 3 9 8
3 4 0 5
3 4 5 9
3 0 1 6
3 0 6 5
3 4 3 0
3 0 3 1
3 1 3 2
3 5 8 9
3 6 8 5
3 7 8 6
