ply
format ascii 1.0
comment VCGLIB generated
element vertex 8
property float x
property float y
property float z
element face 12
property list uchar int vertex_indices
end_header
-18.29333334 -3.29329359 -4.17500944
17.36383319 -7.21784738 0.31250616
17.85862418 21.28393530 5.36933420
-23.13689895 18.78146736 4.81735282
-23.42396369 -21.58963913 53.40281165
18.78159608 -24.78288122 57.01850273
26.83799478 25.07318986 47.46686495
-23.43685131 21.19776798 54.09587109
3 0 1 5
3 0 5 4
3 1 2 6
3 1 6 5
3 2 3 7
3 2 7 6
3 3 0 4
3 3 4 7
3 2 1 0
3 2 0 3
3 6 4 5
3 6 7 4
