ply
format ascii 1.0
comment VCGLIB generated
element vertex 10
property float x
property float y
property float z
element face 16
property list uchar int vertex_indices
end_header
-19.62684704 5.64580559 -1.27431640
-6.66113801 -14.04702001 5.10446062
12.48365048 -14.28532015 1.47834979
11.58158656 -0.02859522 0.32218586
-1.21090244 14.55896774 -0.03226995
-8.55207698 6.22020309 26.45657683
-6.40207476 -9.58899890 28.25695883
11.56572314 -12.00591137 28.45647489
15.83061215 1.23532627 27.89196785
5.00924877 12.27673308 26.85492078
3 1 2 7
3 1 7 6
3 2 3 8
3 2 8 7
3 3 4 9
3 3 9 8
3 4 0 5
3 4 5 9
3 0 1 6
3 0 6 5
3 4 3 0
3 0 3 1
3 1 3 2
3 5 8 9
3 6 8 5
3 7 8 6
