ply
format ascii 1.0
comment VCGLIB generated
element vertex 10
property float x
property float y
property float z
element face 16
property list uchar int vertex_indices
end_header
-3.29134069 1.21443273 0.70598368
-1.58536864 -2.82532006 0.41506331
1.84342483 -3.35191845 -0.42377669
3.26056959 1.46415532 -0.77174208
-1.02008737 4.95025338 0.19640068
-2.91512571 1.69242171 5.88183214
-2.85134857 -2.81887743 7.37522015
2.00745394 -3.56808069 6.80696542
3.78237865 -0.06952117 5.51047799
-0.22474793 2.28336788 6.54860240
3 1 2 7
3 1 7 6
3 2 3 8
3 2 8 7
3 3 4 9
3 3 9 8
3 4 0 5
3 4 5 9
3 0 1 6
3 0 6 5
3 4 3 0
3 0 3 1
3 1 3 2
3 5 8 9
3 6 8 5
3 7 8 6
