ply
format ascii 1.0
comment VCGLIB generated
element vertex 12
property float x
property float y
property float z
element face 20
property list uchar int vertex_indices
end_header
11.54920163 -2.24400279 0.89155361
10.49608448 -7.83940578 2.58712002
-6.38545194 -9.63474151 2.01580514
-16.67022110 -2.49828190 2.27091904
-10.40423867 22.12734241 2.90938875
10.57128950 13.36347200 1.86051568
18.46301108 2.83613415 32.89116775
8.40386176 -23.21489430 33.36395395
-14.52316148 -13.73683537 32.15492400
-17.56742300 -4.14926634 36.00978646
-7.29281201 16.31885686 40.47238406
9.38054459 16.11368333 36.15861311
3 1 0 7
3 7 0 6
3 2 1 8
3 8 1 7
3 3 2 9
3 9 2 8
3 4 3 10
3 10 3 9
3 5 4 11
3 11 4 10
3 0 5 6
3 6 5 11
3 5 3 4
3 5 2 3
3 0 2 5
3 1 2 0
3 10 9 11
3 11 9 8
3 11 8 6
3 6 8 7
