ply
format ascii 1.0
comment VCGLIB generated
element vertex 10
property float x
property float y
property float z
element face 16
property list uchar int vertex_indices
end_header
-2.88545428 1.29254299 -0.42824085
-2.59272503 -2.28016415 -0.82407179
1.51911417 -1.52576070 -0.96196848
2.42015442 1.43871507 -0.09678660
-0.14551799 1.83712502 -0.24350126
-2.35614044 1.31581025 4.79918979
-1.87026767 -2.09265823 4.72436649
1.14662996 -1.70345344 5.42903259
2.20967453 0.94061537 3.87169545
-0.09975754 2.30646230 5.76339109
3 1 2 7
3 1 7 6
3 2 3 8
3 2 8 7
3 3 4 9
3 3 9 8
3 4 0 5
3 4 5 9
3 0 1 6
3 0 6 5
3 4 3 0
3 0 3 1
3 1 3 2
3 5 8 9
3 6 8 5
3 7 8 6
