ply
format ascii 1.0
comment VCGLIB generated
element vertex 10
property float x
property float y
property float z
element face 16
property list uchar int vertex_indices
end_header
-17.45091453 4.44271142 -0.32060789
-7.45082934 -11.25562182 2.53934273
3.71200680 -13.99308255 -3.65930090
11.52573037 -0.01995992 -2.61114184
-1.74253097 11.62071435 -4.23075220
-12.48770983 6.01561376 22.00387486
-6.96881828 -12.12793708 19.97056209
11.51438593 -12.83330942 28.67930652
12.39847361 1.34026506 28.64037826
2.16954162 10.74040927 26.95830630
3 1 2 7
3 1 7 6
3 2 3 8
3 2 8 7
3 3 4 9
3 3 9 8
3 4 0 5
3 4 5 9
3 0 1 6
3 0 6 5
3 4 3 0
3 0 3 1
3 1 3 2
3 5 8 9
3 6 8 5
3 7 8 6
