ply
format ascii 1.0
comment VCGLIB generated
element vertex 8
property float x
property float y
property float z
element face 12
property list uchar int vertex_indices
end_header
-9.18997130 -4.18809306 -2.16552644
7.91093149 -9.52506352 4.00434589
4.82159870 6.88410669 -0.17879341
-6.33692357 10.41393889 0.87260190
-8.54441522 -8.19270395 21.73851292
5.79758354 -7.89168879 20.07374831
8.04935080 4.15293657 21.68512117
-8.38376533 10.55845228 17.22068083
3 0 1 5
3 0 5 4
3 1 2 6
3 1 6 5
3 2 3 7
3 2 7 6
3 3 0 4
3 3 4 7
3 2 1 0
3 2 0 3
3 6 4 5
3 6 7 4
