ply
format ascii 1.0
comment VCGLIB generated
element vertex 12
property float x
property float y
property float z
element face 20
property list uchar int vertex_indices
end_header
7.92754962 4.61580048 3.09048647
8.19016478 -15.11558569 3.18040530
-7.39258496 -10.30981334 2.77681232
-10.96810340 -0.71665117 5.43886344
-8.82517923 11.45152322 4.12349902
10.85267638 7.63532150 0.65790276
12.91299529 -0.31297370 30.70906872
7.90528449 -19.17320492 29.42758588
-14.36242675 -14.35179134 29.80173370
-19.94898408 -3.77707132 30.50170764
-3.83480285 11.89409900 32.27826674
5.69981609 18.30755375 26.72614804
3 1 0 7
3 7 0 6
3 2 1 8
3 8 1 7
3 3 2 9
3 9 2 8
3 4 3 10
3 10 3 9
3 5 4 11
3 11 4 10
3 0 5 6
3 6 5 11
3 5 3 4
3 5 2 3
3 0 2 5
3 1 2 0
3 10 9 11
3 11 9 8
3 11 8 6
3 6 8 7
