ply
format ascii 1.0
comment VCGLIB generated
element vertex 10
property float x
property float y
property float z
element face 16
property list uchar int vertex_indices
end_header
-5.97319311 2.12134420 -0.37090713
-4.06064983 -5.53353481 -0.37481718
2.72436096 -5.14414280 0.08059656
6.13181128 3.49030093 0.28258877
-0.58970167 7.28547865 -0.83638389
-6.70572044 3.24748998 14.04500343
-1.46633127 -4.98166487 12.51754977
4.49898317 -6.22292719 14.61014173
5.54254452 2.82653793 11.99190448
-1.63251705 8.31973447 15.61705518
3 1 2 7
3 1 7 6
3 2 3 8
3 2 8 7
3 3 4 9
3 3 9 8
3 4 0 5
3 4 5 9
3 0 1 6
3 0 6 5
3 4 3 0
3 0 3 1
3 1 3 2
3 5 8 9
3 6 8 5
3 7 8 6
