ply
format ascii 1.0
comment VCGLIB generated
element vertex 10
property float x
property float y
property float z
element face 16
property list uchar int vertex_indices
end_header
-8.02295131 3.56422607 0.65377906
-1.57814678 -3.58494124 -0.71077948
2.83798844 -7.05751954 0.37262320
7.50974014 2.99753939 2.25018023
2.14379356 6.27425904 -0.03372550
-8.86220248 1.73806313 19.39914520
-4.92579609 -4.36697495 16.23687739
3.39786671 -7.50319287 15.55546030
7.42542561 2.07176440 14.70919567
0.78047942 10.66893850 15.98115049
3 1 2 7
3 1 7 6
3 2 3 8
3 2 8 7
3 3 4 9
3 3 9 8
3 4 0 5
3 4 5 9
3 0 1 6
3 0 6 5
3 4 3 0
3 0 3 1
3 1 3 2
3 5 8 9
3 6 8 5
3 7 8 6
