ply
format ascii 1.0
comment VCGLIB generated
element vertex 8
property float x
property float y
property float z
element face 12
property list uchar int vertex_indices
end_header
-1.19673378 -1.02191084 -0.40284317
3.07974876 -2.04955704 -0.72386603
1.66229616 1.25648540 -0.32227580
-1.90582642 2.16318366 -0.44668575
-1.30516731 -1.28510974 4.70437538
1.92241158 -1.59547287 4.83842199
1.43358351 1.30418985 4.91238728
-1.24259031 2.09395667 4.55581892
3 0 1 5
3 0 5 4
3 1 2 6
3 1 6 5
3 2 3 7
3 2 7 6
3 3 0 4
3 3 4 7
3 2 1 0
3 2 0 3
3 6 4 5
3 6 7 4
