ply
format ascii 1.0
comment VCGLIB generated
element vertex 8
property float x
property float y
property float z
element face 12
property list uchar int vertex_indices
end_header
-2.92177482 -2.44502934 -0.73895852
3.93516597 -2.24322960 -0.34170123
3.81686116 3.94810186 0.37757949
-2.64464322 1.21758412 1.31517363
-1.80808290 -3.66208045 7.92699383
2.08147136 -2.03059830 7.98645143
3.33554803 2.86506757 6.96557908
-4.63683269 2.55458997 9.04766025
3 0 1 5
3 0 5 4
3 1 2 6
3 1 6 5
3 2 3 7
3 2 7 6
3 3 0 4
3 3 4 7
3 2 1 0
3 2 0 3
3 6 4 5
3 6 7 4
