ply
format ascii 1.0
comment VCGLIB generated
element vertex 12
property float x
property float y
property float z
element face 20
property list uchar int vertex_indices
end_header
35.29693124 -3.57869767 4.82484007
6.72194010 -13.21893802 8.51256002
-19.36711882 -15.18668579 -2.03191963
-27.32031793 -0.23572122 2.93909114
-19.66114864 23.03880491 6.63549129
12.90524147 13.85511270 -4.25243001
25.55050042 -0.33607575 49.30820323
9.73192883 -28.97136952 56.41482007
-5.97338577 -7.59279151 51.14813225
-30.86864533 -4.90676631 47.40838654
-9.89332976 18.46868972 52.83921974
22.43433306 26.68035672 60.06382677
3 1 0 7
3 7 0 6
3 2 1 8
3 8 1 7
3 3 2 9
3 9 2 8
3 4 3 10
3 10 3 9
3 5 4 11
3 11 4 10
3 0 5 6
3 6 5 11
3 5 3 4
3 5 2 3
3 0 2 5
3 1 2 0
3 10 9 11
3 11 9 8
3 11 8 6
3 6 8 7
