ply
format ascii 1.0
comment VCGLIB generated
element vertex 10
property float x
property float y
property float z
element face 16
property list uchar int vertex_indices
end_header
-8.06656845 2.47926492 3.04854863
-5.89277705 -5.16302636 -2.07330109
5.74019734 -8.50332917 0.19548908
8.48897052 1.86642227 -0.75402917
-1.82143888 7.04045061 -1.09707321
-7.39585102 4.11172169 21.97180162
-6.72117203 -3.97305948 20.77472947
7.87609837 -7.89495910 19.17564143
9.30881006 2.29416277 22.98464934
-0.40309556 11.23728434 19.74810176
3 1 2 7
3 1 7 6
3 2 3 8
3 2 8 7
3 3 4 9
3 3 9 8
3 4 0 5
3 4 5 9
3 0 1 6
3 0 6 5
3 4 3 0
3 0 3 1
3 1 3 2
3 5 8 9
3 6 8 5
3 7 8 6
