ply
format ascii 1.0
comment VCGLIB generated
element vertex 12
property float x
property float y
property float z
element face 20
property list uchar int vertex_indices
end_header
6.22702262 2.30791806 1.64186228
3.30583128 -6.19418583 0.65327755
-2.17842784 -7.48470305 -2.79767205
-8.18027628 -0.71958791 -1.94089829
-2.86633852 4.38332543 -0.65593195
3.84747946 3.39946034 -1.34720554
5.65446084 0.82381314 11.49163320
5.15834738 -4.84675978 12.56532105
-2.58043414 -4.74918789 12.31871259
-5.80137263 -1.10495443 11.37872836
-2.23189733 6.16981385 9.05257635
2.95257773 4.55807118 12.63652285
3 1 0 7
3 7 0 6
3 2 1 8
3 8 1 7
3 3 2 9
3 9 2 8
3 4 3 10
3 10 3 9
3 5 4 11
3 11 4 10
3 0 5 6
3 6 5 11
3 5 3 4
3 5 2 3
3 0 2 5
3 1 2 0
3 10 9 11
3 11 9 8
3 11 8 6
3 6 8 7
