ply
format ascii 1.0
comment VCGLIB generated
element vertex 10
property float x
property float y
property float z
element face 16
property list uchar int vertex_indices
end_header
-4.48902941 1.83723637 0.60194893
-3.35855597 -4.31364960 -0.87598228
2.41866637 -3.34095810 0.24417502
5.10123722 1.47188847 0.47719115
-1.02423911 4.44506027 -0.03475963
-3.45887358 2.53547014 9.48118302
-2.83218180 -3.11720839 9.68497277
3.74427359 -2.97618741 11.90324184
3.68099517 -0.56939617 9.37209924
0.25495992 5.74080024 9.54403096
3 1 2 7
3 1 7 6
3 2 3 8
3 2 8 7
3 3 4 9
3 3 9 8
3 4 0 5
3 4 5 9
3 0 1 6
3 0 6 5
3 4 3 0
3 0 3 1
3 1 3 2
3 5 8 9
3 6 8 5
3 7 8 6
