ply
format ascii 1.0
comment VCGLIB generated
element vertex 10
property float x
property float y
property float z
element face 16
property list uchar int vertex_indices
end_header
-24.47593661 12.93356524 -7.03564354
-9.63211851 -20.57262526 -1.82028077
12.20807252 -30.91889564 -1.16475635
19.02821041 6.76529016 3.95028926
3.42959672 16.63444208 -9.54076428
-14.28240736 -3.67488259 62.62125922
-11.56625634 -17.77960450 46.88973074
21.16970617 -20.80036549 57.77217884
25.34793777 11.78086943 60.69668961
-5.68681200 24.87287003 55.46823350
3 1 2 7
3 1 7 6
3 2 3 8
3 2 8 7
3 3 4 9
3 3 9 8
3 4 0 5
3 4 5 9
3 0 1 6
3 0 6 5
3 4 3 0
3 0 3 1
3 1 3 2
3 5 8 9
3 6 8 5
3 7 8 6
