ply
format ascii 1.0
comment VCGLIB generated
element vertex 8
property float x
property float y
property float z
element face 12
property list uchar int vertex_indices
end_header
-15.32598404 -17.90739460 -1.16199054
15.19883875 -4.78054419 10.85804171
6.45633700 22.44312381 -0.69267370
-16.96773147 19.74953838 3.41804427
-13.94171266 -22.09348426 48.69519479
16.56940390 -18.19058280 49.94461070
11.52564947 12.32586274 38.55072994
-16.87563005 23.77028773 45.40904063
3 0 1 5
3 0 5 4
3 1 2 6
3 1 6 5
3 2 3 7
3 2 7 6
3 3 0 4
3 3 4 7
3 2 1 0
3 2 0 3
3 6 4 5
3 6 7 4
