ply
format ascii 1.0
comment VCGLIB generated
element vertex 10
property float x
property float y
property float z
element face 16
property list uchar int vertex_indices
end_header
-12.42317181 2.67724788 -2.31141807
-10.28032259 -13.27949964 0.08740563
9.56418875 -10.88854019 -3.33943496
12.23568325 1.49815859 5.10852951
1.71963848 14.53307610 5.83865166
-14.15646167 11.17392849 27.79297459
-10.04981438 -10.01983100 26.69030763
5.46692175 -12.58357145 24.31772007
10.30556420 3.91078354 28.37772784
-1.52861949 11.49618860 27.37260803
3 1 2 7
3 1 7 6
3 2 3 8
3 2 8 7
3 3 4 9
3 3 9 8
3 4 0 5
3 4 5 9
3 0 1 6
3 0 6 5
3 4 3 0
3 0 3 1
3 1 3 2
3 5 8 9
3 6 8 5
3 7 8 6
