ply
format ascii 1.0
comment VCGLIB generated
element vertex 10
property float x
property float y
property float z
element face 16
property list uchar int vertex_indices
end_header
-16.60000170 8.66779253 -2.17411858
-11.73583590 -16.49300602 2.34550077
9.40097262 -18.31098290 7.04060123
19.53704309 5.74095501 -1.07954156
1.01549778 21.40186650 -1.43163045
-16.90304928 8.70369771 43.20116325
-12.42357687 -14.41471715 37.60870906
11.85980676 -23.84783731 37.79391054
25.15273758 8.06450387 44.03712292
-3.25028887 16.97021635 40.39459637
3 1 2 7
3 1 7 6
3 2 3 8
3 2 8 7
3 3 4 9
3 3 9 8
3 4 0 5
3 4 5 9
3 0 1 6
3 0 6 5
3 4 3 0
3 0 3 1
3 1 3 2
3 5 8 9
3 6 8 5
3 7 8 6
