ply
format ascii 1.0
comment VCGLIB generated
element vertex 10
property float x
property float y
property float z
element face 16
property list uchar int vertex_indices
end_header
-9.79030783 2.34831077 -0.57632261
-5.84475987 -7.56707099 -0.98220056
4.88493920 -7.48440200 2.27246250
5.84029317 3.50414533 -0.86082131
-0.72347458 8.15883456 2.60188856
-9.49885075 -0.38450509 16.89390204
-5.76204214 -7.19453279 15.80669601
3.72528688 -6.49947892 14.28579279
8.59513878 2.17572014 14.71396846
0.59906173 9.99336069 15.47161366
3 1 2 7
3 1 7 6
3 2 3 8
3 2 8 7
3 3 4 9
3 3 9 8
3 4 0 5
3 4 5 9
3 0 1 6
3 0 6 5
3 4 3 0
3 0 3 1
3 1 3 2
3 5 8 9
3 6 8 5
3 7 8 6
