ply
format ascii 1.0
comment VCGLIB generated
element vertex 8
property float x
property float y
property float z
element face 12
property list uchar int vertex_indices
end_header
-13.81671969 -19.30243827 -3.46987605
14.92712383 -18.30091457 -0.96194320
13.95879838 12.86755613 -1.08999936
-19.56012108 19.00071571 2.07987200
-16.02197780 -14.66392109 38.08763102
13.88407835 -6.34919952 35.87845932
13.03384184 10.08308023 44.64181871
-14.55490123 14.77944263 38.55366659
3 0 1 5
3 0 5 4
3 1 2 6
3 1 6 5
3 2 3 7
3 2 7 6
3 3 0 4
3 3 4 7
3 2 1 0
3 2 0 3
3 6 4 5
3 6 7 4
