ply
format ascii 1.0
comment VCGLIB generated
element vertex 8
property float x
property float y
property float z
element face 12
property list uchar int vertex_indices
end_header
-6.67950948 -5.84912600 -0.66983962
2.65803944 -5.11939393 1.28746417
6.39563556 6.70654008 1.71489453
-7.21594498 4.56675842 -2.06568561
-5.80685853 -7.82713880 16.71517191
6.72860292 -7.12840219 17.83083650
5.12381671 6.65107845 14.15260947
-4.10250816 4.71809768 18.42766993
3 0 1 5
3 0 5 4
3 1 2 6
3 1 6 5
3 2 3 7
3 2 7 6
3 3 0 4
3 3 4 7
3 2 1 0
3 2 0 3
3 6 4 5
3 6 7 4
