ply
format ascii 1.0
comment VCGLIB generated
element vertex 12
property float x
property float y
property float z
element face 20
property list uchar int vertex_indices
end_header
10.01258170 -2.72814464 0.04392172
2.52805481 -8.94966705 -2.08661308
-1.95912134 -8.51315946 0.34189803
-9.82455894 -1.67896961 1.37233226
-5.77632424 13.06111452 -0.57071785
6.74873452 8.72373434 -2.36995618
10.30709317 1.47593327 19.99570937
2.53762990 -7.01963336 18.27174208
-4.28077308 -6.19206296 21.99645002
-10.99648723 -1.80028805 20.52947708
-8.05006416 12.57752881 20.21742051
5.27650991 10.63002213 24.95462092
3 1 0 7
3 7 0 6
3 2 1 8
3 8 1 7
3 3 2 9
3 9 2 8
3 4 3 10
3 10 3 9
3 5 4 11
3 11 4 10
3 0 5 6
3 6 5 11
3 5 3 4
3 5 2 3
3 0 2 5
3 1 2 0
3 10 9 11
3 11 9 8
3 11 8 6
3 6 8 7
