ply
format ascii 1.0
comment VCGLIB generated
element vertex 8
property float x
property float y
property float z
element face 12
property list uchar int vertex_indices
end_header
-8.45755985 -19.71901911 8.58912630
13.11940659 -15.60870523 -5.09918246
18.01609737 15.56811567 0.65077710
-18.40647408 16.46103849 -7.92121160
-12.13196621 -11.99050623 38.72554153
13.37521606 -13.00116148 42.61797199
10.63967744 18.87267583 30.82133029
-10.87625683 12.81222248 31.89527623
3 0 1 5
3 0 5 4
3 1 2 6
3 1 6 5
3 2 3 7
3 2 7 6
3 3 0 4
3 3 4 7
3 2 1 0
3 2 0 3
3 6 4 5
3 6 7 4
