ply
format ascii 1.0
comment VCGLIB generated
element vertex 8
property float x
property float y
property float z
element face 12
property list uchar int vertex_indices
end_header
-13.33629872 -21.45353696 -4.71904370
6.41048862 -16.10742329 0.43761490
21.40464241 11.25026364 -6.72684419
-9.91855059 20.05526973 -3.68673387
-16.25961399 -13.02827018 44.47410846
12.72492697 -23.44882731 46.19774601
17.97828776 10.85384808 54.93222069
-16.15302984 20.70930668 41.71684320
3 0 1 5
3 0 5 4
3 1 2 6
3 1 6 5
3 2 3 7
3 2 7 6
3 3 0 4
3 3 4 7
3 2 1 0
3 2 0 3
3 6 4 5
3 6 7 4
