ply
format ascii 1.0
comment VCGLIB generated
element vertex 12
property float x
property float y
property float z
element face 20
property list uchar int vertex_indices
end_header
16.06271052 -1.39091993 0.49402985
5.81322044 -22.45907962 -0.76407446
-5.64016771 -10.00151608 -5.85119981
-13.30399340 -3.74487607 -2.58645654
-10.81433016 18.19997646 -1.19229918
4.10933649 12.62839247 -2.37195022
20.98950938 6.31103420 40.04036395
6.19974888 -11.75892426 40.00088520
-1.71098983 -14.57752248 35.87143811
-18.63571767 -7.33312462 32.68934553
-6.73415295 13.24848708 33.24434934
6.09431153 17.74050477 35.50977667
3 1 0 7
3 7 0 6
3 2 1 8
3 8 1 7
3 3 2 9
3 9 2 8
3 4 3 10
3 10 3 9
3 5 4 11
3 11 4 10
3 0 5 6
3 6 5 11
3 5 3 4
3 5 2 3
3 0 2 5
3 1 2 0
3 10 9 11
3 11 9 8
3 11 8 6
3 6 8 7
