ply
format ascii 1.0
comment VCGLIB generated
element vertex 8
property float x
property float y
property float z
element face 12
property list uchar int vertex_indices
end_header
-19.15886463 -20.09248754 -4.30094444
16.42165105 -10.18164781 -8.34390580
16.25622320 15.54079004 0.95209710
-22.04764431 13.25611991 0.65831064
-10.02056435 -16.35068502 38.24576597
14.87957709 -13.03669509 38.13583432
20.30929322 12.80304048 43.95128902
-16.40610103 8.63779849 36.67327754
3 0 1 5
3 0 5 4
3 1 2 6
3 1 6 5
3 2 3 7
3 2 7 6
3 3 0 4
3 3 4 7
3 2 1 0
3 2 0 3
3 6 4 5
3 6 7 4
