ply
format ascii 1.0
comment VCGLIB generated
element vertex 8
property float x
property float y
property float z
element face 12
property list uchar int vertex_indices
end_header
-4.49240076 -5.21178553 3.15556982
8.53959992 -7.08827205 -2.17078241
10.64139964 3.83098238 -1.68375176
-6.39281797 7.63198857 2.59049988
-11.31894070 -6.78119641 24.42798901
7.09099155 -5.29844297 22.04014671
9.52841023 7.46260091 22.06903795
-6.44393324 7.63192164 20.62783580
3 0 1 5
3 0 5 4
3 1 2 6
3 1 6 5
3 2 3 7
3 2 7 6
3 3 0 4
3 3 4 7
3 2 1 0
3 2 0 3
3 6 4 5
3 6 7 4
