ply
format ascii 1.0
comment VCGLIB generated
element vertex 8
property float x
property float y
property float z
element face 12
property list uchar int vertex_indices
end_header
-15.16057749 -13.85274063 -3.04349382
8.66886328 -12.67772465 3.33021305
11.68678942 14.04510042 -7.91872525
-10.62534714 19.16619437 -0.45717391
-11.83509011 -14.85464383 38.81949476
14.00267254 -9.94396378 40.53440782
13.37368470 7.70633798 36.79355692
-9.49996627 20.31392822 38.33722485
3 0 1 5
3 0 5 4
3 1 2 6
3 1 6 5
3 2 3 7
3 2 7 6
3 3 0 4
3 3 4 7
3 2 1 0
3 2 0 3
3 6 4 5
3 6 7 4
