ply
format ascii 1.0
comment VCGLIB generated
element vertex 10
property float x
property float y
property float z
element face 16
property list uchar int vertex_indices
end_header
-22.23698637 8.64125695 -0.29667670
-14.43581830 -19.92834444 0.90118500
10.98767851 -11.73592323 -3.82864300
14.36840854 9.62621136 -5.18367556
2.92188159 18.76363315 3.99807007
-25.98144245 4.35318092 48.23410764
-12.11014554 -14.75701715 43.29289489
16.26286559 -11.53102116 51.47607903
14.91203699 5.95585043 45.55110099
-0.08528222 19.55015335 48.81940333
3 1 2 7
3 1 7 6
3 2 3 8
3 2 8 7
3 3 4 9
3 3 9 8
3 4 0 5
3 4 5 9
3 0 1 6
3 0 6 5
3 4 3 0
3 0 3 1
3 1 3 2
3 5 8 9
3 6 8 5
3 7 8 6
