ply
format ascii 1.0
comment VCGLIB generated
element vertex 12
property float x
property float y
property float z
element face 20
property list uchar int vertex_indices
end_header
11.26055056 5.81733545 3.30644622
5.60266741 -15.04502053 1.64721696
-6.09738139 -14.34484540 4.31699636
-11.38215432 -0.75907170 1.79654852
-6.90674064 16.26113144 1.48092045
2.38204353 15.83618262 1.59715147
13.04610725 -2.78489531 33.05069989
10.57493964 -9.70591484 31.19682198
-7.28846318 -17.80894478 32.80480137
-14.41281000 2.49518866 31.67063677
-7.59678488 15.00159064 30.75984663
4.54243782 14.58092355 33.26341839
3 1 0 7
3 7 0 6
3 2 1 8
3 8 1 7
3 3 2 9
3 9 2 8
3 4 3 10
3 10 3 9
3 5 4 11
3 11 4 10
3 0 5 6
3 6 5 11
3 5 3 4
3 5 2 3
3 0 2 5
3 1 2 0
3 10 9 11
3 11 9 8
3 11 8 6
3 6 8 7
