ply
format ascii 1.0
comment VCGLIB generated
element vertex 12
property float x
property float y
property float z
element face 20
property list uchar int vertex_indices
end_header
9.96869513 -2.09378667 -1.20155909
5.58613837 -7.14118274 -1.68321735
-5.75638496 -5.98152558 0.49323535
-8.83018147 0.93455000 -0.08906912
-7.51685168 9.09125285 -0.60218646
3.85479401 3.82147468 0.10621909
5.92100876 -0.67335771 15.25936879
4.27593204 -5.42073958 14.14799646
-3.94663494 -5.90903659 18.50639755
-7.82745371 2.00017567 16.09451952
-4.73656036 5.10983431 12.61080176
4.01410799 6.42401387 15.95342417
3 1 0 7
3 7 0 6
3 2 1 8
3 8 1 7
3 3 2 9
3 9 2 8
3 4 3 10
3 10 3 9
3 5 4 11
3 11 4 10
3 0 5 6
3 6 5 11
3 5 3 4
3 5 2 3
3 0 2 5
3 1 2 0
3 10 9 11
3 11 9 8
3 11 8 6
3 6 8 7
