ply
format ascii 1.0
comment VCGLIB generated
element vertex 8
property float x
property float y
property float z
element face 12
property list uchar int vertex_indices
end_header
-3.69251554 -3.39530257 1.33668135
10.91104031 -10.04025642 0.80112386
7.78012196 7.83589784 -2.00540065
-7.06574334 8.22071099 -5.60746871
-8.48771761 -6.75945301 22.71623111
6.07204680 -6.88144285 23.26200594
7.72651266 7.38575994 22.10650081
-5.49552559 7.63755108 23.60070668
3 0 1 5
3 0 5 4
3 1 2 6
3 1 6 5
3 2 3 7
3 2 7 6
3 3 0 4
3 3 4 7
3 2 1 0
3 2 0 3
3 6 4 5
3 6 7 4
