ply
format ascii 1.0
comment VCGLIB generated
element vertex 10
property float x
property float y
property float z
element face 16
property list uchar int vertex_indices
end_header
-21.06236817 -0.46844623 3.02895948
-12.35648769 -21.01170014 -8.22975649
13.76924744 -20.72597836 0.25231721
14.30000686 1.12358982 -0.55446414
2.36540828 26.13126099 0.34509969
-19.46130189 14.47359894 42.41218523
-12.98293046 -18.01078943 41.04273266
16.68297015 -16.78404265 47.31574629
31.14029763 7.35847583 36.44810447
-7.14159054 19.59203613 39.72773252
3 1 2 7
3 1 7 6
3 2 3 8
3 2 8 7
3 3 4 9
3 3 9 8
3 4 0 5
3 4 5 9
3 0 1 6
3 0 6 5
3 4 3 0
3 0 3 1
3 1 3 2
3 5 8 9
3 6 8 5
3 7 8 6
