ply
format ascii 1.0
comment VCGLIB generated
element vertex 12
property float x
property float y
property float z
element face 20
property list uchar int vertex_indices
end_header
28.45288378 -2.62870115 4.70047976
4.12807945 -18.95797095 6.50419734
-12.87206196 -10.69117099 -8.00473858
-21.63378578 4.17552570 -0.95019517
-13.83128297 19.67269267 -4.83650974
11.00112914 23.16510001 2.53735525
24.04668856 0.26556216 41.43210271
9.84841653 -7.78947037 34.29490699
-7.72839207 -21.08300958 33.55970799
-23.21330288 -3.02352697 44.18000158
-19.73879957 19.98838533 35.94315374
5.40802896 13.52826875 43.17495443
3 1 0 7
3 7 0 6
3 2 1 8
3 8 1 7
3 3 2 9
3 9 2 8
3 4 3 10
3 10 3 9
3 5 4 11
3 11 4 10
3 0 5 6
3 6 5 11
3 5 3 4
3 5 2 3
3 0 2 5
3 1 2 0
3 10 9 11
3 11 9 8
3 11 8 6
3 6 8 7
