ply
format ascii 1.0
comment VCGLIB generated
element vertex 8
property float x
property float y
property float z
element face 12
property list uchar int vertex_indices
end_header
-5.16331285 -4.24777950 0.35782854
5.79059358 -3.55886972 2.11960780
2.97461176 4.41499746 -0.55964698
-5.62516063 5.40887957 -1.18688873
-5.10590496 -3.80717724 14.02093875
3.28836663 -3.71882466 10.84106300
4.36358737 5.32178293 14.75213937
-4.55856243 5.98248106 15.02312194
3 0 1 5
3 0 5 4
3 1 2 6
3 1 6 5
3 2 3 7
3 2 7 6
3 3 0 4
3 3 4 7
3 2 1 0
3 2 0 3
3 6 4 5
3 6 7 4
