ply
format ascii 1.0
comment VCGLIB generated
element vertex 8
property float x
property float y
property float z
element face 12
property list uchar int vertex_indices
end_header
-12.12632999 -19.70625399 -11.61676170
15.74244925 -27.60738333 -3.06346516
18.40778063 16.75393520 -0.30538365
-18.63949085 20.65871310 -8.63360437
-14.39931890 -9.73366556 62.71755704
16.11813396 -15.20907541 52.00682139
23.05483148 20.32443715 50.01762076
-27.28181323 15.22922220 56.79755395
3 0 1 5
3 0 5 4
3 1 2 6
3 1 6 5
3 2 3 7
3 2 7 6
3 3 0 4
3 3 4 7
3 2 1 0
3 2 0 3
3 6 4 5
3 6 7 4
