ply
format ascii 1.0
comment VCGLIB generated
element vertex 12
property float x
property float y
property float z
element face 20
property list uchar int vertex_indices
end_header
9.02877692 1.87441326 1.33939931
5.83175630 -4.23379537 1.71905436
-3.81798405 -6.62292328 1.15298009
-9.63822323 -0.82902698 0.96359063
-3.35955632 6.37575872 -0.80429301
5.28224540 4.86394398 -0.11491604
7.68578560 -0.54985312 14.74437322
4.48082871 -6.59629113 13.42877024
-3.93786588 -8.91924287 17.17557301
-8.87873443 -0.38168656 13.86995463
-3.92584151 5.26343503 13.51436514
4.49360319 6.89090955 14.20053740
3 1 0 7
3 7 0 6
3 2 1 8
3 8 1 7
3 3 2 9
3 9 2 8
3 4 3 10
3 10 3 9
3 5 4 11
3 11 4 10
3 0 5 6
3 6 5 11
3 5 3 4
3 5 2 3
3 0 2 5
3 1 2 0
3 10 9 11
3 11 9 8
3 11 8 6
3 6 8 7
