ply
format ascii 1.0
comment VCGLIB generated
element vertex 12
property float x
property float y
property float z
element face 20
property list uchar int vertex_indices
end_header
29.92777463 -3.98554338 2.92297470
15.01677071 -21.40295771 -1.31863477
-14.94584057 -24.72496381 -3.35231993
-28.13042721 0.58911247 -6.34918726
-10.37952831 24.44336756 -0.65619720
23.09826666 27.60705042 -4.61635282
26.50940088 1.21426062 43.88722582
8.48879046 -29.59862285 56.01812480
-26.31112424 -18.88504701 58.59524768
-17.84646008 -0.32549504 48.56035576
-15.21659950 31.50493210 60.15038396
5.45812041 16.16318720 52.88418476
3 1 0 7
3 7 0 6
3 2 1 8
3 8 1 7
3 3 2 9
3 9 2 8
3 4 3 10
3 10 3 9
3 5 4 11
3 11 4 10
3 0 5 6
3 6 5 11
3 5 3 4
3 5 2 3
3 0 2 5
3 1 2 0
3 10 9 11
3 11 9 8
3 11 8 6
3 6 8 7
