ply
format ascii 1.0
comment VCGLIB generated
element vertex 10
property float x
property float y
property float z
element face 16
property list uchar int vertex_indices
end_header
-21.81723226 4.06288766 -0.45041587
-14.12021933 -16.10848178 -3.40252768
23.61663375 -15.91742902 -6.82009433
8.35018847 0.52770615 -1.83607024
-3.24938461 24.44735611 -3.59583066
-23.75224110 3.74700174 46.01347685
-13.95894282 -25.20290801 37.89701151
17.83708352 -16.54092242 35.35491610
30.07807023 9.64853152 45.54844500
4.10214142 25.59190161 36.47731885
3 1 2 7
3 1 7 6
3 2 3 8
3 2 8 7
3 3 4 9
3 3 9 8
3 4 0 5
3 4 5 9
3 0 1 6
3 0 6 5
3 4 3 0
3 0 3 1
3 1 3 2
3 5 8 9
3 6 8 5
3 7 8 6
