ply
format ascii 1.0
comment VCGLIB generated
element vertex 12
property float x
property float y
property float z
element face 20
property list uchar int vertex_indices
end_header
13.52124329 -0.29209244 3.05225023
2.93601513 -6.59664157 -3.60103421
-9.48543982 -9.83297308 2.71420341
-14.17833093 -0.32201649 1.95140608
-4.30442675 13.94796925 1.57650872
9.62548038 10.44407113 0.02246059
14.83381620 -2.44352829 21.51373139
5.81496314 -11.40691434 24.24155823
-10.37702563 -16.51972571 27.12525639
-13.00869970 2.66627775 26.81261350
-4.27104825 10.76187939 25.94396210
4.61849061 11.36544348 28.58406865
3 1 0 7
3 7 0 6
3 2 1 8
3 8 1 7
3 3 2 9
3 9 2 8
3 4 3 10
3 10 3 9
3 5 4 11
3 11 4 10
3 0 5 6
3 6 5 11
3 5 3 4
3 5 2 3
3 0 2 5
3 1 2 0
3 10 9 11
3 11 9 8
3 11 8 6
3 6 8 7
