ply
format ascii 1.0
comment VCGLIB generated
element vertex 12
property float x
property float y
property float z
element face 20
property list uchar int vertex_indices
end_header
25.05183897 0.06141707 10.54340635
23.66571591 -28.76366586 10.50414368
-8.08879165 -21.97834428 -1.38554988
-27.76407513 -10.23368813 -0.11593676
-16.98569944 14.44617688 -2.27093078
10.87951296 21.71504706 6.76941488
23.03151941 5.73058058 63.85468287
20.69797457 -27.00359153 56.48282250
-14.12381734 -23.43409110 54.53650454
-23.93117516 -4.39488383 52.71261758
-17.21514118 30.37656217 61.35432319
13.86638989 25.74479445 64.25472401
3 1 0 7
3 7 0 6
3 2 1 8
3 8 1 7
3 3 2 9
3 9 2 8
3 4 3 10
3 10 3 9
3 5 4 11
3 11 4 10
3 0 5 6
3 6 5 11
3 5 3 4
3 5 2 3
3 0 2 5
3 1 2 0
3 10 9 11
3 11 9 8
3 11 8 6
3 6 8 7
