ply
format ascii 1.0
comment VCGLIB generated
element vertex 8
property float x
property float y
property float z
element face 12
property list uchar int vertex_indices
end_header
-22.31502297 -14.61894642 -3.28722497
13.28967449 -13.41762429 0.67795240
16.37073378 15.05303646 3.95152056
-16.63783922 14.71090566 1.81882976
-18.80024131 -14.14511522 47.07655873
18.13795518 -7.40440351 50.95726202
12.59946233 14.01254373 53.26912895
-13.25301081 13.00024576 43.46865313
3 0 1 5
3 0 5 4
3 1 2 6
3 1 6 5
3 2 3 7
3 2 7 6
3 3 0 4
3 3 4 7
3 2 1 0
3 2 0 3
3 6 4 5
3 6 7 4
