ply
format ascii 1.0
comment VCGLIB generated
element vertex 10
property float x
property float y
property float z
element face 16
property list uchar int vertex_indices
end_header
-20.06080073 7.01645337 -0.53996760
-12.98945097 -16.18228714 7.91474545
9.19138188 -20.37119491 -6.10830816
21.26588996 4.86704527 3.14909379
1.83206062 17.48672004 4.48846103
-24.07345384 6.31177121 43.77287231
-11.54842953 -14.94079449 33.32681588
10.72665839 -18.19346974 33.71741869
17.69661942 7.32445895 35.51803667
0.88194158 24.97214563 38.31073768
3 1 2 7
3 1 7 6
3 2 3 8
3 2 8 7
3 3 4 9
3 3 9 8
3 4 0 5
3 4 5 9
3 0 1 6
3 0 6 5
3 4 3 0
3 0 3 1
3 1 3 2
3 5 8 9
3 6 8 5
3 7 8 6
