ply
format ascii 1.0
comment VCGLIB generated
element vertex 10
property float x
property float y
property float z
element face 16
property list uchar int vertex_indices
end_header
-7.32990652 2.62760854 0.80681031
-3.07128103 -5.81023532 2.12842877
2.38959241 -3.55286900 1.92981421
7.14374813 2.72793831 -1.12976663
0.94570333 5.43661623 -1.16958271
-4.92511447 1.76680249 12.47097443
-4.67916926 -7.62729453 12.23986112
4.48281841 -5.48370788 12.77180097
6.73800452 4.09457748 14.48442761
0.80748486 6.15229559 11.20574028
3 1 2 7
3 1 7 6
3 2 3 8
3 2 8 7
3 3 4 9
3 3 9 8
3 4 0 5
3 4 5 9
3 0 1 6
3 0 6 5
3 4 3 0
3 0 3 1
3 1 3 2
3 5 8 9
3 6 8 5
3 7 8 6
