ply
format ascii 1.0
comment VCGLIB generated
element vertex 12
property float x
property float y
property float z
element face 20
property list uchar int vertex_indices
end_header
37.02479847 2.01626765 -4.16827973
14.61065389 -25.31032446 -7.35718883
-8.31175838 -23.58711256 2.17305337
-29.04190362 2.40544438 -5.09344822
-13.91587348 16.56219322 -12.49915558
19.11896161 24.02135925 1.04148719
23.31074814 -3.17103883 57.13069294
11.24526052 -26.00477566 51.96816993
-2.07573308 -23.86793152 56.47691042
-24.15014379 -10.25116525 45.50956309
-19.56985537 25.03993735 58.57885928
8.18793039 24.17995759 57.37867486
3 1 0 7
3 7 0 6
3 2 1 8
3 8 1 7
3 3 2 9
3 9 2 8
3 4 3 10
3 10 3 9
3 5 4 11
3 11 4 10
3 0 5 6
3 6 5 11
3 5 3 4
3 5 2 3
3 0 2 5
3 1 2 0
3 10 9 11
3 11 9 8
3 11 8 6
3 6 8 7
