ply
format ascii 1.0
comment VCGLIB generated
element vertex 12
property float x
property float y
property float z
element face 20
property list uchar int vertex_indices
end_header
12.57197256 -0.93424275 0.17376061
10.79260476 -9.89757064 3.60224812
-8.78177260 -6.37561059 -3.28345325
-16.34486510 2.75521968 -4.88965784
-7.17589580 10.71809389 -1.21364227
3.53379891 16.02536729 2.53991393
20.06301833 -2.23964293 27.66716621
5.73963083 -18.04802759 30.54966141
-3.66958863 -11.05374247 28.42301245
-10.33622992 -0.09375482 30.78619479
-8.57912143 11.63640767 26.84414822
3.31347677 13.31455088 29.21201642
3 1 0 7
3 7 0 6
3 2 1 8
3 8 1 7
3 3 2 9
3 9 2 8
3 4 3 10
3 10 3 9
3 5 4 11
3 11 4 10
3 0 5 6
3 6 5 11
3 5 3 4
3 5 2 3
3 0 2 5
3 1 2 0
3 10 9 11
3 11 9 8
3 11 8 6
3 6 8 7
