ply
format ascii 1.0
comment VCGLIB generated
element vertex 10
property float x
property float y
property float z
element face 16
property list uchar int vertex_indices
end_header
-5.93039416 2.19995050 0.53424565
-2.77331331 -4.64698328 -2.43400418
3.43747177 -4.18001104 1.17410787
9.43369606 3.56619646 1.41654652
-2.19783899 6.20681953 -1.14828277
-3.87040939 3.21906684 14.15791712
-3.52386603 -3.98299809 12.26378789
5.73123089 -8.21371178 14.39869981
7.74083015 2.29062394 14.06877721
1.73522719 7.52801864 13.57070660
3 1 2 7
3 1 7 6
3 2 3 8
3 2 8 7
3 3 4 9
3 3 9 8
3 4 0 5
3 4 5 9
3 0 1 6
3 0 6 5
3 4 3 0
3 0 3 1
3 1 3 2
3 5 8 9
3 6 8 5
3 7 8 6
