ply
format ascii 1.0
comment VCGLIB generated
element vertex 12
property float x
property float y
property float z
element face 20
property list uchar int vertex_indices
end_header
24.16255900 2.93322486 -0.40833412
23.18081355 -14.58804518 -4.46754849
-9.11180388 -22.81713388 6.03761496
-27.63804626 1.65598457 2.99134928
-3.74718669 17.59166954 -2.60774793
19.95101595 20.33741192 -0.96750913
26.20705826 -5.48777669 55.59485694
10.76466106 -28.60723729 56.53459416
-16.71686777 -25.38938253 58.34145449
-21.45104279 1.98629712 49.90626522
-10.34074819 14.96721098 51.90357125
5.72314431 27.76704360 56.83661021
3 1 0 7
3 7 0 6
3 2 1 8
3 8 1 7
3 3 2 9
3 9 2 8
3 4 3 10
3 10 3 9
3 5 4 11
3 11 4 10
3 0 5 6
3 6 5 11
3 5 3 4
3 5 2 3
3 0 2 5
3 1 2 0
3 10 9 11
3 11 9 8
3 11 8 6
3 6 8 7
