ply
format ascii 1.0
comment VCGLIB generated
element vertex 12
property float x
property float y
property float z
element face 20
property list uchar int vertex_indices
end_header
16.41106046 3.07222792 1.80660297
9.00107178 -12.58401205 -0.82920656
-6.01926455 -13.29995264 -5.08087272
-16.46716515 -0.50244687 -1.56834696
-7.76576522 10.42776299 0.33001875
6.82789225 15.71662218 3.92727432
14.98552833 0.89716135 31.56816614
10.87876202 -19.71857838 24.59340092
-12.24451879 -13.56451948 31.64741805
-24.00657432 -6.44352597 27.92469669
-10.02778200 15.32219739 29.31890091
3.36864430 17.78295946 28.12445265
3 1 0 7
3 7 0 6
3 2 1 8
3 8 1 7
3 3 2 9
3 9 2 8
3 4 3 10
3 10 3 9
3 5 4 11
3 11 4 10
3 0 5 6
3 6 5 11
3 5 3 4
3 5 2 3
3 0 2 5
3 1 2 0
3 10 9 11
3 11 9 8
3 11 8 6
3 6 8 7
