ply
format ascii 1.0
comment VCGLIB generated
element vertex 10
property float x
property float y
property float z
element face 16
property list uchar int vertex_indices
end_header
-31.19470705 12.09498596 14.42743601
-11.85011626 -36.02058809 2.08591226
18.77308534 -20.29884596 5.84684756
29.72719663 16.95311058 -7.21928828
1.33959579 18.58780786 -2.75254499
-17.63631663 5.67711086 54.67077455
-8.41740688 -29.66943662 46.09811017
16.56723664 -20.50695892 52.08027875
23.95067733 7.03840971 61.89659735
8.37317888 28.24801723 52.78155765
3 1 2 7
3 1 7 6
3 2 3 8
3 2 8 7
3 3 4 9
3 3 9 8
3 4 0 5
3 4 5 9
3 0 1 6
3 0 6 5
3 4 3 0
3 0 3 1
3 1 3 2
3 5 8 9
3 6 8 5
3 7 8 6
