ply
format ascii 1.0
comment VCGLIB generated
element vertex 8
property float x
property float y
property float z
element face 12
property list uchar int vertex_indices
end_header
-1.63562138 -1.79403368 0.37328519
1.50541392 -1.75396437 -0.12563099
1.76982250 1.87964841 0.94527659
-1.73494764 2.49260453 0.38919490
-1.99982293 -1.39626922 5.89554270
1.18377807 -2.40982183 5.42741516
1.85272753 1.59989388 4.97013796
-2.16829955 2.04732667 5.21344931
3 0 1 5
3 0 5 4
3 1 2 6
3 1 6 5
3 2 3 7
3 2 7 6
3 3 0 4
3 3 4 7
3 2 1 0
3 2 0 3
3 6 4 5
3 6 7 4
