ply
format ascii 1.0
comment VCGLIB generated
element vertex 12
property float x
property float y
property float z
element face 20
property list uchar int vertex_indices
end_header
2.05474429 -0.32887373 0.36344753
1.16535370 -1.01358220 0.49753778
-0.34805473 -1.86671240 -0.29992673
-1.74500958 -0.86248866 0.05437620
-1.23017434 3.00389863 0.09487361
2.47385977 2.44232440 -0.71588705
2.04077659 -0.18146540 4.77062260
1.35909422 -3.10495373 6.01774538
-0.74279338 -3.26065609 5.13260883
-2.78857845 0.44986828 5.24924956
-1.04464701 2.68361645 5.23474352
1.32708600 1.93200213 5.05608645
3 1 0 7
3 7 0 6
3 2 1 8
3 8 1 7
3 3 2 9
3 9 2 8
3 4 3 10
3 10 3 9
3 5 4 11
3 11 4 10
3 0 5 6
3 6 5 11
3 5 3 4
3 5 2 3
3 0 2 5
3 1 2 0
3 10 9 11
3 11 9 8
3 11 8 6
3 6 8 7
