ply
format ascii 1.0
comment VCGLIB generated
element vertex 10
property float x
property float y
property float z
element face 16
property list uchar int vertex_indices
end_header
-5.89700550 0.63925059 0.04138811
-3.71178021 -5.74039175 0.09900994
3.09045786 -7.12026446 1.61436336
6.19130330 0.64123732 1.54242856
1.14690052 7.65610024 0.89785922
-6.84104790 3.37349649 15.20216884
-5.52278034 -5.16551029 14.62932739
1.38975600 -7.61489181 13.63292327
8.11639378 2.61355884 13.34669488
-0.80951624 7.74195975 14.66180402
3 1 2 7
3 1 7 6
3 2 3 8
3 2 8 7
3 3 4 9
3 3 9 8
3 4 0 5
3 4 5 9
3 0 1 6
3 0 6 5
3 4 3 0
3 0 3 1
3 1 3 2
3 5 8 9
3 6 8 5
3 7 8 6
