ply
format ascii 1.0
comment VCGLIB generated
element vertex 12
property float x
property float y
property float z
element face 20
property list uchar int vertex_indices
end_header
10.70239915 3.42660272 1.64803270
5.94363821 -13.66484166 -0.04854534
-11.95605032 -13.70606381 2.53030163
-15.13063866 -5.77301215 -0.73773412
-3.70111178 12.92632999 2.09035146
7.37305695 8.67608417 2.64693586
20.92550852 0.63641653 26.92798006
8.38017541 -12.98579048 23.71546038
-4.52246175 -13.37828532 26.54091937
-13.62006515 -7.89812972 25.63984400
-4.84329148 8.07696209 32.40902548
9.65816630 17.05473656 28.57487052
3 1 0 7
3 7 0 6
3 2 1 8
3 8 1 7
3 3 2 9
3 9 2 8
3 4 3 10
3 10 3 9
3 5 4 11
3 11 4 10
3 0 5 6
3 6 5 11
3 5 3 4
3 5 2 3
3 0 2 5
3 1 2 0
3 10 9 11
3 11 9 8
3 11 8 6
3 6 8 7
