ply
format ascii 1.0
comment VCGLIB generated
element vertex 12
property float x
property float y
property float z
element face 20
property list uchar int vertex_indices
end_header
24.61960377 -1.33156440 -4.62970117
3.17327921 -18.50818761 5.72901903
-6.50348806 -15.34900029 -2.42778091
-20.14955942 -3.86105076 -1.62861850
-5.72595406 19.54763910 4.85349589
5.40690539 16.56673041 -2.52949700
22.15780729 3.21380277 37.82498505
5.97102527 -19.39973520 36.65415254
-10.65810391 -15.83798912 38.24951590
-14.63571063 9.05941886 32.87463979
-3.92505864 17.43540779 37.41759890
8.57841847 12.26214854 37.27666120
3 1 0 7
3 7 0 6
3 2 1 8
3 8 1 7
3 3 2 9
3 9 2 8
3 4 3 10
3 10 3 9
3 5 4 11
3 11 4 10
3 0 5 6
3 6 5 11
3 5 3 4
3 5 2 3
3 0 2 5
3 1 2 0
3 10 9 11
3 11 9 8
3 11 8 6
3 6 8 7
