ply
format ascii 1.0
comment VCGLIB generated
element vertex 10
property float x
property float y
property float z
element face 16
property list uchar int vertex_indices
end_header
-15.82280391 5.34241293 1.28262054
-7.26237604 -9.79670966 1.78389457
12.35971031 -10.86207800 -2.50659349
13.63577151 2.44962371 4.63507353
2.63945681 16.49513972 4.55232363
-11.45548582 7.46974447 26.01250219
-8.49965892 -8.70338378 27.98193239
6.53869573 -13.00477575 32.41537455
14.74126548 9.12040359 23.47615556
-2.89055092 18.40824469 24.86969742
3 1 2 7
3 1 7 6
3 2 3 8
3 2 8 7
3 3 4 9
3 3 9 8
3 4 0 5
3 4 5 9
3 0 1 6
3 0 6 5
3 4 3 0
3 0 3 1
3 1 3 2
3 5 8 9
3 6 8 5
3 7 8 6
