ply
format ascii 1.0
comment VCGLIB generated
element vertex 8
property float x
property float y
property float z
element face 12
property list uchar int vertex_indices
end_header
-10.64821907 -6.22248531 2.67836276
-0.13303051 -6.42899269 1.37728337
6.44494290 5.73143529 -2.86718186
-7.69129960 9.54096043 -1.83361319
-9.00167838 -6.09268327 17.54899564
5.57982886 -7.12069627 20.10337096
7.40698710 9.63417714 18.44882859
-9.88873472 8.57248883 16.89830742
3 0 1 5
3 0 5 4
3 1 2 6
3 1 6 5
3 2 3 7
3 2 7 6
3 3 0 4
3 3 4 7
3 2 1 0
3 2 0 3
3 6 4 5
3 6 7 4
