ply
format ascii 1.0
comment VCGLIB generated
element vertex 10
property float x
property float y
property float z
element face 16
property list uchar int vertex_indices
end_header
-8.09361016 1.61150671 -3.97110038
-4.98801065 -6.36848246 0.91783520
3.13449394 -7.39443616 -1.09185159
7.36967889 4.56733323 -2.20898656
4.01424246 9.39209346 -0.72786318
-3.40207752 2.53064127 15.61555131
-4.36090810 -6.15163921 13.35607544
5.41151701 -4.54225905 13.14751082
4.02024763 3.30397405 13.17383501
0.26368125 6.41900650 15.16854507
3 1 2 7
3 1 7 6
3 2 3 8
3 2 8 7
3 3 4 9
3 3 9 8
3 4 0 5
3 4 5 9
3 0 1 6
3 0 6 5
3 4 3 0
3 0 3 1
3 1 3 2
3 5 8 9
3 6 8 5
3 7 8 6
