ply
format ascii 1.0
comment VCGLIB generated
element vertex 10
property float x
property float y
property float z
element face 16
property list uchar int vertex_indices
end_header
-28.71188445 11.25558861 -3.54035268
-15.03281074 -14.00083857 0.98243494
26.62172499 -23.25995940 -12.86130530
25.32352449 7.47920319 3.64983137
9.47069514 36.81401001 7.81833854
-35.78011437 13.47726749 67.57480236
-17.46786004 -34.94188651 62.04270104
16.23440990 -25.32318335 61.93945261
27.12560991 13.96207114 63.39121334
1.52567161 25.94795331 59.38547614
3 1 2 7
3 1 7 6
3 2 3 8
3 2 8 7
3 3 4 9
3 3 9 8
3 4 0 5
3 4 5 9
3 0 1 6
3 0 6 5
3 4 3 0
3 0 3 1
3 1 3 2
3 5 8 9
3 6 8 5
3 7 8 6
