ply
format ascii 1.0
comment VCGLIB generated
element vertex 8
property float x
property float y
property float z
element face 12
property list uchar int vertex_indices
end_header
-15.15033928 -11.61976947 -7.17756474
7.81179829 -12.18209638 -1.58242826
15.79288504 17.88207156 2.44187959
-17.42578567 6.82219451 3.68695305
-6.15993706 -13.22803847 37.80970427
5.53281987 -20.18024198 38.75269789
15.83790183 9.99699537 45.34195871
-21.75711596 10.69490232 40.50439185
3 0 1 5
3 0 5 4
3 1 2 6
3 1 6 5
3 2 3 7
3 2 7 6
3 3 0 4
3 3 4 7
3 2 1 0
3 2 0 3
3 6 4 5
3 6 7 4
