ply
format ascii 1.0
comment VCGLIB generated
element vertex 12
property float x
property float y
property float z
element face 20
property list uchar int vertex_indices
end_header
28.45671580 6.30229583 1.89911878
16.02295518 -15.34293037 -2.62652905
-16.55329516 -12.51119328 -6.00888598
-16.70010131 2.77371960 -3.61693521
-9.46598607 16.00881854 -6.33038600
7.89176148 18.51757143 -8.02825492
19.98498061 4.81607317 32.76544554
3.84606942 -11.91690283 38.37144395
-11.88876610 -18.80866581 36.99186778
-23.47721132 -4.89321811 33.58292533
-5.54015424 14.90400233 33.94250155
14.29842113 19.16941785 38.29135923
3 1 0 7
3 7 0 6
3 2 1 8
3 8 1 7
3 3 2 9
3 9 2 8
3 4 3 10
3 10 3 9
3 5 4 11
3 11 4 10
3 0 5 6
3 6 5 11
3 5 3 4
3 5 2 3
3 0 2 5
3 1 2 0
3 10 9 11
3 11 9 8
3 11 8 6
3 6 8 7
