ply
format ascii 1.0
comment VCGLIB generated
element vertex 10
property float x
property float y
property float z
element face 16
property list uchar int vertex_indices
end_header
-5.54063368 1.10930303 -2.17236063
-3.77294770 -6.15577584 0.83968318
4.11569499 -4.22549711 -1.21352553
5.43481744 1.96055938 0.75615898
-0.31007968 6.77092395 0.41706707
-6.53814013 2.76636201 10.71508353
-4.16829790 -5.85781047 10.31637281
4.34647735 -3.70810358 12.46490038
8.15181795 1.55138837 13.93179126
-0.66562981 7.96205912 12.33517937
3 1 2 7
3 1 7 6
3 2 3 8
3 2 8 7
3 3 4 9
3 3 9 8
3 4 0 5
3 4 5 9
3 0 1 6
3 0 6 5
3 4 3 0
3 0 3 1
3 1 3 2
3 5 8 9
3 6 8 5
3 7 8 6
