ply
format ascii 1.0
comment VCGLIB generated
element vertex 10
property float x
property float y
property float z
element face 16
property list uchar int vertex_indices
end_header
-21.68368628 5.09095681 -1.07694864
-18.80534091 -11.49555314 3.71681390
8.13222638 -9.42659194 5.48241795
17.97374532 3.26815178 2.56036563
-0.36316590 20.08364484 1.48894065
-16.73441538 4.21305477 41.18264434
-6.90122869 -12.68692023 38.39722853
8.88723220 -15.40021634 32.90030407
18.74997292 7.24989422 38.28985871
-5.20067162 10.93583648 32.14091167
3 1 2 7
3 1 7 6
3 2 3 8
3 2 8 7
3 3 4 9
3 3 9 8
3 4 0 5
3 4 5 9
3 0 1 6
3 0 6 5
3 4 3 0
3 0 3 1
3 1 3 2
3 5 8 9
3 6 8 5
3 7 8 6
