ply
format ascii 1.0
comment VCGLIB generated
element vertex 8
property float x
property float y
property float z
element face 12
property list uchar int vertex_indices
end_header
-24.80350807 -19.13089466 -3.98168035
19.94757516 -28.49089650 4.25854334
12.48090538 19.96599227 -3.84951427
-17.45317257 15.06933633 0.85572546
-21.39142795 -17.37805622 50.84206197
23.95167962 -26.18462858 54.72736143
21.02064091 16.32172527 57.55474790
-12.95524142 14.59374982 55.45161186
3 0 1 5
3 0 5 4
3 1 2 6
3 1 6 5
3 2 3 7
3 2 7 6
3 3 0 4
3 3 4 7
3 2 1 0
3 2 0 3
3 6 4 5
3 6 7 4
