ply
format ascii 1.0
comment VCGLIB generated
element vertex 10
property float x
property float y
property float z
element face 16
property list uchar int vertex_indices
end_header
-8.33805010 8.16796846 -3.56142640
-4.61518846 -10.38632409 3.40221630
6.87476658 -13.51985594 3.59255109
6.51935370 4.96873735 -3.37592068
-0.66011211 15.14632048 -1.60554604
-12.43784198 7.19754373 25.23563111
-9.09535307 -13.25930378 26.03041051
8.77774270 -8.25483943 20.70701372
15.34283469 6.79376523 19.91590183
-1.10202926 9.83194746 19.10433096
3 1 2 7
3 1 7 6
3 2 3 8
3 2 8 7
3 3 4 9
3 3 9 8
3 4 0 5
3 4 5 9
3 0 1 6
3 0 6 5
3 4 3 0
3 0 3 1
3 1 3 2
3 5 8 9
3 6 8 5
3 7 8 6
