ply
format ascii 1.0
comment VCGLIB generated
element vertex 12
property float x
property float y
property float z
element face 20
property list uchar int vertex_indices
end_header
14.16043323 2.14223214 -8.80228748
8.42261795 -17.42116029 5.60724488
-6.64455162 -11.15263666 -2.57730088
-22.68099964 -0.58341080 -1.90646579
-6.91405174 6.25444436 -4.67488803
5.42808109 18.12117897 -1.48308740
17.00832882 1.83838262 39.45625056
3.36566229 -10.54217482 39.44851257
-3.68363135 -8.97049200 41.12020777
-14.44425345 4.12822617 35.44950071
-6.18797724 11.27936189 28.21970735
7.72117226 20.10874056 41.04805592
3 1 0 7
3 7 0 6
3 2 1 8
3 8 1 7
3 3 2 9
3 9 2 8
3 4 3 10
3 10 3 9
3 5 4 11
3 11 4 10
3 0 5 6
3 6 5 11
3 5 3 4
3 5 2 3
3 0 2 5
3 1 2 0
3 10 9 11
3 11 9 8
3 11 8 6
3 6 8 7
