ply
format ascii 1.0
comment VCGLIB generated
element vertex 8
property float x
property float y
property float z
element face 12
property list uchar int vertex_indices
end_header
-8.10731790 -12.73983727 -1.33279002
8.79573839 -12.16725193 -1.45116307
7.52042724 14.29401255 -2.06783731
-6.79304824 3.72272193 -1.79685478
-11.69435997 -12.62974881 24.41957575
10.24784762 -6.08919409 27.34430054
8.06232473 8.79405986 20.29724716
-13.90089856 9.75402742 25.01209006
3 0 1 5
3 0 5 4
3 1 2 6
3 1 6 5
3 2 3 7
3 2 7 6
3 3 0 4
3 3 4 7
3 2 1 0
3 2 0 3
3 6 4 5
3 6 7 4
