ply
format ascii 1.0
comment VCGLIB generated
element vertex 12
property float x
property float y
property float z
element face 20
property list uchar int vertex_indices
end_header
23.44172304 -1.08762200 5.21830535
16.61112433 -32.46726579 3.44880028
-23.76479903 -28.03956234 7.11329181
-19.71087020 11.87327225 -2.13620744
-15.26195627 25.63064543 -0.69499250
16.57708338 28.81325268 4.10289707
43.22996765 0.55053342 64.86085302
12.25672751 -16.15727832 66.54960698
-11.41026582 -32.99017972 63.60102373
-23.85992003 5.00988712 48.01352250
-12.55878123 25.51068966 58.35827376
23.19599239 30.76506283 49.04523100
3 1 0 7
3 7 0 6
3 2 1 8
3 8 1 7
3 3 2 9
3 9 2 8
3 4 3 10
3 10 3 9
3 5 4 11
3 11 4 10
3 0 5 6
3 6 5 11
3 5 3 4
3 5 2 3
3 0 2 5
3 1 2 0
3 10 9 11
3 11 9 8
3 11 8 6
3 6 8 7
