ply
format ascii 1.0
comment VCGLIB generated
element vertex 12
property float x
property float y
property float z
element face 20
property list uchar int vertex_indices
end_header
9.03173591 -3.21618949 2.20934671
2.63826124 -7.57824881 -2.47432390
-1.67117880 -11.46208290 -0.39966774
-9.80466792 -0.18244066 -4.20780677
-4.52905698 7.56787804 -3.84482027
7.50575542 4.22288583 -1.29678083
6.89497890 -1.68946171 21.52311092
3.00888556 -10.70293812 18.41658074
-7.38313199 -6.50543434 21.82511544
-9.25279809 0.45010443 22.31210476
-2.68618827 8.14981580 21.29367228
1.41078443 10.35805504 19.09174192
3 1 0 7
3 7 0 6
3 2 1 8
3 8 1 7
3 3 2 9
3 9 2 8
3 4 3 10
3 10 3 9
3 5 4 11
3 11 4 10
3 0 5 6
3 6 5 11
3 5 3 4
3 5 2 3
3 0 2 5
3 1 2 0
3 10 9 11
3 11 9 8
3 11 8 6
3 6 8 7
