ply
format ascii 1.0
comment VCGLIB generated
element vertex 10
property float x
property float y
property float z
element face 16
property list uchar int vertex_indices
end_header
-20.65739405 9.55531497 9.63815941
-12.33902164 -15.32706065 -3.37444073
16.35318737 -20.35720925 3.04956432
23.21414277 5.65824441 3.42218392
-0.49094316 21.65762988 -6.78776003
-20.23910168 2.03283618 47.12603594
-3.35852184 -22.26588557 39.09091135
9.70423347 -20.15795436 30.51085205
14.63890273 3.45721077 43.68797970
5.61974663 19.79299852 43.36745465
3 1 2 7
3 1 7 6
3 2 3 8
3 2 8 7
3 3 4 9
3 3 9 8
3 4 0 5
3 4 5 9
3 0 1 6
3 0 6 5
3 4 3 0
3 0 3 1
3 1 3 2
3 5 8 9
3 6 8 5
3 7 8 6
