ply
format ascii 1.0
comment VCGLIB generated
element vertex 8
property float x
property float y
property float z
element face 12
property list uchar int vertex_indices
end_header
-16.63060451 -21.38498086 9.50257481
15.29502537 -7.09870754 -6.92599516
10.99349898 23.90074361 1.05638353
-21.25188001 31.66728575 2.85721282
-14.42291743 -30.79974517 53.81250844
28.23022023 -11.70807562 67.24937187
18.05467897 30.61594126 51.85360640
-16.00419431 22.41062460 57.92668580
3 0 1 5
3 0 5 4
3 1 2 6
3 1 6 5
3 2 3 7
3 2 7 6
3 3 0 4
3 3 4 7
3 2 1 0
3 2 0 3
3 6 4 5
3 6 7 4
