ply
format ascii 1.0
comment VCGLIB generated
element vertex 12
property float x
property float y
property float z
element face 20
property list uchar int vertex_indices
end_header
33.29739416 0.86587278 1.06576171
12.68774678 -26.62132035 -6.30987624
-7.31490958 -41.72751586 -0.85270915
-24.10565919 10.36331091 6.42331942
-22.67507481 24.96608500 -6.40071959
20.35775474 22.18622571 -6.59126073
22.19985928 1.03619895 53.34754631
22.58636115 -30.44735185 64.60810655
-13.54017517 -28.28948402 59.89880212
-30.30624377 -4.04092524 59.40882319
-13.56567694 18.61888781 63.80077239
10.89938895 24.02239040 56.63214916
3 1 0 7
3 7 0 6
3 2 1 8
3 8 1 7
3 3 2 9
3 9 2 8
3 4 3 10
3 10 3 9
3 5 4 11
3 11 4 10
3 0 5 6
3 6 5 11
3 5 3 4
3 5 2 3
3 0 2 5
3 1 2 0
3 10 9 11
3 11 9 8
3 11 8 6
3 6 8 7
