ply
format ascii 1.0
comment VCGLIB generated
element vertex 10
property float x
property float y
property float z
element face 16
property list uchar int vertex_indices
end_header
-2.44652331 1.21283597 -0.78392760
-1.82009094 -1.98819367 0.06269071
1.10787606 -2.13365186 -0.08627513
2.40645541 0.60299201 0.08690712
-0.42799419 2.94417296 -0.10944794
-3.17658888 0.55305633 4.87993238
-1.42086898 -1.98552591 5.14933210
0.81431438 -2.73627695 4.98620013
1.88962187 -0.24022881 5.66712421
0.20997845 3.04062503 4.25438512
3 1 2 7
3 1 7 6
3 2 3 8
3 2 8 7
3 3 4 9
3 3 9 8
3 4 0 5
3 4 5 9
3 0 1 6
3 0 6 5
3 4 3 0
3 0 3 1
3 1 3 2
3 5 8 9
3 6 8 5
3 7 8 6
