ply
format ascii 1.0
comment VCGLIB generated
element vertex 8
property float x
property float y
property float z
element face 12
property list uchar int vertex_indices
end_header
-5.56790800 -8.81685876 1.54314153
7.92008298 -7.13388634 0.10539532
6.95187094 9.02964580 0.03175463
-10.42538004 8.27069669 3.15587038
-5.07935743 -10.16314225 23.26873628
8.61097737 -7.54171522 21.72134141
8.58546124 7.55650271 24.81411051
-10.51386810 8.76782888 23.30236959
3 0 1 5
3 0 5 4
3 1 2 6
3 1 6 5
3 2 3 7
3 2 7 6
3 3 0 4
3 3 4 7
3 2 1 0
3 2 0 3
3 6 4 5
3 6 7 4
