ply
format ascii 1.0
comment VCGLIB generated
element vertex 8
property float x
property float y
property float z
element face 12
property list uchar int vertex_indices
end_header
-9.86495692 -10.76554625 0.26251133
8.29036721 -4.56652894 -1.57975984
5.06600044 8.99324527 3.84582906
-13.78898749 14.17901021 0.33829871
-10.00505040 -13.24042597 31.62944069
7.20404640 -11.94954175 23.97143769
6.32374631 14.07607014 27.02155966
-11.01522494 8.71912621 31.26649011
3 0 1 5
3 0 5 4
3 1 2 6
3 1 6 5
3 2 3 7
3 2 7 6
3 3 0 4
3 3 4 7
3 2 1 0
3 2 0 3
3 6 4 5
3 6 7 4
