ply
format ascii 1.0
comment VCGLIB generated
element vertex 8
property float x
property float y
property float z
element face 12
property list uchar int vertex_indices
end_header
-4.38499423 -0.70261745 0.65393551
2.48713413 -1.73721413 -0.77190816
2.82138317 2.34628979 0.01925981
-2.89135219 2.46862441 0.46124265
-1.32840276 -2.46253724 6.81422720
2.55551490 -2.27338230 7.05113848
1.67816818 2.06036671 5.91455472
-2.60106241 2.03816439 6.40032416
3 0 1 5
3 0 5 4
3 1 2 6
3 1 6 5
3 2 3 7
3 2 7 6
3 3 0 4
3 3 4 7
3 2 1 0
3 2 0 3
3 6 4 5
3 6 7 4
