ply
format ascii 1.0
comment VCGLIB generated
element vertex 12
property float x
property float y
property float z
element face 20
property list uchar int vertex_indices
end_header
14.84954972 2.16904222 6.26357758
14.86360534 -23.02264240 -5.36794597
-6.93777144 -12.70054535 -2.96790798
-24.29256623 1.72065625 -4.81224330
-6.83781577 14.50727955 2.95760214
8.28618514 20.23088787 -3.38862959
19.32892881 2.32416664 41.17273459
5.37001462 -14.75864723 27.46967335
-11.31839562 -15.88209423 36.13825023
-10.58690409 0.23102301 30.93894530
-8.70113140 12.72084951 36.23367471
5.87163170 19.10762973 33.23269781
3 1 0 7
3 7 0 6
3 2 1 8
3 8 1 7
3 3 2 9
3 9 2 8
3 4 3 10
3 10 3 9
3 5 4 11
3 11 4 10
3 0 5 6
3 6 5 11
3 5 3 4
3 5 2 3
3 0 2 5
3 1 2 0
3 10 9 11
3 11 9 8
3 11 8 6
3 6 8 7
