ply
format ascii 1.0
comment VCGLIB generated
element vertex 8
property float x
property float y
property float z
element face 12
property list uchar int vertex_indices
end_header
-9.49997585 -6.53484744 -1.29179934
10.30449104 -8.99566486 -0.88056523
9.18136180 9.27185233 3.49170860
-9.01186039 4.30675706 0.51175316
-4.34710572 -9.47543032 20.17779222
3.80703471 -7.71487729 22.88012943
7.58287939 7.93863410 20.41217784
-7.71111026 8.52992915 22.08510413
3 0 1 5
3 0 5 4
3 1 2 6
3 1 6 5
3 2 3 7
3 2 7 6
3 3 0 4
3 3 4 7
3 2 1 0
3 2 0 3
3 6 4 5
3 6 7 4
