ply
format ascii 1.0
comment VCGLIB generated
element vertex 12
property float x
property float y
property float z
element face 20
property list uchar int vertex_indices
end_header
14.01990299 2.01898136 0.36344043
6.33426333 -11.58000061 -1.66091915
-7.15336725 -10.81799120 3.58818917
-14.99005061 0.39133972 4.23030669
-4.26599992 5.93662403 -1.84069854
8.35788754 7.43565319 -1.82128297
13.13643016 0.25192678 27.29604818
4.71838763 -13.93327391 23.12914837
-9.68329889 -11.66099588 21.81523513
-9.90387753 -0.13983656 22.77746840
-7.76643068 10.96212882 20.60609154
5.38346969 12.94033209 22.53902465
3 1 0 7
3 7 0 6
3 2 1 8
3 8 1 7
3 3 2 9
3 9 2 8
3 4 3 10
3 10 3 9
3 5 4 11
3 11 4 10
3 0 5 6
3 6 5 11
3 5 3 4
3 5 2 3
3 0 2 5
3 1 2 0
3 10 9 11
3 11 9 8
3 11 8 6
3 6 8 7
