ply
format ascii 1.0
comment VCGLIB generated
element vertex 10
property float x
property float y
property float z
element face 16
property list uchar int vertex_indices
end_header
-10.88400290 8.29550143 0.06914560
-3.32242366 -1.68633000 -0.19465098
8.17893762 -12.98667863 3.43815563
8.26158226 2.44230061 0.69106024
3.35865002 10.61923377 -1.62621345
-10.47919617 7.50923908 20.45492768
-9.29916520 -9.57249876 22.81306452
9.15569433 -9.49558923 24.24346112
12.08303024 4.80216679 18.59779106
0.71734585 14.37977166 17.97027463
3 1 2 7
3 1 7 6
3 2 3 8
3 2 8 7
3 3 4 9
3 3 9 8
3 4 0 5
3 4 5 9
3 0 1 6
3 0 6 5
3 4 3 0
3 0 3 1
3 1 3 2
3 5 8 9
3 6 8 5
3 7 8 6
