ply
format ascii 1.0
comment VCGLIB generated
element vertex 12
property float x
property float y
property float z
element face 20
property list uchar int vertex_indices
end_header
19.04648943 -2.65550262 -8.19778368
5.89496163 -15.43062247 -3.73538042
-5.98729955 -14.28152140 2.60990161
-13.32119012 2.95102961 -1.17279812
-6.52975456 22.00334743 -4.28016496
5.49883090 21.90274358 -1.20764079
16.04507718 1.21534484 39.08613678
13.77744916 -10.63661173 34.27707292
-12.66086201 -10.87747133 41.94491181
-13.63014731 -3.42559507 32.74156871
-9.30853188 15.99852599 35.64343733
11.79868246 12.51456627 32.45086281
3 1 0 7
3 7 0 6
3 2 1 8
3 8 1 7
3 3 2 9
3 9 2 8
3 4 3 10
3 10 3 9
3 5 4 11
3 11 4 10
3 0 5 6
3 6 5 11
3 5 3 4
3 5 2 3
3 0 2 5
3 1 2 0
3 10 9 11
3 11 9 8
3 11 8 6
3 6 8 7
