ply
format ascii 1.0
comment VCGLIB generated
element vertex 8
property float x
property float y
property float z
element face 12
property list uchar int vertex_indices
end_header
-15.61459778 -12.16668802 3.21722046
21.10939893 -14.80888810 -6.73235688
12.66264151 9.79628118 1.49293991
-16.62831264 15.24245466 4.70879980
-14.96198528 -19.91272782 39.50957240
14.72451603 -22.16599721 48.24477541
7.83726916 17.03782576 46.82127745
-20.32362993 17.11372512 43.94574477
3 0 1 5
3 0 5 4
3 1 2 6
3 1 6 5
3 2 3 7
3 2 7 6
3 3 0 4
3 3 4 7
3 2 1 0
3 2 0 3
3 6 4 5
3 6 7 4
