ply
format ascii 1.0
comment VCGLIB generated
element vertex 8
property float x
property float y
property float z
element face 12
property list uchar int vertex_indices
end_header
-18.38417098 -12.73698184 -4.49534325
20.18106553 -12.92348935 6.45137678
15.82395460 12.53686808 -4.52435614
-12.72784787 8.53687679 -6.23358420
-14.44606306 -4.78166097 42.08963029
11.00501436 -13.36457405 39.69471178
21.17575482 17.60368002 43.87314662
-15.84288052 12.31139056 51.40781777
3 0 1 5
3 0 5 4
3 1 2 6
3 1 6 5
3 2 3 7
3 2 7 6
3 3 0 4
3 3 4 7
3 2 1 0
3 2 0 3
3 6 4 5
3 6 7 4
