ply
format ascii 1.0
comment VCGLIB generated
element vertex 10
property float x
property float y
property float z
element face 16
property list uchar int vertex_indices
end_header
-5.85730407 4.13806555 0.11275249
-2.53648966 -5.06804405 0.27483794
1.80842804 -3.75001930 -0.96228004
6.49835294 1.74770847 -0.19562050
-1.12391475 5.27989717 -0.43027522
-4.76993777 0.47274883 9.78929417
-4.10098240 -4.20897233 10.98742933
3.95866658 -3.87209503 10.24007578
5.60979140 0.76547189 10.91896708
-1.08491203 5.29395775 9.05062362
3 1 2 7
3 1 7 6
3 2 3 8
3 2 8 7
3 3 4 9
3 3 9 8
3 4 0 5
3 4 5 9
3 0 1 6
3 0 6 5
3 4 3 0
3 0 3 1
3 1 3 2
3 5 8 9
3 6 8 5
3 7 8 6
