ply
format ascii 1.0
comment VCGLIB generated
element vertex 8
property float x
property float y
property float z
element face 12
property list uchar int vertex_indices
end_header
-8.41810260 -9.02713301 0.73075875
9.67153210 -8.58242752 -0.24665163
8.69777261 5.08314656 -1.26901571
-6.93317136 11.18733503 -4.30290835
-12.88499160 -9.39970253 29.18621645
2.41912445 -13.11632777 25.45483571
8.31480092 13.01586567 26.25025068
-9.12511762 9.20571538 26.53208137
3 0 1 5
3 0 5 4
3 1 2 6
3 1 6 5
3 2 3 7
3 2 7 6
3 3 0 4
3 3 4 7
3 2 1 0
3 2 0 3
3 6 4 5
3 6 7 4
