ply
format ascii 1.0
comment VCGLIB generated
element vertex 12
property float x
property float y
property float z
element face 20
property list uchar int vertex_indices
end_header
13.51515375 -3.48392778 2.53733501
-1.70399642 -9.49340067 3.94721188
-5.92180283 -10.29455472 3.13185585
-10.62044882 2.50267905 3.88745373
-3.31636803 10.30923631 1.02315053
5.60552845 12.29805057 1.22279374
14.63664560 2.09400592 22.32797156
9.82350276 -11.82689027 21.78526271
-3.41375352 -12.36234622 23.38594246
-10.22031298 1.49280022 23.40838130
-5.24035580 8.22276755 24.64072353
0.83146755 11.46036740 25.96347372
3 1 0 7
3 7 0 6
3 2 1 8
3 8 1 7
3 3 2 9
3 9 2 8
3 4 3 10
3 10 3 9
3 5 4 11
3 11 4 10
3 0 5 6
3 6 5 11
3 5 3 4
3 5 2 3
3 0 2 5
3 1 2 0
3 10 9 11
3 11 9 8
3 11 8 6
3 6 8 7
