ply
format ascii 1.0
comment VCGLIB generated
element vertex 12
property float x
property float y
property float z
element face 20
property list uchar int vertex_indices
end_header
19.36415814 2.37606285 2.42435588
10.72684881 -23.56343513 4.61466738
-3.40068088 -16.98816374 4.24912178
-22.33884777 3.89853387 1.24899759
-8.32681007 24.63625545 -0.55403330
16.91835837 17.23915871 8.21554853
26.77047274 -2.41873194 49.92923241
13.51398619 -20.68322930 46.02383046
-14.24541625 -22.41294121 48.97301114
-31.34173450 1.20554327 45.19997419
-0.73397695 11.32985857 48.42885910
8.41831717 27.72527768 40.50074157
3 1 0 7
3 7 0 6
3 2 1 8
3 8 1 7
3 3 2 9
3 9 2 8
3 4 3 10
3 10 3 9
3 5 4 11
3 11 4 10
3 0 5 6
3 6 5 11
3 5 3 4
3 5 2 3
3 0 2 5
3 1 2 0
3 10 9 11
3 11 9 8
3 11 8 6
3 6 8 7
