ply
format ascii 1.0
comment VCGLIB generated
element vertex 10
property float x
property float y
property float z
element face 16
property list uchar int vertex_indices
end_header
-22.17990609 -1.65610581 -1.35433439
-21.29630304 -20.83131413 14.64992017
18.97767783 -31.51344302 -5.63913637
27.73231709 12.85535227 -2.54931349
-7.40043418 40.06829821 -0.55419556
-27.12128052 15.97153037 50.19290383
-19.94863464 -29.31788857 63.18508864
13.15304739 -27.43628401 61.19155571
23.49320217 16.32006821 69.84301982
-3.45938532 26.23165809 63.80356971
3 1 2 7
3 1 7 6
3 2 3 8
3 2 8 7
3 3 4 9
3 3 9 8
3 4 0 5
3 4 5 9
3 0 1 6
3 0 6 5
3 4 3 0
3 0 3 1
3 1 3 2
3 5 8 9
3 6 8 5
3 7 8 6
