ply
format ascii 1.0
comment VCGLIB generated
element vertex 10
property float x
property float y
property float z
element face 16
property list uchar int vertex_indices
end_header
-20.08824556 4.30363017 -4.34592475
-15.06347233 -21.50313969 -2.18910521
20.98324401 -18.64556564 -1.94142270
22.71476331 14.58173837 -1.18038520
-4.79735251 26.22290233 -1.44648546
-29.16103824 6.48804030 56.44245156
-15.05307123 -24.75418397 50.77128806
20.48740412 -17.61356095 52.70077741
27.49364637 9.37253386 53.38139880
3.83815373 37.28471892 52.95259225
3 1 2 7
3 1 7 6
3 2 3 8
3 2 8 7
3 3 4 9
3 3 9 8
3 4 0 5
3 4 5 9
3 0 1 6
3 0 6 5
3 4 3 0
3 0 3 1
3 1 3 2
3 5 8 9
3 6 8 5
3 7 8 6
