ply
format ascii 1.0
comment VCGLIB generated
element vertex 12
property float x
property float y
property float z
element face 20
property list uchar int vertex_indices
end_header
12.39903243 1.20150985 1.19960657
14.52394577 -20.41174736 -3.65162652
-8.48502702 -21.82739589 -2.24243484
-21.11913988 2.81824441 3.64694132
-16.99521470 21.58415927 0.60452252
6.20577635 23.73902822 -0.55188171
25.78744114 -2.22770496 40.08131014
4.73766536 -22.95996348 48.22937106
-11.68746814 -16.68007722 54.07561158
-26.19025884 0.24639765 53.00214686
-17.60610507 24.37399439 49.13849996
12.00936559 13.90205908 42.69413761
3 1 0 7
3 7 0 6
3 2 1 8
3 8 1 7
3 3 2 9
3 9 2 8
3 4 3 10
3 10 3 9
3 5 4 11
3 11 4 10
3 0 5 6
3 6 5 11
3 5 3 4
3 5 2 3
3 0 2 5
3 1 2 0
3 10 9 11
3 11 9 8
3 11 8 6
3 6 8 7
