ply
format ascii 1.0
comment VCGLIB generated
element vertex 8
property float x
property float y
property float z
element face 12
property list uchar int vertex_indices
end_header
-19.71120743 -9.54335725 -13.24958791
21.04829509 -24.64109272 7.01460293
28.21521089 16.87900682 -5.91876740
-13.18876524 14.68392184 4.01180702
-24.29918739 -16.36644166 56.79719589
14.44459506 -18.90384220 62.56579908
27.02220432 27.00761109 48.40348412
-12.17424956 25.01920895 49.47857603
3 0 1 5
3 0 5 4
3 1 2 6
3 1 6 5
3 2 3 7
3 2 7 6
3 3 0 4
3 3 4 7
3 2 1 0
3 2 0 3
3 6 4 5
3 6 7 4
