ply
format ascii 1.0
comment VCGLIB generated
element vertex 12
property float x
property float y
property float z
element face 20
property list uchar int vertex_indices
end_header
6.48018710 1.62415517 -0.71658449
4.07383685 -8.13445052 -0.70141548
-3.67094074 -5.66417154 0.15464122
-11.02686230 -0.60542516 -0.80784721
-7.65240849 6.97765008 -3.47550267
7.68007680 10.15942394 -0.64566095
8.56072866 0.14263956 18.33125424
3.29850451 -12.34135069 17.87100458
-8.01544559 -8.70838498 18.28116027
-9.07679127 -0.13941597 15.60649900
-4.73787300 9.63047913 17.91293001
3.96741357 10.31875731 21.86901983
3 1 0 7
3 7 0 6
3 2 1 8
3 8 1 7
3 3 2 9
3 9 2 8
3 4 3 10
3 10 3 9
3 5 4 11
3 11 4 10
3 0 5 6
3 6 5 11
3 5 3 4
3 5 2 3
3 0 2 5
3 1 2 0
3 10 9 11
3 11 9 8
3 11 8 6
3 6 8 7
