ply
format ascii 1.0
comment VCGLIB generated
element vertex 8
property float x
property float y
property float z
element face 12
property list uchar int vertex_indices
end_header
-9.12523401 -2.39867815 0.00191993
17.43308262 -7.65336460 0.06802936
8.83524519 13.32381074 1.48308272
-7.26542914 12.01599148 -5.23018371
-8.42490199 -8.33024581 32.88232815
9.11226547 -10.36917694 28.60772546
8.64713845 16.05778002 33.66919865
-12.36677426 3.45492629 31.51786519
3 0 1 5
3 0 5 4
3 1 2 6
3 1 6 5
3 2 3 7
3 2 7 6
3 3 0 4
3 3 4 7
3 2 1 0
3 2 0 3
3 6 4 5
3 6 7 4
