ply
format ascii 1.0
comment VCGLIB generated
element vertex 12
property float x
property float y
property float z
element face 20
property list uchar int vertex_indices
end_header
19.89308561 4.29090184 -3.89836584
12.90803014 -12.43564116 1.45608322
-12.52452867 -17.17598331 5.56278987
-21.44725961 -12.20915176 -2.07587804
-7.31155087 13.41053846 -1.24617166
7.83849295 21.79470108 -4.82758848
19.37846686 -4.60419755 30.75562580
12.56215019 -20.95673993 32.78604221
-11.05739908 -18.63863294 39.17376215
-22.47621270 -0.24305856 34.13711236
-9.83680150 14.96812880 35.32901608
10.95083963 18.26113288 35.01394833
3 1 0 7
3 7 0 6
3 2 1 8
3 8 1 7
3 3 2 9
3 9 2 8
3 4 3 10
3 10 3 9
3 5 4 11
3 11 4 10
3 0 5 6
3 6 5 11
3 5 3 4
3 5 2 3
3 0 2 5
3 1 2 0
3 10 9 11
3 11 9 8
3 11 8 6
3 6 8 7
