ply
format ascii 1.0
comment VCGLIB generated
element vertex 12
property float x
property float y
property float z
element face 20
property list uchar int vertex_indices
end_header
22.78875928 -1.51868965 -3.41758959
7.17158843 -16.37604413 -2.49568698
-11.13476194 -19.57168678 2.56967107
-20.00884524 3.26089854 4.90713426
-12.03460675 16.05672464 -2.66629478
15.53316527 16.46683660 -0.80104259
20.32538469 -2.09228012 37.78364523
16.52401697 -20.68840212 37.35389923
-17.19948020 -21.85363746 36.24491763
-15.88989488 -2.96576920 37.44658677
-8.47029913 13.16223108 33.91671964
4.70285859 18.83247156 36.06320678
3 1 0 7
3 7 0 6
3 2 1 8
3 8 1 7
3 3 2 9
3 9 2 8
3 4 3 10
3 10 3 9
3 5 4 11
3 11 4 10
3 0 5 6
3 6 5 11
3 5 3 4
3 5 2 3
3 0 2 5
3 1 2 0
3 10 9 11
3 11 9 8
3 11 8 6
3 6 8 7
