ply
format ascii 1.0
comment VCGLIB generated
element vertex 8
property float x
property float y
property float z
element face 12
property list uchar int vertex_indices
end_header
-9.25663717 -10.95065304 -6.23360984
9.44680529 -13.51397917 0.39280922
7.74108869 12.31827694 -0.67022857
-8.28399486 5.58608176 -4.56781595
-9.31194607 -10.44480867 27.10655267
5.35996517 -9.67574932 30.26458134
13.35180718 10.46289243 30.56444370
-7.83942954 9.58248083 30.16579884
3 0 1 5
3 0 5 4
3 1 2 6
3 1 6 5
3 2 3 7
3 2 7 6
3 3 0 4
3 3 4 7
3 2 1 0
3 2 0 3
3 6 4 5
3 6 7 4
