ply
format ascii 1.0
comment VCGLIB generated
element vertex 12
property float x
property float y
property float z
element face 20
property list uchar int vertex_indices
end_header
3.16382606 -0.89522007 -0.19359226
0.62401168 -3.28718369 -1.58193360
-2.88251243 -0.73692488 0.90846655
-3.25499970 -0.15035292 1.04839045
-0.89250798 1.79583766 -0.35276117
0.57080046 2.46336043 -0.36190526
2.35036865 0.19385953 6.87748324
2.00893606 -2.60830653 6.43976008
-1.64072563 -3.83015663 7.25699467
-3.23586274 -0.71564644 6.25444202
-3.06385506 2.95825302 6.94871214
1.56231848 2.08451881 6.83470325
3 1 0 7
3 7 0 6
3 2 1 8
3 8 1 7
3 3 2 9
3 9 2 8
3 4 3 10
3 10 3 9
3 5 4 11
3 11 4 10
3 0 5 6
3 6 5 11
3 5 3 4
3 5 2 3
3 0 2 5
3 1 2 0
3 10 9 11
3 11 9 8
3 11 8 6
3 6 8 7
