ply
format ascii 1.0
comment VCGLIB generated
element vertex 12
property float x
property float y
property float z
element face 20
property list uchar int vertex_indices
end_header
28.94284336 -7.86695654 7.26844849
5.77171647 -15.27421917 -0.85789607
-13.99418520 -28.40598201 -1.97851581
-26.07055973 3.31939781 -8.39896942
-15.65319379 17.18193844 -1.93931009
12.97866844 21.38014689 4.85162856
20.64463258 2.87089778 54.00585107
5.82937426 -15.80959829 50.24493164
-14.58949591 -15.93475517 62.54042499
-23.51795714 2.51836857 49.61869665
-9.62903589 27.47317678 52.87602296
16.59912563 31.54388376 55.13219310
3 1 0 7
3 7 0 6
3 2 1 8
3 8 1 7
3 3 2 9
3 9 2 8
3 4 3 10
3 10 3 9
3 5 4 11
3 11 4 10
3 0 5 6
3 6 5 11
3 5 3 4
3 5 2 3
3 0 2 5
3 1 2 0
3 10 9 11
3 11 9 8
3 11 8 6
3 6 8 7
