ply
format ascii 1.0
comment VCGLIB generated
element vertex 12
property float x
property float y
property float z
element face 20
property list uchar int vertex_indices
end_header
7.69561818 1.82173868 -3.21832049
2.67311345 -8.44758594 -3.20445828
-5.25179633 -7.02552289 -3.02296513
-10.16731022 2.96794247 1.97843006
-2.43517411 9.41260152 0.88961459
7.28608307 8.53781701 1.07933099
7.11326594 -0.23037940 19.64791717
7.21024740 -8.28815246 16.66434194
-3.85109856 -7.67634554 20.45725693
-10.62126777 -1.75608389 18.92630810
-2.58797988 9.15247619 16.26611666
3.24849883 7.26746159 17.69040393
3 1 0 7
3 7 0 6
3 2 1 8
3 8 1 7
3 3 2 9
3 9 2 8
3 4 3 10
3 10 3 9
3 5 4 11
3 11 4 10
3 0 5 6
3 6 5 11
3 5 3 4
3 5 2 3
3 0 2 5
3 1 2 0
3 10 9 11
3 11 9 8
3 11 8 6
3 6 8 7
