ply
format ascii 1.0
comment VCGLIB generated
element vertex 8
property float x
property float y
property float z
element face 12
property list uchar int vertex_indices
end_header
-2.53205302 -1.35781409 0.08023623
2.45265541 -2.45308238 0.04911637
1.82339937 2.26028037 -0.23096548
-3.57257116 2.99505017 0.17843644
-2.27094499 -1.60805223 6.39121358
2.53683160 -2.06069168 6.13002229
1.45455702 3.26260092 6.23272238
-1.86355965 2.11943382 6.13259260
3 0 1 5
3 0 5 4
3 1 2 6
3 1 6 5
3 2 3 7
3 2 7 6
3 3 0 4
3 3 4 7
3 2 1 0
3 2 0 3
3 6 4 5
3 6 7 4
