ply
format ascii 1.0
comment VCGLIB generated
element vertex 10
property float x
property float y
property float z
element face 16
property list uchar int vertex_indices
end_header
-26.56476282 9.85691812 5.69493818
-27.27868476 -24.74854437 4.14408155
26.05434778 -18.58357975 -6.70933428
25.53674678 14.51780670 0.87689920
5.29568708 24.21295224 -1.87006925
-31.01305771 6.23998625 53.85947997
-17.42299064 -26.85192921 61.12489361
7.96562298 -30.65661971 45.24864985
29.62014116 13.67965036 49.15905605
-11.59361873 30.51629430 55.23455123
3 1 2 7
3 1 7 6
3 2 3 8
3 2 8 7
3 3 4 9
3 3 9 8
3 4 0 5
3 4 5 9
3 0 1 6
3 0 6 5
3 4 3 0
3 0 3 1
3 1 3 2
3 5 8 9
3 6 8 5
3 7 8 6
