ply
format ascii 1.0
comment VCGLIB generated
element vertex 10
property float x
property float y
property float z
element face 16
property list uchar int vertex_indices
end_header
-14.25491623 2.30794530 -4.43948324
-4.30924555 -12.62613733 -4.39012409
11.01181475 -9.36869423 -1.22132788
11.54333870 3.12413916 1.61940641
2.83134550 17.94409614 -0.36010216
-7.23255400 7.00155662 31.85391708
-9.47431766 -12.82310665 29.95746345
6.50101515 -12.31317950 27.22795818
17.29610159 5.60070054 28.94020797
-2.80980767 18.58800024 31.61631639
3 1 2 7
3 1 7 6
3 2 3 8
3 2 8 7
3 3 4 9
3 3 9 8
3 4 0 5
3 4 5 9
3 0 1 6
3 0 6 5
3 4 3 0
3 0 3 1
3 1 3 2
3 5 8 9
3 6 8 5
3 7 8 6
