ply
format ascii 1.0
comment VCGLIB generated
element vertex 12
property float x
property float y
property float z
element face 20
property list uchar int vertex_indices
end_header
2.61505011 -0.82609546 0.20534848
2.13930671 -2.76020089 0.23737281
-1.59754759 -2.92479300 0.03795619
-3.13969235 -0.05665049 0.05059650
-1.74457091 2.33433174 0.25490960
1.03327783 1.76074408 0.44653047
2.82764673 0.24497460 6.04975787
1.89118338 -3.18446473 6.68871837
0.11743462 -3.36904941 7.57304517
-3.02460269 0.87399386 5.37175834
-0.98639684 2.71846173 6.41489550
0.63791147 3.36833470 6.35315991
3 1 0 7
3 7 0 6
3 2 1 8
3 8 1 7
3 3 2 9
3 9 2 8
3 4 3 10
3 10 3 9
3 5 4 11
3 11 4 10
3 0 5 6
3 6 5 11
3 5 3 4
3 5 2 3
3 0 2 5
3 1 2 0
3 10 9 11
3 11 9 8
3 11 8 6
3 6 8 7
