ply
format ascii 1.0
comment VCGLIB generated
element vertex 12
property float x
property float y
property float z
element face 20
property list uchar int vertex_indices
end_header
4.05650323 -0.29101145 -0.15859259
2.08788658 -2.85029742 -0.79743477
-1.56783458 -3.76037399 0.54306836
-6.41895313 0.10830826 0.88705472
-3.37213147 3.06534694 -1.51607669
3.95694900 3.25203818 0.30069088
5.94721827 -0.72100125 9.52400361
3.01037071 -4.95317369 8.96012081
0.11851200 -4.63178684 10.46874788
-6.69318361 0.40449727 9.75874510
-3.33907863 3.30949477 8.77592633
1.29222668 4.26054338 9.39476680
3 1 0 7
3 7 0 6
3 2 1 8
3 8 1 7
3 3 2 9
3 9 2 8
3 4 3 10
3 10 3 9
3 5 4 11
3 11 4 10
3 0 5 6
3 6 5 11
3 5 3 4
3 5 2 3
3 0 2 5
3 1 2 0
3 10 9 11
3 11 9 8
3 11 8 6
3 6 8 7
