ply
format ascii 1.0
comment VCGLIB generated
element vertex 8
property float x
property float y
property float z
element face 12
property list uchar int vertex_indices
end_header
-25.89237236 -11.91461154 -4.07429074
21.12590855 -28.28680714 -8.09132517
28.35539181 22.62828580 -2.40556044
-31.33121608 22.90310033 6.55244073
-17.17173412 -26.32406027 50.52010260
7.99016052 -29.72573038 49.77973998
29.56563761 18.15876505 63.43724690
-18.49217558 30.77705679 47.99731309
3 0 1 5
3 0 5 4
3 1 2 6
3 1 6 5
3 2 3 7
3 2 7 6
3 3 0 4
3 3 4 7
3 2 1 0
3 2 0 3
3 6 4 5
3 6 7 4
