ply
format ascii 1.0
comment VCGLIB generated
element vertex 10
property float x
property float y
property float z
element face 16
property list uchar int vertex_indices
end_header
-23.56915443 9.44710552 2.43258861
-16.59338866 -8.65323521 9.00597482
7.01218324 -17.00485547 0.08048786
19.76015237 12.60014922 0.30957138
1.53834924 26.23374680 -8.03171103
-21.66110988 0.38352802 45.39485742
-6.06070973 -22.09286169 41.64676175
19.91119125 -22.68224127 35.62438456
13.62233946 10.54223286 42.24603966
-1.42581449 15.81300632 42.68148487
3 1 2 7
3 1 7 6
3 2 3 8
3 2 8 7
3 3 4 9
3 3 9 8
3 4 0 5
3 4 5 9
3 0 1 6
3 0 6 5
3 4 3 0
3 0 3 1
3 1 3 2
3 5 8 9
3 6 8 5
3 7 8 6
