ply
format ascii 1.0
comment VCGLIB generated
element vertex 8
property float x
property float y
property float z
element face 12
property list uchar int vertex_indices
end_header
-2.66086240 -4.89366362 -0.47913138
3.78440184 -3.53735508 -1.09392866
6.13355398 4.81742149 0.02042696
-4.01627893 1.73469142 0.53794254
-1.49815541 -3.07417558 13.08756269
4.05652332 -4.64439454 11.08238250
5.01481461 4.94381742 10.66931048
-3.52479658 2.77170918 12.13858613
3 0 1 5
3 0 5 4
3 1 2 6
3 1 6 5
3 2 3 7
3 2 7 6
3 3 0 4
3 3 4 7
3 2 1 0
3 2 0 3
3 6 4 5
3 6 7 4
