ply
format ascii 1.0
comment VCGLIB generated
element vertex 10
property float x
property float y
property float z
element face 16
property list uchar int vertex_indices
end_header
-21.38858029 7.88624557 -0.00345660
-12.68402916 -11.82438078 1.31423832
14.60647722 -13.00394614 2.73643625
20.29284310 6.87529949 -1.57697503
2.64729925 15.23475515 1.05630352
-16.81256219 9.70139283 30.63331931
-8.45650485 -11.46116427 34.05990851
12.27321055 -15.89925693 31.51010088
14.08563027 9.65541298 40.19825742
-5.30177385 14.08779431 33.69329062
3 1 2 7
3 1 7 6
3 2 3 8
3 2 8 7
3 3 4 9
3 3 9 8
3 4 0 5
3 4 5 9
3 0 1 6
3 0 6 5
3 4 3 0
3 0 3 1
3 1 3 2
3 5 8 9
3 6 8 5
3 7 8 6
