ply
format ascii 1.0
comment VCGLIB generated
element vertex 10
property float x
property float y
property float z
element face 16
property list uchar int vertex_indices
end_header
-10.45088473 15.36273185 1.66409267
-14.06046450 -19.88056435 1.43234623
11.02825618 -20.97592483 -4.83646152
22.26760579 8.97503574 -4.51367806
-2.58541611 14.53756183 -3.59565047
-14.97690433 7.15295409 42.65820382
-24.06630559 -10.83510319 40.43062649
12.59729039 -20.23350496 41.80491344
25.31922569 9.86874447 37.85528053
1.91150149 17.43941046 38.59820604
3 1 2 7
3 1 7 6
3 2 3 8
3 2 8 7
3 3 4 9
3 3 9 8
3 4 0 5
3 4 5 9
3 0 1 6
3 0 6 5
3 4 3 0
3 0 3 1
3 1 3 2
3 5 8 9
3 6 8 5
3 7 8 6
