ply
format ascii 1.0
comment VCGLIB generated
element vertex 8
property float x
property float y
property float z
element face 12
property list uchar int vertex_indices
end_header
-4.86646310 -4.35063571 -1.71384611
4.97476200 -5.66000880 2.53472700
4.72267840 3.82877310 -0.33102984
-4.65912477 1.20532374 -0.14695856
-4.43320796 -3.07017319 11.56223107
3.40391862 -2.52754540 11.71939473
2.38111105 5.39657391 11.05243343
-4.67328448 4.14858226 11.51067751
3 0 1 5
3 0 5 4
3 1 2 6
3 1 6 5
3 2 3 7
3 2 7 6
3 3 0 4
3 3 4 7
3 2 1 0
3 2 0 3
3 6 4 5
3 6 7 4
