ply
format ascii 1.0
comment VCGLIB generated
element vertex 8
property float x
property float y
property float z
element face 12
property list uchar int vertex_indices
end_header
-17.41342972 -21.55833349 6.34059787
9.82295022 -22.69157603 -3.66253611
24.05932512 20.34907263 3.05371694
-15.05251017 21.30316999 0.80205748
-19.75300132 -17.04075322 50.17688068
27.28355504 -16.99184344 49.45294543
15.37310649 13.51098558 50.01157747
-15.04863047 19.91692825 39.69455483
3 0 1 5
3 0 5 4
3 1 2 6
3 1 6 5
3 2 3 7
3 2 7 6
3 3 0 4
3 3 4 7
3 2 1 0
3 2 0 3
3 6 4 5
3 6 7 4
