ply
format ascii 1.0
comment VCGLIB generated
element vertex 8
property float x
property float y
property float z
element face 12
property list uchar int vertex_indices
end_header
-1.45922336 -2.50961436 -0.10224794
2.22689270 -2.51778573 0.11014757
1.90595449 2.67587037 -0.70047128
-1.29038370 2.20156037 0.18849346
-3.22862204 -2.28726727 7.39418215
2.29491704 -2.30764284 5.64272274
2.19299063 2.22162197 6.25301001
-2.88685322 2.18922893 6.41708158
3 0 1 5
3 0 5 4
3 1 2 6
3 1 6 5
3 2 3 7
3 2 7 6
3 3 0 4
3 3 4 7
3 2 1 0
3 2 0 3
3 6 4 5
3 6 7 4
