ply
format ascii 1.0
comment VCGLIB generated
element vertex 10
property float x
property float y
property float z
element face 16
property list uchar int vertex_indices
end_header
-4.37459541 2.51738690 -0.46869679
-3.19589196 -5.01018821 -1.16480898
2.75358087 -3.83272508 0.74588441
4.42665384 1.66773966 -0.68358575
-1.11699950 3.38046169 0.14593809
-4.34904653 0.02188099 9.28404819
-4.12499314 -3.38282907 9.32380314
4.12238341 -3.04457255 9.48048814
5.03131699 0.68207842 10.67917074
-0.02716279 4.98481517 8.13619820
3 1 2 7
3 1 7 6
3 2 3 8
3 2 8 7
3 3 4 9
3 3 9 8
3 4 0 5
3 4 5 9
3 0 1 6
3 0 6 5
3 4 3 0
3 0 3 1
3 1 3 2
3 5 8 9
3 6 8 5
3 7 8 6
