ply
format ascii 1.0
comment VCGLIB generated
element vertex 8
property float x
property float y
property float z
element face 12
property list uchar int vertex_indices
end_header
-11.09464933 -17.64730968 -0.72313544
11.53912946 -9.56532190 1.24080619
17.86092423 14.89005092 0.31644753
-11.38473828 15.93214636 -0.49269765
-12.48003031 -11.31628831 34.59968109
6.18076083 -18.48129375 37.41811231
15.74405148 14.85104495 39.78995004
-15.04639615 13.40901772 40.22397282
3 0 1 5
3 0 5 4
3 1 2 6
3 1 6 5
3 2 3 7
3 2 7 6
3 3 0 4
3 3 4 7
3 2 1 0
3 2 0 3
3 6 4 5
3 6 7 4
