ply
format ascii 1.0
comment VCGLIB generated
element vertex 10
property float x
property float y
property float z
element face 16
property list uchar int vertex_indices
end_header
-13.74588858 2.80288389 -0.47460605
-11.37503993 -16.06746686 7.32486885
5.79006311 -16.25584034 -6.69194205
17.83801820 2.59000896 -0.54523542
-0.76818882 6.36643452 -3.18008418
-14.68842164 0.81900084 27.70903186
-9.91257923 -12.36932533 32.94262397
12.22527334 -23.32339452 36.86936609
9.19935230 1.79758539 35.71588463
-2.39310621 18.52572615 30.92331848
3 1 2 7
3 1 7 6
3 2 3 8
3 2 8 7
3 3 4 9
3 3 9 8
3 4 0 5
3 4 5 9
3 0 1 6
3 0 6 5
3 4 3 0
3 0 3 1
3 1 3 2
3 5 8 9
3 6 8 5
3 7 8 6
