ply
format ascii 1.0
comment VCGLIB generated
element vertex 10
property float x
property float y
property float z
element face 16
property list uchar int vertex_indices
end_header
-8.59903825 4.94185757 0.50620820
-2.29910080 -8.37998651 0.14825234
4.42413094 -8.05197723 -3.04938063
9.47418704 2.20143779 -0.09235862
-0.08882732 8.21762330 2.78963859
-10.45351341 2.67590804 20.20395183
-2.65821483 -11.43319055 18.44359784
5.92668704 -6.70736610 20.30103549
9.95520090 4.32219111 19.62852058
-1.63120777 10.87361914 19.36970497
3 1 2 7
3 1 7 6
3 2 3 8
3 2 8 7
3 3 4 9
3 3 9 8
3 4 0 5
3 4 5 9
3 0 1 6
3 0 6 5
3 4 3 0
3 0 3 1
3 1 3 2
3 5 8 9
3 6 8 5
3 7 8 6
