ply
format ascii 1.0
comment VCGLIB generated
element vertex 10
property float x
property float y
property float z
element face 16
property list uchar int vertex_indices
end_header
-22.85920953 3.66135536 3.39595400
-14.87804360 -31.60103338 3.48410413
16.70786277 -24.06602167 1.81086347
20.48860189 0.12639754 9.47776029
1.59896591 31.19954540 -3.28001930
-32.55528144 3.90097041 56.62196126
-11.49982090 -24.37980574 54.63419827
11.94331472 -16.67079241 54.63251385
21.27890689 10.74041282 44.93733571
-0.11960166 26.71436227 51.08987313
3 1 2 7
3 1 7 6
3 2 3 8
3 2 8 7
3 3 4 9
3 3 9 8
3 4 0 5
3 4 5 9
3 0 1 6
3 0 6 5
3 4 3 0
3 0 3 1
3 1 3 2
3 5 8 9
3 6 8 5
3 7 8 6
