ply
format ascii 1.0
comment VCGLIB generated
element vertex 10
property float x
property float y
property float z
element face 16
property list uchar int vertex_indices
end_header
-15.59954787 3.16410233 -2.64292791
-9.39461126 -14.24413910 6.60378439
8.81972515 -13.15681522 1.00783487
15.70889781 4.52335611 1.02539250
0.98522315 11.83955073 3.25083934
-14.00843730 4.65668867 27.00072555
-8.07263377 -9.55005531 20.92067390
6.05845681 -9.27889913 28.87395254
10.45798152 7.08399446 26.35129561
1.28662581 13.98415907 25.01309534
3 1 2 7
3 1 7 6
3 2 3 8
3 2 8 7
3 3 4 9
3 3 9 8
3 4 0 5
3 4 5 9
3 0 1 6
3 0 6 5
3 4 3 0
3 0 3 1
3 1 3 2
3 5 8 9
3 6 8 5
3 7 8 6
