ply
format ascii 1.0
comment VCGLIB generated
element vertex 10
property float x
property float y
property float z
element face 16
property list uchar int vertex_indices
end_header
-7.42150387 2.88131307 1.96770263
-5.64653216 -1.36224611 0.83039354
5.53090660 -6.60939115 -3.60826654
6.40682906 1.43888242 2.25333312
0.38054188 5.34890624 -0.00228091
-8.88020632 2.24651651 13.25081255
-5.57840682 -4.77102566 16.47763203
4.59301380 -5.19192701 15.93716987
8.08257477 2.09236901 13.41251543
4.58779789 6.51874563 14.04293625
3 1 2 7
3 1 7 6
3 2 3 8
3 2 8 7
3 3 4 9
3 3 9 8
3 4 0 5
3 4 5 9
3 0 1 6
3 0 6 5
3 4 3 0
3 0 3 1
3 1 3 2
3 5 8 9
3 6 8 5
3 7 8 6
