ply
format ascii 1.0
comment VCGLIB generated
element vertex 12
property float x
property float y
property float z
element face 20
property list uchar int vertex_indices
end_header
27.70781075 -1.30844947 0.41382296
12.50461003 -34.78230478 1.69602892
-19.41762551 -19.15183601 2.64452831
-32.82208994 -3.51095188 4.31402803
-14.49737206 33.08968586 0.12646680
17.56804495 22.61783133 -6.08042188
35.09808255 3.34644173 54.37273570
3.79254650 -18.64902696 56.44746093
-4.55694275 -30.14117273 56.99038766
-36.22746605 -2.67351998 61.19996777
-16.90251806 21.51541523 73.07741235
16.02777050 27.13607187 63.14288431
3 1 0 7
3 7 0 6
3 2 1 8
3 8 1 7
3 3 2 9
3 9 2 8
3 4 3 10
3 10 3 9
3 5 4 11
3 11 4 10
3 0 5 6
3 6 5 11
3 5 3 4
3 5 2 3
3 0 2 5
3 1 2 0
3 10 9 11
3 11 9 8
3 11 8 6
3 6 8 7
