ply
format ascii 1.0
comment VCGLIB generated
element vertex 12
property float x
property float y
property float z
element face 20
property list uchar int vertex_indices
end_header
41.01202824 2.82888965 6.44377167
18.71896875 -24.15480634 -6.01414411
-13.17174799 -24.79120415 5.02562467
-26.11663717 3.45421460 -6.27077132
-9.99192529 22.94685415 0.33405638
20.14288541 7.04030959 4.08993617
30.29860100 0.14912362 52.01305618
11.39492099 -23.31642907 46.13104199
-10.05039978 -36.28182682 60.92522957
-26.15590097 -7.22509315 58.78232030
-16.79605815 27.26411264 61.22699769
11.80321620 31.50198618 51.91192340
3 1 0 7
3 7 0 6
3 2 1 8
3 8 1 7
3 3 2 9
3 9 2 8
3 4 3 10
3 10 3 9
3 5 4 11
3 11 4 10
3 0 5 6
3 6 5 11
3 5 3 4
3 5 2 3
3 0 2 5
3 1 2 0
3 10 9 11
3 11 9 8
3 11 8 6
3 6 8 7
