ply
format ascii 1.0
comment VCGLIB generated
element vertex 10
property float x
property float y
property float z
element face 16
property list uchar int vertex_indices
end_header
-20.50768247 15.60862695 8.72596822
-11.03964067 -19.50561005 2.13832462
21.29796574 -16.90325745 -7.25529834
25.45419395 -2.65936127 -3.20485684
-5.91252986 32.37592984 3.23032056
-24.08919977 6.19161484 57.90439794
-27.32813345 -15.34475032 56.22611334
13.11722928 -31.69065777 51.09142446
23.07286068 14.08795757 54.15852959
4.62498853 26.86664264 53.80898064
3 1 2 7
3 1 7 6
3 2 3 8
3 2 8 7
3 3 4 9
3 3 9 8
3 4 0 5
3 4 5 9
3 0 1 6
3 0 6 5
3 4 3 0
3 0 3 1
3 1 3 2
3 5 8 9
3 6 8 5
3 7 8 6
