ply
format ascii 1.0
comment VCGLIB generated
element vertex 8
property float x
property float y
property float z
element face 12
property list uchar int vertex_indices
end_header
-16.37125463 -11.54058133 -0.94240930
16.87473375 -5.58050054 4.50184557
12.95902176 15.04904659 -0.75906500
-13.73244473 8.62305380 -4.26814680
-15.83430556 -18.06283958 38.83349558
16.07589017 -13.22667214 40.48613782
15.95823998 15.03404679 37.39568812
-10.09056724 17.95604544 34.34361370
3 0 1 5
3 0 5 4
3 1 2 6
3 1 6 5
3 2 3 7
3 2 7 6
3 3 0 4
3 3 4 7
3 2 1 0
3 2 0 3
3 6 4 5
3 6 7 4
