ply
format ascii 1.0
comment VCGLIB generated
element vertex 12
property float x
property float y
property float z
element face 20
property list uchar int vertex_indices
end_header
6.12412131 0.67044520 -1.50317963
4.29190176 -7.25427984 -0.74029191
-1.71756110 -6.60814110 2.44485139
-7.65384177 -0.44723435 1.95710158
-4.08968441 4.40783845 -1.05618163
3.55112198 4.96711790 0.61756495
8.56853902 1.98521667 13.60384810
2.03597113 -7.01671729 17.75541478
-5.09360651 -5.80322516 15.47973068
-5.41350662 -0.29844977 14.92763734
-6.76599830 6.57681386 13.49100269
1.60152254 8.13206968 12.75832636
3 1 0 7
3 7 0 6
3 2 1 8
3 8 1 7
3 3 2 9
3 9 2 8
3 4 3 10
3 10 3 9
3 5 4 11
3 11 4 10
3 0 5 6
3 6 5 11
3 5 3 4
3 5 2 3
3 0 2 5
3 1 2 0
3 10 9 11
3 11 9 8
3 11 8 6
3 6 8 7
