ply
format ascii 1.0
comment VCGLIB generated
element vertex 10
property float x
property float y
property float z
element face 16
property list uchar int vertex_indices
end_header
-3.08810579 2.16804836 -0.62064355
-1.58158023 -3.92844140 1.04694733
1.96849196 -1.64044943 -0.12186302
2.60433798 1.39521014 0.03563595
0.05294809 2.52489260 -0.37333710
-3.08296878 1.23454602 7.56175445
-0.52325263 -2.48289744 5.64992973
2.71712376 -3.30980066 5.84363671
2.69235446 0.80652246 7.67541929
0.25795173 2.95609572 7.18658362
3 1 2 7
3 1 7 6
3 2 3 8
3 2 8 7
3 3 4 9
3 3 9 8
3 4 0 5
3 4 5 9
3 0 1 6
3 0 6 5
3 4 3 0
3 0 3 1
3 1 3 2
3 5 8 9
3 6 8 5
3 7 8 6
