ply
format ascii 1.0
comment VCGLIB generated
element vertex 10
property float x
property float y
property float z
element face 16
property list uchar int vertex_indices
end_header
-31.98245613 10.58492340 0.44442681
-7.85708382 -15.54804720 -3.90690900
17.67793467 -16.33368663 2.38741383
33.76029946 6.95837974 8.59727752
-1.81559293 22.23133753 5.34509066
-19.80000532 14.17353896 62.62885716
-20.80404858 -12.12715399 56.40808772
13.01757915 -34.13781703 65.94776807
31.28751319 5.94899712 58.99689101
-13.18666527 24.46095345 63.61415667
3 1 2 7
3 1 7 6
3 2 3 8
3 2 8 7
3 3 4 9
3 3 9 8
3 4 0 5
3 4 5 9
3 0 1 6
3 0 6 5
3 4 3 0
3 0 3 1
3 1 3 2
3 5 8 9
3 6 8 5
3 7 8 6
