ply
format ascii 1.0
comment VCGLIB generated
element vertex 8
property float x
property float y
property float z
element face 12
property list uchar int vertex_indices
end_header
-7.52703606 -6.35090679 3.72741053
8.46882147 -11.84612278 -0.50527566
7.49811808 6.55889499 1.94928343
-7.96579417 7.70719120 0.99233238
-7.99104582 -8.86598347 23.70726373
5.95320168 -7.46160181 18.42691858
4.74186316 7.92835566 17.69361572
-7.74751061 4.01150802 16.05361495
3 0 1 5
3 0 5 4
3 1 2 6
3 1 6 5
3 2 3 7
3 2 7 6
3 3 0 4
3 3 4 7
3 2 1 0
3 2 0 3
3 6 4 5
3 6 7 4
