ply
format ascii 1.0
comment VCGLIB generated
element vertex 8
property float x
property float y
property float z
element face 12
property list uchar int vertex_indices
end_header
-4.72121109 -7.48010480 0.06282824
3.25589547 -5.46775906 -0.42747432
4.40798543 4.57534340 -0.15225118
-5.83015170 4.60201953 0.95520077
-4.49484644 -4.42655792 15.60429853
5.23397594 -5.66747533 12.93422418
6.95153320 7.60988550 15.98288204
-7.67401109 3.94098126 18.04111689
3 0 1 5
3 0 5 4
3 1 2 6
3 1 6 5
3 2 3 7
3 2 7 6
3 3 0 4
3 3 4 7
3 2 1 0
3 2 0 3
3 6 4 5
3 6 7 4
