ply
format ascii 1.0
comment VCGLIB generated
element vertex 10
property float x
property float y
property float z
element face 16
property list uchar int vertex_indices
end_header
-13.86947768 9.15164418 0.18632015
-10.05990972 -12.16545663 -1.60929571
7.54727203 -19.40421680 -8.45118506
10.11998391 4.42362228 2.11583151
-5.81006706 15.16941703 -1.15337837
-18.23860755 5.03082772 32.20805196
-8.18699541 -7.65467294 31.15751434
8.77579732 -14.19517313 29.45201457
11.56011458 5.25491006 27.76123537
-2.36896180 20.55846019 31.12367354
3 1 2 7
3 1 7 6
3 2 3 8
3 2 8 7
3 3 4 9
3 3 9 8
3 4 0 5
3 4 5 9
3 0 1 6
3 0 6 5
3 4 3 0
3 0 3 1
3 1 3 2
3 5 8 9
3 6 8 5
3 7 8 6
