ply
format ascii 1.0
comment VCGLIB generated
element vertex 10
property float x
property float y
property float z
element face 16
property list uchar int vertex_indices
end_header
-1.78455421 0.39776774 -0.15770222
-1.74282976 -2.54051876 -0.47793953
0.94724944 -2.47455649 0.19597070
2.10983205 0.60194491 0.11589129
0.32120267 2.79775396 -0.79889087
-2.73265828 0.22354794 4.94099272
-1.91629980 -1.57454568 4.01400450
1.87224454 -2.34532885 5.07800454
2.74982455 1.30536663 5.49503196
-0.03116650 2.37573775 5.76354068
3 1 2 7
3 1 7 6
3 2 3 8
3 2 8 7
3 3 4 9
3 3 9 8
3 4 0 5
3 4 5 9
3 0 1 6
3 0 6 5
3 4 3 0
3 0 3 1
3 1 3 2
3 5 8 9
3 6 8 5
3 7 8 6
