ply
format ascii 1.0
comment VCGLIB generated
element vertex 8
property float x
property float y
property float z
element face 12
property list uchar int vertex_indices
end_header
-19.14956881 -13.72126902 0.28108699
16.64458621 -14.46656528 2.06718735
18.77977797 24.54743457 -6.30089113
-16.03390733 18.00007458 -4.10176167
-11.50804829 -23.92102537 50.88442747
13.15999207 -10.03322228 42.80286394
12.80672508 23.22333713 55.77365449
-16.40611891 25.46817372 47.82662225
3 0 1 5
3 0 5 4
3 1 2 6
3 1 6 5
3 2 3 7
3 2 7 6
3 3 0 4
3 3 4 7
3 2 1 0
3 2 0 3
3 6 4 5
3 6 7 4
