ply
format ascii 1.0
comment VCGLIB generated
element vertex 10
property float x
property float y
property float z
element face 16
property list uchar int vertex_indices
end_header
-28.51767710 9.19338731 -8.36968096
-22.57981502 -24.22227330 2.58754085
15.23794331 -14.90988374 5.67654194
22.91263500 11.55587116 -6.01217493
-6.39911349 34.94152061 5.13117568
-31.16250770 5.65247721 58.66765582
-18.13029072 -18.40159036 55.28499766
6.05006046 -27.32756405 64.59884299
35.19322589 16.00562859 50.93109728
-2.46677118 21.88123453 58.74142206
3 1 2 7
3 1 7 6
3 2 3 8
3 2 8 7
3 3 4 9
3 3 9 8
3 4 0 5
3 4 5 9
3 0 1 6
3 0 6 5
3 4 3 0
3 0 3 1
3 1 3 2
3 5 8 9
3 6 8 5
3 7 8 6
