ply
format ascii 1.0
comment VCGLIB generated
element vertex 10
property float x
property float y
property float z
element face 16
property list uchar int vertex_indices
end_header
-26.12753751 0.99993311 8.03316766
-6.76790653 -18.48276700 -1.64570877
22.79565033 -22.67913595 4.16607743
19.92704953 5.31355906 -1.91022281
1.05304526 29.81275838 -4.35486532
-20.81985822 5.18041389 50.59565346
-15.52828991 -14.49500362 44.95756758
4.64907713 -21.22439218 48.63550527
14.03704318 0.12262816 47.10609767
8.60192907 32.30410093 42.76523550
3 1 2 7
3 1 7 6
3 2 3 8
3 2 8 7
3 3 4 9
3 3 9 8
3 4 0 5
3 4 5 9
3 0 1 6
3 0 6 5
3 4 3 0
3 0 3 1
3 1 3 2
3 5 8 9
3 6 8 5
3 7 8 6
