ply
format ascii 1.0
comment VCGLIB generated
element vertex 12
property float x
property float y
property float z
element face 20
property list uchar int vertex_indices
end_header
29.54445480 -2.52762629 1.52307598
15.48512312 -16.38753694 -6.15128278
-16.12969758 -26.92771114 6.09889789
-17.27435624 5.06600701 -2.56346585
-12.49351629 21.41312426 -2.81634462
13.29253331 27.14994603 0.80834085
28.40996915 -4.99474450 49.38318051
11.50768665 -13.33575734 48.39290283
-19.64649799 -30.94657240 43.81069901
-21.08934818 3.15208521 43.47946424
-5.83598185 14.47190803 42.59351091
17.06519519 18.16215736 58.15235313
3 1 0 7
3 7 0 6
3 2 1 8
3 8 1 7
3 3 2 9
3 9 2 8
3 4 3 10
3 10 3 9
3 5 4 11
3 11 4 10
3 0 5 6
3 6 5 11
3 5 3 4
3 5 2 3
3 0 2 5
3 1 2 0
3 10 9 11
3 11 9 8
3 11 8 6
3 6 8 7
