ply
format ascii 1.0
comment VCGLIB generated
element vertex 8
property float x
property float y
property float z
element face 12
property list uchar int vertex_indices
end_header
-9.79712463 -21.66965714 -0.68722478
8.01492674 -15.98554672 3.32308960
12.97252791 12.28137999 7.49628786
-10.98878720 21.91250434 -6.13500332
-8.96640376 -19.86317766 41.63443056
17.81580939 -12.66477520 41.48525764
13.31298653 9.73319085 39.41072448
-10.66281058 12.22252111 38.80409331
3 0 1 5
3 0 5 4
3 1 2 6
3 1 6 5
3 2 3 7
3 2 7 6
3 3 0 4
3 3 4 7
3 2 1 0
3 2 0 3
3 6 4 5
3 6 7 4
