ply
format ascii 1.0
comment VCGLIB generated
element vertex 12
property float x
property float y
property float z
element face 20
property list uchar int vertex_indices
end_header
14.94972045 -3.93051405 -0.73238093
7.70226392 -26.21102126 6.38880509
-12.43530094 -21.93557917 1.25291546
-27.50549178 -3.15747935 2.06153109
-7.78469905 21.53926481 -1.74956824
8.73462443 21.98098372 5.66839683
27.73872925 1.66748758 43.24754646
10.15405051 -23.19422853 45.72755869
-9.93392625 -27.11511112 50.22035861
-25.40397458 0.48167741 49.14359992
-6.39735740 22.65995893 56.38950875
7.74037231 23.25314496 50.07359110
3 1 0 7
3 7 0 6
3 2 1 8
3 8 1 7
3 3 2 9
3 9 2 8
3 4 3 10
3 10 3 9
3 5 4 11
3 11 4 10
3 0 5 6
3 6 5 11
3 5 3 4
3 5 2 3
3 0 2 5
3 1 2 0
3 10 9 11
3 11 9 8
3 11 8 6
3 6 8 7
