ply
format ascii 1.0
comment VCGLIB generated
element vertex 8
property float x
property float y
property float z
element face 12
property list uchar int vertex_indices
end_header
-1.87873794 -2.25824156 -0.25030067
0.99625630 -1.65055498 0.20555703
1.96897094 1.71835486 0.00753452
-2.94120117 1.55612399 -0.36192716
-1.63009878 -2.21201624 5.39766292
1.47431123 -2.29751044 4.91191072
1.37517684 2.03079303 5.28931029
-2.33343716 1.64836491 6.30989400
3 0 1 5
3 0 5 4
3 1 2 6
3 1 6 5
3 2 3 7
3 2 7 6
3 3 0 4
3 3 4 7
3 2 1 0
3 2 0 3
3 6 4 5
3 6 7 4
