ply
format ascii 1.0
comment VCGLIB generated
element vertex 8
property float x
property float y
property float z
element face 12
property list uchar int vertex_indices
end_header
-16.45232172 -6.95039605 -0.02482779
12.21095406 -13.23632441 -1.18083566
5.94365267 11.44897364 7.72995722
-6.08571897 13.53183671 0.28833596
-11.76902588 -12.33879713 31.78779963
8.76255216 -11.89007020 29.84309671
17.16279269 15.26750797 23.92378153
-10.69643345 12.09101719 30.18910497
3 0 1 5
3 0 5 4
3 1 2 6
3 1 6 5
3 2 3 7
3 2 7 6
3 3 0 4
3 3 4 7
3 2 1 0
3 2 0 3
3 6 4 5
3 6 7 4
