ply
format ascii 1.0
comment VCGLIB generated
element vertex 8
property float x
property float y
property float z
element face 12
property list uchar int vertex_indices
end_header
-3.17087000 -2.90540458 0.30398777
3.45463909 -2.53527287 -0.26432902
3.57137658 2.66697913 -0.71690578
-1.48932652 1.98906140 0.41698470
-2.66610488 -2.72799080 6.29899490
2.77563800 -2.46098530 6.76820940
2.59049130 2.43096276 6.37939620
-2.14818575 2.62826338 6.04742008
3 0 1 5
3 0 5 4
3 1 2 6
3 1 6 5
3 2 3 7
3 2 7 6
3 3 0 4
3 3 4 7
3 2 1 0
3 2 0 3
3 6 4 5
3 6 7 4
