ply
format ascii 1.0
comment VCGLIB generated
element vertex 8
property float x
property float y
property float z
element face 12
property list uchar int vertex_indices
end_header
-8.39319154 -3.72933364 0.88720703
5.96004506 -8.86449169 -0.13480320
8.89453330 7.34124342 -2.80896854
-7.21443315 6.91093207 -0.98004738
-4.41330258 -7.90151383 18.41625956
5.57425298 -7.42424107 22.26470635
6.54656504 8.69717685 22.40193210
-3.75362798 6.72207090 22.74622999
3 0 1 5
3 0 5 4
3 1 2 6
3 1 6 5
3 2 3 7
3 2 7 6
3 3 0 4
3 3 4 7
3 2 1 0
3 2 0 3
3 6 4 5
3 6 7 4
