ply
format ascii 1.0
comment VCGLIB generated
element vertex 12
property float x
property float y
property float z
element face 20
property list uchar int vertex_indices
end_header
22.48285577 3.51945592 4.92521049
9.14569012 -20.85375401 -0.67707704
-13.71863226 -7.57855035 -6.08376273
-23.25309378 1.70712315 1.62914984
-13.86135530 16.60655678 4.03148699
14.03198876 26.22519364 -2.03897760
29.17857139 -5.65410866 50.64376377
18.50436862 -15.14485305 47.56842196
-10.07853265 -16.26403975 47.60777471
-16.99897760 -1.06707512 43.14774404
-13.77426046 13.65219374 48.25866701
7.41037805 28.07462304 43.38688381
3 1 0 7
3 7 0 6
3 2 1 8
3 8 1 7
3 3 2 9
3 9 2 8
3 4 3 10
3 10 3 9
3 5 4 11
3 11 4 10
3 0 5 6
3 6 5 11
3 5 3 4
3 5 2 3
3 0 2 5
3 1 2 0
3 10 9 11
3 11 9 8
3 11 8 6
3 6 8 7
