ply
format ascii 1.0
comment VCGLIB generated
element vertex 12
property float x
property float y
property float z
element face 20
property list uchar int vertex_indices
end_header
6.60847220 -1.41540074 -0.97889686
3.14789404 -4.63439005 2.02877698
-0.95576658 -6.14301599 -0.05900836
-6.97777247 -0.19197375 -1.86864888
-2.81910001 3.14184775 1.99406828
1.19553493 5.23316014 1.42663163
4.65169396 -0.73663534 10.54949663
3.29066971 -5.91033662 9.52765698
-1.61988170 -4.00645703 11.39936011
-4.93857861 0.33359507 10.77925979
-4.30675336 5.23472717 10.06073374
2.06535202 4.03519656 10.72643513
3 1 0 7
3 7 0 6
3 2 1 8
3 8 1 7
3 3 2 9
3 9 2 8
3 4 3 10
3 10 3 9
3 5 4 11
3 11 4 10
3 0 5 6
3 6 5 11
3 5 3 4
3 5 2 3
3 0 2 5
3 1 2 0
3 10 9 11
3 11 9 8
3 11 8 6
3 6 8 7
