ply
format ascii 1.0
comment VCGLIB generated
element vertex 12
property float x
property float y
property float z
element face 20
property list uchar int vertex_indices
end_header
11.33902796 1.90188617 -2.07013700
1.46780454 -9.78062355 -0.42106945
-5.37380222 -5.76492344 4.69867912
-9.68097778 2.15871134 -0.91867594
-6.33004477 12.48547869 -2.50349900
2.66219857 11.11529453 0.37188535
8.97309534 -1.02062303 18.23387535
4.27741457 -9.20540936 24.45346494
-3.61555227 -8.84879990 20.89213666
-12.52571990 -0.53335715 20.71407364
-4.09095576 8.81111719 22.21616909
8.60727141 10.53803165 24.41385668
3 1 0 7
3 7 0 6
3 2 1 8
3 8 1 7
3 3 2 9
3 9 2 8
3 4 3 10
3 10 3 9
3 5 4 11
3 11 4 10
3 0 5 6
3 6 5 11
3 5 3 4
3 5 2 3
3 0 2 5
3 1 2 0
3 10 9 11
3 11 9 8
3 11 8 6
3 6 8 7
