ply
format ascii 1.0
comment VCGLIB generated
element vertex 10
property float x
property float y
property float z
element face 16
property list uchar int vertex_indices
end_header
-22.50972843 4.79377097 0.53812079
-20.38847529 -22.07738958 1.78802919
20.40227710 -30.02697301 0.44622574
20.34648086 11.06920219 2.65026271
2.50735216 25.97481523 5.15345715
-31.62152328 19.15656698 65.65778929
-17.05545734 -19.73920988 55.15327481
16.10421440 -27.16414920 63.72983237
17.00483883 -6.96628081 64.47677587
5.44063755 29.84069083 63.86374458
3 1 2 7
3 1 7 6
3 2 3 8
3 2 8 7
3 3 4 9
3 3 9 8
3 4 0 5
3 4 5 9
3 0 1 6
3 0 6 5
3 4 3 0
3 0 3 1
3 1 3 2
3 5 8 9
3 6 8 5
3 7 8 6
