ply
format ascii 1.0
comment VCGLIB generated
element vertex 8
property float x
property float y
property float z
element face 12
property list uchar int vertex_indices
end_header
-18.84839001 -13.89467933 6.88745423
16.43501527 -18.99896451 1.38258998
17.12906019 20.73082688 2.01443031
-19.81143854 19.78411544 6.66792915
-18.11706186 -10.07754380 44.19272096
25.90861603 -7.43596470 49.60199652
16.71565447 17.56988746 56.83713402
-19.16343422 23.66042361 58.35816423
3 0 1 5
3 0 5 4
3 1 2 6
3 1 6 5
3 2 3 7
3 2 7 6
3 3 0 4
3 3 4 7
3 2 1 0
3 2 0 3
3 6 4 5
3 6 7 4
