ply
format ascii 1.0
comment VCGLIB generated
element vertex 8
property float x
property float y
property float z
element face 12
property list uchar int vertex_indices
end_header
-17.92220461 -14.53986820 -4.88928309
17.09678457 -10.01889015 -1.35471364
20.15385138 19.05242045 -4.58748059
-13.51649932 17.22331785 1.69317906
-12.44366195 -14.82526188 41.25764465
12.80716146 -20.17337417 45.88456155
9.35335889 9.24311349 35.08779949
-15.11541675 9.66347114 41.44573296
3 0 1 5
3 0 5 4
3 1 2 6
3 1 6 5
3 2 3 7
3 2 7 6
3 3 0 4
3 3 4 7
3 2 1 0
3 2 0 3
3 6 4 5
3 6 7 4
