ply
format ascii 1.0
comment VCGLIB generated
element vertex 8
property float x
property float y
property float z
element face 12
property list uchar int vertex_indices
end_header
-6.71854317 -7.86176535 -0.40826800
4.68822996 -5.64651722 -3.12483594
7.86365951 8.84861684 0.27318532
-5.48333446 7.00987057 1.36584608
-5.60654085 -0.76223147 12.42134759
7.07089082 -6.37454542 16.80539831
4.22025743 5.40013661 15.39549447
-4.14148025 3.81728048 14.65508760
3 0 1 5
3 0 5 4
3 1 2 6
3 1 6 5
3 2 3 7
3 2 7 6
3 3 0 4
3 3 4 7
3 2 1 0
3 2 0 3
3 6 4 5
3 6 7 4
