ply
format ascii 1.0
comment VCGLIB generated
element vertex 10
property float x
property float y
property float z
element face 16
property list uchar int vertex_indices
end_header
-2.52138395 0.71560793 0.94736401
-1.64121463 -1.82490748 -0.23461981
2.19401423 -2.37482901 -0.77643448
2.33759348 0.91180071 0.43487850
0.92352265 2.77000868 -0.90030748
-1.70940858 0.50851272 5.06226050
-1.31998109 -2.20814344 4.94910638
2.31144585 -1.64603152 4.93642208
1.77059570 0.81710696 5.37433153
0.21865718 2.26520852 4.78726835
3 1 2 7
3 1 7 6
3 2 3 8
3 2 8 7
3 3 4 9
3 3 9 8
3 4 0 5
3 4 5 9
3 0 1 6
3 0 6 5
3 4 3 0
3 0 3 1
3 1 3 2
3 5 8 9
3 6 8 5
3 7 8 6
