ply
format ascii 1.0
comment VCGLIB generated
element vertex 12
property float x
property float y
property float z
element face 20
property list uchar int vertex_indices
end_header
11.64368256 1.52106233 -1.13902950
6.14139155 -7.21217948 2.12335102
-3.46897369 -12.54399404 -4.35681934
-13.92500487 -0.30555515 -0.61760912
-8.90715023 9.38977627 2.92345341
4.79889440 12.34837805 1.64228550
14.40852435 1.83022467 26.75047778
7.21531002 -6.97204410 23.31979044
-8.38710118 -11.20247605 22.82174549
-14.28790748 -1.08791542 26.25703470
-2.75294720 13.35824041 23.89836003
6.21123271 12.26095929 26.87200345
3 1 0 7
3 7 0 6
3 2 1 8
3 8 1 7
3 3 2 9
3 9 2 8
3 4 3 10
3 10 3 9
3 5 4 11
3 11 4 10
3 0 5 6
3 6 5 11
3 5 3 4
3 5 2 3
3 0 2 5
3 1 2 0
3 10 9 11
3 11 9 8
3 11 8 6
3 6 8 7
