ply
format ascii 1.0
comment VCGLIB generated
element vertex 10
property float x
property float y
property float z
element face 16
property list uchar int vertex_indices
end_header
-11.74402258 3.53696870 2.49004440
-6.30706250 -6.42997197 4.63178620
1.84372909 -8.74582614 0.44793561
6.63259697 1.10516247 1.87251755
1.38478263 12.71545391 1.30530258
-13.06164497 3.24623063 18.66007505
-8.86167087 -6.26956230 20.26026983
5.07150424 -13.28421591 22.92776539
10.59286216 4.77583363 22.64939893
0.05897598 10.14870225 20.96639372
3 1 2 7
3 1 7 6
3 2 3 8
3 2 8 7
3 3 4 9
3 3 9 8
3 4 0 5
3 4 5 9
3 0 1 6
3 0 6 5
3 4 3 0
3 0 3 1
3 1 3 2
3 5 8 9
3 6 8 5
3 7 8 6
