ply
format ascii 1.0
comment VCGLIB generated
element vertex 12
property float x
property float y
property float z
element face 20
property list uchar int vertex_indices
end_header
20.49819930 -0.12223980 -7.07906503
15.06094202 -27.72099374 -0.73140332
-19.19960076 -25.41259362 3.48289257
-27.02415803 3.56353009 -9.72377908
-10.63888069 15.74522488 9.21066892
15.73584980 17.20087140 -4.30648936
28.46414451 0.25885550 43.19420536
15.43644448 -27.40761132 51.88940803
-9.20194979 -23.24850010 50.85213573
-32.45790704 1.58576027 44.97772682
-9.60283452 24.02845748 57.57717445
7.73383837 26.06927531 50.39618076
3 1 0 7
3 7 0 6
3 2 1 8
3 8 1 7
3 3 2 9
3 9 2 8
3 4 3 10
3 10 3 9
3 5 4 11
3 11 4 10
3 0 5 6
3 6 5 11
3 5 3 4
3 5 2 3
3 0 2 5
3 1 2 0
3 10 9 11
3 11 9 8
3 11 8 6
3 6 8 7
