ply
format ascii 1.0
comment VCGLIB generated
element vertex 12
property float x
property float y
property float z
element face 20
property list uchar int vertex_indices
end_header
9.85853815 3.89856445 0.65116687
3.22405319 -8.46283305 0.87136820
-3.30200842 -11.95634300 -1.53658391
-12.35487911 -3.31550314 3.84205258
-4.47318500 7.97275728 -0.34894136
2.72507167 8.04875125 2.29559255
12.26247535 -2.30498974 21.45485668
1.75089802 -9.48520533 22.02522153
-7.79500047 -10.16865634 22.28895292
-10.41230622 -0.86132656 20.30523661
-4.69196824 12.64670377 24.07046930
10.51574537 10.32142442 22.75972493
3 1 0 7
3 7 0 6
3 2 1 8
3 8 1 7
3 3 2 9
3 9 2 8
3 4 3 10
3 10 3 9
3 5 4 11
3 11 4 10
3 0 5 6
3 6 5 11
3 5 3 4
3 5 2 3
3 0 2 5
3 1 2 0
3 10 9 11
3 11 9 8
3 11 8 6
3 6 8 7
