ply
format ascii 1.0
comment VCGLIB generated
element vertex 8
property float x
property float y
property float z
element face 12
property list uchar int vertex_indices
end_header
-11.89107050 -9.48359339 0.57274408
13.41692446 -4.64876459 -3.86737525
13.05423654 9.51164783 3.68287455
-6.97205649 9.53300169 2.30667022
-10.82455503 -16.22380437 28.73210141
9.75316421 -11.30462364 31.36100873
10.08386790 10.86883022 23.52381716
-12.67383336 10.86792052 32.10306957
3 0 1 5
3 0 5 4
3 1 2 6
3 1 6 5
3 2 3 7
3 2 7 6
3 3 0 4
3 3 4 7
3 2 1 0
3 2 0 3
3 6 4 5
3 6 7 4
