ply
format ascii 1.0
comment VCGLIB generated
element vertex 10
property float x
property float y
property float z
element face 16
property list uchar int vertex_indices
end_header
-14.57083489 2.81003452 -7.94599745
-19.45578243 -14.06689275 -5.01430843
11.11594223 -14.32819110 0.10917023
23.70950530 4.17241362 1.86946368
1.90032414 25.60991117 -5.62766334
-16.45630562 9.62227824 36.26323699
-8.81762734 -10.63135744 41.37090497
2.48543611 -15.50067399 50.48459072
14.50808369 6.51870912 42.96796515
-2.05744207 14.65495394 43.48487786
3 1 2 7
3 1 7 6
3 2 3 8
3 2 8 7
3 3 4 9
3 3 9 8
3 4 0 5
3 4 5 9
3 0 1 6
3 0 6 5
3 4 3 0
3 0 3 1
3 1 3 2
3 5 8 9
3 6 8 5
3 7 8 6
