ply
format ascii 1.0
comment VCGLIB generated
element vertex 10
property float x
property float y
property float z
element face 16
property list uchar int vertex_indices
end_header
-34.74503902 14.60964579 4.11439223
-17.89904863 -26.83366639 3.23167176
1.82882959 -32.40825095 -4.86065435
25.46435791 -2.86359648 -4.69162712
-4.22852663 22.57198968 -1.23339628
-23.60789046 16.32953696 42.38052381
-16.36946891 -33.20395474 48.03173399
9.66943894 -25.73235689 48.83718433
17.56925637 6.99141089 46.56669155
0.83288941 21.64807401 47.39874405
3 1 2 7
3 1 7 6
3 2 3 8
3 2 8 7
3 3 4 9
3 3 9 8
3 4 0 5
3 4 5 9
3 0 1 6
3 0 6 5
3 4 3 0
3 0 3 1
3 1 3 2
3 5 8 9
3 6 8 5
3 7 8 6
