ply
format ascii 1.0
comment VCGLIB generated
element vertex 8
property float x
property float y
property float z
element face 12
property list uchar int vertex_indices
end_header
-14.84474906 -14.87598845 -1.40533402
18.13532810 -10.78116698 2.83332177
13.01151570 12.84617160 2.00637795
-18.68725220 13.95314123 -2.61547105
-12.75506835 -12.58117416 39.77204050
10.68750439 -13.66684521 37.93620974
11.77988624 12.70671921 35.30737596
-13.93145848 15.41586057 43.22487818
3 0 1 5
3 0 5 4
3 1 2 6
3 1 6 5
3 2 3 7
3 2 7 6
3 3 0 4
3 3 4 7
3 2 1 0
3 2 0 3
3 6 4 5
3 6 7 4
