ply
format ascii 1.0
comment VCGLIB generated
element vertex 12
property float x
property float y
property float z
element face 20
property list uchar int vertex_indices
end_header
23.69386151 -3.67455289 0.64563421
6.53828845 -18.60991144 -2.68792436
-10.97771799 -13.42015055 6.45086321
-16.25735036 -2.25996465 4.25432612
-5.95317059 14.69538136 -1.52588020
10.46946272 14.50457215 4.37049667
16.07442071 0.98739332 25.89699773
3.02941945 -16.42787811 29.44336185
-6.73789360 -10.03273940 33.16828444
-19.40809749 -0.95268527 28.99752659
-9.76708473 12.12388129 37.05929898
6.64033497 15.10583266 25.61090649
3 1 0 7
3 7 0 6
3 2 1 8
3 8 1 7
3 3 2 9
3 9 2 8
3 4 3 10
3 10 3 9
3 5 4 11
3 11 4 10
3 0 5 6
3 6 5 11
3 5 3 4
3 5 2 3
3 0 2 5
3 1 2 0
3 10 9 11
3 11 9 8
3 11 8 6
3 6 8 7
