ply
format ascii 1.0
comment VCGLIB generated
element vertex 12
property float x
property float y
property float z
element face 20
property list uchar int vertex_indices
end_header
7.46904489 0.32900098 0.06743990
2.38170073 -6.39075857 -1.03045026
-6.88042406 -8.26435472 2.70788160
-6.03272548 1.69823848 0.56375589
-3.05914665 7.70940653 -0.59795150
4.17402012 8.43787968 0.09371245
6.31787698 -2.14098990 18.46937394
4.90695774 -8.28735105 17.03546224
-6.73646775 -8.48922139 16.14782446
-6.47097321 -2.42756101 17.61891784
-6.42662611 4.83497569 20.34837300
8.11776458 8.21048795 16.61744649
3 1 0 7
3 7 0 6
3 2 1 8
3 8 1 7
3 3 2 9
3 9 2 8
3 4 3 10
3 10 3 9
3 5 4 11
3 11 4 10
3 0 5 6
3 6 5 11
3 5 3 4
3 5 2 3
3 0 2 5
3 1 2 0
3 10 9 11
3 11 9 8
3 11 8 6
3 6 8 7
