ply
format ascii 1.0
comment VCGLIB generated
element vertex 12
property float x
property float y
property float z
element face 20
property list uchar int vertex_indices
end_header
19.77211306 -1.08299514 -0.03417431
5.93585623 -12.58107343 0.91273114
-9.07198318 -14.28561047 -1.29339287
-18.68223080 3.08906134 -0.22010907
-8.74211975 16.59996812 1.99664100
9.00466759 14.87872030 3.15459690
16.39910070 4.53865508 28.30618426
8.22899431 -16.97643319 33.94124672
-9.36495230 -5.07857100 28.41126545
-16.44945457 1.30578134 32.19792169
-4.09277848 22.56735875 36.74736231
1.55515799 16.02688850 35.99633197
3 1 0 7
3 7 0 6
3 2 1 8
3 8 1 7
3 3 2 9
3 9 2 8
3 4 3 10
3 10 3 9
3 5 4 11
3 11 4 10
3 0 5 6
3 6 5 11
3 5 3 4
3 5 2 3
3 0 2 5
3 1 2 0
3 10 9 11
3 11 9 8
3 11 8 6
3 6 8 7
