ply
format ascii 1.0
comment VCGLIB generated
element vertex 8
property float x
property float y
property float z
element face 12
property list uchar int vertex_indices
end_header
-3.65050265 -15.31816449 2.11914509
12.07629895 -8.29719291 5.09151405
12.07621757 8.21977628 -4.79392545
-11.18967534 14.65435145 3.86723535
-10.65080929 -10.03525508 29.04992153
12.92131290 -4.61036276 36.11456427
9.99857568 14.08734633 34.21771759
-10.43059891 8.20980116 33.66487904
3 0 1 5
3 0 5 4
3 1 2 6
3 1 6 5
3 2 3 7
3 2 7 6
3 3 0 4
3 3 4 7
3 2 1 0
3 2 0 3
3 6 4 5
3 6 7 4
