ply
format ascii 1.0
comment VCGLIB generated
element vertex 12
property float x
property float y
property float z
element face 20
property list uchar int vertex_indices
end_header
4.31746669 0.00398729 0.96678586
1.75969517 -3.69753435 0.46730646
-1.79997205 -2.29543018 -0.00305260
-5.72979920 0.56162276 -0.00715806
-1.75223378 3.70163422 -0.83393912
2.26832875 4.16499078 -0.98616334
5.52645803 -0.53257190 7.58324603
2.39820394 -2.82719757 6.28425090
-2.77285059 -5.21225118 7.40493183
-4.90445659 0.60331010 6.71952366
-2.72679492 3.74396545 7.92145649
1.31802244 2.29221415 8.50563092
3 1 0 7
3 7 0 6
3 2 1 8
3 8 1 7
3 3 2 9
3 9 2 8
3 4 3 10
3 10 3 9
3 5 4 11
3 11 4 10
3 0 5 6
3 6 5 11
3 5 3 4
3 5 2 3
3 0 2 5
3 1 2 0
3 10 9 11
3 11 9 8
3 11 8 6
3 6 8 7
