ply
format ascii 1.0
comment VCGLIB generated
element vertex 8
property float x
property float y
property float z
element face 12
property list uchar int vertex_indices
end_header
-19.94977595 -27.84109214 5.20119222
14.34485980 -32.38390255 1.72388150
24.54405292 18.21530907 7.71402723
-27.45649876 22.39198232 -12.39939139
-36.67454310 -9.04945399 62.06983587
25.93988465 -13.18459028 68.40394075
20.59169537 17.51271213 62.76830726
-27.09436699 24.72514696 48.82042490
3 0 1 5
3 0 5 4
3 1 2 6
3 1 6 5
3 2 3 7
3 2 7 6
3 3 0 4
3 3 4 7
3 2 1 0
3 2 0 3
3 6 4 5
3 6 7 4
