ply
format ascii 1.0
comment VCGLIB generated
element vertex 8
property float x
property float y
property float z
element face 12
property list uchar int vertex_indices
end_header
-12.44587720 -11.62000010 8.94446666
9.17692552 -11.03199576 0.25182057
13.02046691 15.12401847 -2.81602797
-10.57159343 11.02283675 0.69704791
-18.06800332 -12.82308914 32.57221675
10.62492423 -11.64464888 40.90224104
7.44846426 10.23813467 37.47964298
-9.05928791 16.16920160 33.12387426
3 0 1 5
3 0 5 4
3 1 2 6
3 1 6 5
3 2 3 7
3 2 7 6
3 3 0 4
3 3 4 7
3 2 1 0
3 2 0 3
3 6 4 5
3 6 7 4
