ply
format ascii 1.0
comment VCGLIB generated
element vertex 8
property float x
property float y
property float z
element face 12
property list uchar int vertex_indices
end_header
-10.17987246 -16.67019445 0.34677362
12.59988125 -8.06390137 0.54342414
9.85632439 7.99108447 -2.17491342
-12.52716654 5.98851562 7.34650221
-11.61958128 -10.51059533 29.23987402
15.59996101 -9.62443504 27.14185741
7.23710728 14.33154692 31.30626202
-14.40744948 10.17289235 31.92970201
3 0 1 5
3 0 5 4
3 1 2 6
3 1 6 5
3 2 3 7
3 2 7 6
3 3 0 4
3 3 4 7
3 2 1 0
3 2 0 3
3 6 4 5
3 6 7 4
