ply
format ascii 1.0
comment VCGLIB generated
element vertex 12
property float x
property float y
property float z
element face 20
property list uchar int vertex_indices
end_header
28.39766696 -1.39993923 11.20905597
18.07406816 -24.49488007 0.84425998
-13.01493676 -21.77885293 -5.30653932
-20.74039328 6.35440782 2.02259988
-10.68329005 20.03700852 -0.49505554
18.00805628 18.00678412 1.76586294
27.45882411 -2.57516853 57.84164610
13.06012758 -21.48421756 45.68802528
-9.04928728 -25.54216771 43.93126221
-22.66300015 6.37378337 54.87508258
-12.95766107 20.60759158 57.94551914
21.39900350 21.57997333 47.99115267
3 1 0 7
3 7 0 6
3 2 1 8
3 8 1 7
3 3 2 9
3 9 2 8
3 4 3 10
3 10 3 9
3 5 4 11
3 11 4 10
3 0 5 6
3 6 5 11
3 5 3 4
3 5 2 3
3 0 2 5
3 1 2 0
3 10 9 11
3 11 9 8
3 11 8 6
3 6 8 7
