ply
format ascii 1.0
comment VCGLIB generated
element vertex 8
property float x
property float y
property float z
element face 12
property list uchar int vertex_indices
end_header
-8.81914708 -9.02521966 1.27116954
3.62116950 -9.98215230 -1.78670075
8.45108002 8.24623011 1.43994508
-5.89002428 5.83545141 -2.71262479
-9.40883522 -6.81188267 17.37467467
4.71479529 -8.74901992 17.79290444
4.88178589 7.22403681 18.71227233
-7.76610634 3.27654827 17.71495590
3 0 1 5
3 0 5 4
3 1 2 6
3 1 6 5
3 2 3 7
3 2 7 6
3 3 0 4
3 3 4 7
3 2 1 0
3 2 0 3
3 6 4 5
3 6 7 4
