ply
format ascii 1.0
comment VCGLIB generated
element vertex 8
property float x
property float y
property float z
element face 12
property list uchar int vertex_indices
end_header
-17.24397447 -6.73612886 -0.64894051
10.49764813 -13.15066134 3.15252769
11.09759413 10.77814913 3.99662874
-11.07535922 8.01972579 -7.82006427
-5.96944375 -12.81479034 35.71063167
12.93084730 -10.17169299 29.31577844
10.59273010 17.46781656 33.31487000
-7.05778677 10.10767852 26.30209328
3 0 1 5
3 0 5 4
3 1 2 6
3 1 6 5
3 2 3 7
3 2 7 6
3 3 0 4
3 3 4 7
3 2 1 0
3 2 0 3
3 6 4 5
3 6 7 4
