ply
format ascii 1.0
comment VCGLIB generated
element vertex 8
property float x
property float y
property float z
element face 12
property list uchar int vertex_indices
end_header
-10.23289662 -12.06318819 4.38145611
15.79753283 -21.80975622 -2.44801740
19.78986827 15.63671734 5.81766854
-17.82940899 26.21014563 -6.24951598
-16.54184058 -19.41568000 49.67941422
12.00528931 -16.48042634 44.92920751
21.94310611 22.16131083 51.45963003
-13.56073734 9.87638659 44.73651857
3 0 1 5
3 0 5 4
3 1 2 6
3 1 6 5
3 2 3 7
3 2 7 6
3 3 0 4
3 3 4 7
3 2 1 0
3 2 0 3
3 6 4 5
3 6 7 4
