ply
format ascii 1.0
comment VCGLIB generated
element vertex 12
property float x
property float y
property float z
element face 20
property list uchar int vertex_indices
end_header
16.53665988 -1.69774182 4.61556593
13.60754883 -14.51590535 -0.05192438
-6.84991504 -12.03515845 1.18256669
-17.48312833 -2.21078352 2.54734922
-4.18014686 13.95406049 3.78100426
6.12366067 12.24057346 -0.44450115
12.72712958 -1.23082090 26.94002487
8.62592313 -13.66814689 28.86040237
-3.69115817 -16.07128485 27.71591645
-11.24852130 -1.89745912 26.77064326
-9.36875381 14.38857298 27.59785677
3.90994526 15.74336402 28.94908390
3 1 0 7
3 7 0 6
3 2 1 8
3 8 1 7
3 3 2 9
3 9 2 8
3 4 3 10
3 10 3 9
3 5 4 11
3 11 4 10
3 0 5 6
3 6 5 11
3 5 3 4
3 5 2 3
3 0 2 5
3 1 2 0
3 10 9 11
3 11 9 8
3 11 8 6
3 6 8 7
