ply
format ascii 1.0
comment VCGLIB generated
element vertex 8
property float x
property float y
property float z
element face 12
property list uchar int vertex_indices
end_header
-6.17453511 -7.43402721 3.42122709
6.92287439 -8.10582339 0.10842175
6.79034596 8.06202968 -1.38003806
-8.39750629 7.97414114 -0.37097199
-6.06941090 -5.55459657 26.49600922
9.74512260 -11.24015061 22.11539375
6.05045523 6.55938858 27.41485777
-4.50447071 12.82674185 23.93035503
3 0 1 5
3 0 5 4
3 1 2 6
3 1 6 5
3 2 3 7
3 2 7 6
3 3 0 4
3 3 4 7
3 2 1 0
3 2 0 3
3 6 4 5
3 6 7 4
