ply
format ascii 1.0
comment VCGLIB generated
element vertex 12
property float x
property float y
property float z
element face 20
property list uchar int vertex_indices
end_header
3.82076693 -0.74950887 0.40344907
1.35472837 -3.81726385 -0.21419525
-2.24413260 -3.91343926 -0.58201828
-3.61619551 0.94440367 -0.42359574
-1.24115997 4.27566938 -0.54455878
1.80317145 3.48671707 -1.37457766
3.92046569 1.36726066 9.48264475
1.80877583 -3.39457847 8.42718635
-2.95317163 -3.01455981 7.86415972
-3.69471749 -0.72710202 8.84928677
-2.52728637 3.43082484 7.37500632
2.77660704 4.79834067 7.48853300
3 1 0 7
3 7 0 6
3 2 1 8
3 8 1 7
3 3 2 9
3 9 2 8
3 4 3 10
3 10 3 9
3 5 4 11
3 11 4 10
3 0 5 6
3 6 5 11
3 5 3 4
3 5 2 3
3 0 2 5
3 1 2 0
3 10 9 11
3 11 9 8
3 11 8 6
3 6 8 7
