ply
format ascii 1.0
comment VCGLIB generated
element vertex 12
property float x
property float y
property float z
element face 20
property list uchar int vertex_indices
end_header
6.03899176 -0.95113283 -0.81651830
2.70884974 -5.13548210 0.63703594
-2.07813478 -5.20281285 -0.07743924
-6.38505506 -0.73263145 0.09312277
-2.41288161 6.73586817 -0.45690490
0.94941072 4.54198432 0.01347839
5.97641719 -2.88863663 11.27198081
2.66278137 -3.83751160 11.75150363
-3.08301091 -6.15412440 10.13970601
-5.52327489 1.33694225 11.16287864
-3.38964420 4.05352834 12.39483063
4.17532403 4.67511701 9.51444801
3 1 0 7
3 7 0 6
3 2 1 8
3 8 1 7
3 3 2 9
3 9 2 8
3 4 3 10
3 10 3 9
3 5 4 11
3 11 4 10
3 0 5 6
3 6 5 11
3 5 3 4
3 5 2 3
3 0 2 5
3 1 2 0
3 10 9 11
3 11 9 8
3 11 8 6
3 6 8 7
