ply
format ascii 1.0
comment VCGLIB generated
element vertex 12
property float x
property float y
property float z
element face 20
property list uchar int vertex_indices
end_header
21.18835173 3.08809512 -2.86755974
13.53791835 -17.22848316 1.98087768
-8.51697890 -13.26616687 2.27798877
-16.08777012 -1.48050234 -7.14562338
-9.77885203 18.15442234 -3.22951866
7.35513427 16.26430725 10.80879849
12.86848989 1.21361306 40.15994832
17.16680455 -10.71001335 44.37159880
-7.62071292 -19.11536744 41.67872572
-23.29092074 6.62341352 40.59850434
-12.66945365 21.97348983 50.95844075
0.67825822 22.32747128 40.29549593
3 1 0 7
3 7 0 6
3 2 1 8
3 8 1 7
3 3 2 9
3 9 2 8
3 4 3 10
3 10 3 9
3 5 4 11
3 11 4 10
3 0 5 6
3 6 5 11
3 5 3 4
3 5 2 3
3 0 2 5
3 1 2 0
3 10 9 11
3 11 9 8
3 11 8 6
3 6 8 7
