ply
format ascii 1.0
comment VCGLIB generated
element vertex 8
property float x
property float y
property float z
element face 12
property list uchar int vertex_indices
end_header
-20.06241271 -22.50180941 -0.15772131
8.80633470 -36.21119402 5.03059611
21.66909379 19.52642041 3.68373180
-15.57940391 18.25041913 -2.03079083
-21.28382302 -31.34886466 64.04608357
14.81156069 -16.64165509 69.17411841
19.33134908 22.30318332 58.62169837
-21.74124142 21.37226545 59.75340069
3 0 1 5
3 0 5 4
3 1 2 6
3 1 6 5
3 2 3 7
3 2 7 6
3 3 0 4
3 3 4 7
3 2 1 0
3 2 0 3
3 6 4 5
3 6 7 4
