ply
format ascii 1.0
comment VCGLIB generated
element vertex 10
property float x
property float y
property float z
element face 16
property list uchar int vertex_indices
end_header
-15.82305194 8.84181687 1.94077851
-10.20356690 -10.27369953 -2.82054221
15.85122835 -22.78244758 -0.45335484
16.05746748 1.66068766 -4.85596842
3.95979845 25.94864242 -2.22020558
-17.11770310 9.18808805 37.60160962
-11.69246656 -17.58001396 39.11721331
12.90586955 -14.21072030 30.94133034
12.25269571 7.21806151 44.20726104
-0.25949763 18.13857423 30.37440495
3 1 2 7
3 1 7 6
3 2 3 8
3 2 8 7
3 3 4 9
3 3 9 8
3 4 0 5
3 4 5 9
3 0 1 6
3 0 6 5
3 4 3 0
3 0 3 1
3 1 3 2
3 5 8 9
3 6 8 5
3 7 8 6
