ply
format ascii 1.0
comment VCGLIB generated
element vertex 12
property float x
property float y
property float z
element face 20
property list uchar int vertex_indices
end_header
8.44360541 0.03365310 0.10571630
7.78170644 -6.54398259 -1.64514095
-2.84024734 -6.57043330 0.27133012
-6.87350410 -0.35651933 -0.77233477
-3.97360761 8.73180435 -1.69653460
3.60693890 7.05666441 1.60058424
9.61710048 -0.15298936 17.60834251
4.67538684 -6.95612450 14.34203564
-5.25926983 -8.51309306 17.05823827
-8.20701263 0.28684289 17.12568773
-4.00105217 8.47056685 17.57953990
2.60041077 9.16612925 15.62730435
3 1 0 7
3 7 0 6
3 2 1 8
3 8 1 7
3 3 2 9
3 9 2 8
3 4 3 10
3 10 3 9
3 5 4 11
3 11 4 10
3 0 5 6
3 6 5 11
3 5 3 4
3 5 2 3
3 0 2 5
3 1 2 0
3 10 9 11
3 11 9 8
3 11 8 6
3 6 8 7
