ply
format ascii 1.0
comment VCGLIB generated
element vertex 10
property float x
property float y
property float z
element face 16
property list uchar int vertex_indices
end_header
-24.03429117 6.15313122 -2.95248327
-9.41809915 -20.76222428 -4.02141234
10.92368753 -10.55296540 2.93170153
16.14622244 6.29894730 1.43804918
4.86093529 23.62144550 5.59402964
-14.56866537 3.47778892 47.93719552
-6.54094134 -23.73482641 45.67865483
5.05854650 -19.62493158 49.51453517
23.65259895 2.88545085 39.81507608
2.76353631 22.47822351 44.24910763
3 1 2 7
3 1 7 6
3 2 3 8
3 2 8 7
3 3 4 9
3 3 9 8
3 4 0 5
3 4 5 9
3 0 1 6
3 0 6 5
3 4 3 0
3 0 3 1
3 1 3 2
3 5 8 9
3 6 8 5
3 7 8 6
