ply
format ascii 1.0
comment VCGLIB generated
element vertex 10
property float x
property float y
property float z
element face 16
property list uchar int vertex_indices
end_header
-11.10068477 6.44338739 -1.74427533
-4.89911858 -4.70099014 -1.23922933
7.88768152 -12.38933877 1.75414987
12.62968923 1.56961443 2.93523749
-3.61022400 13.98774077 2.11272668
-10.43091631 3.67631073 28.79370350
-9.32042130 -6.99151673 26.11967906
6.86132572 -6.59397847 27.71063258
12.83443147 3.13209603 27.80717070
2.23603735 14.38083588 31.11871985
3 1 2 7
3 1 7 6
3 2 3 8
3 2 8 7
3 3 4 9
3 3 9 8
3 4 0 5
3 4 5 9
3 0 1 6
3 0 6 5
3 4 3 0
3 0 3 1
3 1 3 2
3 5 8 9
3 6 8 5
3 7 8 6
