ply
format ascii 1.0
comment VCGLIB generated
element vertex 10
property float x
property float y
property float z
element face 16
property list uchar int vertex_indices
end_header
-13.42782825 5.50874863 -0.01773782
-12.95810774 -15.85865622 7.50837513
8.23000823 -17.62236953 3.60550792
24.95508725 13.32071434 -6.55187021
-9.69347268 22.87000216 5.21901940
-16.22679690 5.21204931 48.96163122
-12.90939924 -24.79777311 37.74708613
12.92841568 -11.04760020 37.08781957
16.36268538 10.98462281 38.60221609
0.46169186 18.21385037 36.19029119
3 1 2 7
3 1 7 6
3 2 3 8
3 2 8 7
3 3 4 9
3 3 9 8
3 4 0 5
3 4 5 9
3 0 1 6
3 0 6 5
3 4 3 0
3 0 3 1
3 1 3 2
3 5 8 9
3 6 8 5
3 7 8 6
