ply
format ascii 1.0
comment VCGLIB generated
element vertex 12
property float x
property float y
property float z
element face 20
property list uchar int vertex_indices
end_header
18.79176551 1.23804617 2.86137388
18.49315355 -9.94100550 1.31163910
-14.61503545 -17.38260466 -1.03441549
-22.05282158 0.79532747 9.73371363
-20.12021479 22.55945154 0.96164325
12.45064301 14.76899840 7.15636998
8.32459389 2.75335838 46.25350948
13.44577967 -18.52949173 50.22490878
-11.24066627 -24.90914535 50.58582811
-11.49940697 -3.19566651 46.31621123
-18.86956835 18.28004986 49.70515094
19.12241357 20.11853097 44.26288092
3 1 0 7
3 7 0 6
3 2 1 8
3 8 1 7
3 3 2 9
3 9 2 8
3 4 3 10
3 10 3 9
3 5 4 11
3 11 4 10
3 0 5 6
3 6 5 11
3 5 3 4
3 5 2 3
3 0 2 5
3 1 2 0
3 10 9 11
3 11 9 8
3 11 8 6
3 6 8 7
