ply
format ascii 1.0
comment VCGLIB generated
element vertex 12
property float x
property float y
property float z
element face 20
property list uchar int vertex_indices
end_header
3.63948743 -0.30328464 1.53510279
2.22061376 -6.13150758 -0.79810236
-3.29580739 -3.54709610 -0.72842386
-5.23031504 -1.23498355 1.03950223
-2.50501255 4.55325141 1.43736418
2.30420364 4.99414993 -1.03073897
3.78167924 0.18316404 9.08781546
3.57484442 -3.92011340 8.29562982
-2.22989123 -5.60973141 9.37994585
-6.08610307 1.18358911 10.13224848
-0.78503771 5.74064786 8.12964935
4.26071219 2.36793125 9.44342927
3 1 0 7
3 7 0 6
3 2 1 8
3 8 1 7
3 3 2 9
3 9 2 8
3 4 3 10
3 10 3 9
3 5 4 11
3 11 4 10
3 0 5 6
3 6 5 11
3 5 3 4
3 5 2 3
3 0 2 5
3 1 2 0
3 10 9 11
3 11 9 8
3 11 8 6
3 6 8 7
