ply
format ascii 1.0
comment VCGLIB generated
element vertex 10
property float x
property float y
property float z
element face 16
property list uchar int vertex_indices
end_header
-5.58921530 0.98742821 1.81800325
-2.48274201 -5.04621514 0.07592646
2.81049730 -5.61857576 1.84439130
5.80703802 1.08628195 -0.44133005
0.11416894 6.39020501 0.95293132
-6.46762998 0.11615125 12.02791897
-4.32791392 -4.35484723 11.25103411
3.97893562 -5.89321279 10.17192884
3.32572329 0.33817253 11.90041995
0.62940794 7.13193545 11.85150497
3 1 2 7
3 1 7 6
3 2 3 8
3 2 8 7
3 3 4 9
3 3 9 8
3 4 0 5
3 4 5 9
3 0 1 6
3 0 6 5
3 4 3 0
3 0 3 1
3 1 3 2
3 5 8 9
3 6 8 5
3 7 8 6
