ply
format ascii 1.0
comment VCGLIB generated
element vertex 8
property float x
property float y
property float z
element face 12
property list uchar int vertex_indices
end_header
-5.45345228 -4.73418203 -2.23569091
5.80315536 -10.62059901 0.16194742
7.75442057 9.17198937 0.91291145
-3.46305424 6.40370980 -2.73224274
-7.02371999 -5.15439374 21.66311675
6.70040362 -12.49657363 18.68399635
8.11470057 6.81662923 18.91842606
-10.79300022 7.10279986 20.27350004
3 0 1 5
3 0 5 4
3 1 2 6
3 1 6 5
3 2 3 7
3 2 7 6
3 3 0 4
3 3 4 7
3 2 1 0
3 2 0 3
3 6 4 5
3 6 7 4
