ply
format ascii 1.0
comment VCGLIB generated
element vertex 10
property float x
property float y
property float z
element face 16
property list uchar int vertex_indices
end_header
-18.47713024 1.94117234 -4.63299814
-9.64966748 -11.23851228 9.32083171
9.68212612 -21.79823073 4.12619357
17.75619983 11.79390435 1.35310649
1.23302405 17.75245128 -0.36555765
-17.37931778 -2.25737253 38.81228383
-9.83956223 -18.62051009 41.02104770
9.55442710 -19.31564189 41.44315855
13.24043041 5.71443556 38.38229237
-2.72655155 16.15256944 37.99733454
3 1 2 7
3 1 7 6
3 2 3 8
3 2 8 7
3 3 4 9
3 3 9 8
3 4 0 5
3 4 5 9
3 0 1 6
3 0 6 5
3 4 3 0
3 0 3 1
3 1 3 2
3 5 8 9
3 6 8 5
3 7 8 6
