ply
format ascii 1.0
comment VCGLIB generated
element vertex 8
property float x
property float y
property float z
element face 12
property list uchar int vertex_indices
end_header
-12.15152989 -12.03987461 0.18550649
21.54268812 -13.50594119 1.24366409
15.67398518 10.38340949 -2.36164424
-11.45393129 9.38189573 -2.75240112
-7.76939784 -23.30799000 44.57414761
15.59264919 -15.12491216 46.07028856
11.88231234 15.34172919 45.93977947
-22.17427945 12.67158532 46.73266415
3 0 1 5
3 0 5 4
3 1 2 6
3 1 6 5
3 2 3 7
3 2 7 6
3 3 0 4
3 3 4 7
3 2 1 0
3 2 0 3
3 6 4 5
3 6 7 4
