ply
format ascii 1.0
comment VCGLIB generated
element vertex 12
property float x
property float y
property float z
element face 20
property list uchar int vertex_indices
end_header
20.11962730 0.78973618 7.46681407
14.03354211 -21.15840755 -3.48397726
-13.68266806 -20.51404924 1.74712022
-27.67858670 -1.67496844 10.16044999
-17.24416584 22.05262528 0.57972043
7.30285363 23.25046091 2.28451162
32.14292098 1.78394152 49.24267987
16.87158478 -25.18143028 48.33145638
-13.76925503 -21.08340439 42.69171941
-11.95448439 3.59070235 39.66059493
-13.56507102 22.47211952 44.24181428
14.37793404 17.10679505 41.15408669
3 1 0 7
3 7 0 6
3 2 1 8
3 8 1 7
3 3 2 9
3 9 2 8
3 4 3 10
3 10 3 9
3 5 4 11
3 11 4 10
3 0 5 6
3 6 5 11
3 5 3 4
3 5 2 3
3 0 2 5
3 1 2 0
3 10 9 11
3 11 9 8
3 11 8 6
3 6 8 7
