ply
format ascii 1.0
comment VCGLIB generated
element vertex 12
property float x
property float y
property float z
element face 20
property list uchar int vertex_indices
end_header
7.61985058 -0.82518096 -1.33074392
4.05145662 -4.85062004 -0.49855708
-1.92219433 -5.83743211 0.47227374
-5.80553350 -1.01085666 -0.32385947
-5.42610996 3.33673443 -2.93811679
3.48156905 3.10919413 0.46069558
4.89689810 -0.53351918 12.71926795
3.72594782 -5.90629302 13.50393485
-1.98150751 -4.70760654 11.98786838
-4.77616011 1.68514313 10.53228482
-3.76882611 3.95462737 12.55706353
3.07360090 4.55523986 14.50724134
3 1 0 7
3 7 0 6
3 2 1 8
3 8 1 7
3 3 2 9
3 9 2 8
3 4 3 10
3 10 3 9
3 5 4 11
3 11 4 10
3 0 5 6
3 6 5 11
3 5 3 4
3 5 2 3
3 0 2 5
3 1 2 0
3 10 9 11
3 11 9 8
3 11 8 6
3 6 8 7
