ply
format ascii 1.0
comment VCGLIB generated
element vertex 12
property float x
property float y
property float z
element face 20
property list uchar int vertex_indices
end_header
14.14078065 0.12870373 -4.78480516
7.10860817 -15.82176878 -1.33330812
-12.17577350 -11.65778037 4.85017943
-20.59767997 -2.31237790 -0.21006283
-9.25635119 10.57703403 0.14919420
4.15985259 17.80672162 -0.58328109
14.61044264 3.19737668 23.98305234
0.76880703 -14.71610510 29.26863427
-9.55870590 -13.36657874 26.77102055
-17.00521875 2.93268391 29.37573856
-8.09425214 17.36044335 31.69937272
8.96576996 15.84188150 29.18455810
3 1 0 7
3 7 0 6
3 2 1 8
3 8 1 7
3 3 2 9
3 9 2 8
3 4 3 10
3 10 3 9
3 5 4 11
3 11 4 10
3 0 5 6
3 6 5 11
3 5 3 4
3 5 2 3
3 0 2 5
3 1 2 0
3 10 9 11
3 11 9 8
3 11 8 6
3 6 8 7
