ply
format ascii 1.0
comment VCGLIB generated
element vertex 12
property float x
property float y
property float z
element face 20
property list uchar int vertex_indices
end_header
19.65332518 1.38654717 -0.78584658
8.52478036 -13.15055020 -1.07065451
-1.53271866 -12.74032410 1.50870361
-14.89219100 -0.29974114 -4.02929536
-8.12259231 8.83770001 -1.21254168
3.75953607 13.65548419 -0.76561112
16.78051878 -2.11016638 26.69427000
5.92584753 -8.40759228 31.38458656
-9.38907978 -14.13524024 36.82230132
-11.89034705 -4.05355401 24.83982636
-10.52569199 11.43319619 31.99917294
13.89396290 13.39023420 29.05130321
3 1 0 7
3 7 0 6
3 2 1 8
3 8 1 7
3 3 2 9
3 9 2 8
3 4 3 10
3 10 3 9
3 5 4 11
3 11 4 10
3 0 5 6
3 6 5 11
3 5 3 4
3 5 2 3
3 0 2 5
3 1 2 0
3 10 9 11
3 11 9 8
3 11 8 6
3 6 8 7
