ply
format ascii 1.0
comment VCGLIB generated
element vertex 8
property float x
property float y
property float z
element face 12
property list uchar int vertex_indices
end_header
-7.92331146 -19.97858950 6.68557659
19.99641945 -20.15244640 -1.60797695
19.44976468 28.26983788 5.17370424
-12.73409145 11.34060616 -5.33517136
-23.77399560 -14.29049789 55.18536332
17.58780044 -16.41876536 58.96768354
16.91944888 14.76645278 56.05249888
-14.93328555 17.37808041 61.41592483
3 0 1 5
3 0 5 4
3 1 2 6
3 1 6 5
3 2 3 7
3 2 7 6
3 3 0 4
3 3 4 7
3 2 1 0
3 2 0 3
3 6 4 5
3 6 7 4
