ply
format ascii 1.0
comment VCGLIB generated
element vertex 10
property float x
property float y
property float z
element face 16
property list uchar int vertex_indices
end_header
-15.71773003 10.46880613 -11.95392187
-11.64881225 -17.01063625 -3.15337877
7.04083785 -14.85117868 -0.59513172
19.52281864 1.84901839 -8.58465390
-3.45104279 23.80802986 -9.55853336
-19.78706570 -2.78331078 42.54520336
-14.49447110 -20.31042151 47.84568288
7.71483065 -11.88052577 45.63708682
26.40410954 5.61250448 39.46569253
-10.76073695 18.69813847 42.13656824
3 1 2 7
3 1 7 6
3 2 3 8
3 2 8 7
3 3 4 9
3 3 9 8
3 4 0 5
3 4 5 9
3 0 1 6
3 0 6 5
3 4 3 0
3 0 3 1
3 1 3 2
3 5 8 9
3 6 8 5
3 7 8 6
