ply
format ascii 1.0
comment VCGLIB generated
element vertex 12
property float x
property float y
property float z
element face 20
property list uchar int vertex_indices
end_header
4.07116727 -0.58967082 -1.38852573
2.05650036 -2.73880620 0.87404893
0.21216458 -4.12442938 -1.35538678
-4.03865057 -0.04244327 -0.54779575
-2.48178193 3.43847910 1.12256912
3.03008854 2.47610024 0.92777418
4.44396172 -0.31934433 7.90940474
3.21783382 -4.51072575 6.88096605
-0.47682743 -3.77717439 8.55877565
-3.54728073 -0.73695464 7.77658205
-1.06576687 2.70184040 6.13959015
2.48267138 2.72675219 8.53871272
3 1 0 7
3 7 0 6
3 2 1 8
3 8 1 7
3 3 2 9
3 9 2 8
3 4 3 10
3 10 3 9
3 5 4 11
3 11 4 10
3 0 5 6
3 6 5 11
3 5 3 4
3 5 2 3
3 0 2 5
3 1 2 0
3 10 9 11
3 11 9 8
3 11 8 6
3 6 8 7
