ply
format ascii 1.0
comment VCGLIB generated
element vertex 12
property float x
property float y
property float z
element face 20
property list uchar int vertex_indices
end_header
12.73210950 -2.28941961 -0.97546331
8.18372118 -9.44409641 2.41974506
-12.05616121 -7.74630866 4.63953191
-9.13555338 -1.42036138 1.07310675
-5.45949999 15.89648920 1.83109079
3.71705278 12.28720362 1.25033093
11.46603933 1.24590616 23.55235413
5.85213793 -12.50775572 28.88377782
-8.57923861 -13.60017328 20.40090989
-12.57517097 3.52438965 27.57408626
-5.87611141 16.65160199 24.90597845
6.46634057 12.32809370 29.40609642
3 1 0 7
3 7 0 6
3 2 1 8
3 8 1 7
3 3 2 9
3 9 2 8
3 4 3 10
3 10 3 9
3 5 4 11
3 11 4 10
3 0 5 6
3 6 5 11
3 5 3 4
3 5 2 3
3 0 2 5
3 1 2 0
3 10 9 11
3 11 9 8
3 11 8 6
3 6 8 7
