ply
format ascii 1.0
comment VCGLIB generated
element vertex 12
property float x
property float y
property float z
element face 20
property list uchar int vertex_indices
end_header
13.43558700 -1.14193708 -1.23250516
6.18966860 -11.80317391 0.14384578
-5.23946951 -10.58792957 5.13689671
-16.48508584 -0.36595949 2.64880936
-7.01515540 15.75108813 -2.88774153
4.30727848 11.30966280 0.93662328
11.33539606 -3.78149999 28.00158684
7.57050234 -11.94549674 27.95992674
-6.28666055 -8.96820417 30.55530812
-7.51840636 4.01867489 23.50066500
-6.72381333 9.92707475 27.78084562
6.57342327 10.19210712 29.18216980
3 1 0 7
3 7 0 6
3 2 1 8
3 8 1 7
3 3 2 9
3 9 2 8
3 4 3 10
3 10 3 9
3 5 4 11
3 11 4 10
3 0 5 6
3 6 5 11
3 5 3 4
3 5 2 3
3 0 2 5
3 1 2 0
3 10 9 11
3 11 9 8
3 11 8 6
3 6 8 7
