ply
format ascii 1.0
comment VCGLIB generated
element vertex 8
property float x
property float y
property float z
element face 12
property list uchar int vertex_indices
end_header
-7.44297177 -8.37566421 0.51291007
5.35966708 -4.02027334 -1.55280476
6.63272615 9.11851494 0.74969546
-7.04415820 4.78447097 -0.79519089
-7.61213328 -8.27943218 18.09683918
9.64873258 -7.52170479 18.39350008
5.64117244 5.37428046 18.03637110
-5.63021713 2.13882737 18.36626314
3 0 1 5
3 0 5 4
3 1 2 6
3 1 6 5
3 2 3 7
3 2 7 6
3 3 0 4
3 3 4 7
3 2 1 0
3 2 0 3
3 6 4 5
3 6 7 4
