ply
format ascii 1.0
comment VCGLIB generated
element vertex 8
property float x
property float y
property float z
element face 12
property list uchar int vertex_indices
end_header
-12.19079218 -18.41966794 4.64594571
24.63476402 -28.50345729 3.83871865
16.04577624 26.70986761 -11.93027366
-10.71982616 20.61900062 5.22803358
-27.64033331 -20.11202308 56.34771666
14.18223450 -26.38287790 50.15480469
19.48085747 20.30692418 58.86391646
-21.50915807 30.88423568 56.12477500
3 0 1 5
3 0 5 4
3 1 2 6
3 1 6 5
3 2 3 7
3 2 7 6
3 3 0 4
3 3 4 7
3 2 1 0
3 2 0 3
3 6 4 5
3 6 7 4
