ply
format ascii 1.0
comment VCGLIB generated
element vertex 12
property float x
property float y
property float z
element face 20
property list uchar int vertex_indices
end_header
22.44122153 -2.29116263 -5.37485541
16.84715242 -21.68114878 -0.99981567
-8.42602363 -16.78534860 -2.90589615
-15.71831257 -5.38018909 -3.04586501
-8.92173380 18.58235458 -3.32583358
2.52801500 17.58467177 -3.74654234
14.58799701 -3.03307774 37.58229931
11.38940784 -18.98857915 39.24549401
-14.30799221 -19.49066028 35.19366180
-16.95666433 1.89633698 43.18335540
-8.46507945 18.22566382 34.38205563
7.07757199 25.46382063 37.27782035
3 1 0 7
3 7 0 6
3 2 1 8
3 8 1 7
3 3 2 9
3 9 2 8
3 4 3 10
3 10 3 9
3 5 4 11
3 11 4 10
3 0 5 6
3 6 5 11
3 5 3 4
3 5 2 3
3 0 2 5
3 1 2 0
3 10 9 11
3 11 9 8
3 11 8 6
3 6 8 7
