ply
format ascii 1.0
comment VCGLIB generated
element vertex 8
property float x
property float y
property float z
element face 12
property list uchar int vertex_indices
end_header
-20.54705681 -17.28315057 5.73246378
17.63976443 -14.61242533 -1.38867088
18.31061479 14.93952297 -5.86519113
-17.65798819 12.05342208 -0.01692152
-13.52836032 -15.35765583 41.11558927
16.30026953 -16.22468641 46.23555083
18.36106398 20.11526528 41.89677870
-18.46301166 19.32979330 40.04644796
3 0 1 5
3 0 5 4
3 1 2 6
3 1 6 5
3 2 3 7
3 2 7 6
3 3 0 4
3 3 4 7
3 2 1 0
3 2 0 3
3 6 4 5
3 6 7 4
