ply
format ascii 1.0
comment VCGLIB generated
element vertex 10
property float x
property float y
property float z
element face 16
property list uchar int vertex_indices
end_header
-22.72312832 1.84891222 0.14531518
-8.15217605 -26.72070937 -1.09805157
19.83658252 -16.72303690 -3.16384039
20.81607651 6.81378986 0.80926768
-1.09723503 22.42103342 6.39522212
-25.64597200 5.91195554 55.45097623
-10.70159823 -24.37993317 51.19639298
17.15453541 -22.31995859 56.85031491
19.90498331 -2.97985049 48.22949160
-2.58633523 30.09612644 43.88139512
3 1 2 7
3 1 7 6
3 2 3 8
3 2 8 7
3 3 4 9
3 3 9 8
3 4 0 5
3 4 5 9
3 0 1 6
3 0 6 5
3 4 3 0
3 0 3 1
3 1 3 2
3 5 8 9
3 6 8 5
3 7 8 6
