ply
format ascii 1.0
comment VCGLIB generated
element vertex 10
property float x
property float y
property float z
element face 16
property list uchar int vertex_indices
end_header
-9.41193516 0.86202413 -0.68083079
-7.03972694 -8.42308672 -0.35800989
6.47445183 -9.87860964 -0.52435792
9.70890621 2.92986689 3.77813924
0.19218015 9.87885682 2.19013412
-9.64443480 1.02232119 16.66538220
-3.62362010 -5.68123675 22.95386241
5.75260110 -6.64253381 23.18549476
13.21883151 3.95540108 19.93863206
2.26673625 9.20577234 17.02962823
3 1 2 7
3 1 7 6
3 2 3 8
3 2 8 7
3 3 4 9
3 3 9 8
3 4 0 5
3 4 5 9
3 0 1 6
3 0 6 5
3 4 3 0
3 0 3 1
3 1 3 2
3 5 8 9
3 6 8 5
3 7 8 6
