ply
format ascii 1.0
comment VCGLIB generated
element vertex 10
property float x
property float y
property float z
element face 16
property list uchar int vertex_indices
end_header
-26.57863570 3.87253930 1.09374562
-18.03653262 -27.81959417 1.34347289
17.27346952 -22.43991954 -0.54369346
33.40017791 5.33646255 2.19465395
4.66936296 25.06774271 6.71863960
-30.50487154 5.80794480 56.30947995
-12.37776776 -23.48921440 50.59416076
13.59180158 -24.85901299 55.66415546
24.43058645 3.38006617 63.76086111
5.20301400 23.27556744 52.42963220
3 1 2 7
3 1 7 6
3 2 3 8
3 2 8 7
3 3 4 9
3 3 9 8
3 4 0 5
3 4 5 9
3 0 1 6
3 0 6 5
3 4 3 0
3 0 3 1
3 1 3 2
3 5 8 9
3 6 8 5
3 7 8 6
