ply
format ascii 1.0
comment VCGLIB generated
element vertex 10
property float x
property float y
property float z
element face 16
property list uchar int vertex_indices
end_header
-8.10644928 4.00961303 1.94497261
-6.53744328 -9.88661429 1.88749491
4.43230398 -9.30174539 3.44364304
11.34616787 3.67383695 2.13603806
1.82275382 9.92579724 -0.35309414
-8.70336414 1.05960187 19.47409167
-5.40956749 -4.16503498 18.72319974
5.51136736 -4.46962091 20.22534406
9.85998465 1.30871755 19.14625407
-0.04451886 9.77025253 18.23728282
3 1 2 7
3 1 7 6
3 2 3 8
3 2 8 7
3 3 4 9
3 3 9 8
3 4 0 5
3 4 5 9
3 0 1 6
3 0 6 5
3 4 3 0
3 0 3 1
3 1 3 2
3 5 8 9
3 6 8 5
3 7 8 6
