ply
format ascii 1.0
comment VCGLIB generated
element vertex 8
property float x
property float y
property float z
element face 12
property list uchar int vertex_indices
end_header
-6.23892069 -6.80947839 2.05375781
6.82061397 -6.95073862 -0.07894357
4.61569601 6.17639937 1.20450505
-8.46150840 3.36626526 0.05347332
-3.73281439 -2.83227375 15.13075908
5.47102857 -4.10651166 15.80138569
5.40828970 6.23255504 19.31474204
-8.24173621 5.35262574 17.77598152
3 0 1 5
3 0 5 4
3 1 2 6
3 1 6 5
3 2 3 7
3 2 7 6
3 3 0 4
3 3 4 7
3 2 1 0
3 2 0 3
3 6 4 5
3 6 7 4
