ply
format ascii 1.0
comment VCGLIB generated
element vertex 12
property float x
property float y
property float z
element face 20
property list uchar int vertex_indices
end_header
13.18215526 3.09056437 -6.27167939
7.05938838 -8.88315028 -1.52696941
-4.71673361 -9.13911409 -0.56959004
-10.25188105 -2.87848436 1.57703350
-2.53767513 10.81704972 0.63821277
5.26654250 11.67452916 0.78212375
17.41254600 -0.45847070 18.99828818
7.39715389 -9.24725780 21.57045057
-3.65034980 -13.76255384 24.00164021
-8.68803664 -1.96515397 22.65768054
-3.82549950 10.16933420 22.46093274
5.07262795 11.49765477 24.45182477
3 1 0 7
3 7 0 6
3 2 1 8
3 8 1 7
3 3 2 9
3 9 2 8
3 4 3 10
3 10 3 9
3 5 4 11
3 11 4 10
3 0 5 6
3 6 5 11
3 5 3 4
3 5 2 3
3 0 2 5
3 1 2 0
3 10 9 11
3 11 9 8
3 11 8 6
3 6 8 7
