ply
format ascii 1.0
comment VCGLIB generated
element vertex 8
property float x
property float y
property float z
element face 12
property list uchar int vertex_indices
end_header
-19.65768341 -14.34085863 -0.69158238
13.78192946 -13.40228706 6.54528865
20.79233683 9.64047827 -5.04388438
-17.78374962 20.29088652 3.25370499
-14.46772424 -14.45669494 44.71846942
18.96445281 -15.98479906 41.67073720
13.44911435 20.80503265 35.95189455
-15.55106573 18.19120184 50.73842690
3 0 1 5
3 0 5 4
3 1 2 6
3 1 6 5
3 2 3 7
3 2 7 6
3 3 0 4
3 3 4 7
3 2 1 0
3 2 0 3
3 6 4 5
3 6 7 4
