ply
format ascii 1.0
comment VCGLIB generated
element vertex 8
property float x
property float y
property float z
element face 12
property list uchar int vertex_indices
end_header
-2.08661806 -2.42732600 -0.24386335
1.20641402 -1.41451765 -0.44841306
1.08575761 2.41890890 1.42179553
-1.89981472 0.97051439 -0.77879335
-2.31089082 -2.65390010 5.35480800
0.97580379 -2.43292378 4.85291988
1.18347705 2.03993505 5.64891072
-1.61806809 0.89627551 5.37643366
3 0 1 5
3 0 5 4
3 1 2 6
3 1 6 5
3 2 3 7
3 2 7 6
3 3 0 4
3 3 4 7
3 2 1 0
3 2 0 3
3 6 4 5
3 6 7 4
