ply
format ascii 1.0
comment VCGLIB generated
element vertex 10
property float x
property float y
property float z
element face 16
property list uchar int vertex_indices
end_header
-3.55659540 2.12960945 -0.84172396
-2.60376798 -2.86621717 -0.71822948
2.00168470 -2.97205167 -0.12451351
2.91594594 0.86950848 -0.97132051
0.46274446 3.99545735 -0.16753040
-3.52838453 0.98375801 6.79055309
-2.38945542 -2.73218497 6.40778675
1.48618928 -2.32604007 6.09957937
3.33580852 1.16392187 7.64938426
0.35340695 2.62908274 6.13108406
3 1 2 7
3 1 7 6
3 2 3 8
3 2 8 7
3 3 4 9
3 3 9 8
3 4 0 5
3 4 5 9
3 0 1 6
3 0 6 5
3 4 3 0
3 0 3 1
3 1 3 2
3 5 8 9
3 6 8 5
3 7 8 6
