ply
format ascii 1.0
comment VCGLIB generated
element vertex 12
property float x
property float y
property float z
element face 20
property list uchar int vertex_indices
end_header
14.00477662 2.99227106 0.60768715
7.39708156 -12.28370868 -1.00430087
-4.33258892 -11.28130081 -0.07969119
-15.00297807 3.15975061 2.90722960
-10.82748253 12.65213160 -0.60394545
8.33645946 14.15174307 1.85286853
16.17395964 -2.45046390 31.77455335
1.56443861 -16.63530478 28.70785904
-13.74389705 -9.43476614 28.69076668
-14.59254418 -3.80186610 22.73736419
-6.71472620 10.11937820 24.42281440
10.84917555 12.52421919 30.77919695
3 1 0 7
3 7 0 6
3 2 1 8
3 8 1 7
3 3 2 9
3 9 2 8
3 4 3 10
3 10 3 9
3 5 4 11
3 11 4 10
3 0 5 6
3 6 5 11
3 5 3 4
3 5 2 3
3 0 2 5
3 1 2 0
3 10 9 11
3 11 9 8
3 11 8 6
3 6 8 7
