ply
format ascii 1.0
comment VCGLIB generated
element vertex 12
property float x
property float y
property float z
element face 20
property list uchar int vertex_indices
end_header
5.71632345 -1.23992681 -1.12293609
2.60758463 -2.81433287 1.10271013
-4.54106636 -4.46949003 -2.39859559
-7.12626948 2.98712383 1.16643424
-3.30450950 5.01484787 0.35355571
4.58452394 6.18101703 -1.35113329
6.66386881 1.86321127 12.35936030
3.66674176 -7.64313420 13.91393979
-1.03578671 -4.90313347 11.63171193
-5.98368491 2.05301918 13.79683476
-3.47698631 5.87207530 12.54439129
2.42293537 5.38366237 15.55394600
3 1 0 7
3 7 0 6
3 2 1 8
3 8 1 7
3 3 2 9
3 9 2 8
3 4 3 10
3 10 3 9
3 5 4 11
3 11 4 10
3 0 5 6
3 6 5 11
3 5 3 4
3 5 2 3
3 0 2 5
3 1 2 0
3 10 9 11
3 11 9 8
3 11 8 6
3 6 8 7
