ply
format ascii 1.0
comment VCGLIB generated
element vertex 12
property float x
property float y
property float z
element face 20
property list uchar int vertex_indices
end_header
19.79260778 -1.09064209 1.64110144
11.81231929 -14.89120803 12.03431968
-14.19271799 -23.95787965 3.78156191
-23.14252499 -2.57522104 14.62167614
-5.08886117 23.52938225 0.83165072
15.23302444 24.36645853 0.29286789
27.12809903 8.60526333 50.24861504
10.66901593 -14.36611787 42.10366679
-10.43887328 -19.51450199 37.59790015
-30.26529455 4.01441945 43.50350183
-9.20749390 16.89054675 49.61818154
11.99794880 15.06014686 36.69698637
3 1 0 7
3 7 0 6
3 2 1 8
3 8 1 7
3 3 2 9
3 9 2 8
3 4 3 10
3 10 3 9
3 5 4 11
3 11 4 10
3 0 5 6
3 6 5 11
3 5 3 4
3 5 2 3
3 0 2 5
3 1 2 0
3 10 9 11
3 11 9 8
3 11 8 6
3 6 8 7
