ply
format ascii 1.0
comment VCGLIB generated
element vertex 10
property float x
property float y
property float z
element face 16
property list uchar int vertex_indices
end_header
-14.34379371 0.87538074 3.09203920
-0.46327672 -10.48317685 0.47524598
5.64069113 -9.42782381 -4.01525256
11.47485173 5.94018737 0.75151346
-4.05678227 7.88638810 -1.56794474
-10.66628404 1.99030224 30.51499054
-8.01641413 -11.78068918 27.43553533
7.77455736 -8.37601227 24.99865956
10.26193374 2.83812047 22.22254635
-1.10738756 14.56886070 27.17179868
3 1 2 7
3 1 7 6
3 2 3 8
3 2 8 7
3 3 4 9
3 3 9 8
3 4 0 5
3 4 5 9
3 0 1 6
3 0 6 5
3 4 3 0
3 0 3 1
3 1 3 2
3 5 8 9
3 6 8 5
3 7 8 6
