ply
format ascii 1.0
comment VCGLIB generated
element vertex 8
property float x
property float y
property float z
element face 12
property list uchar int vertex_indices
end_header
-22.75077495 -21.77905155 16.07829291
11.03398192 -23.26613374 -6.38551772
29.27477891 19.39683148 0.38355686
-15.99392361 18.80452623 -1.98507688
-16.24334578 -21.17598191 69.77208454
25.19248132 -25.83349011 58.12135533
19.94911603 15.48337048 61.41923877
-9.33876572 20.54015779 53.67458425
3 0 1 5
3 0 5 4
3 1 2 6
3 1 6 5
3 2 3 7
3 2 7 6
3 3 0 4
3 3 4 7
3 2 1 0
3 2 0 3
3 6 4 5
3 6 7 4
