ply
format ascii 1.0
comment VCGLIB generated
element vertex 12
property float x
property float y
property float z
element face 20
property list uchar int vertex_indices
end_header
11.53184948 -5.08264097 0.70780369
4.46423328 -10.55124145 1.58384826
-6.28016425 -12.02301285 -3.46245150
-14.11430656 -1.20497515 -3.01415514
-8.52657389 10.54210826 0.34512624
8.11900258 8.93674709 4.20550241
14.84493646 1.25374381 25.55259785
4.55920631 -6.26399019 23.10002377
-3.65253752 -9.53593718 24.31787164
-9.79303065 -0.10682391 24.26254628
-1.45906624 7.65820352 26.97397704
7.96969046 9.64114217 24.16208634
3 1 0 7
3 7 0 6
3 2 1 8
3 8 1 7
3 3 2 9
3 9 2 8
3 4 3 10
3 10 3 9
3 5 4 11
3 11 4 10
3 0 5 6
3 6 5 11
3 5 3 4
3 5 2 3
3 0 2 5
3 1 2 0
3 10 9 11
3 11 9 8
3 11 8 6
3 6 8 7
