ply
format ascii 1.0
comment VCGLIB generated
element vertex 10
property float x
property float y
property float z
element face 16
property list uchar int vertex_indices
end_header
-8.53947696 4.56498432 -1.55099361
-7.13682449 -14.51112787 -0.31047938
11.98708447 -10.81759614 0.97056798
8.33367143 2.79105630 -0.92634061
-1.86118976 12.52895697 2.82802072
-12.66382444 6.58299105 27.43603072
-10.26243949 -9.58195246 22.47563649
3.99930106 -9.86921522 25.08722223
11.81525379 -1.57953685 27.09240885
-2.08673513 14.66540928 28.70169337
3 1 2 7
3 1 7 6
3 2 3 8
3 2 8 7
3 3 4 9
3 3 9 8
3 4 0 5
3 4 5 9
3 0 1 6
3 0 6 5
3 4 3 0
3 0 3 1
3 1 3 2
3 5 8 9
3 6 8 5
3 7 8 6
