ply
format ascii 1.0
comment VCGLIB generated
element vertex 10
property float x
property float y
property float z
element face 16
property list uchar int vertex_indices
end_header
-13.61843971 7.84439538 2.27806417
-5.55937945 -14.80636949 -0.54993871
12.02958053 -13.03036255 2.02615825
9.55706184 5.81690221 0.35185480
3.81700216 23.00083795 -10.26417229
-16.90858677 8.17216668 42.52521981
-13.69025734 -12.62784115 32.58239301
7.42282477 -12.07256286 35.11107671
15.12841152 7.22338187 36.81656583
-1.25859649 23.50997455 34.36411321
3 1 2 7
3 1 7 6
3 2 3 8
3 2 8 7
3 3 4 9
3 3 9 8
3 4 0 5
3 4 5 9
3 0 1 6
3 0 6 5
3 4 3 0
3 0 3 1
3 1 3 2
3 5 8 9
3 6 8 5
3 7 8 6
