ply
format ascii 1.0
comment VCGLIB generated
element vertex 8
property float x
property float y
property float z
element face 12
property list uchar int vertex_indices
end_header
-2.59399608 -4.68819997 -0.25208747
5.85253807 -2.76529194 0.94320901
2.47604859 3.97556607 -0.58611810
-4.73820035 5.85993933 -0.95681932
-5.65503090 -4.68870297 12.07962932
5.38773718 -5.43319217 16.05241182
4.51395923 6.26704720 13.76871391
-4.91109185 6.24172765 13.58378772
3 0 1 5
3 0 5 4
3 1 2 6
3 1 6 5
3 2 3 7
3 2 7 6
3 3 0 4
3 3 4 7
3 2 1 0
3 2 0 3
3 6 4 5
3 6 7 4
