ply
format ascii 1.0
comment VCGLIB generated
element vertex 8
property float x
property float y
property float z
element face 12
property list uchar int vertex_indices
end_header
-13.27069907 -30.84847884 0.13975015
16.91521095 -17.87632625 3.15412131
12.71406620 14.07144554 5.26517310
-15.88507879 28.71935198 -6.36345240
-15.71425865 -8.14497054 65.33195107
24.66097965 -22.52191704 45.23325769
17.78552020 17.05557882 44.36468992
-25.10049703 21.66266142 57.33567421
3 0 1 5
3 0 5 4
3 1 2 6
3 1 6 5
3 2 3 7
3 2 7 6
3 3 0 4
3 3 4 7
3 2 1 0
3 2 0 3
3 6 4 5
3 6 7 4
