ply
format ascii 1.0
comment VCGLIB generated
element vertex 12
property float x
property float y
property float z
element face 20
property list uchar int vertex_indices
end_header
35.36229753 4.01638955 -1.68092835
6.49786617 -25.58107844 -5.61345036
-14.83659927 -16.32096794 -1.16290756
-12.59889804 -0.67021822 -8.10790463
-19.69944381 24.59885075 0.79094516
16.50522256 15.66007816 -7.05488705
22.49888849 -2.08273381 52.56048656
10.67026428 -20.76740995 55.61494182
-7.75345878 -21.17998558 50.98780288
-20.21425408 -6.37933506 55.86998817
-1.31643685 35.55660627 63.92216105
15.54325089 29.94364710 51.43649237
3 1 0 7
3 7 0 6
3 2 1 8
3 8 1 7
3 3 2 9
3 9 2 8
3 4 3 10
3 10 3 9
3 5 4 11
3 11 4 10
3 0 5 6
3 6 5 11
3 5 3 4
3 5 2 3
3 0 2 5
3 1 2 0
3 10 9 11
3 11 9 8
3 11 8 6
3 6 8 7
