ply
format ascii 1.0
comment VCGLIB generated
element vertex 12
property float x
property float y
property float z
element face 20
property list uchar int vertex_indices
end_header
6.43896285 0.68194043 -0.10673097
4.35498864 -6.25027066 -2.66900090
-5.02131910 -7.85809515 2.13661591
-4.18371883 -1.46013672 -0.74582290
-5.03372382 4.91607938 2.60055921
2.57289543 8.15736706 0.30174593
8.16937957 1.01375760 14.88735619
4.09785495 -7.81622296 12.47329324
-3.93692332 -4.36608794 15.98612437
-4.11090692 0.71922397 15.50985441
-3.51145574 5.51226898 12.08674270
4.20928169 5.65433388 13.30104258
3 1 0 7
3 7 0 6
3 2 1 8
3 8 1 7
3 3 2 9
3 9 2 8
3 4 3 10
3 10 3 9
3 5 4 11
3 11 4 10
3 0 5 6
3 6 5 11
3 5 3 4
3 5 2 3
3 0 2 5
3 1 2 0
3 10 9 11
3 11 9 8
3 11 8 6
3 6 8 7
