ply
format ascii 1.0
comment VCGLIB generated
element vertex 12
property float x
property float y
property float z
element face 20
property list uchar int vertex_indices
end_header
11.50764347 -2.24360302 1.97631439
6.44366970 -6.69746820 -1.99519911
-4.89462137 -6.22633083 2.84626988
-11.88223470 -0.27418434 -0.63140314
-4.77927352 6.14017980 4.09172039
4.15886504 7.06376493 1.58731733
6.33938426 -1.64673094 20.51175677
5.58726143 -4.83036615 20.91308809
-1.94791738 -10.15770685 17.77807950
-11.04403792 -3.27798575 19.09393108
-2.38094308 10.66239558 20.28400351
3.02521392 9.23935993 23.34270960
3 1 0 7
3 7 0 6
3 2 1 8
3 8 1 7
3 3 2 9
3 9 2 8
3 4 3 10
3 10 3 9
3 5 4 11
3 11 4 10
3 0 5 6
3 6 5 11
3 5 3 4
3 5 2 3
3 0 2 5
3 1 2 0
3 10 9 11
3 11 9 8
3 11 8 6
3 6 8 7
