ply
format ascii 1.0
comment VCGLIB generated
element vertex 8
property float x
property float y
property float z
element face 12
property list uchar int vertex_indices
end_header
-9.15042872 -10.06660296 5.62658947
10.17394164 -23.57241657 -1.36390779
19.10438926 27.25453547 2.61021473
-22.33277088 21.52925426 2.09430774
-17.62723838 -20.39983243 57.34350660
20.47598653 -20.70484660 53.23934312
21.72008511 15.70962299 55.84779073
-26.46152104 14.52125287 59.79650077
3 0 1 5
3 0 5 4
3 1 2 6
3 1 6 5
3 2 3 7
3 2 7 6
3 3 0 4
3 3 4 7
3 2 1 0
3 2 0 3
3 6 4 5
3 6 7 4
