ply
format ascii 1.0
comment VCGLIB generated
element vertex 10
property float x
property float y
property float z
element face 16
property list uchar int vertex_indices
end_header
-10.08849395 9.41011771 5.14495982
-11.03677122 -13.68704800 2.90262194
10.73000322 -11.13160747 -6.09437399
17.76213772 1.09201663 2.39426821
-4.00228570 19.59320393 -2.81700688
-15.24642519 2.43469979 32.03636082
-15.41332211 -10.67060088 37.21728293
7.23679169 -15.53623455 34.43062599
11.07844986 -1.32183391 30.36602464
2.02922925 18.74898782 36.14368990
3 1 2 7
3 1 7 6
3 2 3 8
3 2 8 7
3 3 4 9
3 3 9 8
3 4 0 5
3 4 5 9
3 0 1 6
3 0 6 5
3 4 3 0
3 0 3 1
3 1 3 2
3 5 8 9
3 6 8 5
3 7 8 6
