ply
format ascii 1.0
comment VCGLIB generated
element vertex 10
property float x
property float y
property float z
element face 16
property list uchar int vertex_indices
end_header
-18.15406538 11.82221769 4.43821885
-29.30232002 -28.24706537 -0.27367526
18.67877134 -25.56608165 -2.48349434
36.51511495 18.78618871 1.81904624
15.34012787 27.89320559 2.30773499
-26.08291148 11.57599821 50.18387957
-16.40612354 -28.18687946 58.56110269
14.96268506 -22.51453646 55.35614527
29.28374955 7.89068083 62.06839460
1.18201648 26.98634485 63.87145739
3 1 2 7
3 1 7 6
3 2 3 8
3 2 8 7
3 3 4 9
3 3 9 8
3 4 0 5
3 4 5 9
3 0 1 6
3 0 6 5
3 4 3 0
3 0 3 1
3 1 3 2
3 5 8 9
3 6 8 5
3 7 8 6
