ply
format ascii 1.0
comment VCGLIB generated
element vertex 10
property float x
property float y
property float z
element face 16
property list uchar int vertex_indices
end_header
-22.81829300 4.39596972 1.23380635
-7.91488866 -23.96674583 0.18270846
0.71053108 -21.64550017 -0.61796906
14.91044833 20.28590520 1.78109248
1.10378045 26.78331237 -1.22672348
-22.43605496 -0.05896877 48.46622265
-9.98501467 -15.48299299 48.12351888
15.65725769 -17.83575480 38.93246801
14.67049391 -1.11966479 41.51318806
-10.85618588 19.41577962 51.14346574
3 1 2 7
3 1 7 6
3 2 3 8
3 2 8 7
3 3 4 9
3 3 9 8
3 4 0 5
3 4 5 9
3 0 1 6
3 0 6 5
3 4 3 0
3 0 3 1
3 1 3 2
3 5 8 9
3 6 8 5
3 7 8 6
