ply
format ascii 1.0
comment VCGLIB generated
element vertex 12
property float x
property float y
property float z
element face 20
property list uchar int vertex_indices
end_header
12.25695103 0.31012080 -4.11654309
8.66733562 -15.27099349 0.89429721
-10.82669640 -15.89399648 -1.42710735
-20.25552336 -1.84548956 4.75278861
-6.86866383 14.76819491 -1.53950014
2.61442410 15.89356347 -0.64004757
8.12520418 -5.82271522 33.91604680
5.51785552 -15.71993173 33.57651437
-9.32281139 -6.90686357 34.95129387
-11.46195542 5.66073569 41.00939800
-10.09074515 18.06400576 31.92430237
9.11742261 14.63377880 27.87139729
3 1 0 7
3 7 0 6
3 2 1 8
3 8 1 7
3 3 2 9
3 9 2 8
3 4 3 10
3 10 3 9
3 5 4 11
3 11 4 10
3 0 5 6
3 6 5 11
3 5 3 4
3 5 2 3
3 0 2 5
3 1 2 0
3 10 9 11
3 11 9 8
3 11 8 6
3 6 8 7
