ply
format ascii 1.0
comment VCGLIB generated
element vertex 8
property float x
property float y
property float z
element face 12
property list uchar int vertex_indices
end_header
-6.42189781 -7.35511547 -0.69601038
4.54823635 -5.08092503 -1.86995227
5.84513473 6.13850961 -1.62077966
-4.38329046 6.47153121 3.09637489
-6.28987790 -6.00923051 16.19286821
8.29162464 -2.71858059 15.92921961
6.35402426 7.51095911 17.82611441
-6.22963317 5.49258887 17.38096194
3 0 1 5
3 0 5 4
3 1 2 6
3 1 6 5
3 2 3 7
3 2 7 6
3 3 0 4
3 3 4 7
3 2 1 0
3 2 0 3
3 6 4 5
3 6 7 4
