ply
format ascii 1.0
comment VCGLIB generated
element vertex 12
property float x
property float y
property float z
element face 20
property list uchar int vertex_indices
end_header
23.95933108 -2.72472086 8.67660523
7.75147207 -25.70281328 2.41466194
-15.36064094 -17.92612688 5.91900783
-22.42535556 1.56447533 0.42826564
-20.30766323 32.74760495 0.76090679
2.76217392 21.12650554 -0.73984841
28.76230448 -2.38076089 51.17705765
8.64747442 -26.11158983 51.93419963
-10.04224919 -23.85240959 40.44559376
-35.12339329 1.53768910 52.13523967
-1.49128687 26.58020966 57.24219013
14.91752910 22.11356798 59.39506089
3 1 0 7
3 7 0 6
3 2 1 8
3 8 1 7
3 3 2 9
3 9 2 8
3 4 3 10
3 10 3 9
3 5 4 11
3 11 4 10
3 0 5 6
3 6 5 11
3 5 3 4
3 5 2 3
3 0 2 5
3 1 2 0
3 10 9 11
3 11 9 8
3 11 8 6
3 6 8 7
