ply
format ascii 1.0
comment VCGLIB generated
element vertex 10
property float x
property float y
property float z
element face 16
property list uchar int vertex_indices
end_header
-22.91232504 9.72316895 2.51061223
-13.52808712 -14.48982394 1.86476684
18.28527170 -23.42776268 0.29578184
19.37204111 11.06954430 -12.42182970
2.81769528 26.93554467 -1.37227858
-21.46680074 13.59395022 50.12811932
-17.87531282 -29.20409368 49.65048693
3.63906710 -27.43765414 45.60595332
21.09758686 7.04517091 53.92118145
-2.70226994 23.75762544 45.07724143
3 1 2 7
3 1 7 6
3 2 3 8
3 2 8 7
3 3 4 9
3 3 9 8
3 4 0 5
3 4 5 9
3 0 1 6
3 0 6 5
3 4 3 0
3 0 3 1
3 1 3 2
3 5 8 9
3 6 8 5
3 7 8 6
