ply
format ascii 1.0
comment VCGLIB generated
element vertex 12
property float x
property float y
property float z
element face 20
property list uchar int vertex_indices
end_header
39.08872958 -6.93230372 -9.43862920
12.69088595 -16.00856764 -0.69663091
-7.65107254 -27.77723970 4.78551549
-19.40797207 0.53761530 7.35383239
-5.27427059 18.19879367 -2.67178828
8.00720893 32.50779793 4.88202426
18.49095420 4.07700617 52.07715323
16.06969281 -23.88854126 52.32859138
-15.45170217 -24.89496650 46.37678724
-24.71742261 1.69341330 55.10638138
-20.24960483 23.70935355 56.25266679
11.06366053 20.79958162 56.72399605
3 1 0 7
3 7 0 6
3 2 1 8
3 8 1 7
3 3 2 9
3 9 2 8
3 4 3 10
3 10 3 9
3 5 4 11
3 11 4 10
3 0 5 6
3 6 5 11
3 5 3 4
3 5 2 3
3 0 2 5
3 1 2 0
3 10 9 11
3 11 9 8
3 11 8 6
3 6 8 7
