ply
format ascii 1.0
comment VCGLIB generated
element vertex 12
property float x
property float y
property float z
element face 20
property list uchar int vertex_indices
end_header
19.42507255 2.08908715 -8.74404589
21.42259860 -23.20215695 1.02799518
-19.73057748 -16.19881967 -8.83658517
-29.20097855 3.59790678 7.18826301
-16.23692854 25.81405318 -0.70243716
9.43782093 29.27303788 1.20785140
39.96411245 3.43366622 59.93516852
16.24009830 -22.22325229 57.42442099
-18.43337129 -24.64286530 58.57299476
-30.42506848 -8.11977339 51.10613727
-10.79939715 27.75537041 57.10325202
8.57101076 22.08527026 57.99534660
3 1 0 7
3 7 0 6
3 2 1 8
3 8 1 7
3 3 2 9
3 9 2 8
3 4 3 10
3 10 3 9
3 5 4 11
3 11 4 10
3 0 5 6
3 6 5 11
3 5 3 4
3 5 2 3
3 0 2 5
3 1 2 0
3 10 9 11
3 11 9 8
3 11 8 6
3 6 8 7
