ply
format ascii 1.0
comment VCGLIB generated
element vertex 8
property float x
property float y
property float z
element face 12
property list uchar int vertex_indices
end_header
-14.16548453 -8.29119908 6.55493588
11.52288014 -10.17784050 -4.60421526
7.86597020 14.24514508 4.89388320
-14.59523366 6.70037001 -4.59261623
-9.94350321 -12.73959704 26.22506747
12.35529841 -11.89272207 30.50359934
9.13499853 10.38703571 28.00893686
-10.49287131 10.98974051 31.96732139
3 0 1 5
3 0 5 4
3 1 2 6
3 1 6 5
3 2 3 7
3 2 7 6
3 3 0 4
3 3 4 7
3 2 1 0
3 2 0 3
3 6 4 5
3 6 7 4
