ply
format ascii 1.0
comment VCGLIB generated
element vertex 8
property float x
property float y
property float z
element face 12
property list uchar int vertex_indices
end_header
-4.56348798 -3.56717739 0.70844911
2.77196182 -3.02104059 0.94830313
2.32143769 3.97218880 -1.65119438
-0.60063039 2.39907327 0.17531188
-2.35308608 -4.22954828 7.84162831
2.53554391 -1.58338522 8.19796395
2.69282071 2.58706361 8.01140535
-3.06596041 2.86133222 6.42625092
3 0 1 5
3 0 5 4
3 1 2 6
3 1 6 5
3 2 3 7
3 2 7 6
3 3 0 4
3 3 4 7
3 2 1 0
3 2 0 3
3 6 4 5
3 6 7 4
