ply
format ascii 1.0
comment VCGLIB generated
element vertex 10
property float x
property float y
property float z
element face 16
property list uchar int vertex_indices
end_header
-16.19699074 2.58318843 -6.34883805
-8.29748701 -16.19168563 1.28456605
7.50513947 -17.04392767 6.13031701
16.62541357 6.87442711 0.94852017
6.09654018 22.71521954 -0.49989605
-20.58886011 -3.60023524 36.19333551
-10.99798740 -16.99551250 41.32201956
10.81977525 -10.22416691 40.65072354
18.40480862 5.61910937 40.68295996
7.20452612 21.35387040 38.82518180
3 1 2 7
3 1 7 6
3 2 3 8
3 2 8 7
3 3 4 9
3 3 9 8
3 4 0 5
3 4 5 9
3 0 1 6
3 0 6 5
3 4 3 0
3 0 3 1
3 1 3 2
3 5 8 9
3 6 8 5
3 7 8 6
