ply
format ascii 1.0
comment VCGLIB generated
element vertex 10
property float x
property float y
property float z
element face 16
property list uchar int vertex_indices
end_header
-17.21294071 7.69434083 2.05759214
-15.29171453 -19.68565588 5.98742773
11.75413624 -21.76233593 5.69041377
23.88058751 -1.17307908 2.65681387
1.09891309 17.26914728 -4.14916037
-17.67662804 9.08330586 38.80077037
-3.18994703 -20.05887808 46.93862060
12.38047213 -18.97205935 39.53991246
20.53380227 0.14815768 45.74377110
2.88220360 11.17249051 41.87795802
3 1 2 7
3 1 7 6
3 2 3 8
3 2 8 7
3 3 4 9
3 3 9 8
3 4 0 5
3 4 5 9
3 0 1 6
3 0 6 5
3 4 3 0
3 0 3 1
3 1 3 2
3 5 8 9
3 6 8 5
3 7 8 6
