ply
format ascii 1.0
comment VCGLIB generated
element vertex 8
property float x
property float y
property float z
element face 12
property list uchar int vertex_indices
end_header
-10.85617885 -11.14929038 -8.33300266
10.20401586 -15.16562462 2.02859480
7.24211679 10.45925480 1.90135001
-14.98828152 6.20191551 1.11021914
-7.61438074 -13.41424662 32.78086280
9.64542889 -11.30690692 33.50060425
10.07795368 7.56302498 32.85913303
-11.38988198 16.95675343 36.28920594
3 0 1 5
3 0 5 4
3 1 2 6
3 1 6 5
3 2 3 7
3 2 7 6
3 3 0 4
3 3 4 7
3 2 1 0
3 2 0 3
3 6 4 5
3 6 7 4
