ply
format ascii 1.0
comment VCGLIB generated
element vertex 10
property float x
property float y
property float z
element face 16
property list uchar int vertex_indices
end_header
-30.73780868 8.59818838 1.01477654
-8.06314810 -20.07552810 -5.06939380
6.66488506 -20.15706345 -10.33196293
30.52061379 9.51147338 -9.41305955
-9.74402571 20.83871046 5.98318827
-24.47693773 10.46133119 47.65474478
-16.40253307 -26.56712924 43.88139888
7.31104287 -19.42461276 43.50442015
17.74002511 5.83122266 42.75911136
-6.76413433 22.48985660 50.45987406
3 1 2 7
3 1 7 6
3 2 3 8
3 2 8 7
3 3 4 9
3 3 9 8
3 4 0 5
3 4 5 9
3 0 1 6
3 0 6 5
3 4 3 0
3 0 3 1
3 1 3 2
3 5 8 9
3 6 8 5
3 7 8 6
