ply
format ascii 1.0
comment VCGLIB generated
element vertex 8
property float x
property float y
property float z
element face 12
property list uchar int vertex_indices
end_header
-8.21672913 -9.15283879 -1.35417518
5.73350363 -11.54008335 3.30433711
11.70721852 8.65299316 -0.47884877
-7.64811935 8.48072621 -0.48759174
-7.68246412 -7.83396324 26.91991188
7.54340117 -2.94358955 26.54811892
7.59021062 8.29358710 26.54147396
-4.80607797 5.91686338 23.81742749
3 0 1 5
3 0 5 4
3 1 2 6
3 1 6 5
3 2 3 7
3 2 7 6
3 3 0 4
3 3 4 7
3 2 1 0
3 2 0 3
3 6 4 5
3 6 7 4
