ply
format ascii 1.0
comment VCGLIB generated
element vertex 12
property float x
property float y
property float z
element face 20
property list uchar int vertex_indices
end_header
15.35885853 -1.31391177 6.46479798
7.70462321 -20.22573143 -5.30971877
-2.79113696 -17.11265089 0.88295964
-20.12423287 1.24250234 2.92286356
-5.57281814 17.59744312 -3.75263499
9.97921147 23.53493154 -0.45974111
16.67914307 1.90912477 41.83150902
12.54300921 -16.83133902 32.59661188
-15.55957175 -13.46416463 38.43519695
-10.55005454 0.86661540 43.00495413
-10.77607913 21.97161866 38.43142372
5.97511432 18.26671642 31.18587815
3 1 0 7
3 7 0 6
3 2 1 8
3 8 1 7
3 3 2 9
3 9 2 8
3 4 3 10
3 10 3 9
3 5 4 11
3 11 4 10
3 0 5 6
3 6 5 11
3 5 3 4
3 5 2 3
3 0 2 5
3 1 2 0
3 10 9 11
3 11 9 8
3 11 8 6
3 6 8 7
