ply
format ascii 1.0
comment VCGLIB generated
element vertex 8
property float x
property float y
property float z
element face 12
property list uchar int vertex_indices
end_header
-14.95059306 -19.14112458 -13.03262142
10.29790197 -23.13078300 2.20358816
20.35432748 10.52768145 7.93259150
-18.28183189 20.10697125 5.25434746
-14.14309528 -16.70699576 38.70412378
11.68250147 -26.79633535 50.77548848
16.11414180 17.32553094 49.31877187
-10.45814606 18.97356706 49.63655148
3 0 1 5
3 0 5 4
3 1 2 6
3 1 6 5
3 2 3 7
3 2 7 6
3 3 0 4
3 3 4 7
3 2 1 0
3 2 0 3
3 6 4 5
3 6 7 4
