ply
format ascii 1.0
comment VCGLIB generated
element vertex 12
property float x
property float y
property float z
element face 20
property list uchar int vertex_indices
end_header
28.87422201 -5.54737650 -2.92917263
4.43933294 -23.90990053 1.34054758
-19.73105705 -27.38495558 -0.06713947
-24.07054781 -7.36691807 0.75920997
-13.12077171 27.97328589 -0.53474448
14.75942605 33.30617583 0.19608519
34.66984724 -3.56548668 54.34025821
7.20189124 -21.71416229 52.98331838
-8.89671193 -24.81111629 52.09885344
-24.22947789 0.95140333 50.39776136
-9.96823877 22.03337258 51.85802386
24.60905255 17.71757531 61.53666815
3 1 0 7
3 7 0 6
3 2 1 8
3 8 1 7
3 3 2 9
3 9 2 8
3 4 3 10
3 10 3 9
3 5 4 11
3 11 4 10
3 0 5 6
3 6 5 11
3 5 3 4
3 5 2 3
3 0 2 5
3 1 2 0
3 10 9 11
3 11 9 8
3 11 8 6
3 6 8 7
