ply
format ascii 1.0
comment VCGLIB generated
element vertex 10
property float x
property float y
property float z
element face 16
property list uchar int vertex_indices
end_header
-12.89231404 4.47748795 -1.74403133
-6.67637735 -19.30234274 0.54583594
11.29640101 -10.66622217 2.16223249
17.97285946 6.34826969 -0.81507738
3.69667023 22.44167482 3.79095499
-12.64086765 -0.45019684 27.32336030
-11.09877359 -7.24982293 32.32435517
5.42152695 -13.04959147 29.58335865
19.03036645 8.14779024 29.85272695
-2.23322792 14.04446071 35.33735206
3 1 2 7
3 1 7 6
3 2 3 8
3 2 8 7
3 3 4 9
3 3 9 8
3 4 0 5
3 4 5 9
3 0 1 6
3 0 6 5
3 4 3 0
3 0 3 1
3 1 3 2
3 5 8 9
3 6 8 5
3 7 8 6
