ply
format ascii 1.0
comment VCGLIB generated
element vertex 10
property float x
property float y
property float z
element face 16
property list uchar int vertex_indices
end_header
-21.19071619 7.78772169 -2.98056375
-7.91729928 -16.45536526 -3.99236939
12.38300789 -18.93742627 -1.72587159
20.21618929 4.99387240 -3.32168468
2.53381897 13.02028988 5.52719910
-22.40110140 6.54388796 41.50232115
-17.08601134 -20.22631889 45.49943615
15.67678123 -14.73748212 44.14342184
14.69319570 8.67881333 46.35229067
2.89525527 24.71885368 44.99999765
3 1 2 7
3 1 7 6
3 2 3 8
3 2 8 7
3 3 4 9
3 3 9 8
3 4 0 5
3 4 5 9
3 0 1 6
3 0 6 5
3 4 3 0
3 0 3 1
3 1 3 2
3 5 8 9
3 6 8 5
3 7 8 6
