ply
format ascii 1.0
comment VCGLIB generated
element vertex 8
property float x
property float y
property float z
element face 12
property list uchar int vertex_indices
end_header
-5.00141223 -6.33654518 0.55082938
4.16709187 -5.82039933 -0.16875166
5.16309380 5.86498134 1.20042129
-6.31577397 4.95120756 1.22446971
-5.66888693 -4.18076667 12.23776026
3.91686130 -4.22514925 10.60123616
5.00871001 3.89268723 12.48373757
-1.29785500 2.28033950 11.98748943
3 0 1 5
3 0 5 4
3 1 2 6
3 1 6 5
3 2 3 7
3 2 7 6
3 3 0 4
3 3 4 7
3 2 1 0
3 2 0 3
3 6 4 5
3 6 7 4
