ply
format ascii 1.0
comment VCGLIB generated
element vertex 12
property float x
property float y
property float z
element face 20
property list uchar int vertex_indices
end_header
13.78074351 -1.25930696 3.66210256
12.30163300 -9.46505864 3.02227921
-9.94911252 -11.60478733 3.38938235
-11.07485376 0.87747742 -0.92478284
-4.44251498 12.03419183 -1.66648048
11.07441385 19.65931054 3.24398191
15.01551543 0.45268764 23.56226295
7.22243604 -12.12427420 29.31762439
-6.49168105 -13.26875385 29.09367962
-14.01732137 4.36010773 26.19129885
-7.44905591 12.58722545 28.31721115
8.00418206 10.35357492 22.68802897
3 1 0 7
3 7 0 6
3 2 1 8
3 8 1 7
3 3 2 9
3 9 2 8
3 4 3 10
3 10 3 9
3 5 4 11
3 11 4 10
3 0 5 6
3 6 5 11
3 5 3 4
3 5 2 3
3 0 2 5
3 1 2 0
3 10 9 11
3 11 9 8
3 11 8 6
3 6 8 7
