ply
format ascii 1.0
comment VCGLIB generated
element vertex 8
property float x
property float y
property float z
element face 12
property list uchar int vertex_indices
end_header
-1.68115442 -3.46366964 -0.04002894
4.81044954 -5.35941607 0.08281420
4.56320413 5.12267635 0.11242497
-4.56427707 4.89256186 -1.74320086
-4.36040389 -3.75800876 10.64990745
4.23045973 -3.84419996 12.35181953
1.98835892 4.72970759 11.83941078
-4.89343315 5.28035913 10.66694064
3 0 1 5
3 0 5 4
3 1 2 6
3 1 6 5
3 2 3 7
3 2 7 6
3 3 0 4
3 3 4 7
3 2 1 0
3 2 0 3
3 6 4 5
3 6 7 4
