ply
format ascii 1.0
comment VCGLIB generated
element vertex 10
property float x
property float y
property float z
element face 16
property list uchar int vertex_indices
end_header
-12.56142317 3.80535506 -3.58170728
-6.33648287 -7.54827837 1.40014820
4.02086139 -10.11506097 -1.06153801
12.98052272 3.47603770 0.98369960
-2.51547397 10.57297726 0.32404340
-9.00357652 2.86093917 21.83073063
-7.75232647 -5.46090755 22.90364162
8.44850088 -7.40213108 20.11366585
7.61091675 2.51711072 18.52204510
1.42918142 8.99782504 22.38337505
3 1 2 7
3 1 7 6
3 2 3 8
3 2 8 7
3 3 4 9
3 3 9 8
3 4 0 5
3 4 5 9
3 0 1 6
3 0 6 5
3 4 3 0
3 0 3 1
3 1 3 2
3 5 8 9
3 6 8 5
3 7 8 6
