ply
format ascii 1.0
comment VCGLIB generated
element vertex 10
property float x
property float y
property float z
element face 16
property list uchar int vertex_indices
end_header
-2.74743119 0.87827925 0.59790772
-0.49801637 -2.17092094 -0.15066072
2.08125153 -2.43838866 -0.18381987
4.35275462 0.95514973 -0.40696904
-0.53403229 3.15003477 -0.56579866
-2.84356414 0.81106483 6.65600080
-2.48232218 -3.07336751 5.76339531
2.43433792 -1.59485312 7.04969854
3.22605235 1.19616910 5.47551189
1.41521884 3.65793003 8.00307162
3 1 2 7
3 1 7 6
3 2 3 8
3 2 8 7
3 3 4 9
3 3 9 8
3 4 0 5
3 4 5 9
3 0 1 6
3 0 6 5
3 4 3 0
3 0 3 1
3 1 3 2
3 5 8 9
3 6 8 5
3 7 8 6
