ply
format ascii 1.0
comment VCGLIB generated
element vertex 8
property float x
property float y
property float z
element face 12
property list uchar int vertex_indices
end_header
-12.55267164 -17.13118895 0.03756144
19.44396961 -12.48687988 3.78462324
21.44447908 24.15163289 0.72612444
-20.51596762 21.05504068 -6.10168266
-20.13323043 -15.90868733 46.16795585
17.51674194 -14.90770012 44.96337007
14.18005781 8.39746215 47.80348056
-6.06511230 10.18022560 45.63273628
3 0 1 5
3 0 5 4
3 1 2 6
3 1 6 5
3 2 3 7
3 2 7 6
3 3 0 4
3 3 4 7
3 2 1 0
3 2 0 3
3 6 4 5
3 6 7 4
