ply
format ascii 1.0
comment VCGLIB generated
element vertex 12
property float x
property float y
property float z
element face 20
property list uchar int vertex_indices
end_header
28.45046102 -7.72285246 -0.58982503
3.58587268 -27.41148198 7.01457827
-9.62557715 -20.01672881 5.98608015
-30.02894171 6.00604303 -1.99053071
-18.47131785 21.36638203 1.41245379
14.82827474 30.79530535 9.64344442
22.57598958 1.33166412 61.56101689
14.60022226 -29.85704035 59.88886688
-16.54006087 -19.43619413 60.66581075
-30.81075849 7.75712651 57.44470190
-14.04067091 26.01377615 53.79326508
12.80567862 39.16124340 65.17659984
3 1 0 7
3 7 0 6
3 2 1 8
3 8 1 7
3 3 2 9
3 9 2 8
3 4 3 10
3 10 3 9
3 5 4 11
3 11 4 10
3 0 5 6
3 6 5 11
3 5 3 4
3 5 2 3
3 0 2 5
3 1 2 0
3 10 9 11
3 11 9 8
3 11 8 6
3 6 8 7
