ply
format ascii 1.0
comment VCGLIB generated
element vertex 8
property float x
property float y
property float z
element face 12
property list uchar int vertex_indices
end_header
-6.24185986 -4.81929389 0.56630060
5.87241249 -6.46663141 1.18508422
5.40512417 5.65491823 -0.48868084
-4.92327426 8.56630854 2.20483335
-4.55273377 -4.36724912 16.15011809
4.38409878 -4.57733076 15.16771863
8.51584016 5.51770172 14.13777805
-4.41622518 5.90472089 12.45789880
3 0 1 5
3 0 5 4
3 1 2 6
3 1 6 5
3 2 3 7
3 2 7 6
3 3 0 4
3 3 4 7
3 2 1 0
3 2 0 3
3 6 4 5
3 6 7 4
