ply
format ascii 1.0
comment VCGLIB generated
element vertex 8
property float x
property float y
property float z
element face 12
property list uchar int vertex_indices
end_header
-4.46947862 -4.56591083 2.35058747
7.34746475 -4.09815735 1.15335962
3.36269933 8.34295125 1.16432973
-4.87008330 7.69415855 2.05651964
-7.40111098 -5.34071866 14.42283366
5.75524395 -3.68758097 16.28969835
5.90267359 4.98932289 16.55557933
-4.30547208 3.46539065 15.68163456
3 0 1 5
3 0 5 4
3 1 2 6
3 1 6 5
3 2 3 7
3 2 7 6
3 3 0 4
3 3 4 7
3 2 1 0
3 2 0 3
3 6 4 5
3 6 7 4
