ply
format ascii 1.0
comment VCGLIB generated
element vertex 8
property float x
property float y
property float z
element face 12
property list uchar int vertex_indices
end_header
-21.16661127 -15.05094013 -6.80696154
15.46523135 -14.62091351 -0.31359303
21.22814396 18.95012704 4.05630926
-20.62688849 14.14562044 0.87760072
-19.36083226 -18.25773820 54.29241492
23.41669290 -18.17526378 57.46030047
23.11721880 17.09838200 51.39227201
-22.29292737 27.71286298 49.46992222
3 0 1 5
3 0 5 4
3 1 2 6
3 1 6 5
3 2 3 7
3 2 7 6
3 3 0 4
3 3 4 7
3 2 1 0
3 2 0 3
3 6 4 5
3 6 7 4
