ply
format ascii 1.0
comment VCGLIB generated
element vertex 12
property float x
property float y
property float z
element face 20
property list uchar int vertex_indices
end_header
7.26789295 -5.84260058 -0.93930918
12.54470345 -7.70452859 -7.96965677
-10.84052177 -8.10637122 -0.08703957
-21.83853303 3.54533181 3.91670993
-10.65082718 21.97387194 -4.90204133
10.96092278 11.50229238 -4.81022525
18.22066172 -5.67919642 43.50289711
7.43733191 -14.20405835 38.49082956
-14.11112268 -11.33694311 43.73708676
-15.27681166 -2.17340596 36.99016284
-7.15553279 15.67650406 46.64567659
5.93923218 15.57823542 43.28061677
3 1 0 7
3 7 0 6
3 2 1 8
3 8 1 7
3 3 2 9
3 9 2 8
3 4 3 10
3 10 3 9
3 5 4 11
3 11 4 10
3 0 5 6
3 6 5 11
3 5 3 4
3 5 2 3
3 0 2 5
3 1 2 0
3 10 9 11
3 11 9 8
3 11 8 6
3 6 8 7
