ply
format ascii 1.0
comment VCGLIB generated
element vertex 8
property float x
property float y
property float z
element face 12
property list uchar int vertex_indices
end_header
-2.96698578 -8.49667412 -0.94111770
7.60242799 -6.24595860 -2.25101386
9.92943136 10.72926610 1.47039935
-4.00738019 5.21814487 -0.90158213
-10.08472217 -6.26323172 19.22520588
12.47096663 -7.26124993 19.00276174
5.31855710 9.04063039 19.99656200
-6.84210346 9.04068510 22.94302381
3 0 1 5
3 0 5 4
3 1 2 6
3 1 6 5
3 2 3 7
3 2 7 6
3 3 0 4
3 3 4 7
3 2 1 0
3 2 0 3
3 6 4 5
3 6 7 4
