ply
format ascii 1.0
comment VCGLIB generated
element vertex 10
property float x
property float y
property float z
element face 16
property list uchar int vertex_indices
end_header
-16.95587769 9.30537935 -0.67827323
-12.69422467 -20.52789433 -1.91588917
10.50858125 -13.37285936 -3.37855115
20.35300451 2.64479011 2.97575410
-0.76609185 14.07913985 0.73790575
-9.77103835 2.21154661 37.50728315
-7.25353465 -19.72793518 33.90873290
5.43337444 -12.98972524 38.40810670
19.59618743 6.31173478 23.16241495
-3.01350233 20.52813432 34.05653743
3 1 2 7
3 1 7 6
3 2 3 8
3 2 8 7
3 3 4 9
3 3 9 8
3 4 0 5
3 4 5 9
3 0 1 6
3 0 6 5
3 4 3 0
3 0 3 1
3 1 3 2
3 5 8 9
3 6 8 5
3 7 8 6
