ply
format ascii 1.0
comment VCGLIB generated
element vertex 12
property float x
property float y
property float z
element face 20
property list uchar int vertex_indices
end_header
12.70560394 -2.84993853 3.93797378
4.20521067 -9.77775458 -0.63288714
-6.61302549 -9.72482769 -0.30578238
-5.68277275 1.08984416 0.39633661
-7.98510646 7.31662652 0.97890638
5.66047939 11.44420159 0.30531888
7.28089955 4.26380726 19.21641800
5.64792748 -7.90833579 23.44089061
-4.58744314 -6.34791001 18.75461737
-13.66981416 0.81677928 21.27818057
-7.06857941 11.33983388 18.39612050
8.82956227 7.34057578 22.43475185
3 1 0 7
3 7 0 6
3 2 1 8
3 8 1 7
3 3 2 9
3 9 2 8
3 4 3 10
3 10 3 9
3 5 4 11
3 11 4 10
3 0 5 6
3 6 5 11
3 5 3 4
3 5 2 3
3 0 2 5
3 1 2 0
3 10 9 11
3 11 9 8
3 11 8 6
3 6 8 7
