ply
format ascii 1.0
comment VCGLIB generated
element vertex 8
property float x
property float y
property float z
element face 12
property list uchar int vertex_indices
end_header
-8.50940793 -2.42567483 -0.29675743
8.20643497 -9.29454592 1.59788464
8.54905142 5.16789074 -2.06900951
-7.28973959 7.46404755 -1.28490885
-7.83605638 -5.50117483 16.05252301
6.55364930 -5.58870837 14.50134328
6.21855012 5.44524307 17.62605939
-6.26527456 6.63923490 17.78904304
3 0 1 5
3 0 5 4
3 1 2 6
3 1 6 5
3 2 3 7
3 2 7 6
3 3 0 4
3 3 4 7
3 2 1 0
3 2 0 3
3 6 4 5
3 6 7 4
