ply
format ascii 1.0
comment VCGLIB generated
element vertex 12
property float x
property float y
property float z
element face 20
property list uchar int vertex_indices
end_header
24.01599563 -0.82701252 2.95056276
13.79484971 -10.95351385 -2.77395611
-11.16411749 -19.88340005 -0.75499220
-19.97200504 2.98020315 4.07243083
-1.24281984 27.59482108 -2.48904399
18.39455160 16.83716291 -5.33438367
18.95999003 1.78058891 34.84966001
12.10711200 -20.66306081 37.80345949
-3.29323770 -12.37467265 39.98115507
-22.15588717 -3.96670858 42.75725733
-12.56618539 12.39228535 41.05549630
6.39257610 15.32249844 37.87189408
3 1 0 7
3 7 0 6
3 2 1 8
3 8 1 7
3 3 2 9
3 9 2 8
3 4 3 10
3 10 3 9
3 5 4 11
3 11 4 10
3 0 5 6
3 6 5 11
3 5 3 4
3 5 2 3
3 0 2 5
3 1 2 0
3 10 9 11
3 11 9 8
3 11 8 6
3 6 8 7
