ply
format ascii 1.0
comment VCGLIB generated
element vertex 10
property float x
property float y
property float z
element face 16
property list uchar int vertex_indices
end_header
-12.97507169 5.11289865 1.75704666
-8.34952320 -8.19406660 0.74701289
8.30685479 -8.33905228 -2.85757679
8.09006037 2.59286352 -1.40274559
1.69244457 12.58819900 0.53297879
-10.16382188 5.46089017 27.50696266
-6.53821529 -10.66990336 22.10121260
6.88801979 -9.58695806 28.33161917
12.46643115 0.45730391 23.66709254
-0.46279355 11.36147206 25.19540238
3 1 2 7
3 1 7 6
3 2 3 8
3 2 8 7
3 3 4 9
3 3 9 8
3 4 0 5
3 4 5 9
3 0 1 6
3 0 6 5
3 4 3 0
3 0 3 1
3 1 3 2
3 5 8 9
3 6 8 5
3 7 8 6
