ply
format ascii 1.0
comment VCGLIB generated
element vertex 10
property float x
property float y
property float z
element face 16
property list uchar int vertex_indices
end_header
-15.40472388 7.44328931 -3.58429533
-9.69838304 -6.26340273 1.77344957
9.78585642 -6.99431007 1.12827090
17.05993222 3.31136067 4.52920574
6.71672872 20.24473056 -0.38003467
-18.67202473 2.15269497 30.36340463
-12.84727628 -13.61211444 23.51625313
9.20061514 -7.41222181 26.03487422
11.74261347 5.64163467 24.67287062
-1.60099163 16.52344633 28.15189715
3 1 2 7
3 1 7 6
3 2 3 8
3 2 8 7
3 3 4 9
3 3 9 8
3 4 0 5
3 4 5 9
3 0 1 6
3 0 6 5
3 4 3 0
3 0 3 1
3 1 3 2
3 5 8 9
3 6 8 5
3 7 8 6
