ply
format ascii 1.0
comment VCGLIB generated
element vertex 8
property float x
property float y
property float z
element face 12
property list uchar int vertex_indices
end_header
-10.19973611 -7.40161338 3.22411798
12.79252867 -11.29326530 0.29643656
13.38707985 13.84234662 5.00189607
-13.38817359 6.83647693 1.43925025
-15.19998039 -15.73799036 26.33217198
11.85758478 -7.80474565 31.63433934
10.21440182 11.15065532 34.65614114
-10.62595967 11.02597089 27.61519135
3 0 1 5
3 0 5 4
3 1 2 6
3 1 6 5
3 2 3 7
3 2 7 6
3 3 0 4
3 3 4 7
3 2 1 0
3 2 0 3
3 6 4 5
3 6 7 4
