ply
format ascii 1.0
comment VCGLIB generated
element vertex 10
property float x
property float y
property float z
element face 16
property list uchar int vertex_indices
end_header
-17.60488424 7.45208850 -3.18237734
-12.64352167 -13.47603296 3.02073835
15.55537782 -10.75786351 3.62038090
20.71542932 5.87273214 -6.66003954
-3.41964365 21.36413318 1.66366277
-18.30267355 8.22426013 35.29631106
-14.28270367 -17.11823729 32.20463405
12.97719619 -10.65803457 29.62168824
13.81949367 4.85739451 40.68596473
0.46901602 21.05679525 31.96287316
3 1 2 7
3 1 7 6
3 2 3 8
3 2 8 7
3 3 4 9
3 3 9 8
3 4 0 5
3 4 5 9
3 0 1 6
3 0 6 5
3 4 3 0
3 0 3 1
3 1 3 2
3 5 8 9
3 6 8 5
3 7 8 6
