ply
format ascii 1.0
comment VCGLIB generated
element vertex 10
property float x
property float y
property float z
element face 16
property list uchar int vertex_indices
end_header
-9.40847894 1.59506630 1.73510806
-1.88645473 -5.01198194 -0.13430460
3.69769826 -4.54899699 -1.39338899
8.50337798 2.47548522 -0.42076026
-1.63886414 6.43983838 0.11474235
-6.88270696 3.86981740 12.59995663
-2.15586779 -3.52206685 14.36659737
5.18456120 -5.64401577 10.59577182
4.97447813 3.63512984 10.58742833
-0.97389253 5.04012797 13.09272084
3 1 2 7
3 1 7 6
3 2 3 8
3 2 8 7
3 3 4 9
3 3 9 8
3 4 0 5
3 4 5 9
3 0 1 6
3 0 6 5
3 4 3 0
3 0 3 1
3 1 3 2
3 5 8 9
3 6 8 5
3 7 8 6
