ply
format ascii 1.0
comment VCGLIB generated
element vertex 12
property float x
property float y
property float z
element face 20
property list uchar int vertex_indices
end_header
14.87471470 4.37696840 -1.13401306
10.42477538 -10.07317298 -1.24750506
-11.54511219 -10.09599380 -3.94218261
-12.33671187 -0.00995313 -1.53588666
-5.41186750 12.96666698 -3.40022286
3.30175273 11.60492025 3.11824434
15.66961673 -0.64934808 25.54829739
7.73376468 -14.31830867 24.77883871
-5.41563647 -9.10339709 27.67654006
-16.50901800 1.01979971 25.59158140
-6.19968382 15.81168886 30.36132096
6.35440226 9.02057362 21.35501687
3 1 0 7
3 7 0 6
3 2 1 8
3 8 1 7
3 3 2 9
3 9 2 8
3 4 3 10
3 10 3 9
3 5 4 11
3 11 4 10
3 0 5 6
3 6 5 11
3 5 3 4
3 5 2 3
3 0 2 5
3 1 2 0
3 10 9 11
3 11 9 8
3 11 8 6
3 6 8 7
