ply
format ascii 1.0
comment VCGLIB generated
element vertex 12
property float x
property float y
property float z
element face 20
property list uchar int vertex_indices
end_header
14.01435626 -2.57571740 -2.46227666
15.61252445 -16.95487827 -3.56306744
-8.51923056 -16.16501096 7.03212804
-24.37432872 0.86593298 1.81282105
-13.51164271 13.33133905 3.01022659
7.26530178 16.53857242 -1.91070198
17.01417360 -3.62090887 33.84776847
6.58539171 -19.97878338 31.49218262
-6.27677078 -18.44858572 34.03076445
-23.49090959 -2.77716677 33.46784180
-8.23623870 13.18974813 35.58595847
5.45229489 12.61435392 39.88942217
3 1 0 7
3 7 0 6
3 2 1 8
3 8 1 7
3 3 2 9
3 9 2 8
3 4 3 10
3 10 3 9
3 5 4 11
3 11 4 10
3 0 5 6
3 6 5 11
3 5 3 4
3 5 2 3
3 0 2 5
3 1 2 0
3 10 9 11
3 11 9 8
3 11 8 6
3 6 8 7
