ply
format ascii 1.0
comment VCGLIB generated
element vertex 12
property float x
property float y
property float z
element face 20
property list uchar int vertex_indices
end_header
6.51904224 0.37984898 -1.97216703
4.16280702 -6.43140060 3.46289506
-2.07037982 -7.81180985 0.33064167
-6.77476802 1.60449285 -3.08103900
-2.79865159 6.07638587 0.45325134
3.57918389 5.41170814 1.03728776
7.15429415 -0.64576389 15.71151238
3.51519149 -7.22892333 14.14788250
-2.84746968 -7.21902625 12.64358140
-7.49309759 -1.58570182 16.35205143
-3.69073932 5.93082263 16.75634233
0.93626756 9.23496542 16.43954220
3 1 0 7
3 7 0 6
3 2 1 8
3 8 1 7
3 3 2 9
3 9 2 8
3 4 3 10
3 10 3 9
3 5 4 11
3 11 4 10
3 0 5 6
3 6 5 11
3 5 3 4
3 5 2 3
3 0 2 5
3 1 2 0
3 10 9 11
3 11 9 8
3 11 8 6
3 6 8 7
