ply
format ascii 1.0
comment VCGLIB generated
element vertex 10
property float x
property float y
property float z
element face 16
property list uchar int vertex_indices
end_header
-20.88951465 11.97568282 -10.43579806
-16.70263982 -22.40398212 8.60266213
15.08609025 -26.24340846 6.02837697
22.04255011 0.47727598 4.39963020
1.84470194 29.91188148 3.01727614
-34.89712432 8.55315170 54.96487818
-17.42331590 -19.66245440 63.68746207
17.07045433 -31.68277633 64.24123232
17.71100039 8.36413587 54.68533357
6.83201932 25.07869751 54.49196317
3 1 2 7
3 1 7 6
3 2 3 8
3 2 8 7
3 3 4 9
3 3 9 8
3 4 0 5
3 4 5 9
3 0 1 6
3 0 6 5
3 4 3 0
3 0 3 1
3 1 3 2
3 5 8 9
3 6 8 5
3 7 8 6
