ply
format ascii 1.0
comment VCGLIB generated
element vertex 12
property float x
property float y
property float z
element face 20
property list uchar int vertex_indices
end_header
2.30304102 -0.27823076 -1.33989563
1.40365168 -3.38412946 0.09032373
-2.46038094 -2.99580140 -0.06772743
-2.86801017 0.62910278 0.31628088
-1.64922387 2.18983746 0.64933979
2.56837156 1.89016590 -0.21695051
2.80907797 0.61336664 6.88375580
1.20278659 -3.18902542 6.48932350
-1.18507279 -2.52626690 5.65199859
-3.76055488 -0.82520590 6.53268583
-0.85538687 2.44936619 5.99772110
1.11520800 2.86706858 6.25246345
3 1 0 7
3 7 0 6
3 2 1 8
3 8 1 7
3 3 2 9
3 9 2 8
3 4 3 10
3 10 3 9
3 5 4 11
3 11 4 10
3 0 5 6
3 6 5 11
3 5 3 4
3 5 2 3
3 0 2 5
3 1 2 0
3 10 9 11
3 11 9 8
3 11 8 6
3 6 8 7
