ply
format ascii 1.0
comment VCGLIB generated
element vertex 10
property float x
property float y
property float z
element face 16
property list uchar int vertex_indices
end_header
-9.40589685 6.01186355 -0.44664719
-6.10147213 -8.27767470 0.38872805
5.88437385 -7.01847812 0.43501132
8.68194197 4.24872689 -2.96326136
-0.52374728 8.58250064 -0.98817237
-4.91204532 3.37631300 19.86702223
-8.44687145 -6.13634199 15.12173445
8.05231851 -5.22099799 16.77562231
9.96715984 2.43256910 17.22436271
2.81192535 9.45429332 20.54222992
3 1 2 7
3 1 7 6
3 2 3 8
3 2 8 7
3 3 4 9
3 3 9 8
3 4 0 5
3 4 5 9
3 0 1 6
3 0 6 5
3 4 3 0
3 0 3 1
3 1 3 2
3 5 8 9
3 6 8 5
3 7 8 6
