ply
format ascii 1.0
comment VCGLIB generated
element vertex 10
property float x
property float y
property float z
element face 16
property list uchar int vertex_indices
end_header
-18.65686380 8.12549215 -1.10900914
-14.65767448 -14.08382688 5.69335886
8.97263851 -11.49969564 3.82224615
21.22799418 13.13028876 -0.79473597
-7.26698074 17.41003288 1.25233859
-17.27581658 -1.88976580 36.82665768
-9.36609849 -13.47807748 45.33451774
13.77214033 -14.44594263 37.72759963
23.33157664 12.83179356 40.33617720
2.27303018 20.55837458 44.35554610
3 1 2 7
3 1 7 6
3 2 3 8
3 2 8 7
3 3 4 9
3 3 9 8
3 4 0 5
3 4 5 9
3 0 1 6
3 0 6 5
3 4 3 0
3 0 3 1
3 1 3 2
3 5 8 9
3 6 8 5
3 7 8 6
