ply
format ascii 1.0
comment VCGLIB generated
element vertex 10
property float x
property float y
property float z
element face 16
property list uchar int vertex_indices
end_header
-19.22766578 7.12420595 -2.99234379
-9.32217606 -18.25364618 -4.61627968
6.78060093 -17.48886144 0.81510809
18.27774148 6.80502812 2.20611429
2.55221175 15.13094983 -3.03871552
-13.23982336 5.49349088 37.32244952
-15.62818535 -16.05235103 39.37958494
9.18630900 -14.93961786 42.33506580
20.21826743 1.13063752 39.14354570
0.51343215 21.86251212 34.18825698
3 1 2 7
3 1 7 6
3 2 3 8
3 2 8 7
3 3 4 9
3 3 9 8
3 4 0 5
3 4 5 9
3 0 1 6
3 0 6 5
3 4 3 0
3 0 3 1
3 1 3 2
3 5 8 9
3 6 8 5
3 7 8 6
