ply
format ascii 1.0
comment VCGLIB generated
element vertex 10
property float x
property float y
property float z
element face 16
property list uchar int vertex_indices
end_header
-16.47656244 4.44853489 1.84366063
-8.86156998 -10.61243691 1.33647659
12.17505103 -10.27196300 3.39164757
11.53240945 -1.39809048 -3.13133825
2.12105979 14.07892971 -3.12181870
-10.12614368 5.37358274 23.55522412
-9.87898427 -7.33050282 26.87403780
5.82239980 -11.46002137 25.36686767
11.74608338 4.98884506 26.54609663
3.93085512 14.86499370 24.72175881
3 1 2 7
3 1 7 6
3 2 3 8
3 2 8 7
3 3 4 9
3 3 9 8
3 4 0 5
3 4 5 9
3 0 1 6
3 0 6 5
3 4 3 0
3 0 3 1
3 1 3 2
3 5 8 9
3 6 8 5
3 7 8 6
