ply
format ascii 1.0
comment VCGLIB generated
element vertex 10
property float x
property float y
property float z
element face 16
property list uchar int vertex_indices
end_header
-28.20975885 14.38795220 3.40452368
-7.18201681 -20.21667938 -4.63328296
11.60875201 -15.38289300 2.06444048
24.96739522 -4.28111390 -8.51883358
6.27044372 28.68079275 -0.26790165
-27.05917056 18.97558513 46.02796922
-24.78964768 -18.46218692 56.09934261
24.64740025 -18.62348135 55.55857068
27.84255497 0.92644189 58.91045151
2.13758465 32.03300549 52.34689557
3 1 2 7
3 1 7 6
3 2 3 8
3 2 8 7
3 3 4 9
3 3 9 8
3 4 0 5
3 4 5 9
3 0 1 6
3 0 6 5
3 4 3 0
3 0 3 1
3 1 3 2
3 5 8 9
3 6 8 5
3 7 8 6
