ply
format ascii 1.0
comment VCGLIB generated
element vertex 8
property float x
property float y
property float z
element face 12
property list uchar int vertex_indices
end_header
-13.92227010 -17.82572494 1.61307334
17.58353352 -12.86260713 -8.18970204
18.57844688 12.08998796 -2.46191382
-12.75481044 13.15338632 -3.49438089
-17.17436648 -20.61543361 54.19526171
23.25031584 -18.88524723 43.04022999
19.56776081 18.34812665 44.75186117
-20.39028947 18.04225166 52.56838474
3 0 1 5
3 0 5 4
3 1 2 6
3 1 6 5
3 2 3 7
3 2 7 6
3 3 0 4
3 3 4 7
3 2 1 0
3 2 0 3
3 6 4 5
3 6 7 4
