ply
format ascii 1.0
comment VCGLIB generated
element vertex 12
property float x
property float y
property float z
element face 20
property list uchar int vertex_indices
end_header
19.78370102 2.57852851 8.47982872
6.31046570 -18.55144945 3.14422992
-14.17379900 -9.01773205 0.51829348
-18.15855323 2.70642659 1.93277296
-13.18538326 11.15462473 -2.29254215
18.86088937 15.87059888 -2.88884922
19.85257522 2.38935366 39.59118996
11.05416652 -13.56068160 44.36702743
-2.46550319 -20.99860158 44.14659960
-26.88171914 4.35905664 44.82590558
-14.77882504 13.65749386 31.34876015
6.62254278 13.75008976 46.61080696
3 1 0 7
3 7 0 6
3 2 1 8
3 8 1 7
3 3 2 9
3 9 2 8
3 4 3 10
3 10 3 9
3 5 4 11
3 11 4 10
3 0 5 6
3 6 5 11
3 5 3 4
3 5 2 3
3 0 2 5
3 1 2 0
3 10 9 11
3 11 9 8
3 11 8 6
3 6 8 7
