ply
format ascii 1.0
comment VCGLIB generated
element vertex 10
property float x
property float y
property float z
element face 16
property list uchar int vertex_indices
end_header
-10.45446340 3.52621706 -3.38530018
-8.02419096 -12.81098040 -2.10836683
10.34950716 -12.78697374 -7.68715873
9.70054863 5.65189487 -2.44147119
-1.53939154 18.43418113 0.49781104
-19.02364766 5.44578311 28.32118655
-8.39271826 -14.92133514 34.73470273
10.30528858 -13.45843071 30.87759095
11.36161292 2.14651423 32.57260221
-3.76167550 14.81075045 27.73479468
3 1 2 7
3 1 7 6
3 2 3 8
3 2 8 7
3 3 4 9
3 3 9 8
3 4 0 5
3 4 5 9
3 0 1 6
3 0 6 5
3 4 3 0
3 0 3 1
3 1 3 2
3 5 8 9
3 6 8 5
3 7 8 6
