ply
format ascii 1.0
comment VCGLIB generated
element vertex 8
property float x
property float y
property float z
element face 12
property list uchar int vertex_indices
end_header
-17.98732764 -23.53569715 -0.79228254
18.28806352 -16.60517534 3.42278665
18.98887230 17.76939024 3.42100421
-13.52839481 21.17263622 -2.41461194
-14.80885782 -13.32167040 50.14753188
16.08979302 -17.57145402 51.08001675
11.76662686 12.50674621 49.60711896
-23.64405097 9.15891175 55.98496043
3 0 1 5
3 0 5 4
3 1 2 6
3 1 6 5
3 2 3 7
3 2 7 6
3 3 0 4
3 3 4 7
3 2 1 0
3 2 0 3
3 6 4 5
3 6 7 4
