ply
format ascii 1.0
comment VCGLIB generated
element vertex 8
property float x
property float y
property float z
element face 12
property list uchar int vertex_indices
end_header
-17.27416161 -24.73840429 0.68016704
13.64826441 -13.92618799 -6.92629248
20.57387059 18.07347100 0.27017228
-6.35707828 14.70510184 -0.45949864
-19.53724798 -25.61104076 61.61089582
3.96847421 -21.20568736 49.66442199
21.57375762 15.68207843 60.59005453
-22.55055355 16.55854564 47.50539060
3 0 1 5
3 0 5 4
3 1 2 6
3 1 6 5
3 2 3 7
3 2 7 6
3 3 0 4
3 3 4 7
3 2 1 0
3 2 0 3
3 6 4 5
3 6 7 4
