ply
format ascii 1.0
comment VCGLIB generated
element vertex 12
property float x
property float y
property float z
element face 20
property list uchar int vertex_indices
end_header
8.65282152 1.48399165 2.08520602
4.23767710 -5.49776761 -4.07089634
-3.56070201 -11.71171314 -0.34415932
-9.92123298 -3.11687220 -2.86298991
-4.34309674 8.76316262 -0.84610174
6.13743753 9.17250919 1.13931852
10.37201736 0.18006475 24.45888523
4.66734802 -7.97082666 18.24048394
-8.86234200 -7.71509913 20.41349910
-9.65893183 1.42312476 18.88058479
-4.78207847 9.37887557 17.56085234
6.17724615 9.74233055 20.10924414
3 1 0 7
3 7 0 6
3 2 1 8
3 8 1 7
3 3 2 9
3 9 2 8
3 4 3 10
3 10 3 9
3 5 4 11
3 11 4 10
3 0 5 6
3 6 5 11
3 5 3 4
3 5 2 3
3 0 2 5
3 1 2 0
3 10 9 11
3 11 9 8
3 11 8 6
3 6 8 7
