ply
format ascii 1.0
comment VCGLIB generated
element vertex 10
property float x
property float y
property float z
element face 16
property list uchar int vertex_indices
end_header
-21.59582669 2.50153746 1.00587644
-11.65002566 -23.09493734 -2.62430601
14.25851592 -28.31675351 -2.75926883
26.81254570 5.18596397 2.52589721
1.11619373 35.90636919 -0.98144588
-30.81690663 15.96917415 46.99113421
-17.19897445 -21.93072531 56.09955613
20.81693601 -32.89022638 49.85651061
26.97927211 7.10032915 59.78772878
1.91699364 27.87344558 54.27371951
3 1 2 7
3 1 7 6
3 2 3 8
3 2 8 7
3 3 4 9
3 3 9 8
3 4 0 5
3 4 5 9
3 0 1 6
3 0 6 5
3 4 3 0
3 0 3 1
3 1 3 2
3 5 8 9
3 6 8 5
3 7 8 6
