ply
format ascii 1.0
comment VCGLIB generated
element vertex 8
property float x
property float y
property float z
element face 12
property list uchar int vertex_indices
end_header
-12.15550970 -12.37732476 0.81390341
13.67309744 -22.07882504 2.23617464
12.79122506 19.99719534 0.51089956
-11.61479482 6.16806886 -2.45549965
-16.70444204 -15.29871181 43.32808210
15.50320276 -10.03589782 41.62559844
19.82357392 12.73881363 36.72653533
-15.90521542 24.14209588 40.91231638
3 0 1 5
3 0 5 4
3 1 2 6
3 1 6 5
3 2 3 7
3 2 7 6
3 3 0 4
3 3 4 7
3 2 1 0
3 2 0 3
3 6 4 5
3 6 7 4
