ply
format ascii 1.0
comment VCGLIB generated
element vertex 10
property float x
property float y
property float z
element face 16
property list uchar int vertex_indices
end_header
-11.37126283 -1.23328702 -0.17002682
-5.61490521 -5.68743693 -0.28346514
7.54694803 -3.60026104 2.31381245
8.04354781 4.21051945 1.85757694
-2.42839587 7.38554275 -0.12732170
-9.35349265 3.15791672 12.70310964
-3.29640509 -6.85510525 19.90873099
4.56626460 -5.55224995 15.31385189
6.05058467 5.97306910 18.70970939
0.62279084 8.18047089 17.75450694
3 1 2 7
3 1 7 6
3 2 3 8
3 2 8 7
3 3 4 9
3 3 9 8
3 4 0 5
3 4 5 9
3 0 1 6
3 0 6 5
3 4 3 0
3 0 3 1
3 1 3 2
3 5 8 9
3 6 8 5
3 7 8 6
