ply
format ascii 1.0
comment VCGLIB generated
element vertex 10
property float x
property float y
property float z
element face 16
property list uchar int vertex_indices
end_header
-17.65905659 4.65039361 2.34445844
-6.37005649 -15.61376232 4.22603222
15.82323956 -20.73929628 -0.93254002
18.51057060 7.77316923 4.96677477
-6.12687342 20.04338893 0.62577022
-16.24896890 9.00054904 39.93063668
-9.10353023 -21.26912154 43.76599498
15.30287010 -23.48066800 43.26757728
20.46657124 4.86994996 43.55978612
-0.35578868 29.80483681 44.50618025
3 1 2 7
3 1 7 6
3 2 3 8
3 2 8 7
3 3 4 9
3 3 9 8
3 4 0 5
3 4 5 9
3 0 1 6
3 0 6 5
3 4 3 0
3 0 3 1
3 1 3 2
3 5 8 9
3 6 8 5
3 7 8 6
