ply
format ascii 1.0
comment VCGLIB generated
element vertex 10
property float x
property float y
property float z
element face 16
property list uchar int vertex_indices
end_header
-19.10435210 20.60612647 -5.81963186
-23.74689534 -25.40034168 2.86968834
18.24661940 -14.59770509 3.80206744
16.08854608 8.26734430 1.25861191
-7.09944872 26.52217555 -2.40352175
-22.30200894 8.50429890 58.32648724
-18.04601203 -17.55414993 55.40136862
12.65701809 -26.76805776 69.59769641
22.86688809 3.70861505 52.56238189
5.63911810 22.04946894 60.10907179
3 1 2 7
3 1 7 6
3 2 3 8
3 2 8 7
3 3 4 9
3 3 9 8
3 4 0 5
3 4 5 9
3 0 1 6
3 0 6 5
3 4 3 0
3 0 3 1
3 1 3 2
3 5 8 9
3 6 8 5
3 7 8 6
