ply
format ascii 1.0
comment VCGLIB generated
element vertex 8
property float x
property float y
property float z
element face 12
property list uchar int vertex_indices
end_header
-7.90642420 -10.88342373 1.29847855
9.56113099 -7.25958013 4.34166900
3.56514284 11.47029398 2.05568267
-6.11540692 10.24301714 1.18904973
-13.44679231 -5.44766907 28.43157937
6.24696574 -6.76823198 25.51357590
6.25284648 10.60409776 22.09336841
-6.70749440 9.51489992 26.35622964
3 0 1 5
3 0 5 4
3 1 2 6
3 1 6 5
3 2 3 7
3 2 7 6
3 3 0 4
3 3 4 7
3 2 1 0
3 2 0 3
3 6 4 5
3 6 7 4
