ply
format ascii 1.0
comment VCGLIB generated
element vertex 12
property float x
property float y
property float z
element face 20
property list uchar int vertex_indices
end_header
17.92764954 -3.34111161 0.10893835
3.20806635 -9.82118410 -6.83747781
-15.28122664 -16.55627655 -5.09747076
-28.22686200 -12.94222258 -12.07603296
-10.03411662 23.04320165 -2.30658048
9.05284414 26.30839678 3.96604688
18.03273454 -9.47239479 50.98880796
10.66716636 -20.61223375 44.74656137
-13.26082288 -18.78474922 46.73067080
-33.87182612 3.60142609 54.50456573
-15.73751966 15.47788789 45.43773975
18.06933507 19.61445491 39.68031809
3 1 0 7
3 7 0 6
3 2 1 8
3 8 1 7
3 3 2 9
3 9 2 8
3 4 3 10
3 10 3 9
3 5 4 11
3 11 4 10
3 0 5 6
3 6 5 11
3 5 3 4
3 5 2 3
3 0 2 5
3 1 2 0
3 10 9 11
3 11 9 8
3 11 8 6
3 6 8 7
