ply
format ascii 1.0
comment VCGLIB generated
element vertex 10
property float x
property float y
property float z
element face 16
property list uchar int vertex_indices
end_header
-15.34275223 2.93389397 -4.73428196
-8.17739201 -18.94786330 3.78947667
9.80434747 -11.22596596 1.24985328
10.74952634 4.43270700 0.25875943
-6.30394461 15.60494706 -3.12953605
-14.79479651 4.05663678 28.03070468
-10.10434043 -13.72422082 30.08981461
5.55271836 -10.85324336 28.58193361
16.57690140 3.45913555 28.77716394
2.31673651 15.33852250 30.93466732
3 1 2 7
3 1 7 6
3 2 3 8
3 2 8 7
3 3 4 9
3 3 9 8
3 4 0 5
3 4 5 9
3 0 1 6
3 0 6 5
3 4 3 0
3 0 3 1
3 1 3 2
3 5 8 9
3 6 8 5
3 7 8 6
