ply
format ascii 1.0
comment VCGLIB generated
element vertex 8
property float x
property float y
property float z
element face 12
property list uchar int vertex_indices
end_header
-2.17469178 -3.44169464 0.57512259
0.89848168 -2.61086765 -0.14676231
3.90046567 3.14258000 0.37173818
-3.05075517 2.97165842 0.57513941
-2.28337141 -2.33225241 7.32306296
2.61025440 -2.78083076 8.07611998
3.06075798 1.29491887 7.57159267
-0.86272143 3.63071235 7.64389276
3 0 1 5
3 0 5 4
3 1 2 6
3 1 6 5
3 2 3 7
3 2 7 6
3 3 0 4
3 3 4 7
3 2 1 0
3 2 0 3
3 6 4 5
3 6 7 4
