ply
format ascii 1.0
comment VCGLIB generated
element vertex 12
property float x
property float y
property float z
element face 20
property list uchar int vertex_indices
end_header
22.37277957 -0.26934593 6.77089918
20.08205641 -21.21120018 1.45239955
-12.60213008 -20.94293456 -2.06641745
-15.51422381 3.98988811 4.62278925
-10.21472926 20.57447631 -5.82034533
15.05485971 10.85067151 -3.35275543
22.65532456 5.48652279 38.20912591
9.52059013 -18.98987144 34.33246089
-9.10329164 -15.87821651 41.14654186
-16.94118385 2.97078088 38.41816639
-9.81836669 16.37690395 43.35776322
8.77216999 21.51861391 36.40048478
3 1 0 7
3 7 0 6
3 2 1 8
3 8 1 7
3 3 2 9
3 9 2 8
3 4 3 10
3 10 3 9
3 5 4 11
3 11 4 10
3 0 5 6
3 6 5 11
3 5 3 4
3 5 2 3
3 0 2 5
3 1 2 0
3 10 9 11
3 11 9 8
3 11 8 6
3 6 8 7
