ply
format ascii 1.0
comment VCGLIB generated
element vertex 12
property float x
property float y
property float z
element face 20
property list uchar int vertex_indices
end_header
13.84775061 -4.09044544 2.10800942
6.68504195 -7.03622393 2.56553290
-4.77682909 -11.89338891 3.49963328
-13.62093185 -0.02503191 0.81757803
-2.01315786 11.98053386 -2.04233099
5.88591147 14.10516870 -3.84015040
12.00103439 -0.31142257 25.51204762
8.91404927 -9.03267456 25.35445086
-4.51923796 -11.01067838 25.56367833
-11.27280560 1.37707430 17.86307179
-7.33470865 8.65594537 25.94587316
4.36352960 9.63070053 22.96470228
3 1 0 7
3 7 0 6
3 2 1 8
3 8 1 7
3 3 2 9
3 9 2 8
3 4 3 10
3 10 3 9
3 5 4 11
3 11 4 10
3 0 5 6
3 6 5 11
3 5 3 4
3 5 2 3
3 0 2 5
3 1 2 0
3 10 9 11
3 11 9 8
3 11 8 6
3 6 8 7
