ply
format ascii 1.0
comment VCGLIB generated
element vertex 10
property float x
property float y
property float z
element face 16
property list uchar int vertex_indices
end_header
-6.97353251 3.13048269 -0.71395268
-3.90984541 -7.12387801 -0.59552751
2.80032368 -8.44206276 -1.79784981
11.04848896 1.22385958 1.30849010
-1.74644794 9.12879415 -0.61137654
-9.28704028 1.50895247 16.94382035
-6.34108078 -4.95423754 17.52157096
3.31024840 -4.14148051 18.79353201
9.08235600 4.08782265 14.50795328
0.22317048 6.19154761 16.90650554
3 1 2 7
3 1 7 6
3 2 3 8
3 2 8 7
3 3 4 9
3 3 9 8
3 4 0 5
3 4 5 9
3 0 1 6
3 0 6 5
3 4 3 0
3 0 3 1
3 1 3 2
3 5 8 9
3 6 8 5
3 7 8 6
