ply
format ascii 1.0
comment VCGLIB generated
element vertex 12
property float x
property float y
property float z
element face 20
property list uchar int vertex_indices
end_header
13.51567765 0.72992130 3.18016497
8.00535597 -14.05293734 -2.08110104
-9.58638207 -13.88225041 2.14397914
-8.43257626 3.71848339 4.04554952
-9.57742294 15.20940674 -0.34645059
4.50266148 16.99643487 1.82380063
15.05157307 -1.60132575 27.54659972
12.25160415 -13.21288946 31.83987050
-2.18751035 -12.34470241 36.22785066
-17.69112670 4.38468762 27.80588795
-11.80151175 15.74123556 33.27105766
11.86049493 11.75230731 25.50388679
3 1 0 7
3 7 0 6
3 2 1 8
3 8 1 7
3 3 2 9
3 9 2 8
3 4 3 10
3 10 3 9
3 5 4 11
3 11 4 10
3 0 5 6
3 6 5 11
3 5 3 4
3 5 2 3
3 0 2 5
3 1 2 0
3 10 9 11
3 11 9 8
3 11 8 6
3 6 8 7
