ply
format ascii 1.0
comment VCGLIB generated
element vertex 12
property float x
property float y
property float z
element face 20
property list uchar int vertex_indices
end_header
5.92503036 0.29937404 -0.06192982
1.61033472 -2.70461885 -0.60474283
-2.11371692 -5.39924658 -0.92862033
-4.27646468 2.05603029 1.87066808
-4.22221047 5.02873041 -0.93500624
3.04658466 2.83606261 -1.56530165
3.84980533 0.06409076 11.67272051
1.77229602 -5.80468467 10.90320862
-2.52194020 -3.03994475 10.46305200
-4.61047320 -1.58417512 10.67365480
-2.87769527 5.90019205 10.90010366
3.56266176 2.74212436 10.34857287
3 1 0 7
3 7 0 6
3 2 1 8
3 8 1 7
3 3 2 9
3 9 2 8
3 4 3 10
3 10 3 9
3 5 4 11
3 11 4 10
3 0 5 6
3 6 5 11
3 5 3 4
3 5 2 3
3 0 2 5
3 1 2 0
3 10 9 11
3 11 9 8
3 11 8 6
3 6 8 7
