ply
format ascii 1.0
comment VCGLIB generated
element vertex 12
property float x
property float y
property float z
element face 20
property list uchar int vertex_indices
end_header
18.36816604 -2.39486140 3.27651803
7.67209888 -12.26111206 4.51635190
-8.51507019 -12.13884446 4.20027533
-18.54053755 0.04801414 -0.89787840
-8.68792455 15.26974827 -0.31008119
9.22299643 21.10664449 -7.53734295
18.29198830 8.82473387 31.11035103
8.83427243 -16.10304612 41.01608011
-5.12076742 -14.24536303 32.34583359
-16.60420420 -3.26644015 27.87696127
-6.58068861 17.73762707 25.19961340
6.38105626 19.43179232 28.93670027
3 1 0 7
3 7 0 6
3 2 1 8
3 8 1 7
3 3 2 9
3 9 2 8
3 4 3 10
3 10 3 9
3 5 4 11
3 11 4 10
3 0 5 6
3 6 5 11
3 5 3 4
3 5 2 3
3 0 2 5
3 1 2 0
3 10 9 11
3 11 9 8
3 11 8 6
3 6 8 7
