ply
format ascii 1.0
comment VCGLIB generated
element vertex 10
property float x
property float y
property float z
element face 16
property list uchar int vertex_indices
end_header
-5.34952382 1.08737900 3.16269113
-2.84580099 -7.34557685 -0.84278253
6.68346294 -4.58849997 0.55321063
8.28239649 3.83032725 -1.86935928
-1.36230830 8.31171516 1.98131939
-5.72558314 1.05057732 14.07586621
-4.98011739 -6.20378897 12.73869418
2.69880316 -4.50481726 14.24567666
7.72554140 3.88280754 15.26741500
0.62651014 7.92911673 16.26448363
3 1 2 7
3 1 7 6
3 2 3 8
3 2 8 7
3 3 4 9
3 3 9 8
3 4 0 5
3 4 5 9
3 0 1 6
3 0 6 5
3 4 3 0
3 0 3 1
3 1 3 2
3 5 8 9
3 6 8 5
3 7 8 6
