ply
format ascii 1.0
comment VCGLIB generated
element vertex 8
property float x
property float y
property float z
element face 12
property list uchar int vertex_indices
end_header
-9.96977187 -9.99528849 -1.78995678
7.63690787 -7.55002972 1.44364282
9.92992539 8.66272094 -0.30318038
-4.62807011 10.19614994 -2.19108404
-11.48625709 -15.19453814 24.42279549
7.50914715 -9.10498165 26.26376265
10.42919287 9.94743796 29.63700244
-7.42268494 9.91740602 26.76399849
3 0 1 5
3 0 5 4
3 1 2 6
3 1 6 5
3 2 3 7
3 2 7 6
3 3 0 4
3 3 4 7
3 2 1 0
3 2 0 3
3 6 4 5
3 6 7 4
