ply
format ascii 1.0
comment VCGLIB generated
element vertex 8
property float x
property float y
property float z
element face 12
property list uchar int vertex_indices
end_header
-10.90651954 -7.61819705 -0.83488106
0.95177426 -10.35783121 -5.47521280
17.95719172 9.64733490 5.24542372
-17.59969759 11.33583363 -0.93788287
-11.26976964 -16.89825744 38.38981752
13.40834001 -14.34686330 44.23541282
9.93694794 17.72283041 39.60033239
-17.22536719 13.94561357 41.33175855
3 0 1 5
3 0 5 4
3 1 2 6
3 1 6 5
3 2 3 7
3 2 7 6
3 3 0 4
3 3 4 7
3 2 1 0
3 2 0 3
3 6 4 5
3 6 7 4
