ply
format ascii 1.0
comment VCGLIB generated
element vertex 8
property float x
property float y
property float z
element face 12
property list uchar int vertex_indices
end_header
-23.50412091 -8.26298964 -0.32207971
19.26107464 -23.60376844 -4.87797394
28.10171240 16.57591227 -3.45690158
-20.03326830 20.56522672 1.05354369
-20.64509670 -24.51368045 58.34711507
21.40864693 -21.68785309 62.74825997
19.15163985 18.80918993 48.25443085
-28.27933272 18.11450613 56.03117107
3 0 1 5
3 0 5 4
3 1 2 6
3 1 6 5
3 2 3 7
3 2 7 6
3 3 0 4
3 3 4 7
3 2 1 0
3 2 0 3
3 6 4 5
3 6 7 4
