ply
format ascii 1.0
comment VCGLIB generated
element vertex 10
property float x
property float y
property float z
element face 16
property list uchar int vertex_indices
end_header
-32.38145807 6.18639085 4.54233207
-10.62721358 -20.21952623 4.24312320
17.08614808 -21.46843493 3.32944102
20.58271009 10.40019234 -5.06895706
4.96617637 21.55680956 1.24457147
-28.30395273 8.56517690 40.70013751
-19.44988678 -22.05848404 45.14889634
18.15567439 -19.41091142 38.41422011
19.31428414 8.50827020 41.50471213
1.68189693 26.05446298 44.61566403
3 1 2 7
3 1 7 6
3 2 3 8
3 2 8 7
3 3 4 9
3 3 9 8
3 4 0 5
3 4 5 9
3 0 1 6
3 0 6 5
3 4 3 0
3 0 3 1
3 1 3 2
3 5 8 9
3 6 8 5
3 7 8 6
