ply
format ascii 1.0
comment VCGLIB generated
element vertex 8
property float x
property float y
property float z
element face 12
property list uchar int vertex_indices
end_header
-19.60921635 -17.75893431 -1.93008593
20.38349824 -25.57792907 -5.48503597
10.77236716 19.51260491 0.50571604
-16.05749314 18.61489003 4.23679164
-17.99072375 -18.37616741 50.41268622
19.65150101 -23.48769975 48.81028299
12.75154528 15.02987048 43.01279495
-25.36811930 20.45228466 40.62388986
3 0 1 5
3 0 5 4
3 1 2 6
3 1 6 5
3 2 3 7
3 2 7 6
3 3 0 4
3 3 4 7
3 2 1 0
3 2 0 3
3 6 4 5
3 6 7 4
