ply
format ascii 1.0
comment VCGLIB generated
element vertex 12
property float x
property float y
property float z
element face 20
property list uchar int vertex_indices
end_header
14.71917214 -4.38277097 1.00834493
5.00858584 -13.92734218 -1.53171166
-8.41682185 -10.23270380 3.00050655
-13.29941335 -2.32626994 5.48919122
-7.02288478 10.51790242 0.07753028
8.19508894 8.39359742 3.41905887
14.62591125 0.18614353 23.90206105
9.12386426 -11.56970167 19.40819810
-2.83884201 -9.66049265 26.54003276
-11.40235315 -2.60757423 19.98037915
-3.40077077 10.44790149 21.59179531
12.13490976 10.51444349 23.19359122
3 1 0 7
3 7 0 6
3 2 1 8
3 8 1 7
3 3 2 9
3 9 2 8
3 4 3 10
3 10 3 9
3 5 4 11
3 11 4 10
3 0 5 6
3 6 5 11
3 5 3 4
3 5 2 3
3 0 2 5
3 1 2 0
3 10 9 11
3 11 9 8
3 11 8 6
3 6 8 7
