ply
format ascii 1.0
comment VCGLIB generated
element vertex 10
property float x
property float y
property float z
element face 16
property list uchar int vertex_indices
end_header
-29.06355125 3.41696619 -5.45669765
-13.75340647 -20.50642387 2.69915489
30.22925130 -10.38755185 6.97654401
26.64743287 9.24891284 -10.06949200
-1.51813417 29.36518793 3.45705756
-23.21280418 7.25980357 57.43831368
-30.03217680 -19.36773193 50.06579961
16.02623426 -23.65851233 50.99468033
17.05817474 5.19186746 60.60640626
4.88209844 26.41150351 50.05496622
3 1 2 7
3 1 7 6
3 2 3 8
3 2 8 7
3 3 4 9
3 3 9 8
3 4 0 5
3 4 5 9
3 0 1 6
3 0 6 5
3 4 3 0
3 0 3 1
3 1 3 2
3 5 8 9
3 6 8 5
3 7 8 6
