ply
format ascii 1.0
comment VCGLIB generated
element vertex 12
property float x
property float y
property float z
element face 20
property list uchar int vertex_indices
end_header
20.65284111 4.40904497 -7.77244816
5.13152954 -20.22091686 -1.87018923
-4.25607025 -22.04052919 0.05759014
-20.75113289 -0.20523057 -2.30529846
-8.22469820 13.95673693 0.77145205
12.62907076 22.30047082 1.61960699
18.41117137 3.24607760 39.86988924
2.08291620 -10.59951593 40.81196398
-11.88921326 -16.26709564 37.52457019
-15.45778810 -4.89969706 39.13834721
-12.95430476 16.92157369 36.59817752
3.14504139 9.10862280 36.36147950
3 1 0 7
3 7 0 6
3 2 1 8
3 8 1 7
3 3 2 9
3 9 2 8
3 4 3 10
3 10 3 9
3 5 4 11
3 11 4 10
3 0 5 6
3 6 5 11
3 5 3 4
3 5 2 3
3 0 2 5
3 1 2 0
3 10 9 11
3 11 9 8
3 11 8 6
3 6 8 7
