ply
format ascii 1.0
comment VCGLIB generated
element vertex 12
property float x
property float y
property float z
element face 20
property list uchar int vertex_indices
end_header
22.77399705 3.88035117 -8.75176534
9.02713672 -26.97091529 5.23047406
-12.13706764 -19.43322121 -1.09779159
-27.98605018 -2.05530682 -3.55057428
-7.54264002 19.99668913 -5.09516294
9.99646144 18.76174604 -2.11031862
18.76949646 1.18310807 43.25225596
12.85649873 -19.90179067 47.33208529
-8.15496536 -17.62954625 41.15520998
-19.42760326 -3.54908063 45.88702521
-12.81403053 21.59329966 43.63253248
17.42248265 20.02943152 45.24743881
3 1 0 7
3 7 0 6
3 2 1 8
3 8 1 7
3 3 2 9
3 9 2 8
3 4 3 10
3 10 3 9
3 5 4 11
3 11 4 10
3 0 5 6
3 6 5 11
3 5 3 4
3 5 2 3
3 0 2 5
3 1 2 0
3 10 9 11
3 11 9 8
3 11 8 6
3 6 8 7
