ply
format ascii 1.0
comment VCGLIB generated
element vertex 12
property float x
property float y
property float z
element face 20
property list uchar int vertex_indices
end_header
15.80243505 -0.25369471 1.39782097
7.19993971 -14.64220398 1.66622546
-3.94934831 -15.75909029 0.67354028
-18.11613449 -1.53446786 -3.60969825
-11.35955792 24.15723505 5.41725404
11.23011431 13.03530277 0.40989078
27.17684887 1.88731402 51.75559838
4.92296542 -12.39893736 36.23596539
-4.37065407 -19.55240816 38.84786479
-19.04520940 -0.78167254 43.48612416
-9.93655018 12.75521921 35.90294981
4.64531311 24.16857588 41.61260362
3 1 0 7
3 7 0 6
3 2 1 8
3 8 1 7
3 3 2 9
3 9 2 8
3 4 3 10
3 10 3 9
3 5 4 11
3 11 4 10
3 0 5 6
3 6 5 11
3 5 3 4
3 5 2 3
3 0 2 5
3 1 2 0
3 10 9 11
3 11 9 8
3 11 8 6
3 6 8 7
