ply
format ascii 1.0
comment VCGLIB generated
element vertex 10
property float x
property float y
property float z
element face 16
property list uchar int vertex_indices
end_header
-3.54337806 -0.00208378 0.90098450
-1.30069523 -1.84605113 -0.53735502
2.52122961 -2.00915366 0.08419863
2.96914311 1.41290873 -0.56708380
-0.12603244 3.37379837 -0.47391695
-5.44223860 1.60573936 7.54228263
-1.79044277 -3.60182188 7.22250775
2.29461662 -2.95661874 7.24863831
4.26637245 1.52756644 7.92450109
0.42183213 5.29966065 8.14341098
3 1 2 7
3 1 7 6
3 2 3 8
3 2 8 7
3 3 4 9
3 3 9 8
3 4 0 5
3 4 5 9
3 0 1 6
3 0 6 5
3 4 3 0
3 0 3 1
3 1 3 2
3 5 8 9
3 6 8 5
3 7 8 6
