ply
format ascii 1.0
comment VCGLIB generated
element vertex 10
property float x
property float y
property float z
element face 16
property list uchar int vertex_indices
end_header
-20.76511231 4.47743461 -6.89981528
-11.76398308 -24.81386555 -7.51638919
12.45657011 -22.22030866 2.54083549
23.39251734 8.04840111 -7.19863268
-5.97063537 28.76652709 -0.56956313
-26.58319416 8.30256851 42.31890411
-10.31774276 -25.15332493 47.31794226
15.44245430 -22.30791138 49.58862367
11.21700075 14.54636858 46.35627280
0.26208918 20.70827144 43.53423830
3 1 2 7
3 1 7 6
3 2 3 8
3 2 8 7
3 3 4 9
3 3 9 8
3 4 0 5
3 4 5 9
3 0 1 6
3 0 6 5
3 4 3 0
3 0 3 1
3 1 3 2
3 5 8 9
3 6 8 5
3 7 8 6
