ply
format ascii 1.0
comment VCGLIB generated
element vertex 8
property float x
property float y
property float z
element face 12
property list uchar int vertex_indices
end_header
-9.80376177 -9.40910761 0.37948574
10.07137522 -12.67646819 1.26575257
11.21010642 8.22859220 0.39199756
-9.61467952 9.05906016 4.64758957
-12.76125636 -7.48413298 21.22118293
7.82931276 -10.78583715 23.74923620
9.17734473 8.64957203 25.00103324
-10.32751863 10.12017559 25.06958267
3 0 1 5
3 0 5 4
3 1 2 6
3 1 6 5
3 2 3 7
3 2 7 6
3 3 0 4
3 3 4 7
3 2 1 0
3 2 0 3
3 6 4 5
3 6 7 4
