ply
format ascii 1.0
comment VCGLIB generated
element vertex 12
property float x
property float y
property float z
element face 20
property list uchar int vertex_indices
end_header
14.00443103 0.70175503 2.25664392
3.72194905 -9.11429464 -2.08633364
-3.10960299 -10.76802897 0.85835990
-10.13728633 4.63516184 0.13959554
-5.90369680 9.44651712 -2.16611268
6.10922637 10.72427556 -0.06077629
14.66702673 5.89695336 21.77995203
7.28108110 -7.29647384 27.29357610
-7.56686498 -11.10045249 25.40386642
-12.64912914 1.47297630 24.84216882
-3.57199115 9.85251313 25.24186520
6.31058643 11.30886545 28.33477937
3 1 0 7
3 7 0 6
3 2 1 8
3 8 1 7
3 3 2 9
3 9 2 8
3 4 3 10
3 10 3 9
3 5 4 11
3 11 4 10
3 0 5 6
3 6 5 11
3 5 3 4
3 5 2 3
3 0 2 5
3 1 2 0
3 10 9 11
3 11 9 8
3 11 8 6
3 6 8 7
