ply
format ascii 1.0
comment VCGLIB generated
element vertex 10
property float x
property float y
property float z
element face 16
property list uchar int vertex_indices
end_header
-7.01400092 2.88618410 -2.38860680
-3.40575415 -4.79796719 0.02216457
2.68698575 -4.87484781 -1.37503314
3.96125836 2.35467023 0.02696926
0.09945455 5.62194547 -1.83786468
-7.32864790 2.74153693 11.92753179
-1.69273726 -3.64314461 11.01757437
4.05969665 -2.68088366 10.55586015
5.32894510 1.02293081 11.86681838
-0.19132213 7.26727646 10.79835343
3 1 2 7
3 1 7 6
3 2 3 8
3 2 8 7
3 3 4 9
3 3 9 8
3 4 0 5
3 4 5 9
3 0 1 6
3 0 6 5
3 4 3 0
3 0 3 1
3 1 3 2
3 5 8 9
3 6 8 5
3 7 8 6
