ply
format ascii 1.0
comment VCGLIB generated
element vertex 10
property float x
property float y
property float z
element face 16
property list uchar int vertex_indices
end_header
-4.98530489 1.93727790 -0.17649090
-2.54097454 -6.64518302 -1.06285675
1.65180580 -6.16651053 1.28983723
8.21324589 -0.14675874 -1.48465530
-1.21667420 7.44616026 -0.89373309
-6.17498181 2.51884451 12.38457285
-3.65385033 -4.10966202 13.56071962
3.88933006 -5.58828289 16.21919890
6.47830656 1.44653907 14.03696697
0.02077578 4.92272858 8.90967523
3 1 2 7
3 1 7 6
3 2 3 8
3 2 8 7
3 3 4 9
3 3 9 8
3 4 0 5
3 4 5 9
3 0 1 6
3 0 6 5
3 4 3 0
3 0 3 1
3 1 3 2
3 5 8 9
3 6 8 5
3 7 8 6
