ply
format ascii 1.0
comment VCGLIB generated
element vertex 12
property float x
property float y
property float z
element face 20
property list uchar int vertex_indices
end_header
13.93475025 0.66816365 6.39383220
24.25271928 -24.95435293 -4.05661347
-17.33814078 -21.46678120 -3.86149509
-33.55588515 0.33811014 0.68178981
-13.81374524 27.60550688 5.91847451
16.96680452 28.02227126 -7.67306330
44.09148173 0.74099243 63.50389365
16.18055160 -23.13244695 59.47217572
-11.97769890 -26.44905997 56.75801372
-36.69744796 8.37527035 56.45617064
-16.49599569 24.40174233 58.35893277
15.48759542 23.16950208 63.96397536
3 1 0 7
3 7 0 6
3 2 1 8
3 8 1 7
3 3 2 9
3 9 2 8
3 4 3 10
3 10 3 9
3 5 4 11
3 11 4 10
3 0 5 6
3 6 5 11
3 5 3 4
3 5 2 3
3 0 2 5
3 1 2 0
3 10 9 11
3 11 9 8
3 11 8 6
3 6 8 7
