ply
format ascii 1.0
comment VCGLIB generated
element vertex 12
property float x
property float y
property float z
element face 20
property list uchar int vertex_indices
end_header
5.45240278 0.50855994 2.86172281
4.48954696 -6.73845727 1.29224805
-2.84079513 -4.16240657 -1.43380452
-9.42462397 -1.53565091 -1.35379899
-1.55979814 5.94707453 2.91511656
6.68811318 8.39610560 1.28848627
6.20804077 3.17935711 14.04606691
3.89015843 -8.35014209 10.70305324
-4.85064712 -4.00977608 15.35040088
-8.64984026 -0.24186065 11.87958795
-2.64215585 5.75960750 14.75046927
4.87469870 7.71842444 14.21934759
3 1 0 7
3 7 0 6
3 2 1 8
3 8 1 7
3 3 2 9
3 9 2 8
3 4 3 10
3 10 3 9
3 5 4 11
3 11 4 10
3 0 5 6
3 6 5 11
3 5 3 4
3 5 2 3
3 0 2 5
3 1 2 0
3 10 9 11
3 11 9 8
3 11 8 6
3 6 8 7
