ply
format ascii 1.0
comment VCGLIB generated
element vertex 12
property float x
property float y
property float z
element face 20
property list uchar int vertex_indices
end_header
18.36745177 -1.47364969 -1.09404021
10.93949880 -19.30172840 -6.61330662
-14.33658482 -20.64347294 -0.93706902
-26.90746507 4.63755981 0.90579538
-7.69489861 19.51880687 -5.01390805
7.19409883 17.58165641 -4.20703873
15.11236196 1.85781550 48.36342761
11.34842821 -19.10359648 43.73241710
-11.18542704 -16.73165883 43.07509344
-26.48935670 2.88164254 35.06034047
-11.54207718 18.04314765 43.17568663
10.64584612 22.51778338 43.31079649
3 1 0 7
3 7 0 6
3 2 1 8
3 8 1 7
3 3 2 9
3 9 2 8
3 4 3 10
3 10 3 9
3 5 4 11
3 11 4 10
3 0 5 6
3 6 5 11
3 5 3 4
3 5 2 3
3 0 2 5
3 1 2 0
3 10 9 11
3 11 9 8
3 11 8 6
3 6 8 7
