ply
format ascii 1.0
comment VCGLIB generated
element vertex 8
property float x
property float y
property float z
element face 12
property list uchar int vertex_indices
end_header
-7.07497147 -5.66655575 0.96002926
7.36212747 -6.66074450 0.62926764
6.45787632 7.42144774 -2.42138572
-10.63201565 9.21801762 -0.83487052
-9.56664088 -6.40462569 14.27551789
2.50311880 -6.26615343 15.92969169
4.65599830 7.67151631 17.70425413
-6.62097629 3.91203660 17.80302125
3 0 1 5
3 0 5 4
3 1 2 6
3 1 6 5
3 2 3 7
3 2 7 6
3 3 0 4
3 3 4 7
3 2 1 0
3 2 0 3
3 6 4 5
3 6 7 4
