ply
format ascii 1.0
comment VCGLIB generated
element vertex 8
property float x
property float y
property float z
element face 12
property list uchar int vertex_indices
end_header
-1.46101094 -2.87579799 -0.42315313
3.13828752 -1.59906618 -1.13061367
1.73649171 2.41656592 0.02577209
-2.08680104 2.45576121 0.39656357
-2.82645328 -2.11588147 6.81759490
2.84149439 -2.09179082 5.63338124
2.84921832 2.05226610 7.26929851
-3.27961221 1.87774569 6.29515094
3 0 1 5
3 0 5 4
3 1 2 6
3 1 6 5
3 2 3 7
3 2 7 6
3 3 0 4
3 3 4 7
3 2 1 0
3 2 0 3
3 6 4 5
3 6 7 4
