ply
format ascii 1.0
comment VCGLIB generated
element vertex 12
property float x
property float y
property float z
element face 20
property list uchar int vertex_indices
end_header
23.58578719 4.21296531 -5.00965670
11.17483922 -11.87661971 -1.15066825
-9.93958418 -15.91291169 1.40589089
-14.92730108 -6.47201266 3.82738627
-5.35495599 12.22963095 2.13728048
2.13345192 18.47182816 0.02575657
15.38362180 -2.71216229 31.09478936
10.75061444 -10.04743863 29.90715063
-6.79783524 -10.99735781 39.55067960
-12.84408209 -4.51469783 36.81387628
-9.42166755 19.33267127 32.39045359
8.28086881 10.02106739 32.21709711
3 1 0 7
3 7 0 6
3 2 1 8
3 8 1 7
3 3 2 9
3 9 2 8
3 4 3 10
3 10 3 9
3 5 4 11
3 11 4 10
3 0 5 6
3 6 5 11
3 5 3 4
3 5 2 3
3 0 2 5
3 1 2 0
3 10 9 11
3 11 9 8
3 11 8 6
3 6 8 7
