ply
format ascii 1.0
comment VCGLIB generated
element vertex 10
property float x
property float y
property float z
element face 16
property list uchar int vertex_indices
end_header
-30.76882180 2.55326482 0.27408355
-16.39040461 -24.08106160 -0.97411979
13.58091176 -17.40374285 2.54279152
28.05503551 8.77936834 -2.08584121
-6.00045824 20.83301187 0.14512405
-17.60607648 8.53696795 60.05964039
-17.48919809 -11.80349448 48.35405714
13.32444889 -15.06071084 47.40246357
29.76988247 3.16191582 42.76619731
8.10392725 30.77344657 49.16265085
3 1 2 7
3 1 7 6
3 2 3 8
3 2 8 7
3 3 4 9
3 3 9 8
3 4 0 5
3 4 5 9
3 0 1 6
3 0 6 5
3 4 3 0
3 0 3 1
3 1 3 2
3 5 8 9
3 6 8 5
3 7 8 6
