ply
format ascii 1.0
comment VCGLIB generated
element vertex 10
property float x
property float y
property float z
element face 16
property list uchar int vertex_indices
end_header
-12.90982436 16.25766495 6.45770831
-16.32052072 -11.05489109 -5.89109598
17.72887544 -12.08430472 7.30257279
19.85015733 8.01497496 2.26178197
2.85220113 30.45316969 6.10260140
-29.13046095 1.69113304 47.18918987
-11.58615857 -10.92251902 37.56546594
13.59638933 -13.38789701 47.40435205
21.04749528 9.21178886 40.82255779
5.99192862 20.29909426 50.99307572
3 1 2 7
3 1 7 6
3 2 3 8
3 2 8 7
3 3 4 9
3 3 9 8
3 4 0 5
3 4 5 9
3 0 1 6
3 0 6 5
3 4 3 0
3 0 3 1
3 1 3 2
3 5 8 9
3 6 8 5
3 7 8 6
