ply
format ascii 1.0
comment VCGLIB generated
element vertex 12
property float x
property float y
property float z
element face 20
property list uchar int vertex_indices
end_header
11.20315386 0.14999142 2.90391415
11.81584007 -4.52835982 -2.78196234
-3.44406407 -11.73811811 0.36530308
-14.37182024 4.96027872 -2.72601559
-6.28786305 12.79026523 2.21252537
5.47093037 13.81456504 -4.02866869
15.94286036 0.04837662 26.80157459
7.62089451 -11.44597604 30.63806171
-4.38529520 -12.89911172 30.45334827
-11.93594244 -1.58460523 30.29801855
-5.19946617 11.94909399 24.85944883
8.63115623 10.78546154 25.35827314
3 1 0 7
3 7 0 6
3 2 1 8
3 8 1 7
3 3 2 9
3 9 2 8
3 4 3 10
3 10 3 9
3 5 4 11
3 11 4 10
3 0 5 6
3 6 5 11
3 5 3 4
3 5 2 3
3 0 2 5
3 1 2 0
3 10 9 11
3 11 9 8
3 11 8 6
3 6 8 7
