ply
format ascii 1.0
comment VCGLIB generated
element vertex 8
property float x
property float y
property float z
element face 12
property list uchar int vertex_indices
end_header
-19.83239940 -20.31362884 -2.87452322
18.07410048 -15.41655639 4.16782340
24.34893798 7.82610697 5.00858592
-24.60816551 20.81324617 2.41095706
-31.23399060 -22.83091547 54.08755818
20.85649802 -25.99313825 49.67091852
18.79351374 20.73575028 56.55830207
-25.35957310 19.94144279 44.53154883
3 0 1 5
3 0 5 4
3 1 2 6
3 1 6 5
3 2 3 7
3 2 7 6
3 3 0 4
3 3 4 7
3 2 1 0
3 2 0 3
3 6 4 5
3 6 7 4
