ply
format ascii 1.0
comment VCGLIB generated
element vertex 10
property float x
property float y
property float z
element face 16
property list uchar int vertex_indices
end_header
-25.13054880 1.75310260 5.04204612
-18.56805308 -19.36197534 -4.61443315
13.15089648 -22.63911238 6.46142974
32.53029897 0.78861799 -1.00341214
-0.12161707 25.81968111 -4.17868542
-35.49316223 1.97520317 43.44000980
-21.38298893 -22.58988650 48.26542764
16.66621076 -18.33019264 50.74073188
31.28969581 12.56348237 54.01760632
3.81738047 29.06634711 56.15004301
3 1 2 7
3 1 7 6
3 2 3 8
3 2 8 7
3 3 4 9
3 3 9 8
3 4 0 5
3 4 5 9
3 0 1 6
3 0 6 5
3 4 3 0
3 0 3 1
3 1 3 2
3 5 8 9
3 6 8 5
3 7 8 6
