ply
format ascii 1.0
comment VCGLIB generated
element vertex 12
property float x
property float y
property float z
element face 20
property list uchar int vertex_indices
end_header
29.38318224 -6.98013851 2.06332577
15.51701729 -38.06255325 -2.23434638
-17.50259195 -8.14299356 -7.18880109
-32.21012987 4.08120389 7.07619956
-27.87835655 32.29985668 -1.29557047
18.27054118 26.43586833 -0.34966426
24.08177721 -0.47157970 58.52478124
14.90977985 -26.18849459 53.25517966
-9.91842242 -27.86188156 57.56546791
-33.35159839 1.76289571 53.76949800
-15.14981760 28.24725940 60.83358289
16.49653468 21.44119061 58.98355530
3 1 0 7
3 7 0 6
3 2 1 8
3 8 1 7
3 3 2 9
3 9 2 8
3 4 3 10
3 10 3 9
3 5 4 11
3 11 4 10
3 0 5 6
3 6 5 11
3 5 3 4
3 5 2 3
3 0 2 5
3 1 2 0
3 10 9 11
3 11 9 8
3 11 8 6
3 6 8 7
