ply
format ascii 1.0
comment VCGLIB generated
element vertex 8
property float x
property float y
property float z
element face 12
property list uchar int vertex_indices
end_header
-9.69636648 -8.24167181 3.10450587
12.77844943 -7.60159496 3.19876829
10.81697770 15.67739537 -4.93650656
-11.14648965 5.99339008 2.83477311
-13.79271426 -13.17406789 31.15226549
10.89222374 -12.81381500 30.13338605
15.89180848 12.26136533 31.98315203
-11.99140224 12.31879616 32.18194667
3 0 1 5
3 0 5 4
3 1 2 6
3 1 6 5
3 2 3 7
3 2 7 6
3 3 0 4
3 3 4 7
3 2 1 0
3 2 0 3
3 6 4 5
3 6 7 4
