ply
format ascii 1.0
comment VCGLIB generated
element vertex 10
property float x
property float y
property float z
element face 16
property list uchar int vertex_indices
end_header
-8.93071103 11.93776445 4.00020377
-8.36458602 -12.51470721 -1.42259378
2.50502198 -12.59881390 2.34070367
9.78847453 -3.45402186 1.36592234
-0.70431298 15.31705454 0.74313782
-20.43146794 3.14058451 30.19981910
-10.24298719 -9.92901395 28.68681107
10.09035546 -8.50783683 27.47877659
14.64415316 5.53197635 28.23714844
-1.39136429 15.50870425 25.38362177
3 1 2 7
3 1 7 6
3 2 3 8
3 2 8 7
3 3 4 9
3 3 9 8
3 4 0 5
3 4 5 9
3 0 1 6
3 0 6 5
3 4 3 0
3 0 3 1
3 1 3 2
3 5 8 9
3 6 8 5
3 7 8 6
