ply
format ascii 1.0
comment VCGLIB generated
element vertex 10
property float x
property float y
property float z
element face 16
property list uchar int vertex_indices
end_header
-22.21301248 8.44024212 3.34867406
-6.93122452 -13.93359679 -5.31842827
10.87927731 -15.70614543 -0.95070566
24.00906204 5.34593704 -4.37520390
3.46120303 16.76969235 -0.57154010
-22.47516780 9.12917842 37.70066790
-14.69669734 -13.85079249 36.31070367
15.01579618 -16.48473663 41.15780843
23.43771423 9.27929914 39.10570372
-8.01708774 20.52177727 36.94517963
3 1 2 7
3 1 7 6
3 2 3 8
3 2 8 7
3 3 4 9
3 3 9 8
3 4 0 5
3 4 5 9
3 0 1 6
3 0 6 5
3 4 3 0
3 0 3 1
3 1 3 2
3 5 8 9
3 6 8 5
3 7 8 6
