ply
format ascii 1.0
comment VCGLIB generated
element vertex 10
property float x
property float y
property float z
element face 16
property list uchar int vertex_indices
end_header
-28.04519813 10.44258985 0.42587633
-13.32148913 -24.05146082 0.78688506
25.29329234 -12.81686879 -9.15973877
23.83071784 5.21732716 3.68570220
-7.27133404 20.78778839 -3.97585631
-29.79316430 10.44853376 43.30862260
-15.70956465 -17.04898468 42.93660298
8.98890186 -15.92326438 48.89288396
24.37448531 10.06615300 52.92878145
1.88508896 22.94098690 51.26441505
3 1 2 7
3 1 7 6
3 2 3 8
3 2 8 7
3 3 4 9
3 3 9 8
3 4 0 5
3 4 5 9
3 0 1 6
3 0 6 5
3 4 3 0
3 0 3 1
3 1 3 2
3 5 8 9
3 6 8 5
3 7 8 6
