ply
format ascii 1.0
comment VCGLIB generated
element vertex 12
property float x
property float y
property float z
element face 20
property list uchar int vertex_indices
end_header
3.28753176 1.01573830 -1.04978696
1.45682398 -1.63166923 0.08503370
-3.04780123 -4.74213736 -0.82070116
-6.10671019 -0.71024067 0.16146016
-1.66259604 3.25589407 -0.37273598
2.07083364 2.97032485 0.57835013
4.24046004 -0.55401779 11.40111729
1.26168734 -5.60990014 8.51360086
-0.70541890 -3.65655526 8.73542994
-3.76882700 -1.48703331 9.65435922
-2.87665134 3.70753043 11.16904571
0.97590690 3.66483673 7.06839897
3 1 0 7
3 7 0 6
3 2 1 8
3 8 1 7
3 3 2 9
3 9 2 8
3 4 3 10
3 10 3 9
3 5 4 11
3 11 4 10
3 0 5 6
3 6 5 11
3 5 3 4
3 5 2 3
3 0 2 5
3 1 2 0
3 10 9 11
3 11 9 8
3 11 8 6
3 6 8 7
