ply
format ascii 1.0
comment VCGLIB generated
element vertex 8
property float x
property float y
property float z
element face 12
property list uchar int vertex_indices
end_header
-7.09306272 -10.70861001 -3.57853290
9.35803012 -14.60114596 5.94905101
9.58279950 12.00197628 0.29774780
-7.12578073 10.48925170 2.51778467
-7.04031783 -9.06742040 23.76686901
8.07385687 -4.26492158 23.75209571
11.80222148 8.94259354 20.32240729
-11.06689268 13.38018118 26.28657163
3 0 1 5
3 0 5 4
3 1 2 6
3 1 6 5
3 2 3 7
3 2 7 6
3 3 0 4
3 3 4 7
3 2 1 0
3 2 0 3
3 6 4 5
3 6 7 4
