ply
format ascii 1.0
comment VCGLIB generated
element vertex 12
property float x
property float y
property float z
element face 20
property list uchar int vertex_indices
end_header
4.85459308 -3.26489091 -0.43199085
3.65141801 -8.26577804 -2.16162855
-3.19199215 -6.23481419 -0.42111572
-9.56623059 -1.13263848 -1.54763932
-0.21870808 7.62620031 0.45422344
2.23444694 6.35150094 0.41183955
9.58542973 0.41906095 17.05947829
4.31343218 -6.08913310 17.17599403
-4.99237432 -7.51363729 15.79874973
-8.20984447 2.29250399 17.85697508
-4.27314895 5.47132746 17.87117046
4.03163626 8.19852759 17.26411115
3 1 0 7
3 7 0 6
3 2 1 8
3 8 1 7
3 3 2 9
3 9 2 8
3 4 3 10
3 10 3 9
3 5 4 11
3 11 4 10
3 0 5 6
3 6 5 11
3 5 3 4
3 5 2 3
3 0 2 5
3 1 2 0
3 10 9 11
3 11 9 8
3 11 8 6
3 6 8 7
