ply
format ascii 1.0
comment VCGLIB generated
element vertex 12
property float x
property float y
property float z
element face 20
property list uchar int vertex_indices
end_header
24.47508051 1.25378323 -3.94730733
8.74438754 -21.58665003 2.74984025
-3.76666534 -26.99700266 0.61876094
-20.10550122 5.13382845 3.94016965
-8.78334633 22.29349224 -3.12876067
8.67336102 8.26479701 -3.17318012
23.32295018 6.54613700 47.89231404
5.11121530 -22.63474422 49.73884217
-2.71266073 -21.59921843 44.02107059
-28.48404201 3.26971437 51.41563026
-8.29731629 16.49023554 47.42798007
15.14265377 24.42838519 47.13176723
3 1 0 7
3 7 0 6
3 2 1 8
3 8 1 7
3 3 2 9
3 9 2 8
3 4 3 10
3 10 3 9
3 5 4 11
3 11 4 10
3 0 5 6
3 6 5 11
3 5 3 4
3 5 2 3
3 0 2 5
3 1 2 0
3 10 9 11
3 11 9 8
3 11 8 6
3 6 8 7
