ply
format ascii 1.0
comment VCGLIB generated
element vertex 8
property float x
property float y
property float z
element face 12
property list uchar int vertex_indices
end_header
-16.98352729 -18.60413124 3.01310225
16.87812642 -9.04638779 -0.86681915
24.32122392 13.38550498 3.57890344
-14.93164648 23.66028545 2.22839784
-19.71038445 -11.13309485 46.74908991
14.81129365 -12.13786432 44.94817907
17.31207776 20.56476060 47.51787082
-22.68232264 18.68075106 51.02967830
3 0 1 5
3 0 5 4
3 1 2 6
3 1 6 5
3 2 3 7
3 2 7 6
3 3 0 4
3 3 4 7
3 2 1 0
3 2 0 3
3 6 4 5
3 6 7 4
