ply
format ascii 1.0
comment VCGLIB generated
element vertex 10
property float x
property float y
property float z
element face 16
property list uchar int vertex_indices
end_header
-36.57850843 9.06101619 -7.14673386
-17.44014672 -25.24856819 2.40176160
20.04796586 -18.26014731 4.86494572
25.19059543 16.90816396 -7.78003254
-4.15636264 28.97612179 -0.34493173
-34.79403972 15.07086463 58.08572687
-11.10992597 -20.56186225 67.86659973
12.88112502 -31.80267639 58.12254323
30.90598363 0.68993714 62.83496321
-8.11828449 30.34693398 53.99857028
3 1 2 7
3 1 7 6
3 2 3 8
3 2 8 7
3 3 4 9
3 3 9 8
3 4 0 5
3 4 5 9
3 0 1 6
3 0 6 5
3 4 3 0
3 0 3 1
3 1 3 2
3 5 8 9
3 6 8 5
3 7 8 6
