ply
format ascii 1.0
comment VCGLIB generated
element vertex 8
property float x
property float y
property float z
element face 12
property list uchar int vertex_indices
end_header
-15.29747691 -12.38524942 -1.98306960
10.89609499 -13.95168446 -4.20395979
9.10548263 13.91689988 3.10165927
-13.98791933 9.26943670 2.11724098
-15.20887526 -10.94525525 36.49395774
16.54673976 -13.84974614 25.13525376
19.21478576 16.82475613 33.27461455
-18.20912185 10.18480374 35.47053552
3 0 1 5
3 0 5 4
3 1 2 6
3 1 6 5
3 2 3 7
3 2 7 6
3 3 0 4
3 3 4 7
3 2 1 0
3 2 0 3
3 6 4 5
3 6 7 4
