ply
format ascii 1.0
comment VCGLIB generated
element vertex 8
property float x
property float y
property float z
element face 12
property list uchar int vertex_indices
end_header
-14.00434661 -13.46740391 2.71941020
15.72152423 -22.88487381 -1.82842179
10.60030874 16.25604013 -0.97728435
-12.32512331 14.78544642 -4.03769289
-10.84803378 -15.04661260 39.73220781
13.80882007 -13.36785289 42.54340013
15.62317371 12.76269732 39.01809833
-15.95702001 10.84690508 44.12685284
3 0 1 5
3 0 5 4
3 1 2 6
3 1 6 5
3 2 3 7
3 2 7 6
3 3 0 4
3 3 4 7
3 2 1 0
3 2 0 3
3 6 4 5
3 6 7 4
