ply
format ascii 1.0
comment VCGLIB generated
element vertex 12
property float x
property float y
property float z
element face 20
property list uchar int vertex_indices
end_header
14.34879836 3.36323828 1.40543490
2.48667471 -14.56044060 -0.45576164
-6.83421529 -14.63757119 4.42409090
-18.38750158 -2.82191105 -2.22304623
-6.47547444 14.19295652 -3.08545618
11.21507700 11.19252244 -9.02939420
16.10959832 4.78906140 34.37144507
8.63312727 -13.41878747 30.56525314
-9.45711750 -11.82372464 28.12999072
-16.93734257 2.38644870 31.50930349
-7.76183330 16.30747104 30.37617488
14.77175037 20.02540177 25.89654580
3 1 0 7
3 7 0 6
3 2 1 8
3 8 1 7
3 3 2 9
3 9 2 8
3 4 3 10
3 10 3 9
3 5 4 11
3 11 4 10
3 0 5 6
3 6 5 11
3 5 3 4
3 5 2 3
3 0 2 5
3 1 2 0
3 10 9 11
3 11 9 8
3 11 8 6
3 6 8 7
