ply
format ascii 1.0
comment VCGLIB generated
element vertex 8
property float x
property float y
property float z
element face 12
property list uchar int vertex_indices
end_header
-25.88425960 -10.76938311 -0.69624984
16.93345072 -18.49549656 -1.23430830
12.30669491 11.54748860 -5.39055454
-10.81385179 15.58201743 5.36155206
-19.42499890 -14.89607277 44.24954709
16.88728530 -18.27724284 42.66622510
9.94818408 16.25137682 35.53177765
-17.66923564 18.54473795 39.88852010
3 0 1 5
3 0 5 4
3 1 2 6
3 1 6 5
3 2 3 7
3 2 7 6
3 3 0 4
3 3 4 7
3 2 1 0
3 2 0 3
3 6 4 5
3 6 7 4
