ply
format ascii 1.0
comment VCGLIB generated
element vertex 10
property float x
property float y
property float z
element face 16
property list uchar int vertex_indices
end_header
-12.84433619 3.17090045 -4.56238882
-10.61344592 -17.31341271 -1.25069251
10.63436420 -8.67542614 10.29765438
20.73266389 3.43622518 3.17975692
2.20802293 15.55909258 0.49498968
-14.74254197 6.28480345 26.89058671
-13.86493492 -15.72964583 33.17488713
11.59196903 -17.47729804 37.96462338
15.95812169 9.77078387 26.69694089
-3.93819875 19.15471278 31.09105480
3 1 2 7
3 1 7 6
3 2 3 8
3 2 8 7
3 3 4 9
3 3 9 8
3 4 0 5
3 4 5 9
3 0 1 6
3 0 6 5
3 4 3 0
3 0 3 1
3 1 3 2
3 5 8 9
3 6 8 5
3 7 8 6
