ply
format ascii 1.0
comment VCGLIB generated
element vertex 10
property float x
property float y
property float z
element face 16
property list uchar int vertex_indices
end_header
-28.20069101 10.72300887 -2.59669660
-21.95293854 -23.08553381 -2.21201208
19.86607958 -25.09444755 -3.21497196
17.41172414 12.89582108 -9.09292520
4.94524232 25.61549521 -4.78877150
-26.15583219 15.42780332 52.79593049
-20.25154849 -14.04768123 43.87916294
19.68891118 -27.12386413 50.88610009
30.89831778 12.77161929 55.06597546
-5.62919409 30.90538242 50.70558497
3 1 2 7
3 1 7 6
3 2 3 8
3 2 8 7
3 3 4 9
3 3 9 8
3 4 0 5
3 4 5 9
3 0 1 6
3 0 6 5
3 4 3 0
3 0 3 1
3 1 3 2
3 5 8 9
3 6 8 5
3 7 8 6
