ply
format ascii 1.0
comment VCGLIB generated
element vertex 8
property float x
property float y
property float z
element face 12
property list uchar int vertex_indices
end_header
-2.36851129 -4.77471820 0.51173004
4.33829404 -0.97823767 -0.49628335
2.81084844 4.17518740 1.85917618
-2.63195885 2.73333360 0.23620491
-3.12461638 -4.26535736 9.38909270
1.83814332 -4.06206747 9.78127496
4.23397419 2.03236574 9.12239836
-1.65373594 4.62949766 8.73519668
3 0 1 5
3 0 5 4
3 1 2 6
3 1 6 5
3 2 3 7
3 2 7 6
3 3 0 4
3 3 4 7
3 2 1 0
3 2 0 3
3 6 4 5
3 6 7 4
