ply
format ascii 1.0
comment VCGLIB generated
element vertex 10
property float x
property float y
property float z
element face 16
property list uchar int vertex_indices
end_header
-12.71726007 1.76159154 -2.44649952
-10.82124012 -16.24640276 -5.98332029
10.85917453 -15.61738586 -7.70039255
15.71181612 2.54152688 -1.19481953
-0.41365690 11.65601011 1.66418864
-10.44916321 7.85344946 33.78405438
-7.14284782 -12.54569731 36.22867779
4.64226387 -19.66210285 32.72467045
16.11151156 6.82062893 36.24305919
-0.97952816 16.11674134 36.01951554
3 1 2 7
3 1 7 6
3 2 3 8
3 2 8 7
3 3 4 9
3 3 9 8
3 4 0 5
3 4 5 9
3 0 1 6
3 0 6 5
3 4 3 0
3 0 3 1
3 1 3 2
3 5 8 9
3 6 8 5
3 7 8 6
