ply
format ascii 1.0
comment VCGLIB generated
element vertex 12
property float x
property float y
property float z
element face 20
property list uchar int vertex_indices
end_header
18.43362749 4.65769640 -1.59113224
16.00675440 -30.58132259 6.64602451
-6.75248632 -8.19025500 10.30335379
-15.77771925 3.91082686 10.27508650
-12.35140935 26.25137501 0.10183725
13.77884144 24.79558556 4.19679549
33.78397722 2.96955893 47.68948002
13.14175870 -26.48149866 46.25112149
-4.18839448 -23.47625085 49.75301938
-24.82642521 5.99726832 52.25003231
-7.54576205 19.58959596 50.46776772
13.47025919 18.48887314 54.23429372
3 1 0 7
3 7 0 6
3 2 1 8
3 8 1 7
3 3 2 9
3 9 2 8
3 4 3 10
3 10 3 9
3 5 4 11
3 11 4 10
3 0 5 6
3 6 5 11
3 5 3 4
3 5 2 3
3 0 2 5
3 1 2 0
3 10 9 11
3 11 9 8
3 11 8 6
3 6 8 7
