ply
format ascii 1.0
comment VCGLIB generated
element vertex 8
property float x
property float y
property float z
element face 12
property list uchar int vertex_indices
end_header
-10.53309224 -12.81969614 2.97523353
11.84732243 -11.22346993 -2.80080180
14.88737606 11.74084539 -2.79626964
-10.34598524 8.25217283 -2.82810102
-12.08765556 -14.25999856 32.59635869
11.82872628 -14.70686179 32.40316987
10.63301491 15.16192759 34.75516462
-8.85940129 14.57777801 17.97750423
3 0 1 5
3 0 5 4
3 1 2 6
3 1 6 5
3 2 3 7
3 2 7 6
3 3 0 4
3 3 4 7
3 2 1 0
3 2 0 3
3 6 4 5
3 6 7 4
