ply
format ascii 1.0
comment VCGLIB generated
element vertex 8
property float x
property float y
property float z
element face 12
property list uchar int vertex_indices
end_header
-2.69547913 -1.73257640 -0.48578423
2.23247037 -2.10821340 -0.12982881
1.21416510 1.47333357 -0.19153857
-2.33340976 1.46809372 0.10450690
-1.58834537 -1.22167875 5.34367628
2.06820584 -2.34742607 4.63354391
2.29493024 1.77119652 4.59765006
-1.31567315 1.49166206 5.21202653
3 0 1 5
3 0 5 4
3 1 2 6
3 1 6 5
3 2 3 7
3 2 7 6
3 3 0 4
3 3 4 7
3 2 1 0
3 2 0 3
3 6 4 5
3 6 7 4
