ply
format ascii 1.0
comment VCGLIB generated
element vertex 12
property float x
property float y
property float z
element face 20
property list uchar int vertex_indices
end_header
14.37378458 0.09723172 -2.65994623
8.60307881 -8.44152270 2.33851829
-8.34368930 -10.66156678 0.37774727
-8.56679074 1.15260116 0.33409618
-6.82155836 6.67080351 0.30163488
3.87233350 11.37490840 -2.25125879
9.48852474 -2.12407878 29.30171896
5.99273877 -7.36895721 26.81276293
-7.13843310 -11.91464171 23.37968406
-12.81255864 4.94264387 26.77706841
-11.09314278 13.83081501 21.27287857
7.13945674 6.24084347 25.76852233
3 1 0 7
3 7 0 6
3 2 1 8
3 8 1 7
3 3 2 9
3 9 2 8
3 4 3 10
3 10 3 9
3 5 4 11
3 11 4 10
3 0 5 6
3 6 5 11
3 5 3 4
3 5 2 3
3 0 2 5
3 1 2 0
3 10 9 11
3 11 9 8
3 11 8 6
3 6 8 7
