ply
format ascii 1.0
comment VCGLIB generated
element vertex 8
property float x
property float y
property float z
element face 12
property list uchar int vertex_indices
end_header
-22.12863098 -6.78328807 1.91412988
18.68697712 -6.12032625 1.63898929
16.38381438 3.66673966 3.26173030
-20.76678369 17.30188711 0.37244412
-19.94259104 -18.14627599 47.70330256
12.16893931 -12.40389541 45.00466600
16.20041311 22.90606136 43.07584674
-16.52925024 16.48963246 36.75343722
3 0 1 5
3 0 5 4
3 1 2 6
3 1 6 5
3 2 3 7
3 2 7 6
3 3 0 4
3 3 4 7
3 2 1 0
3 2 0 3
3 6 4 5
3 6 7 4
