ply
format ascii 1.0
comment VCGLIB generated
element vertex 10
property float x
property float y
property float z
element face 16
property list uchar int vertex_indices
end_header
-4.81291223 0.39860368 -0.23352161
-0.80088227 -2.46773759 -0.26417639
3.42893071 -3.82037278 0.74111656
2.53110414 1.77340117 -1.14453290
0.24150717 4.21716746 -0.04282390
-2.59680242 1.85111984 7.98669513
-1.01276555 -3.46094906 7.09594796
1.85679661 -5.03332530 7.49916181
3.56659988 0.39675608 8.30083203
-2.06593998 4.75047239 7.78930527
3 1 2 7
3 1 7 6
3 2 3 8
3 2 8 7
3 3 4 9
3 3 9 8
3 4 0 5
3 4 5 9
3 0 1 6
3 0 6 5
3 4 3 0
3 0 3 1
3 1 3 2
3 5 8 9
3 6 8 5
3 7 8 6
