ply
format ascii 1.0
comment VCGLIB generated
element vertex 10
property float x
property float y
property float z
element face 16
property list uchar int vertex_indices
end_header
-19.42278121 7.54178968 -18.63594811
-17.13723441 -29.05305869 1.80368041
9.61389677 -24.89579770 6.08614253
28.64726947 2.68498473 -6.46891413
1.85275682 35.22550194 5.14830468
-15.38680948 7.28632887 47.22210098
-21.98195254 -10.60099421 57.02166876
15.76861051 -19.24033972 53.45770806
30.50137312 9.22642147 39.73766319
4.48369203 29.95935698 44.07650551
3 1 2 7
3 1 7 6
3 2 3 8
3 2 8 7
3 3 4 9
3 3 9 8
3 4 0 5
3 4 5 9
3 0 1 6
3 0 6 5
3 4 3 0
3 0 3 1
3 1 3 2
3 5 8 9
3 6 8 5
3 7 8 6
