ply
format ascii 1.0
comment VCGLIB generated
element vertex 12
property float x
property float y
property float z
element face 20
property list uchar int vertex_indices
end_header
5.05560275 1.83578501 1.49154296
0.35433698 -4.63590881 -0.49546499
-1.40118592 -3.19580054 1.32467624
-4.34951420 -1.34240557 -0.02424423
-2.18811158 4.22674261 -1.21496132
4.05308218 3.64664362 -0.83090850
6.40695847 0.73957553 9.62350544
1.50098086 -4.94449979 7.88412498
-2.09859600 -4.51377646 9.98132190
-4.51826170 -0.68351626 8.51279917
-2.66049691 3.71415581 8.22965861
1.45522027 3.78159489 9.34078499
3 1 0 7
3 7 0 6
3 2 1 8
3 8 1 7
3 3 2 9
3 9 2 8
3 4 3 10
3 10 3 9
3 5 4 11
3 11 4 10
3 0 5 6
3 6 5 11
3 5 3 4
3 5 2 3
3 0 2 5
3 1 2 0
3 10 9 11
3 11 9 8
3 11 8 6
3 6 8 7
