ply
format ascii 1.0
comment VCGLIB generated
element vertex 10
property float x
property float y
property float z
element face 16
property list uchar int vertex_indices
end_header
-17.40434822 9.20102911 -8.31533801
-7.82929622 -11.53046556 -1.21809083
10.41337224 -15.50296708 -0.19351529
13.37535254 3.30924774 4.29285579
-7.45452065 22.43876963 -4.28226804
-19.77547834 5.12824242 33.99077544
-12.55814009 -16.83026015 40.25385166
4.82573364 -14.23944385 40.90106267
18.80243743 2.64727819 27.86736308
4.38173483 13.54333365 31.10368833
3 1 2 7
3 1 7 6
3 2 3 8
3 2 8 7
3 3 4 9
3 3 9 8
3 4 0 5
3 4 5 9
3 0 1 6
3 0 6 5
3 4 3 0
3 0 3 1
3 1 3 2
3 5 8 9
3 6 8 5
3 7 8 6
