ply
format ascii 1.0
comment VCGLIB generated
element vertex 10
property float x
property float y
property float z
element face 16
property list uchar int vertex_indices
end_header
-24.77624962 10.71175248 1.50557242
-9.39349048 -23.51309702 -8.68758464
17.97239923 -12.76518690 -1.73040892
26.09393783 -2.99292993 8.73605278
1.59082917 21.94945360 -15.14189312
-26.67732732 -2.07052800 54.95803884
-16.44022682 -21.97989299 53.61078681
8.06816781 -25.59832907 45.33430487
30.68607170 12.76823918 54.37264662
2.77685677 23.65307399 47.28366170
3 1 2 7
3 1 7 6
3 2 3 8
3 2 8 7
3 3 4 9
3 3 9 8
3 4 0 5
3 4 5 9
3 0 1 6
3 0 6 5
3 4 3 0
3 0 3 1
3 1 3 2
3 5 8 9
3 6 8 5
3 7 8 6
