ply
format ascii 1.0
comment VCGLIB generated
element vertex 8
property float x
property float y
property float z
element face 12
property list uchar int vertex_indices
end_header
-19.86097968 -29.44626106 9.88600385
24.98272010 -22.27677451 2.64790413
24.35059691 17.26081334 1.37356764
-23.31528973 19.28803548 5.38418869
-22.21681608 -30.15744885 62.26764372
22.41232002 -28.62301086 56.27466922
15.25058692 19.72483111 55.57512692
-31.84481531 16.39361998 57.96594037
3 0 1 5
3 0 5 4
3 1 2 6
3 1 6 5
3 2 3 7
3 2 7 6
3 3 0 4
3 3 4 7
3 2 1 0
3 2 0 3
3 6 4 5
3 6 7 4
