ply
format ascii 1.0
comment VCGLIB generated
element vertex 12
property float x
property float y
property float z
element face 20
property list uchar int vertex_indices
end_header
19.98558852 -1.36111647 -0.53312801
11.80067478 -25.33487860 1.34958639
-16.87406349 -31.21548710 -1.20711141
-25.65252162 -9.67483952 2.50375346
-13.07549746 19.57008216 -5.08307941
15.42194673 11.13239364 -6.11259592
32.21209090 0.79675656 51.31522619
20.71796303 -20.57355529 46.89848630
-16.14277546 -21.29495628 54.89016703
-32.09291471 3.07210682 48.61974057
-10.27454515 31.81592413 49.92202398
6.66481844 15.74927309 48.23470656
3 1 0 7
3 7 0 6
3 2 1 8
3 8 1 7
3 3 2 9
3 9 2 8
3 4 3 10
3 10 3 9
3 5 4 11
3 11 4 10
3 0 5 6
3 6 5 11
3 5 3 4
3 5 2 3
3 0 2 5
3 1 2 0
3 10 9 11
3 11 9 8
3 11 8 6
3 6 8 7
