ply
format ascii 1.0
comment VCGLIB generated
element vertex 8
property float x
property float y
property float z
element face 12
property list uchar int vertex_indices
end_header
-7.31305235 -18.42915992 -1.64763411
14.59927084 -14.99468675 4.70454660
15.27226281 17.07201032 -2.31370784
-15.78965654 20.76421921 -0.55046074
-10.70887348 -10.97108908 41.35579105
11.93804292 -17.14067616 35.76253603
15.11442532 15.67568083 48.04918638
-19.93090475 15.22058594 48.03448097
3 0 1 5
3 0 5 4
3 1 2 6
3 1 6 5
3 2 3 7
3 2 7 6
3 3 0 4
3 3 4 7
3 2 1 0
3 2 0 3
3 6 4 5
3 6 7 4
