ply
format ascii 1.0
comment VCGLIB generated
element vertex 10
property float x
property float y
property float z
element face 16
property list uchar int vertex_indices
end_header
-21.36389261 8.71342798 -2.60540842
-14.88369177 -9.13030232 0.21870211
8.97086918 -14.94227532 -1.17381655
16.41755303 7.89379338 2.83804652
0.71177665 13.40842703 4.23869785
-19.61360108 5.98641769 34.09626640
-14.09901483 -17.56647828 33.91087543
10.32396540 -8.54537761 30.48113132
17.70139448 1.44480040 35.08666510
-3.72992527 16.64555994 32.17129837
3 1 2 7
3 1 7 6
3 2 3 8
3 2 8 7
3 3 4 9
3 3 9 8
3 4 0 5
3 4 5 9
3 0 1 6
3 0 6 5
3 4 3 0
3 0 3 1
3 1 3 2
3 5 8 9
3 6 8 5
3 7 8 6
