ply
format ascii 1.0
comment VCGLIB generated
element vertex 8
property float x
property float y
property float z
element face 12
property list uchar int vertex_indices
end_header
-6.81663742 -12.53004104 -2.75758421
11.47731016 -10.16241530 4.05565180
4.61385019 12.91812077 -4.71116272
-11.80608478 11.08366509 0.65387753
-13.15799991 -12.06083595 35.60273320
7.97655167 -6.24034602 34.80755019
10.47310751 14.34793893 33.42727470
-14.70490530 9.69642256 30.38271887
3 0 1 5
3 0 5 4
3 1 2 6
3 1 6 5
3 2 3 7
3 2 7 6
3 3 0 4
3 3 4 7
3 2 1 0
3 2 0 3
3 6 4 5
3 6 7 4
