ply
format ascii 1.0
comment VCGLIB generated
element vertex 8
property float x
property float y
property float z
element face 12
property list uchar int vertex_indices
end_header
-2.82278524 -4.43556847 -0.27061628
0.96119683 -4.22639365 -0.57433132
4.50154706 3.05740580 -1.55922232
-4.43826556 4.81083605 -0.19348118
-2.00652626 -4.51480356 11.17984983
3.42080437 -3.68121197 13.83707839
3.05582334 4.65247532 11.57281490
-4.30211760 3.66023643 10.45163130
3 0 1 5
3 0 5 4
3 1 2 6
3 1 6 5
3 2 3 7
3 2 7 6
3 3 0 4
3 3 4 7
3 2 1 0
3 2 0 3
3 6 4 5
3 6 7 4
