ply
format ascii 1.0
comment VCGLIB generated
element vertex 10
property float x
property float y
property float z
element face 16
property list uchar int vertex_indices
end_header
-2.78617857 0.50025865 -0.06585260
-0.91700563 -1.26210023 0.29876387
1.17500555 -2.89821327 -0.17644650
2.83055872 1.06237921 -0.71713839
-0.10755460 3.15423528 0.38154025
-2.86061564 0.57122635 5.51430200
-1.64353977 -2.28923782 5.18302248
1.22479458 -2.34839469 5.49514632
2.63119221 0.85617306 5.05383430
-0.19634659 2.85435050 4.93243928
3 1 2 7
3 1 7 6
3 2 3 8
3 2 8 7
3 3 4 9
3 3 9 8
3 4 0 5
3 4 5 9
3 0 1 6
3 0 6 5
3 4 3 0
3 0 3 1
3 1 3 2
3 5 8 9
3 6 8 5
3 7 8 6
