ply
format ascii 1.0
comment VCGLIB generated
element vertex 8
property float x
property float y
property float z
element face 12
property list uchar int vertex_indices
end_header
-11.42516306 -31.91119098 -2.43947452
23.34093205 -26.20569498 1.15222726
15.30776651 26.80761017 6.54287774
-12.76789145 22.79291852 -0.01296210
-18.60819197 -20.12899943 60.07927581
16.67218687 -20.02846244 57.20120482
17.16281021 0.79136632 50.80687952
-24.79321159 18.06382526 58.08769437
3 0 1 5
3 0 5 4
3 1 2 6
3 1 6 5
3 2 3 7
3 2 7 6
3 3 0 4
3 3 4 7
3 2 1 0
3 2 0 3
3 6 4 5
3 6 7 4
