ply
format ascii 1.0
comment VCGLIB generated
element vertex 8
property float x
property float y
property float z
element face 12
property list uchar int vertex_indices
end_header
-16.72930307 -19.81989987 -0.21510028
21.05112702 -23.37166324 -14.19563595
17.82035562 20.18187881 -0.34519244
-15.42801024 26.15284086 9.05489999
-28.11941530 -14.77015794 67.68497646
26.52120324 -19.37069719 62.48674525
26.07615428 21.77871321 48.15111777
-16.23133334 13.84213375 58.32343438
3 0 1 5
3 0 5 4
3 1 2 6
3 1 6 5
3 2 3 7
3 2 7 6
3 3 0 4
3 3 4 7
3 2 1 0
3 2 0 3
3 6 4 5
3 6 7 4
