ply
format ascii 1.0
comment VCGLIB generated
element vertex 10
property float x
property float y
property float z
element face 16
property list uchar int vertex_indices
end_header
-5.42602617 1.69223358 0.96098805
-2.64566699 -3.58347620 -0.43834476
1.74498103 -4.62841086 -0.15934713
5.96840880 -0.14238911 0.20845156
0.98833243 4.41879058 1.86401600
-3.35445191 0.41105624 9.23941911
-2.43506212 -4.59696662 9.95739732
3.84387746 -4.51998066 8.84297071
5.62172874 3.47479212 8.31692486
0.03064236 1.63957724 9.38948284
3 1 2 7
3 1 7 6
3 2 3 8
3 2 8 7
3 3 4 9
3 3 9 8
3 4 0 5
3 4 5 9
3 0 1 6
3 0 6 5
3 4 3 0
3 0 3 1
3 1 3 2
3 5 8 9
3 6 8 5
3 7 8 6
