ply
format ascii 1.0
comment VCGLIB generated
element vertex 10
property float x
property float y
property float z
element face 16
property list uchar int vertex_indices
end_header
-11.94796331 5.49297912 -1.43233121
-5.86049304 -7.24488092 -1.13763221
9.10038811 -9.41356600 -1.31662160
11.82479572 1.37284582 2.36013437
-2.27122408 14.08353219 2.69445569
-13.86436752 0.28239816 23.95024294
-8.21276831 -16.54787970 26.16720350
6.35886965 -12.54128264 27.36016154
12.59852127 5.86244861 23.04437967
-0.50761681 6.86317058 27.40814053
3 1 2 7
3 1 7 6
3 2 3 8
3 2 8 7
3 3 4 9
3 3 9 8
3 4 0 5
3 4 5 9
3 0 1 6
3 0 6 5
3 4 3 0
3 0 3 1
3 1 3 2
3 5 8 9
3 6 8 5
3 7 8 6
