ply
format ascii 1.0
comment VCGLIB generated
element vertex 12
property float x
property float y
property float z
element face 20
property list uchar int vertex_indices
end_header
14.44139042 -0.09938527 -5.49411083
8.48156796 -15.85025072 -9.25834579
-5.10561734 -14.96118165 -2.58184754
-16.93391744 2.77965090 3.11751901
-10.02946778 16.42793698 5.87989189
9.11872514 14.04788315 -4.62959183
11.58473735 -3.86560917 32.77327220
11.12221634 -15.94024177 34.17853209
-7.78800125 -16.89761426 35.59502579
-22.02114391 -0.53064359 33.06505866
-8.11436878 14.16957626 38.67399914
11.03212295 15.42032630 39.99703283
3 1 0 7
3 7 0 6
3 2 1 8
3 8 1 7
3 3 2 9
3 9 2 8
3 4 3 10
3 10 3 9
3 5 4 11
3 11 4 10
3 0 5 6
3 6 5 11
3 5 3 4
3 5 2 3
3 0 2 5
3 1 2 0
3 10 9 11
3 11 9 8
3 11 8 6
3 6 8 7
