ply
format ascii 1.0
comment VCGLIB generated
element vertex 8
property float x
property float y
property float z
element face 12
property list uchar int vertex_indices
end_header
-13.58318365 -15.87667966 -0.61174715
13.83142596 -8.89034965 2.60579725
11.85298847 12.22182128 -2.51755776
-7.48841482 15.81179813 -5.84600857
-10.59329764 -9.32794344 42.43523099
12.77566303 -15.70805611 49.30141586
13.96380089 18.19648158 43.34056482
-17.04505080 16.31509505 43.80187030
3 0 1 5
3 0 5 4
3 1 2 6
3 1 6 5
3 2 3 7
3 2 7 6
3 3 0 4
3 3 4 7
3 2 1 0
3 2 0 3
3 6 4 5
3 6 7 4
