ply
format ascii 1.0
comment VCGLIB generated
element vertex 12
property float x
property float y
property float z
element face 20
property list uchar int vertex_indices
end_header
8.17835103 -1.53668984 -0.54590418
4.65693189 -9.13095506 -1.37387821
-6.80102664 -9.39472469 -1.09849009
-8.95333238 -2.29224711 1.37485502
-2.45140395 8.33912009 -6.00200498
7.55908255 10.24671981 0.46579120
10.30905903 -1.62792055 16.00865581
8.53675606 -7.71784515 17.55673942
-5.70054342 -7.83850509 18.85606837
-10.05237565 0.31535347 21.43223852
-2.40191416 12.62632761 22.05063089
3.60389784 7.18769980 22.80745167
3 1 0 7
3 7 0 6
3 2 1 8
3 8 1 7
3 3 2 9
3 9 2 8
3 4 3 10
3 10 3 9
3 5 4 11
3 11 4 10
3 0 5 6
3 6 5 11
3 5 3 4
3 5 2 3
3 0 2 5
3 1 2 0
3 10 9 11
3 11 9 8
3 11 8 6
3 6 8 7
