ply
format ascii 1.0
comment VCGLIB generated
element vertex 8
property float x
property float y
property float z
element face 12
property list uchar int vertex_indices
end_header
-5.99421456 -5.22203340 -4.01482979
7.51554135 -9.11155958 -1.93426441
10.39476766 8.35581309 -3.86265515
-6.51341294 12.55697347 3.02268490
-12.69500857 -8.11517520 22.61719112
8.13110018 -8.72537645 18.87456448
7.87917288 7.24890639 23.36149709
-7.21780944 8.26640453 26.43967667
3 0 1 5
3 0 5 4
3 1 2 6
3 1 6 5
3 2 3 7
3 2 7 6
3 3 0 4
3 3 4 7
3 2 1 0
3 2 0 3
3 6 4 5
3 6 7 4
