ply
format ascii 1.0
comment VCGLIB generated
element vertex 8
property float x
property float y
property float z
element face 12
property list uchar int vertex_indices
end_header
-19.31210409 -23.69886361 -5.95367947
19.18665383 -24.23007179 -3.70606078
18.39495234 11.42512322 6.97162265
-19.01551554 16.59270111 4.36651804
-29.08281220 -16.12537637 50.49096239
19.23297493 -17.97656946 49.49960565
13.43978103 9.00669590 62.95543655
-27.01051923 20.09439484 49.87866717
3 0 1 5
3 0 5 4
3 1 2 6
3 1 6 5
3 2 3 7
3 2 7 6
3 3 0 4
3 3 4 7
3 2 1 0
3 2 0 3
3 6 4 5
3 6 7 4
