ply
format ascii 1.0
comment VCGLIB generated
element vertex 8
property float x
property float y
property float z
element face 12
property list uchar int vertex_indices
end_header
-13.86812398 -12.26087012 4.82361472
8.70308789 -13.61408791 2.16071280
7.08139422 14.52672541 3.25192475
-10.58312703 8.36616176 -2.10233144
-8.30188968 -12.28265426 31.34861351
9.96354455 -10.59677545 30.36692779
6.40845248 5.49416723 27.10061111
-9.82220787 10.39990296 28.71808552
3 0 1 5
3 0 5 4
3 1 2 6
3 1 6 5
3 2 3 7
3 2 7 6
3 3 0 4
3 3 4 7
3 2 1 0
3 2 0 3
3 6 4 5
3 6 7 4
