ply
format ascii 1.0
comment VCGLIB generated
element vertex 12
property float x
property float y
property float z
element face 20
property list uchar int vertex_indices
end_header
5.71743695 0.84929443 -0.11033551
3.19679637 -5.46798298 -0.30717437
-0.58325090 -4.97688087 0.22501311
-7.19694721 0.52601080 -0.13531065
-2.88943707 3.72542003 0.32917185
1.08687188 4.75155808 0.58000337
4.10240622 1.41551758 11.66793964
3.88865014 -4.74526216 10.80383041
-3.51102157 -4.88849752 10.75096991
-5.60054942 0.69567594 11.04200262
-2.03896443 4.22531217 11.49850409
2.90929454 5.95534258 10.59522628
3 1 0 7
3 7 0 6
3 2 1 8
3 8 1 7
3 3 2 9
3 9 2 8
3 4 3 10
3 10 3 9
3 5 4 11
3 11 4 10
3 0 5 6
3 6 5 11
3 5 3 4
3 5 2 3
3 0 2 5
3 1 2 0
3 10 9 11
3 11 9 8
3 11 8 6
3 6 8 7
