ply
format ascii 1.0
comment VCGLIB generated
element vertex 8
property float x
property float y
property float z
element face 12
property list uchar int vertex_indices
end_header
-2.96027241 -2.61973447 0.09150698
5.94320238 -4.57423354 0.50103912
2.70607240 4.05608015 -0.35373611
-1.68901721 4.03140990 0.39472393
-3.87027436 -1.38104854 9.53005178
3.20720536 -3.64671757 9.88196317
3.71864040 2.84283388 10.97822332
-5.92094943 5.34897876 10.43751201
3 0 1 5
3 0 5 4
3 1 2 6
3 1 6 5
3 2 3 7
3 2 7 6
3 3 0 4
3 3 4 7
3 2 1 0
3 2 0 3
3 6 4 5
3 6 7 4
