ply
format ascii 1.0
comment VCGLIB generated
element vertex 12
property float x
property float y
property float z
element face 20
property list uchar int vertex_indices
end_header
16.44306455 3.61107987 -1.65574793
13.68499426 -9.59166528 -4.97017646
-8.22349992 -27.00597674 -3.78922836
-18.04562119 5.82919447 -0.31577845
-6.83087438 22.25657514 -0.16533069
9.61792003 24.68921552 3.34219258
21.60282523 -1.12451700 44.57086528
9.44503685 -15.09327579 39.99132013
-13.05296566 -14.34424134 38.33848421
-31.37210231 7.91309168 39.55956442
-13.42056704 14.46206309 51.47236504
6.61992301 23.28594570 39.84575456
3 1 0 7
3 7 0 6
3 2 1 8
3 8 1 7
3 3 2 9
3 9 2 8
3 4 3 10
3 10 3 9
3 5 4 11
3 11 4 10
3 0 5 6
3 6 5 11
3 5 3 4
3 5 2 3
3 0 2 5
3 1 2 0
3 10 9 11
3 11 9 8
3 11 8 6
3 6 8 7
