ply
format ascii 1.0
comment VCGLIB generated
element vertex 10
property float x
property float y
property float z
element face 16
property list uchar int vertex_indices
end_header
-21.78318926 4.51768514 -8.47043016
-17.93465231 -5.86641801 -6.77915263
26.10759760 -16.06157368 0.86018956
15.70647558 7.61548438 6.14773221
1.12639973 21.05216691 7.01540972
-27.34659050 8.78902580 52.39216460
-19.43839239 -19.94929401 41.49230585
7.21052066 -21.04565315 54.44889268
18.31540256 14.48153213 43.62969445
-5.69110573 28.31305504 57.25003218
3 1 2 7
3 1 7 6
3 2 3 8
3 2 8 7
3 3 4 9
3 3 9 8
3 4 0 5
3 4 5 9
3 0 1 6
3 0 6 5
3 4 3 0
3 0 3 1
3 1 3 2
3 5 8 9
3 6 8 5
3 7 8 6
