ply
format ascii 1.0
comment VCGLIB generated
element vertex 10
property float x
property float y
property float z
element face 16
property list uchar int vertex_indices
end_header
-12.87876046 8.69305091 0.19077720
-10.68802108 -9.54823952 2.71657248
13.74621248 -16.58469714 1.27722792
17.38109472 6.04933885 -0.95242887
0.97262788 15.22446954 -2.43474585
-14.92358662 -0.94379148 27.90581589
-8.71215844 -12.93402243 26.45134631
8.09862684 -11.42693435 36.32163433
15.13412708 5.97620373 22.60349238
2.59447670 13.86825957 30.90012544
3 1 2 7
3 1 7 6
3 2 3 8
3 2 8 7
3 3 4 9
3 3 9 8
3 4 0 5
3 4 5 9
3 0 1 6
3 0 6 5
3 4 3 0
3 0 3 1
3 1 3 2
3 5 8 9
3 6 8 5
3 7 8 6
