ply
format ascii 1.0
comment VCGLIB generated
element vertex 10
property float x
property float y
property float z
element face 16
property list uchar int vertex_indices
end_header
-16.02047128 9.79300634 -2.18066219
-13.68476307 -19.10148156 1.76723384
11.67187128 -17.75842101 -1.45420772
14.84591326 2.52783626 -1.25729260
-0.74853069 18.43809779 -1.21746082
-16.00986164 3.83863580 36.03973325
-18.41033149 -12.19932665 34.54994657
11.32985435 -21.28807396 39.49444548
21.03003219 8.94516979 32.94343535
-1.15201395 16.37637476 37.30495618
3 1 2 7
3 1 7 6
3 2 3 8
3 2 8 7
3 3 4 9
3 3 9 8
3 4 0 5
3 4 5 9
3 0 1 6
3 0 6 5
3 4 3 0
3 0 3 1
3 1 3 2
3 5 8 9
3 6 8 5
3 7 8 6
