ply
format ascii 1.0
comment VCGLIB generated
element vertex 10
property float x
property float y
property float z
element face 16
property list uchar int vertex_indices
end_header
-12.69398816 1.28836027 -3.42145223
-7.27654435 -8.03734905 0.29319361
5.19940883 -13.32141473 -2.08558042
6.30784927 0.43199818 4.06164426
3.25346381 8.27420191 0.21196049
-8.38989997 1.50403206 22.33060187
-3.15027927 -7.96064551 22.08848755
1.98589844 -6.10953051 20.54081927
9.33971053 1.94701420 22.36104498
1.00904177 13.02956243 21.56049378
3 1 2 7
3 1 7 6
3 2 3 8
3 2 8 7
3 3 4 9
3 3 9 8
3 4 0 5
3 4 5 9
3 0 1 6
3 0 6 5
3 4 3 0
3 0 3 1
3 1 3 2
3 5 8 9
3 6 8 5
3 7 8 6
