ply
format ascii 1.0
comment VCGLIB generated
element vertex 8
property float x
property float y
property float z
element face 12
property list uchar int vertex_indices
end_header
-4.21693286 -3.27750847 0.41789089
1.98828254 -2.07243642 0.01284753
4.53361158 3.16584878 0.17704349
-4.66958625 4.07298027 -1.56017025
-2.86296395 -2.46655746 7.20502780
2.50666506 -4.55820387 10.02261663
3.66980317 6.13079495 9.53843976
-1.77175441 3.00276584 7.88342073
3 0 1 5
3 0 5 4
3 1 2 6
3 1 6 5
3 2 3 7
3 2 7 6
3 3 0 4
3 3 4 7
3 2 1 0
3 2 0 3
3 6 4 5
3 6 7 4
