ply
format ascii 1.0
comment VCGLIB generated
element vertex 12
property float x
property float y
property float z
element face 20
property list uchar int vertex_indices
end_header
21.18905936 -2.86060637 2.61114895
4.88968028 -17.42828800 -0.30609221
-8.05497428 -16.17278311 -0.95400992
-15.79167990 0.52584460 -2.74432673
-8.40592892 15.82930490 -1.15522182
9.13293106 20.92469039 -2.05932707
24.04682362 1.82017811 37.32997632
3.14693035 -17.60972996 37.42611600
-2.41524260 -13.09109166 34.06510731
-17.92794134 -3.26665499 30.98308992
-5.43701625 13.96522668 34.03315115
4.91539743 13.52201129 36.09364125
3 1 0 7
3 7 0 6
3 2 1 8
3 8 1 7
3 3 2 9
3 9 2 8
3 4 3 10
3 10 3 9
3 5 4 11
3 11 4 10
3 0 5 6
3 6 5 11
3 5 3 4
3 5 2 3
3 0 2 5
3 1 2 0
3 10 9 11
3 11 9 8
3 11 8 6
3 6 8 7
