ply
format ascii 1.0
comment VCGLIB generated
element vertex 10
property float x
property float y
property float z
element face 16
property list uchar int vertex_indices
end_header
-26.34597869 9.90518278 0.80301306
-7.62857504 -8.38572766 -3.59338126
21.46637654 -15.80806520 -2.18141983
35.13060380 -0.22428739 -4.86023405
-8.63657945 19.64733854 -0.03603875
-26.56625881 4.67077301 50.34568918
-14.18163840 -20.30274798 57.06782432
15.51089415 -16.64778193 55.68939468
19.37486763 2.93624456 50.29825802
-2.00258098 24.83863874 58.17644579
3 1 2 7
3 1 7 6
3 2 3 8
3 2 8 7
3 3 4 9
3 3 9 8
3 4 0 5
3 4 5 9
3 0 1 6
3 0 6 5
3 4 3 0
3 0 3 1
3 1 3 2
3 5 8 9
3 6 8 5
3 7 8 6
