ply
format ascii 1.0
comment VCGLIB generated
element vertex 8
property float x
property float y
property float z
element face 12
property list uchar int vertex_indices
end_header
-7.94605925 -25.08883656 -2.04959637
23.27132716 -26.13175865 1.25765638
18.58707990 30.98141108 1.77896253
-14.67673675 22.53314928 -1.45005045
-16.28261578 -17.64675970 59.94052123
21.90654233 -29.65200796 57.58000306
18.04618202 14.26647397 47.23377225
-14.91443692 18.57443123 63.88753771
3 0 1 5
3 0 5 4
3 1 2 6
3 1 6 5
3 2 3 7
3 2 7 6
3 3 0 4
3 3 4 7
3 2 1 0
3 2 0 3
3 6 4 5
3 6 7 4
