ply
format ascii 1.0
comment VCGLIB generated
element vertex 8
property float x
property float y
property float z
element face 12
property list uchar int vertex_indices
end_header
-5.23044861 -10.67981636 4.92345211
10.96747265 -12.58648574 -0.34864222
9.64393336 6.90751098 -1.50197517
-9.16665234 9.19459535 0.66913434
-11.18303624 -10.61431664 23.95413840
12.49519015 -3.69848240 27.05306949
5.82451405 11.56118816 26.42495427
-11.99535800 9.26298370 28.26437244
3 0 1 5
3 0 5 4
3 1 2 6
3 1 6 5
3 2 3 7
3 2 7 6
3 3 0 4
3 3 4 7
3 2 1 0
3 2 0 3
3 6 4 5
3 6 7 4
