ply
format ascii 1.0
comment VCGLIB generated
element vertex 10
property float x
property float y
property float z
element face 16
property list uchar int vertex_indices
end_header
-12.65894237 -0.00665376 -1.48378378
-8.39751745 -11.75209004 0.85226157
8.02217497 -13.35526633 -2.30840060
6.90739194 5.13870154 -1.57127997
4.00267433 7.87940084 1.51756656
-12.71885182 5.74513127 24.10955020
-8.23497184 -7.02505088 23.90562926
9.23607748 -11.86242536 19.45310558
12.97779335 5.91126652 23.34921742
0.28707715 8.80119844 23.39529318
3 1 2 7
3 1 7 6
3 2 3 8
3 2 8 7
3 3 4 9
3 3 9 8
3 4 0 5
3 4 5 9
3 0 1 6
3 0 6 5
3 4 3 0
3 0 3 1
3 1 3 2
3 5 8 9
3 6 8 5
3 7 8 6
