ply
format ascii 1.0
comment VCGLIB generated
element vertex 10
property float x
property float y
property float z
element face 16
property list uchar int vertex_indices
end_header
-8.55085549 3.09235729 1.38019640
-2.25239160 -8.46432491 -1.00654789
6.24647613 -6.11513205 1.86751105
7.03274670 5.58903436 -0.61542035
-0.60663644 7.69081044 -3.63002054
-9.17413848 3.49844602 16.43339572
-5.87591268 -0.43823233 17.09437423
4.13879530 -7.79110420 13.29178709
10.79157124 1.98539154 17.32431547
0.44612639 4.55949440 16.72165335
3 1 2 7
3 1 7 6
3 2 3 8
3 2 8 7
3 3 4 9
3 3 9 8
3 4 0 5
3 4 5 9
3 0 1 6
3 0 6 5
3 4 3 0
3 0 3 1
3 1 3 2
3 5 8 9
3 6 8 5
3 7 8 6
