ply
format ascii 1.0
comment VCGLIB generated
element vertex 10
property float x
property float y
property float z
element face 16
property list uchar int vertex_indices
end_header
-16.08582087 8.38205579 3.44630602
-15.33381300 -17.05463115 4.12907450
19.23355562 -16.81800187 -3.38366332
20.09453804 11.09329776 0.29004569
-0.45869944 13.33306980 -0.45255426
-16.67635427 10.07425875 36.38763006
-17.63967840 -18.86635601 39.81231471
14.45390167 -17.80988849 43.85323561
18.55399149 1.21873188 47.31570261
4.64966743 14.86343442 45.21465309
3 1 2 7
3 1 7 6
3 2 3 8
3 2 8 7
3 3 4 9
3 3 9 8
3 4 0 5
3 4 5 9
3 0 1 6
3 0 6 5
3 4 3 0
3 0 3 1
3 1 3 2
3 5 8 9
3 6 8 5
3 7 8 6
