ply
format ascii 1.0
comment VCGLIB generated
element vertex 10
property float x
property float y
property float z
element face 16
property list uchar int vertex_indices
end_header
-6.14556124 2.29682442 -1.53133888
-3.26430147 -4.66684565 0.28135306
3.79773020 -4.85870047 -1.58439483
6.81695044 -0.30733784 -1.44531065
0.70200441 6.84107473 0.11851473
-7.76664026 1.27101028 13.72686146
-2.94988005 -6.99521382 13.03228035
4.29116743 -4.53335753 10.80287251
4.90286511 3.56515976 12.54641842
0.32339925 5.79274615 12.50415074
3 1 2 7
3 1 7 6
3 2 3 8
3 2 8 7
3 3 4 9
3 3 9 8
3 4 0 5
3 4 5 9
3 0 1 6
3 0 6 5
3 4 3 0
3 0 3 1
3 1 3 2
3 5 8 9
3 6 8 5
3 7 8 6
