ply
format ascii 1.0
comment VCGLIB generated
element vertex 12
property float x
property float y
property float z
element face 20
property list uchar int vertex_indices
end_header
24.53307451 4.82553623 4.44091308
15.89690638 -25.33861916 -3.78029819
-11.02821324 -23.35140204 -7.37921673
-23.42296377 1.61727237 -0.18619339
-17.53293240 22.11724530 6.96514936
-0.23750464 16.56513094 2.22551910
25.85162823 0.98812157 38.50984821
11.24443612 -26.95567407 45.97908388
-12.60543909 -14.45446381 47.85980594
-26.86159291 -4.16380044 44.00622822
-18.95751480 11.58688388 40.77984840
10.73819485 24.30294523 36.45281282
3 1 0 7
3 7 0 6
3 2 1 8
3 8 1 7
3 3 2 9
3 9 2 8
3 4 3 10
3 10 3 9
3 5 4 11
3 11 4 10
3 0 5 6
3 6 5 11
3 5 3 4
3 5 2 3
3 0 2 5
3 1 2 0
3 10 9 11
3 11 9 8
3 11 8 6
3 6 8 7
